<svg xmlns="http://www.w3.org/2000/svg" width="330" height="296.755" viewBox="0 0 330 296.755"><g transform="translate(-9.686 -41.758)"><g transform="translate(9.686 152.187)"><ellipse cx="165" cy="93.163" rx="165" ry="93.163" fill="#e6e6e6"/><ellipse cx="165" cy="93.163" rx="165" ry="93.163" fill="#e6e6e6" opacity="0.8"/></g><g transform="translate(32.717 149.533)"><path d="M270.307,315.862l31.179-18a1.559,1.559,0,0,1,1.413,0l45.6,26.377a.431.431,0,0,1,0,.817l-31.179,18a1.56,1.56,0,0,1-1.413,0l-45.6-26.378A.431.431,0,0,1,270.307,315.862Z" transform="translate(-113.813 -229.261)" opacity="0.1"/><g opacity="0.1"><path d="M56.807,325.356,43.723,317.8a.862.862,0,0,1,0-1.632L202.651,224.4a3.123,3.123,0,0,1,2.827,0l13.092,7.559a.861.861,0,0,1,0,1.632L59.634,325.356A3.122,3.122,0,0,1,56.807,325.356Z" transform="translate(-43.138 -206.325)"/><path d="M259.957,214.841l28.173-16.272a2.5,2.5,0,0,1,2.261,0L325,218.556a.689.689,0,0,1,0,1.306l-28.173,16.274a2.5,2.5,0,0,1-2.262,0l-34.611-19.989A.69.69,0,0,1,259.957,214.841Z" transform="translate(-110.535 -198.298)"/></g><path d="M159.116,410.023,194.625,389.4a3.026,3.026,0,0,1,2.74,0l41.942,24.22a.836.836,0,0,1,0,1.583L203.8,435.826a3.026,3.026,0,0,1-2.74,0L159.116,411.6A.835.835,0,0,1,159.116,410.023Z" transform="translate(-79.09 -257.729)" opacity="0.1"/><path d="M90.167,389.219l-7.781-4.492a.861.861,0,0,1,0-1.632l47.558-27.458a3.127,3.127,0,0,1,2.827,0l7.781,4.492a.862.862,0,0,1,0,1.632L92.994,389.219A3.122,3.122,0,0,1,90.167,389.219Z" transform="translate(-55.182 -247.206)" opacity="0.1"/><path d="M178.4,337.618l-7.782-4.492a.861.861,0,0,1,0-1.632l51.77-29.945a3.123,3.123,0,0,1,2.827,0L233,306.041a.861.861,0,0,1,0,1.632l-51.769,29.945A3.123,3.123,0,0,1,178.4,337.618Z" transform="translate(-82.667 -230.357)" opacity="0.1"/><path d="M394.328,376.192A24.57,24.57,0,0,1,383.045,374c-1.1-.554-2.271-1.5-2.129-2.722.127-1.1,1.267-1.775,2.333-2.071,2.151-.6,4.441-.349,6.658-.614,3.515-.421,6.734-2.114,10.132-3.1q1.028-.3,2.077-.518a37.313,37.313,0,0,1,8.13-.678,15.7,15.7,0,0,1,3.349.281c1.367.293,2.735.577,4.11.834,5.436,1.02,11.042,1.652,16.541.74a11.2,11.2,0,0,1,4.322-.251c1,.231,2.525,1.183,2.549,2.37.019.924-1.389,2.127-2.031,2.7-4.247,3.772-10.173,5.075-15.852,5.224s-11.346-.708-17.026-.618c-3.916.063-7.816.576-11.732.617Z" transform="translate(-148.357 -250.008)" opacity="0.1"/></g><g transform="translate(16.217 203.616)"><g transform="translate(0)"><path d="M52.673,315.458c.5-5.71-2.59-17.9-7.865-25.837s-14.115-14.176-20.933-12.493c-6.35,1.568-6.392,9.713.616,15.728s17.659,13.735,20.134,23.287l5.9,11.971Z" transform="translate(-19.171 -276.851)" fill="#27debf"/><path d="M52.673,315.458c.5-5.71-2.59-17.9-7.865-25.837s-14.115-14.176-20.933-12.493c-6.35,1.568-6.392,9.713.616,15.728s17.659,13.735,20.134,23.287l5.9,11.971Z" transform="translate(-19.171 -276.851)" opacity="0.1"/><g transform="translate(7.029 3.9)"><path d="M55.588,325.074a.418.418,0,0,1-.346-.368c-2.112-19.83-16.491-37.06-25.622-41.39a.419.419,0,0,1-.2-.558.413.413,0,0,1,.558-.2c9.306,4.412,23.952,21.928,26.1,42.058a.418.418,0,0,1-.371.461A.375.375,0,0,1,55.588,325.074Z" transform="translate(-29.38 -282.516)" fill="#fff"/></g><g transform="translate(1.67 24.916)"><path d="M49.16,346.806c-.635-3.291-4.091-8.932-10.048-13.865-6.59-5.457-15.273-8.463-16.989-12.41-2.061-4.742,2.13-8.683,9.258-7.157s18.934,12.472,19.66,27.453Z" transform="translate(-21.597 -313.04)" fill="#27debf"/><g transform="translate(6.016 3.892)"><path d="M53.573,345.321a.419.419,0,0,1-.335-.308c-4.512-17.225-16.739-24.206-22.573-25.491a.418.418,0,0,1-.319-.5.413.413,0,0,1,.5-.319c6.451,1.42,18.6,8.514,23.2,26.1a.419.419,0,0,1-.3.512A.411.411,0,0,1,53.573,345.321Z" transform="translate(-30.336 -318.694)" fill="#fff"/></g></g></g></g><g transform="translate(184.925 108.031)"><g transform="translate(0 22.318)"><path d="M312.085,233.423V213.6l25.755-14.87v19.826Z" transform="translate(-279.127 -179.247)" fill="#27debf"/><path d="M297.518,211.914l-32.194-18.587v19.826l32.194,18.587Z" transform="translate(-264.56 -177.565)" fill="#27debf"/><path d="M297.518,211.914l-32.194-18.587v19.826l32.194,18.587Z" transform="translate(-264.56 -177.565)" opacity="0.15"/><path d="M297.173,204.782l26.518-15.317-32.957-19.032-26.518,15.317Z" transform="translate(-264.215 -170.433)" fill="#27debf"/><path d="M297.173,204.782l26.518-15.317-32.957-19.032-26.518,15.317Z" transform="translate(-264.215 -170.433)" fill="#fff" opacity="0.45"/><path d="M312.085,213.394v4.957L338.6,203.04v-4.963Z" transform="translate(-279.127 -179.045)" fill="#27debf"/><path d="M312.085,220.8l25.755-14.87v1.09l-25.755,14.87Z" transform="translate(-279.127 -181.49)" opacity="0.2"/><path d="M264.215,192.681l32.958,19.032v4.957l-32.958-19.028Z" transform="translate(-264.215 -177.364)" fill="#27debf"/><path d="M264.215,192.681l32.958,19.032v4.957l-32.958-19.028Z" transform="translate(-264.215 -177.364)" opacity="0.2"/><path d="M297.518,219.114l-32.195-18.587v1.09L297.517,220.2Z" transform="translate(-264.56 -179.808)" opacity="0.2"/><path d="M324.089,222.36l8.8-5.08c.379-.219.686-.041.686.4v5.2a1.517,1.517,0,0,1-.686,1.189l-8.8,5.08c-.379.218-.686.041-.686-.4v-5.2A1.517,1.517,0,0,1,324.089,222.36Z" transform="translate(-282.653 -184.998)" fill="#455a64"/><path d="M325.011,223.526l7.67-4.429c.253-.146.458-.028.458.264v3.9a1.013,1.013,0,0,1-.458.793l-7.67,4.428c-.253.145-.457.028-.457-.264v-3.9A1.011,1.011,0,0,1,325.011,223.526Z" transform="translate(-283.012 -185.573)" fill="#f5f5f5"/><g transform="translate(42.102 34.577)" opacity="0.5"><path d="M325.479,225.061a.111.111,0,0,1-.1-.056.112.112,0,0,1,.041-.153l7.243-4.181a.111.111,0,0,1,.152.041.113.113,0,0,1-.041.153l-7.243,4.181A.108.108,0,0,1,325.479,225.061Z" transform="translate(-325.367 -220.656)" fill="#455a64"/><g transform="translate(0 0.958)"><path d="M325.479,226.451a.11.11,0,0,1-.1-.056.111.111,0,0,1,.041-.152l7.243-4.181a.111.111,0,1,1,.112.193l-7.243,4.181A.108.108,0,0,1,325.479,226.451Z" transform="translate(-325.367 -222.047)" fill="#455a64"/></g><g transform="translate(0 1.915)"><path d="M325.479,227.842a.111.111,0,0,1-.056-.208l7.243-4.181a.111.111,0,1,1,.112.193l-7.243,4.181A.108.108,0,0,1,325.479,227.842Z" transform="translate(-325.367 -223.438)" fill="#455a64"/></g><g transform="translate(0 2.873)"><path d="M325.479,229.233a.111.111,0,0,1-.056-.208l7.243-4.181a.111.111,0,1,1,.112.193l-7.243,4.181A.108.108,0,0,1,325.479,229.233Z" transform="translate(-325.367 -224.829)" fill="#455a64"/></g></g></g><path d="M312.085,201.006V181.18l25.755-14.87v19.826Z" transform="translate(-279.127 -146.831)" fill="#27debf"/><path d="M297.518,179.5,265.323,160.91v19.826l32.194,18.587Z" transform="translate(-264.56 -145.148)" fill="#27debf"/><path d="M297.518,179.5,265.323,160.91v19.826l32.194,18.587Z" transform="translate(-264.56 -145.148)" opacity="0.15"/><path d="M297.173,172.366l26.518-15.317-32.957-19.032-26.518,15.317Z" transform="translate(-264.215 -138.017)" fill="#27debf"/><path d="M297.173,172.366l26.518-15.317-32.957-19.032-26.518,15.317Z" transform="translate(-264.215 -138.017)" fill="#fff" opacity="0.6"/><path d="M312.085,180.977v4.957L338.6,170.623V165.66Z" transform="translate(-279.127 -146.628)" fill="#27debf"/><path d="M312.085,188.379l25.755-14.87v1.09l-25.755,14.87Z" transform="translate(-279.127 -149.073)" opacity="0.2"/><path d="M264.215,160.264,297.173,179.3v4.957l-32.958-19.028Z" transform="translate(-264.215 -144.947)" fill="#27debf"/><path d="M264.215,160.264,297.173,179.3v4.957l-32.958-19.028Z" transform="translate(-264.215 -144.947)" opacity="0.2"/><path d="M297.518,186.7,265.323,168.11v1.09l32.194,18.587Z" transform="translate(-264.56 -147.391)" opacity="0.2"/><path d="M324.089,189.943l8.8-5.079c.379-.219.686-.042.686.4v5.2a1.517,1.517,0,0,1-.686,1.189l-8.8,5.079c-.379.219-.686.041-.686-.4v-5.2A1.517,1.517,0,0,1,324.089,189.943Z" transform="translate(-282.653 -152.581)" fill="#455a64"/><path d="M325.011,191.109l7.67-4.428c.253-.146.458-.028.458.264v3.9a1.012,1.012,0,0,1-.458.792l-7.67,4.428c-.253.146-.457.028-.457-.264v-3.9A1.011,1.011,0,0,1,325.011,191.109Z" transform="translate(-283.012 -153.157)" fill="#f5f5f5"/><g transform="translate(42.102 34.578)" opacity="0.5"><path d="M325.479,192.644a.111.111,0,0,1-.056-.208l7.243-4.181a.11.11,0,0,1,.152.041.112.112,0,0,1-.041.152l-7.243,4.181A.108.108,0,0,1,325.479,192.644Z" transform="translate(-325.367 -188.24)" fill="#455a64"/><g transform="translate(0 0.957)"><path d="M325.479,194.035a.111.111,0,0,1-.056-.208l7.243-4.182a.112.112,0,0,1,.112.193l-7.243,4.181A.108.108,0,0,1,325.479,194.035Z" transform="translate(-325.367 -189.63)" fill="#455a64"/></g><g transform="translate(0 1.915)"><path d="M325.479,195.425a.11.11,0,0,1-.1-.056.111.111,0,0,1,.041-.152l7.243-4.181a.112.112,0,0,1,.152.041.113.113,0,0,1-.041.153l-7.243,4.181A.107.107,0,0,1,325.479,195.425Z" transform="translate(-325.367 -191.021)" fill="#455a64"/></g><g transform="translate(0 2.873)"><path d="M325.479,196.816a.111.111,0,0,1-.056-.208l7.243-4.181a.111.111,0,0,1,.112.193l-7.243,4.181A.108.108,0,0,1,325.479,196.816Z" transform="translate(-325.367 -192.413)" fill="#455a64"/></g></g></g><g transform="translate(44.92 41.758)"><path d="M63.67,142.355c-.713-.412-2.8-2.315-2.8-3.193v-8.293a3.042,3.042,0,0,1,1.376-2.384L211.851,42.113c.761-.439,1.727-.746,4.18.809a3.049,3.049,0,0,1,1.291,2.335v8.293a3.042,3.042,0,0,1-1.376,2.384L66.337,142.306A2.952,2.952,0,0,1,63.67,142.355Z" transform="translate(-60.863 -41.758)" fill="#27debf"/><path d="M217.489,45.038c-.1-.713-.674-.973-1.36-.572L66.519,130.837a2.926,2.926,0,0,0-.973,1.03l-4.093-2.352a2.847,2.847,0,0,1,.973-1.024L212.035,42.12c.757-.439,1.809-.713,4.176.808A3.066,3.066,0,0,1,217.489,45.038Z" transform="translate(-61.046 -41.763)" fill="#fff" opacity="0.5"/><path d="M66.074,313.7a.208.208,0,0,1-.057.019.592.592,0,0,1-.134.051.478.478,0,0,1-.1.032.853.853,0,0,1-.191.045.419.419,0,0,1-.127.025c-.064.012-.14.025-.21.032a3.211,3.211,0,0,1-1.584-.273c-2.58-1.1-2.8-2.314-2.8-3.192l-.006-112.723,4.1,2.353V312.781c0,.623.311.986.763.986a.609.609,0,0,0,.185-.025.058.058,0,0,0,.032-.006A.543.543,0,0,0,66.074,313.7Z" transform="translate(-60.862 -90.34)" fill="#e6e6e6"/><path d="M65.362,171.567a2.8,2.8,0,0,0-.4,1.354v18.266l-4.1-2.353V170.575a1.473,1.473,0,0,1,.006-.165,3.341,3.341,0,0,1,.057-.344,3.379,3.379,0,0,1,.344-.852Z" transform="translate(-60.862 -81.463)" fill="#263238" opacity="0.1"/><g transform="translate(4.099 10.853)"><path d="M219.179,181.149a3.04,3.04,0,0,1-1.38,2.384L68.19,269.9c-.757.439-1.374.083-1.374-.8V145.483l3.789-2.187c.756-.439,1.99-7.114,2.753-7.553L106.2,116.783c.763-.439,2.555,4.49,3.312,4.051L219.172,57.522v10.91Z" transform="translate(-66.816 -57.522)" fill="#f0f0f0"/></g><g transform="translate(9.264 114.332)"><path d="M75.693,224.312l28.236-16.3c.76-.439,1.376-.083,1.376.794v80.317a3.043,3.043,0,0,1-1.376,2.384l-28.236,16.3c-.76.439-1.376.083-1.376-.794V226.7A3.042,3.042,0,0,1,75.693,224.312Z" transform="translate(-74.317 -207.822)" fill="#fafafa"/></g><g transform="translate(45.417 108.741)"><path d="M128.205,227.746l48.16-27.857c.761-.439,1.377-.083,1.377.795v53.479a3.04,3.04,0,0,1-1.377,2.384L128.207,284.4c-.76.439-1.376.083-1.376-.795V230.13A3.043,3.043,0,0,1,128.205,227.746Z" transform="translate(-126.829 -199.701)" fill="#fafafa"/></g><g transform="translate(100.386 76.755)"><path d="M208.046,181.287l48.16-27.857c.76-.439,1.376-.083,1.376.795V207.7a3.043,3.043,0,0,1-1.376,2.384l-48.159,27.857c-.76.439-1.376.083-1.376-.794l0-53.48A3.044,3.044,0,0,1,208.046,181.287Z" transform="translate(-206.669 -153.242)" fill="#fafafa"/></g><g transform="translate(9.264 29.344)"><path d="M75.693,164.984,214.976,84.567c.76-.439,1.376-.083,1.376.795v14.714a3.041,3.041,0,0,1-1.376,2.384L75.693,182.876c-.76.439-1.376.083-1.376-.8V167.368A3.042,3.042,0,0,1,75.693,164.984Z" transform="translate(-74.317 -84.379)" fill="#455a64"/><g transform="translate(90.386 9.45)"><path d="M205.6,126.718v2.566c0,.524.372.739.826.476l40.493-23.379v-4.473l-40.494,23.379A1.83,1.83,0,0,0,205.6,126.718Z" transform="translate(-205.6 -99.29)" fill="#fafafa"/><path d="M269.955,98.218c.456-.263.826-.05.826.477v2.566a1.825,1.825,0,0,1-.826,1.43l-4.34,2.505v-4.473Z" transform="translate(-224.296 -98.105)" fill="#27debf"/><path d="M270.311,102.524l-.484-.151a2.674,2.674,0,0,0,.078-.624,1.138,1.138,0,0,0-.441-1.033.684.684,0,0,0-.706.034,2.473,2.473,0,0,0-.967,2.012,1.138,1.138,0,0,0,.441,1.033.6.6,0,0,0,.307.082.793.793,0,0,0,.4-.116,2.032,2.032,0,0,0,.782-1.046l.485.151a.182.182,0,0,0,.054.008.18.18,0,0,0,.053-.351Zm-1.553.927a.334.334,0,0,1-.346.034.841.841,0,0,1-.262-.723,2.158,2.158,0,0,1,.788-1.7.445.445,0,0,1,.218-.069.256.256,0,0,1,.129.034.842.842,0,0,1,.261.723A2.156,2.156,0,0,1,268.758,103.451Z" transform="translate(-224.973 -98.893)" fill="#fafafa"/></g></g><g transform="translate(45.417 50.219)"><path d="M126.829,176.814v17.695c0,.878.616,1.233,1.376.795l103.129-59.541a3.043,3.043,0,0,0,1.376-2.384v-17.7c0-.878-.616-1.234-1.376-.795L128.205,174.429A3.042,3.042,0,0,0,126.829,176.814Z" transform="translate(-126.829 -114.7)" fill="#fafafa"/></g><path d="M219.172,57.522v10.91L66.816,156.393v-10.91l2.83-1.639c.757-.439,1.011-1.106,1.374-2.384l.959-3.333a3.447,3.447,0,0,1,1.38-2.384L106.2,116.783c.763-.439,1.358-.487,1.938.472l1.177,2.137c.432.746.648,1.185,1.4.746Z" transform="translate(-62.717 -46.669)" fill="#e0e0e0"/><g transform="translate(136.058 8.209)"><path d="M278.069,53.883c.813-.47,1.472-.089,1.472.85a3.253,3.253,0,0,1-1.472,2.549c-.813.47-1.473.09-1.473-.85A3.255,3.255,0,0,1,278.069,53.883Z" transform="translate(-264.125 -53.682)" fill="#fff"/><path d="M269.011,59.105c.814-.47,1.473-.089,1.473.85a3.254,3.254,0,0,1-1.473,2.55c-.813.469-1.472.089-1.472-.85A3.254,3.254,0,0,1,269.011,59.105Z" transform="translate(-261.303 -55.309)" fill="#fff"/><path d="M259.954,64.327c.813-.47,1.473-.089,1.473.85a3.256,3.256,0,0,1-1.473,2.55c-.813.469-1.472.089-1.472-.85A3.254,3.254,0,0,1,259.954,64.327Z" transform="translate(-258.482 -56.935)" fill="#fff"/></g><path d="M93.069,145.743V143.61a3.042,3.042,0,0,1,1.377-2.384L218.229,69.8c.76-.439,1.376-.083,1.376.795v2.132a3.043,3.043,0,0,1-1.376,2.384L94.446,146.537C93.685,146.976,93.069,146.621,93.069,145.743Z" transform="translate(-70.895 -50.434)" fill="#fafafa"/><g transform="translate(144.768 20.565)"><path d="M271.919,76.131a.29.29,0,0,1-.112-.021.337.337,0,0,1-.186-.375l.122-1.018-.478-.345a.338.338,0,0,1-.132-.276.561.561,0,0,1,.205-.434l.728-.562a.136.136,0,0,0,.032-.056l.326-1.068a.453.453,0,0,1,.368-.346.285.285,0,0,1,.286.171l.273.581.616-.236a.29.29,0,0,1,.328.076.447.447,0,0,1,.016.5l-.527.989a.147.147,0,0,0-.018.06l.125.9a.559.559,0,0,1-.156.446.34.34,0,0,1-.288.112l-.595-.074-.643.821A.368.368,0,0,1,271.919,76.131Zm-.351-2.071.476.344a.356.356,0,0,1,.128.344l-.081.677.43-.549a.363.363,0,0,1,.328-.157l.595.074a.131.131,0,0,0,.021-.066l-.124-.9a.536.536,0,0,1,.064-.321l.461-.865-.475.182a.3.3,0,0,1-.377-.151l-.215-.456-.289.949a.552.552,0,0,1-.182.272L271.6,74A.135.135,0,0,0,271.567,74.06Zm1.228,1.084h0Zm.7-.346h0Zm-1.707-.048,0,0Zm-.275-.729h0Zm1.171-2.039h0Z" transform="translate(-271.133 -71.627)" fill="#455a64"/></g><g transform="translate(7.615 15.422)" opacity="0.3"><path d="M74.721,187.773,72.56,189.02l.824-1.584a.4.4,0,0,0,.017-.388c-.063-.075-.173-.022-.246.116l-1.172,2.255,0,.009a.548.548,0,0,0-.032.083c0,.009-.007.018-.01.028a.519.519,0,0,0-.015.116.315.315,0,0,0,.015.1.18.18,0,0,0,.01.017.143.143,0,0,0,.032.048l0,0,1.172.9a.1.1,0,0,0,.115,0,.353.353,0,0,0,.131-.167c.063-.148.056-.313-.017-.368l-.824-.633,2.161-1.248a.46.46,0,0,0,.174-.368C74.894,187.792,74.817,187.717,74.721,187.773Z" transform="translate(-71.923 -102.429)"/><path d="M78.53,185.5l2.161-1.248-.824-.633c-.072-.056-.08-.22-.016-.368s.173-.222.245-.167l1.172.9,0,0a.143.143,0,0,1,.032.048.174.174,0,0,1,.01.017.3.3,0,0,1,.015.1.482.482,0,0,1-.015.116c0,.01-.007.019-.01.028a.548.548,0,0,1-.032.083l0,.009L80.1,186.644a.322.322,0,0,1-.114.132.1.1,0,0,1-.131-.016.4.4,0,0,1,.016-.388l.824-1.584-2.161,1.248c-.1.056-.174-.019-.174-.167A.46.46,0,0,1,78.53,185.5Z" transform="translate(-73.927 -101.199)"/><path d="M87.813,177.524c-.013-.13-.127-.114-.184.028l-.3.724c-.5-.055-1.116.438-1.529,1.312-.535,1.133-.535,2.474,0,2.989a.764.764,0,0,0,.971.057,2.648,2.648,0,0,0,.971-1.178.372.372,0,0,0,0-.379c-.068-.065-.178,0-.246.142-.4.845-1.05,1.222-1.45.837a2.186,2.186,0,0,1,0-2.232c.284-.6.694-.958,1.051-.98l-.223.545c-.058.142,0,.274.086.215l.881-.576a.284.284,0,0,0,.1-.242Z" transform="translate(-76.122 -99.445)"/><path d="M122.948,149.025l.788-1.668a.5.5,0,0,0,0-.518c-.093-.09-.244,0-.337.194l-.788,1.668-.788-.758c-.094-.09-.244,0-.337.195a.508.508,0,0,0,0,.519l.788.758-.788,1.667a.508.508,0,0,0,0,.519.133.133,0,0,0,.169.01.466.466,0,0,0,.169-.205l.788-1.668.788.758a.133.133,0,0,0,.169.01.459.459,0,0,0,.168-.2.5.5,0,0,0,0-.519Z" transform="translate(-87.341 -89.903)"/><g transform="translate(142.241)"><path d="M279,67.348a.477.477,0,0,1-.239-.89l3.873-2.237a.477.477,0,0,1,.477.826l-3.874,2.236A.474.474,0,0,1,279,67.348Z" transform="translate(-278.523 -64.157)"/><g transform="translate(0 2.237)"><path d="M279,70.6a.477.477,0,0,1-.239-.89l3.873-2.236a.477.477,0,1,1,.477.825l-3.874,2.237A.474.474,0,0,1,279,70.6Z" transform="translate(-278.523 -67.406)"/></g><g transform="translate(0 4.474)"><path d="M279,73.846a.477.477,0,0,1-.239-.89l3.873-2.237a.477.477,0,0,1,.477.826l-3.874,2.236A.467.467,0,0,1,279,73.846Z" transform="translate(-278.523 -70.656)"/></g></g></g><path d="M64.961,184.221v10.91l-4.1-2.352v-10.9Z" transform="translate(-60.862 -85.407)" fill="#e0e0e0"/><path d="M64.961,184.221v10.91l-4.1-2.352v-10.9Z" transform="translate(-60.862 -85.407)" opacity="0.15"/><g transform="translate(18.361 151.844)"><path d="M99.73,262.9v17.262l-11.605,6.7V269.6l11.6-6.7m0-.595a.6.6,0,0,0-.3.08l-11.6,6.7a.594.594,0,0,0-.3.514v17.262a.594.594,0,0,0,.892.514l11.6-6.7a.594.594,0,0,0,.3-.514V262.9a.6.6,0,0,0-.595-.595Z" transform="translate(-87.531 -262.306)" fill="#27debf"/><g transform="translate(1.741 3.922)"><path d="M98.777,268.6v5l-.364.2v-1.533c0-.615-.293-.976-.715-.976a1.057,1.057,0,0,0-.522.158l-1.716.991v7.433c0,.775.3,1.261.722,1.261a.713.713,0,0,0,.357-.106l1.078-.622v.531l-5.8,3.35v-.531l1.078-.622a2.994,2.994,0,0,0,1.077-2.4V273.3l-1.716.991a2.837,2.837,0,0,0-1.237,2.246v1.533l-.363.218v-5l8.123-4.691m0-.594a.592.592,0,0,0-.3.08l-8.123,4.69a.594.594,0,0,0-.3.515v5a.594.594,0,0,0,.9.509l.364-.219a.594.594,0,0,0,.288-.509v-1.533a2.252,2.252,0,0,1,.94-1.732l.824-.476v6.4a2.472,2.472,0,0,1-.781,1.884l-1.077.623a.593.593,0,0,0-.3.514v.531a.594.594,0,0,0,.892.514l5.8-3.35a.594.594,0,0,0,.3-.514v-.531a.594.594,0,0,0-.892-.514l-1.077.622-.04.019a1.108,1.108,0,0,1-.147-.66v-7.09l1.419-.819a.475.475,0,0,1,.225-.079c.065,0,.12.175.12.382V273.8a.594.594,0,0,0,.883.519l.364-.2a.594.594,0,0,0,.306-.52v-5a.594.594,0,0,0-.594-.594Z" transform="translate(-90.06 -268.003)" fill="#27debf"/></g></g><g transform="translate(62.452 137.928)"><g transform="translate(0.249 6.768)"><path d="M152.23,266.447a.288.288,0,0,1-.132-.031.3.3,0,0,1-.135-.4l3.447-6.989a.651.651,0,0,1,.467-.313.637.637,0,0,1,.5.151l2.936,1.928.386.078-.275-.113,3.49-8.5a.653.653,0,0,1,.49-.336.635.635,0,0,1,.517.175l4.351,4.485a.3.3,0,0,1-.425.413l-4.344-4.477-3.528,8.463a.669.669,0,0,1-.988.3l-3.035-1.986-3.46,6.975A.3.3,0,0,1,152.23,266.447Z" transform="translate(-151.933 -251.925)" fill="#27debf"/></g><path d="M168.441,242.645h0m-.62.358v15.653L152.166,267.7V252.049h0L167.821,243m.444-.909a.254.254,0,0,0-.122.037l-.595.344-15.707,9.075a.608.608,0,0,0-.269.47v16.4c0,.122.061.193.149.193a.241.241,0,0,0,.12-.036l16.3-9.418a.6.6,0,0,0,.272-.47v-16.4c0-.123-.061-.194-.15-.194Z" transform="translate(-151.572 -242.094)" fill="#27debf"/><g transform="translate(4.597 8.603)"><path d="M159.151,258.012a.854.854,0,0,1-.434-.114,1.049,1.049,0,0,1-.468-.966,2.71,2.71,0,0,1,1.243-2.153.958.958,0,0,1,1.54.89,2.711,2.711,0,0,1-1.243,2.153A1.291,1.291,0,0,1,159.151,258.012Zm.978-2.828a.713.713,0,0,0-.34.11,2.123,2.123,0,0,0-.945,1.638.506.506,0,0,0,.171.452.512.512,0,0,0,.477-.077,2.126,2.126,0,0,0,.946-1.638.5.5,0,0,0-.172-.451A.273.273,0,0,0,160.129,255.185Z" transform="translate(-158.249 -254.59)" fill="#27debf"/></g></g><g transform="translate(119.416 109.835)"><path d="M243.443,201.883h0c1.9,0,3.126,1.875,3.126,4.776a16.594,16.594,0,0,1-3.923,10,9.811,9.811,0,0,1-2.454,2.106,4.374,4.374,0,0,1-2.161.663c-1.9,0-3.126-1.874-3.126-4.775a15.806,15.806,0,0,1,2.218-7.583,12.292,12.292,0,0,1,4.158-4.523,4.377,4.377,0,0,1,2.162-.663m0-.594a4.965,4.965,0,0,0-2.459.743,12.879,12.879,0,0,0-4.376,4.74,16.417,16.417,0,0,0-2.3,7.88c0,3.36,1.533,5.369,3.721,5.369a4.958,4.958,0,0,0,2.459-.743,10.464,10.464,0,0,0,2.606-2.231,17.169,17.169,0,0,0,4.068-10.388c0-3.361-1.533-5.37-3.721-5.37Z" transform="translate(-234.31 -201.289)" fill="#27debf"/><g transform="translate(4.051 6.807)"><path d="M240.97,211.767h0m-.008,0,4.605.412a1.484,1.484,0,0,1-.1.138l-4.679,5.82v-5.834a.721.721,0,0,1,.173-.536m-.011-.595c-.422,0-.757.492-.757,1.131v6.32c0,.371.113.563.29.563.14,0,.32-.119.516-.364l4.93-6.133c.445-.554.445-1.035,0-1.075l-4.93-.44-.05,0Z" transform="translate(-240.194 -211.176)" fill="#27debf"/></g></g></g><g transform="translate(192.854 193.599)"><g transform="translate(0 16.759)"><path d="M275.733,312.329l41.876,24.222V310.866l-41.877-24.223Z" transform="translate(-275.732 -286.643)" fill="#ebebeb"/></g><g transform="translate(41.877 24.221)"><path d="M365.586,323.168l-29.029,16.76V314.243l29.03-16.76Z" transform="translate(-336.557 -297.482)" fill="#f5f5f5"/></g><path d="M275.732,279.061l29.03-16.759,41.876,24.222-29.03,16.76Z" transform="translate(-275.732 -262.301)" fill="#fafafa"/><path d="M307.43,317.49l20.053,11.578,12.032-6.947-12.032,7.664Z" transform="translate(-285.606 -279.493)" opacity="0.1"/><path d="M289.954,316.8l32.085,18.525L346.1,321.43l-24.064,14.594Z" transform="translate(-280.162 -279.278)" opacity="0.1"/><path d="M281.392,300.486a22.659,22.659,0,0,0-.33,5.643s5.252-.129,14.114,2.315Z" transform="translate(-277.363 -274.197)" opacity="0.1"/><path d="M280.92,300.486l13.784,7.958-15.251-4.4Z" transform="translate(-276.891 -274.197)" fill="#fafafa"/><path d="M307.43,332.734l15.112,13.893s.419-1.909,3.32-3.252Z" transform="translate(-285.606 -284.242)" opacity="0.1"/><path d="M307.43,332.733l14.192,11.95,4.24-1.308Z" transform="translate(-285.606 -284.242)" fill="#fafafa"/><path d="M367.317,312.234c-.079-.123-.128-.189-.128-.189l-9.55,5.513,10.749-.883A6.537,6.537,0,0,0,367.317,312.234Z" transform="translate(-301.247 -277.797)" opacity="0.1"/><path d="M357.639,317.559l9.55-5.513,3.18,1.677Z" transform="translate(-301.247 -277.797)" fill="#fafafa"/><g transform="translate(7.008 3.912)" opacity="0.3"><path d="M286.281,282.617a.37.37,0,0,1-.185-.691l24.064-13.894a.37.37,0,1,1,.37.641l-24.064,13.894A.368.368,0,0,1,286.281,282.617Z" transform="translate(-285.911 -267.983)" fill="#455a64"/><g transform="translate(4.01 2.316)"><path d="M292.106,285.98a.37.37,0,0,1-.185-.691L315.985,271.4a.37.37,0,1,1,.37.641L292.291,285.93A.368.368,0,0,1,292.106,285.98Z" transform="translate(-291.736 -271.347)" fill="#455a64"/></g><g transform="translate(8.021 4.631)"><path d="M297.932,289.343a.37.37,0,0,1-.185-.691l24.064-13.894a.37.37,0,1,1,.37.641l-24.064,13.894A.368.368,0,0,1,297.932,289.343Z" transform="translate(-297.561 -274.709)" fill="#455a64"/></g><g transform="translate(12.032 6.946)"><path d="M303.758,292.707a.37.37,0,0,1-.185-.691l24.063-13.894a.37.37,0,1,1,.37.641l-24.063,13.894A.368.368,0,0,1,303.758,292.707Z" transform="translate(-303.388 -278.072)" fill="#455a64"/></g><g transform="translate(16.043 9.263)"><path d="M309.583,296.071a.37.37,0,0,1-.185-.691l24.064-13.894a.37.37,0,1,1,.37.642l-24.064,13.894A.376.376,0,0,1,309.583,296.071Z" transform="translate(-309.212 -281.437)" fill="#455a64"/></g><g transform="translate(20.054 11.578)"><path d="M315.409,299.434a.37.37,0,0,1-.185-.691l24.063-13.893a.37.37,0,1,1,.37.641l-24.063,13.894A.368.368,0,0,1,315.409,299.434Z" transform="translate(-315.038 -284.8)" fill="#455a64"/></g><g transform="translate(24.064 13.894)"><path d="M321.233,302.8a.37.37,0,0,1-.185-.691l24.065-13.894a.37.37,0,1,1,.37.641l-24.064,13.894A.366.366,0,0,1,321.233,302.8Z" transform="translate(-320.863 -288.164)" fill="#455a64"/></g><g transform="translate(28.075 16.21)"><path d="M327.059,306.161a.37.37,0,0,1-.185-.691l24.064-13.894a.37.37,0,1,1,.37.641l-24.065,13.894A.369.369,0,0,1,327.059,306.161Z" transform="translate(-326.689 -291.528)" fill="#455a64"/></g><g transform="translate(32.085 18.526)"><path d="M332.884,309.525a.37.37,0,0,1-.185-.691l24.064-13.894a.375.375,0,0,1,.507.136.371.371,0,0,1-.136.506l-24.064,13.893A.369.369,0,0,1,332.884,309.525Z" transform="translate(-332.514 -294.892)" fill="#455a64"/></g></g></g><g transform="translate(125.897 176.286)"><path d="M227.591,237.425,179.6,265.139a2.48,2.48,0,0,0-1.122,1.944v45.723a2.478,2.478,0,0,0,1.122,1.942l1.844,1.066a2.482,2.482,0,0,0,2.244,0l47.99-27.714a2.48,2.48,0,0,0,1.122-1.943V240.432a2.478,2.478,0,0,0-1.122-1.943l-1.844-1.065A2.478,2.478,0,0,0,227.591,237.425Z" transform="translate(-178.478 -237.156)" fill="#27debf"/><path d="M227.591,237.425,179.6,265.139a2.48,2.48,0,0,0-1.122,1.944v45.723a2.478,2.478,0,0,0,1.122,1.942l1.844,1.066a2.482,2.482,0,0,0,2.244,0l47.99-27.714a2.48,2.48,0,0,0,1.122-1.943V240.432a2.478,2.478,0,0,0-1.122-1.943l-1.844-1.065A2.478,2.478,0,0,0,227.591,237.425Z" transform="translate(-178.478 -237.156)" opacity="0.3"/><path d="M232.908,240.1c-.138-.466-.57-.613-1.08-.311L183.843,267.5a2.262,2.262,0,0,0-.795.838l-4.083-2.363a2.233,2.233,0,0,1,.786-.838l47.994-27.714a2.508,2.508,0,0,1,2.246,0l1.838,1.068A2.466,2.466,0,0,1,232.908,240.1Z" transform="translate(-178.63 -237.157)" fill="#27debf"/><path d="M232.908,240.1c-.138-.466-.57-.613-1.08-.311L183.843,267.5a2.262,2.262,0,0,0-.795.838l-4.083-2.363a2.233,2.233,0,0,1,.786-.838l47.994-27.714a2.508,2.508,0,0,1,2.246,0l1.838,1.068A2.466,2.466,0,0,1,232.908,240.1Z" transform="translate(-178.63 -237.157)" opacity="0.2"/><path d="M233.529,240.9l-47.99,27.714a2.481,2.481,0,0,0-1.122,1.944v45.723c0,.715.5,1.005,1.122.647l47.99-27.714a2.48,2.48,0,0,0,1.122-1.943V241.553C234.65,240.837,234.148,240.547,233.529,240.9Z" transform="translate(-180.328 -238.276)" fill="#27debf"/><g transform="translate(17.068 23.447)"><path d="M211.257,305.605a6.823,6.823,0,0,1-3.453-.907c-2.882-1.664-4.534-5.44-4.534-10.36a28.594,28.594,0,0,1,3.86-13.828,25.145,25.145,0,0,1,2.746-3.878h0a18.207,18.207,0,0,1,4.6-3.9c3.092-1.785,6.124-2,8.537-.609,2.881,1.664,4.534,5.44,4.534,10.359a28.6,28.6,0,0,1-3.86,13.827,21.181,21.181,0,0,1-7.345,7.783A10.256,10.256,0,0,1,211.257,305.605Zm-.116-27.877a23.5,23.5,0,0,0-2.561,3.619,26.874,26.874,0,0,0-3.636,12.99c0,4.306,1.347,7.553,3.7,8.909,1.872,1.08,4.309.864,6.862-.61a19.5,19.5,0,0,0,6.732-7.17,26.877,26.877,0,0,0,3.636-12.99c0-4.305-1.347-7.553-3.7-8.908-1.872-1.082-4.309-.865-6.863.609a16.546,16.546,0,0,0-4.17,3.55Z" transform="translate(-203.269 -271.212)" fill="#fff"/><g transform="translate(7.598 11.699)"><path d="M225.266,291.1l-9.421,11.719c-.851,1.058-1.541.888-1.541-.38V290.367c0-1.268.69-2.234,1.541-2.158l9.421.841C226.117,289.125,226.117,290.045,225.266,291.1Z" transform="translate(-214.305 -288.204)" fill="#fff"/></g></g></g><g transform="translate(66.423 209.448)"><g transform="translate(0)"><path d="M140.508,291.642V333.3a1.524,1.524,0,0,1-.691,1.194L98.41,358.413c-.377.217-.685.041-.685-.4v-2.176l40.581-23.444V292.116l1.511-.872C140.2,291.022,140.508,291.2,140.508,291.642Z" transform="translate(-93.849 -287.138)" fill="#263238"/><path d="M138.306,292.553v40.279L97.725,356.276V316.8a1.55,1.55,0,0,1,.685-1.194Z" transform="translate(-93.849 -287.575)" fill="#27debf"/><path d="M138.306,292.553v40.279L97.725,356.276V316.8a1.55,1.55,0,0,1,.685-1.194Z" transform="translate(-93.849 -287.575)" fill="#fff" opacity="0.8"/><g transform="translate(2.583 20.468)"><path d="M127.711,316.785a.926.926,0,0,0-.139-.107h0l-.013-.008-.017-.01-2.574-1.486h0l-.018-.01h0a.869.869,0,0,0-1.157.283l-9.143,22.54-6.071-3.994a.9.9,0,0,0-.126-.087v0l-.028-.016-.01-.005-2.54-1.467,0,0a.869.869,0,0,0-1.175.259l-8.853,17.949v11.91l2.583,1.492,39.843-23.013a1.48,1.48,0,0,0,.739-1.281v-11.3Z" transform="translate(-95.847 -315.051)" fill="#27debf"/><path d="M127.711,316.785a.926.926,0,0,0-.139-.107h0l-.013-.008-.017-.01-2.574-1.486h0l-.018-.01h0a.869.869,0,0,0-1.157.283l-9.143,22.54-6.071-3.994a.9.9,0,0,0-.126-.087v0l-.028-.016-.01-.005-2.54-1.467,0,0a.869.869,0,0,0-1.175.259l-8.853,17.949v11.91l2.583,1.492,39.843-23.013a1.48,1.48,0,0,0,.739-1.281v-11.3Z" transform="translate(-95.847 -315.051)" opacity="0.15"/><path d="M99.6,364.7v-11.91l8.853-17.949a.871.871,0,0,1,1.3-.176l8.5,5.59,9.3-22.644a.871.871,0,0,1,1.335-.154l11.3,11.648v11.3a1.479,1.479,0,0,1-.739,1.281Z" transform="translate(-97.016 -315.725)" fill="#27debf"/><path d="M125.469,350.39l-2.677,6.518,1.7-7.162Z" transform="translate(-104.241 -325.859)" opacity="0.15"/></g><path d="M140.422,287.264a.624.624,0,0,0-.017-.085,1.538,1.538,0,0,0-.664-1l-1.208-.7a1.525,1.525,0,0,0-1.377,0L92.785,311.114a1.447,1.447,0,0,0-.49.515,1.409,1.409,0,0,0-.2.677v52.105a1.524,1.524,0,0,0,.69,1.195l1.206.694a1.542,1.542,0,0,0,1.218.074l.048-.019a.723.723,0,0,0,.112-.054l44.373-25.627a1.525,1.525,0,0,0,.687-1.193v-52.1C140.428,287.337,140.425,287.3,140.422,287.264Zm-1.666,44.218a1.521,1.521,0,0,1-.69,1.192L96.658,356.6c-.379.219-.687.041-.687-.4V314.545a1.409,1.409,0,0,1,.2-.677,1.392,1.392,0,0,1,.487-.516l41.407-23.921c.381-.223.69-.045.69.4Z" transform="translate(-92.095 -285.323)" fill="#37474f"/><path d="M95.208,378.277a1.548,1.548,0,0,1-1.218-.074l-1.206-.694a1.515,1.515,0,0,1-.69-1.194V324.209a1.39,1.39,0,0,1,.2-.675c.757.436,1.632.94,2.583,1.49a1.405,1.405,0,0,0-.2.681v52.1C94.677,378.182,94.906,378.366,95.208,378.277Z" transform="translate(-92.095 -297.226)" fill="#263238"/><path d="M141.59,287.97c-.005-.025-.01-.061-.016-.086-.085-.287-.353-.383-.664-.2l-44.375,25.63a1.494,1.494,0,0,0-.69,1.189v52.1c0,.378.231.559.529.474a.293.293,0,0,1,.05-.02c.036-.015.071-.036.111-.056l44.375-25.625a1.533,1.533,0,0,0,.685-1.194V288.08A.843.843,0,0,0,141.59,287.97Zm-1.667,44.218a1.524,1.524,0,0,1-.691,1.194L97.824,357.3c-.377.217-.685.041-.685-.4V315.252a1.55,1.55,0,0,1,.685-1.194l39.9-23.051,1.511-.872c.383-.222.691-.041.691.4Z" transform="translate(-93.263 -286.029)" fill="#455a64"/><g transform="translate(14.285 25.448)"><path d="M118.64,325.366l1-1.7-2.054-1.194h0a1.954,1.954,0,0,0-1.964.2,6.145,6.145,0,0,0-2.78,4.815,1.965,1.965,0,0,0,.795,1.786h0l.015.009.011.006,1.99,1.155.956-1.624A6.488,6.488,0,0,0,118.64,325.366Z" transform="translate(-112.843 -322.285)" fill="#27debf"/><path d="M118.64,325.366l1-1.7-2.054-1.194h0a1.954,1.954,0,0,0-1.964.2,6.145,6.145,0,0,0-2.78,4.815,1.965,1.965,0,0,0,.795,1.786h0l.015.009.011.006,1.99,1.155.956-1.624A6.488,6.488,0,0,0,118.64,325.366Z" transform="translate(-112.843 -322.285)" opacity="0.15"/><path d="M118.56,324.37c1.535-.887,2.779-.168,2.779,1.6a6.143,6.143,0,0,1-2.779,4.814c-1.535.887-2.779.168-2.779-1.6A6.143,6.143,0,0,1,118.56,324.37Z" transform="translate(-113.758 -322.816)" fill="#27debf"/></g></g></g><g transform="translate(110 237.236)"><g transform="translate(3.882 6.028)"><path d="M237.971,415.343l-33.464,19.32-37.683-21.805,33.464-19.32Z" transform="translate(-162.833 -352.849)" fill="#27debf"/><path d="M237.971,415.343l-33.464,19.32-37.683-21.805,33.464-19.32Z" transform="translate(-162.833 -352.849)" opacity="0.5"/><path d="M200.288,355.5v26.189l-33.464,19.32V374.819Z" transform="translate(-162.833 -341)" fill="#27debf"/><path d="M200.288,355.5v26.189l-33.464,19.32V374.819Z" transform="translate(-162.833 -341)" opacity="0.23"/><path d="M253.112,377.3v26.191l-37.683-21.805V355.5Z" transform="translate(-177.974 -341)" fill="#27debf"/><path d="M253.112,377.3v26.191l-37.683-21.805V355.5Z" transform="translate(-177.974 -341)" opacity="0.4"/><path d="M215.43,348.938l.046-14.5,37.59,21.831.046,14.471Z" transform="translate(-177.974 -334.439)" fill="#27debf"/><path d="M215.43,348.938l.046-14.5,37.59,21.831.046,14.471Z" transform="translate(-177.974 -334.439)" opacity="0.2"/><path d="M165.018,368.866l-3.992-13.156,33.464-19.32,3.992,13.156Z" transform="translate(-161.027 -335.047)" fill="#27debf"/><path d="M165.018,368.866l-3.992-13.156,33.464-19.32,3.992,13.156Z" transform="translate(-161.027 -335.047)" opacity="0.1"/></g><g transform="translate(12.338)"><path d="M176.819,390.706a1.606,1.606,0,0,1-.7-1.159l-2.809-46.1a1.342,1.342,0,0,1,.6-1.148L202.6,325.835a1.434,1.434,0,0,1,1.3.01,1.6,1.6,0,0,1,.7,1.159l2.809,46.1a1.344,1.344,0,0,1-.6,1.149l-28.689,16.467A1.436,1.436,0,0,1,176.819,390.706Z" transform="translate(-173.308 -325.684)" fill="#f0f0f0"/><g transform="translate(-173.899 -326.059)" fill="#fafafa" stroke-miterlimit="10"><path d="M 178.4264373779297 390.9274597167969 C 178.2923278808594 390.9274597167969 178.2668914794922 390.7473449707031 178.2621765136719 390.669921875 L 175.4531555175781 344.5731506347656 C 175.4329223632813 344.2408447265625 175.6554870605469 343.8120422363281 175.9294586181641 343.6555480957031 L 204.6183624267578 327.1874389648438 C 204.6765899658203 327.1542053222656 204.7319641113281 327.136474609375 204.7779998779297 327.136474609375 C 204.9123382568359 327.136474609375 204.9375 327.3163146972656 204.9420776367188 327.3936157226563 L 207.7511291503906 373.4907531738281 C 207.7713623046875 373.8231201171875 207.5489654541016 374.2523193359375 207.2751770019531 374.4092407226563 L 178.5859375 390.8764953613281 C 178.5276794433594 390.9097290039063 178.4723663330078 390.9274597167969 178.4264373779297 390.9274597167969 Z" stroke="none"/><path d="M 178.5088653564453 390.63427734375 L 207.1516571044922 374.1937255859375 C 207.3470611572266 374.0817260742188 207.5178833007813 373.7474365234375 207.503173828125 373.505859375 L 204.6954193115234 327.4296569824219 L 176.0526733398438 343.8712463378906 C 175.8572692871094 343.9828796386719 175.6864013671875 344.316650390625 175.7010955810547 344.5580444335938 L 178.5088653564453 390.63427734375 M 178.4264221191406 391.1758728027344 C 178.2003173828125 391.1758728027344 178.0330810546875 390.9949340820313 178.0142211914063 390.6849975585938 L 175.2052001953125 344.5882568359375 C 175.1790466308594 344.1586303710938 175.4482421875 343.6443481445313 175.8062438964844 343.4398498535156 L 204.4946899414063 326.9720153808594 C 204.5944519042969 326.9150390625 204.6905975341797 326.8880615234375 204.7779998779297 326.8880615234375 C 205.0042572021484 326.8880615234375 205.1716766357422 327.0690002441406 205.1900634765625 327.37890625 L 207.9990692138672 373.4756469726563 C 208.0252380371094 373.9052734375 207.7567291259766 374.4195556640625 207.3987121582031 374.624755859375 L 178.7095947265625 391.0919189453125 C 178.6098480224609 391.1488952636719 178.5137481689453 391.1758728027344 178.4264221191406 391.1758728027344 Z" stroke="none" fill="#ebebeb"/></g><path d="M178.036,398.5a1.441,1.441,0,0,1-1.215-.053,1.6,1.6,0,0,1-.7-1.158l-2.808-46.1a1.315,1.315,0,0,1,.154-.66l1.306.763a1.274,1.274,0,0,0-.158.657l2.808,46.1C177.448,398.446,177.715,398.631,178.036,398.5Z" transform="translate(-173.309 -333.425)" fill="#e0e0e0"/><g transform="translate(5.905 7.678)"><path d="M196.876,342.789l10.111-5.879c.315-.18.59-.02.613.359l.014.236a1.184,1.184,0,0,1-.529,1.013L196.974,344.4c-.315.181-.59.021-.613-.358l-.014-.237A1.185,1.185,0,0,1,196.876,342.789Z" transform="translate(-186.389 -336.836)" fill="#e0e0e0"/><path d="M197.232,348.62l10.111-5.879c.315-.181.59-.021.613.358l.014.237a1.183,1.183,0,0,1-.529,1.013l-10.111,5.879c-.316.18-.59.02-.613-.359l-.014-.237A1.183,1.183,0,0,1,197.232,348.62Z" transform="translate(-186.5 -338.653)" fill="#e0e0e0"/><path d="M197.587,354.45l10.111-5.879c.315-.18.59-.02.613.359l.014.236a1.184,1.184,0,0,1-.53,1.013l-10.111,5.879c-.316.18-.59.02-.613-.358l-.014-.237A1.185,1.185,0,0,1,197.587,354.45Z" transform="translate(-186.611 -340.469)" fill="#e0e0e0"/><path d="M182.771,372.206l20.8-11.973c.315-.181.59-.02.613.358l.014.237a1.185,1.185,0,0,1-.529,1.013l-20.8,11.973c-.316.181-.59.021-.613-.358l-.014-.237A1.185,1.185,0,0,1,182.771,372.206Z" transform="translate(-181.995 -344.101)" fill="#e0e0e0"/><path d="M182.416,366.375l20.8-11.973c.316-.18.591-.02.613.359l.014.237a1.184,1.184,0,0,1-.529,1.012l-20.8,11.973c-.315.18-.59.02-.613-.358l-.014-.237A1.185,1.185,0,0,1,182.416,366.375Z" transform="translate(-181.885 -342.285)" fill="#e0e0e0"/><path d="M183.129,378.079l20.8-11.973c.316-.18.591-.02.613.358l.014.237a1.185,1.185,0,0,1-.529,1.013l-20.8,11.973c-.315.181-.59.021-.613-.358l-.014-.237A1.183,1.183,0,0,1,183.129,378.079Z" transform="translate(-182.107 -345.931)" fill="#e0e0e0"/><path d="M183.485,383.909l20.8-11.973c.315-.18.59-.02.613.359l.014.236a1.184,1.184,0,0,1-.529,1.013l-20.8,11.973c-.316.18-.59.02-.613-.359l-.014-.236A1.184,1.184,0,0,1,183.485,383.909Z" transform="translate(-182.218 -347.747)" fill="#e0e0e0"/><path d="M183.84,389.739l20.8-11.973c.315-.181.59-.02.613.358l.014.237a1.185,1.185,0,0,1-.529,1.013l-20.8,11.973c-.316.181-.59.021-.613-.358l-.014-.237A1.185,1.185,0,0,1,183.84,389.739Z" transform="translate(-182.328 -349.564)" fill="#e0e0e0"/><path d="M184.195,395.57,205,383.6c.315-.18.59-.02.613.359l.014.236a1.184,1.184,0,0,1-.53,1.013l-20.8,11.973c-.315.18-.59.02-.613-.359l-.014-.236A1.184,1.184,0,0,1,184.195,395.57Z" transform="translate(-182.439 -351.38)" fill="#e0e0e0"/><path d="M184.55,401.4l20.8-11.973c.316-.181.59-.021.613.358l.014.237a1.186,1.186,0,0,1-.529,1.013l-20.8,11.973c-.315.181-.59.021-.613-.358l-.014-.237A1.185,1.185,0,0,1,184.55,401.4Z" transform="translate(-182.55 -353.196)" fill="#e0e0e0"/></g><g transform="translate(5.246 14.561)"><path d="M180.928,351.642l8.4-4.809.614,10.077-8.4,4.809Z" transform="translate(-180.928 -346.834)" fill="#27debf"/><path d="M182.914,353.809l.185,3.023.262-.156-.056-.926a1.732,1.732,0,0,1,.839-1.439l1.242-.711.274,4.493a1.755,1.755,0,0,1-.715,1.521l-.78.447.019.321,4.2-2.4-.02-.321-.78.447c-.431.246-.81-.034-.845-.628l-.274-4.493,1.242-.711c.494-.283.921-.1.952.414l.056.926.263-.145-.184-3.023Z" transform="translate(-181.547 -347.958)" fill="#fafafa"/></g></g><g transform="translate(24.288 6.897)"><path d="M194.177,400.725a1.6,1.6,0,0,1-.7-1.159l-2.809-46.1a1.344,1.344,0,0,1,.6-1.149l28.688-16.467a1.436,1.436,0,0,1,1.3.01,1.609,1.609,0,0,1,.7,1.159l2.808,46.1a1.342,1.342,0,0,1-.6,1.148l-28.689,16.467A1.434,1.434,0,0,1,194.177,400.725Z" transform="translate(-190.666 -335.702)" fill="#f0f0f0"/><g transform="translate(-191.257 -336.077)" fill="#fafafa" stroke-miterlimit="10"><path d="M 195.7839508056641 400.9460754394531 C 195.6502685546875 400.9460754394531 195.6248779296875 400.76611328125 195.6201782226563 400.6887512207031 L 192.8111572265625 354.59130859375 C 192.7909240722656 354.259521484375 193.0136413574219 353.8306579589844 193.2877807617188 353.6735229492188 L 221.9763488769531 337.2063293457031 C 222.0348663330078 337.1727905273438 222.0901184082031 337.155029296875 222.1360168457031 337.155029296875 C 222.2702178955078 337.155029296875 222.2959899902344 337.3356018066406 222.3008270263672 337.4132690429688 L 225.109130859375 383.5096130371094 C 225.1293792724609 383.8421020507813 224.9071197509766 384.2709350585938 224.6334838867188 384.42724609375 L 195.9439392089844 400.8946533203125 C 195.8852996826172 400.9282531738281 195.8299102783203 400.9460754394531 195.7839508056641 400.9460754394531 Z" stroke="none"/><path d="M 195.8668365478516 400.6524963378906 L 224.51025390625 384.2115783691406 C 224.7053527832031 384.10009765625 224.8759002685547 383.7662963867188 224.8611907958984 383.5247192382813 L 222.0540924072266 337.4481201171875 L 193.4113006591797 353.8890380859375 C 193.215576171875 354.0012512207031 193.0444030761719 354.3351745605469 193.0590972900391 354.5762023925781 L 195.8668365478516 400.6524963378906 M 195.783935546875 401.1944885253906 C 195.5580596923828 401.1944580078125 195.3910827636719 401.0135803222656 195.3722229003906 400.703857421875 L 192.5632019042969 354.6064147949219 C 192.5370483398438 354.177490234375 192.8062438964844 353.6632080078125 193.1642456054688 353.4580078125 L 221.8526916503906 336.9908752441406 C 221.9524841308594 336.9336853027344 222.0486297607422 336.9066162109375 222.1360168457031 336.9066162109375 C 222.3620910644531 336.9066162109375 222.5294036865234 337.087890625 222.5487670898438 337.3977661132813 L 225.3570861816406 383.4945068359375 C 225.3832397460938 383.9241333007813 225.1147155761719 384.4384155273438 224.7567138671875 384.6429443359375 L 196.0675964355469 401.110107421875 C 195.9676666259766 401.1673583984375 195.8713836669922 401.1944885253906 195.783935546875 401.1944885253906 Z" stroke="none" fill="#ebebeb"/></g><path d="M195.394,408.518a1.439,1.439,0,0,1-1.215-.052,1.6,1.6,0,0,1-.7-1.158l-2.808-46.1a1.319,1.319,0,0,1,.154-.66l1.306.764a1.274,1.274,0,0,0-.158.656l2.808,46.1C194.806,408.465,195.073,408.65,195.394,408.518Z" transform="translate(-190.667 -343.443)" fill="#e0e0e0"/><g transform="translate(5.905 7.678)"><path d="M214.234,352.808l10.111-5.879c.315-.181.59-.02.613.358l.014.237a1.185,1.185,0,0,1-.529,1.013l-10.112,5.879c-.315.18-.59.02-.613-.359l-.014-.236A1.185,1.185,0,0,1,214.234,352.808Z" transform="translate(-203.747 -346.855)" fill="#e0e0e0"/><path d="M214.589,358.639l10.111-5.88c.315-.18.59-.02.613.359l.014.237a1.182,1.182,0,0,1-.529,1.012l-10.112,5.879c-.315.181-.589.021-.613-.358l-.014-.237A1.185,1.185,0,0,1,214.589,358.639Z" transform="translate(-203.858 -348.671)" fill="#e0e0e0"/><path d="M214.945,364.469l10.111-5.879c.315-.181.59-.021.613.358l.014.237a1.185,1.185,0,0,1-.53,1.013l-10.111,5.879c-.316.18-.59.02-.613-.359l-.014-.236A1.184,1.184,0,0,1,214.945,364.469Z" transform="translate(-203.969 -350.488)" fill="#e0e0e0"/><path d="M200.129,382.224l20.8-11.973c.315-.181.59-.021.613.358l.014.237a1.182,1.182,0,0,1-.529,1.012l-20.8,11.973c-.316.181-.59.02-.613-.358l-.014-.237A1.187,1.187,0,0,1,200.129,382.224Z" transform="translate(-199.353 -354.12)" fill="#e0e0e0"/><path d="M199.774,376.394l20.8-11.973c.316-.18.59-.02.613.359l.014.236a1.185,1.185,0,0,1-.529,1.013L199.872,378c-.315.18-.59.02-.613-.359l-.014-.237A1.184,1.184,0,0,1,199.774,376.394Z" transform="translate(-199.243 -352.304)" fill="#e0e0e0"/><path d="M200.487,388.1l20.8-11.973c.316-.181.591-.021.613.358l.014.237a1.185,1.185,0,0,1-.529,1.013l-20.8,11.973c-.315.181-.59.021-.613-.358l-.014-.237A1.185,1.185,0,0,1,200.487,388.1Z" transform="translate(-199.465 -355.95)" fill="#e0e0e0"/><path d="M200.843,393.928l20.8-11.973c.315-.18.59-.02.613.359l.014.236a1.185,1.185,0,0,1-.529,1.013l-20.8,11.973c-.316.18-.59.02-.613-.359l-.014-.237A1.183,1.183,0,0,1,200.843,393.928Z" transform="translate(-199.576 -357.766)" fill="#e0e0e0"/><path d="M201.2,399.758,222,387.785c.315-.181.59-.021.613.358l.014.237a1.181,1.181,0,0,1-.529,1.012l-20.8,11.973c-.316.18-.59.02-.613-.358l-.014-.237A1.185,1.185,0,0,1,201.2,399.758Z" transform="translate(-199.686 -359.582)" fill="#e0e0e0"/><path d="M201.553,405.589l20.8-11.973c.315-.18.59-.021.613.358l.014.237a1.185,1.185,0,0,1-.53,1.013L201.65,407.2c-.315.181-.59.021-.613-.358l-.014-.237A1.183,1.183,0,0,1,201.553,405.589Z" transform="translate(-199.797 -361.398)" fill="#e0e0e0"/><path d="M201.908,411.419l20.8-11.973c.316-.18.59-.02.613.359l.014.236a1.185,1.185,0,0,1-.529,1.013l-20.8,11.973c-.315.18-.59.02-.613-.359l-.014-.236A1.184,1.184,0,0,1,201.908,411.419Z" transform="translate(-199.908 -363.215)" fill="#e0e0e0"/></g><g transform="translate(5.246 14.562)"><path d="M198.286,361.661l8.4-4.809.614,10.077-8.4,4.809Z" transform="translate(-198.286 -356.853)" fill="#27debf"/><path d="M200.272,363.828l.185,3.023.262-.156-.056-.926a1.729,1.729,0,0,1,.839-1.439l1.242-.711.274,4.493a1.755,1.755,0,0,1-.715,1.521l-.78.447.02.321,4.2-2.4-.02-.321-.78.446c-.431.247-.81-.034-.845-.627L203.823,363l1.242-.711c.494-.283.921-.1.952.414l.056.926.263-.145-.184-3.023Z" transform="translate(-198.905 -357.977)" fill="#fafafa"/></g></g><g transform="translate(36.212 13.789)"><path d="M211.5,410.734a1.6,1.6,0,0,1-.7-1.159l-2.808-46.1a1.344,1.344,0,0,1,.6-1.148l28.688-16.467a1.434,1.434,0,0,1,1.3.01,1.606,1.606,0,0,1,.7,1.159l2.809,46.1a1.344,1.344,0,0,1-.6,1.148L212.8,410.745A1.434,1.434,0,0,1,211.5,410.734Z" transform="translate(-207.985 -345.712)" fill="#f0f0f0"/><g transform="translate(-208.576 -346.087)" fill="#fafafa" stroke-miterlimit="10"><path d="M 213.1032409667969 410.9559326171875 C 212.9693145751953 410.9559326171875 212.9438781738281 410.7760620117188 212.9391784667969 410.6987609863281 L 210.1301574707031 364.601318359375 C 210.1095886230469 364.2634887695313 210.3275299072266 363.8432006835938 210.6060943603516 363.6835327148438 L 239.2953491210938 347.21630859375 C 239.3538665771484 347.1827697753906 239.4091339111328 347.1650085449219 239.4550476074219 347.1650085449219 C 239.5889739990234 347.1650085449219 239.6144104003906 347.3448791503906 239.6191101074219 347.4222106933594 L 242.4281311035156 393.5196533203125 C 242.4483795166016 393.8514404296875 242.2256469726563 394.2802734375 241.9514923095703 394.4374084472656 L 213.262939453125 410.9046325683594 C 213.2044219970703 410.9381713867188 213.1491394042969 410.9559326171875 213.1032409667969 410.9559326171875 Z" stroke="none"/><path d="M 213.1858367919922 410.6624755859375 L 241.8279724121094 394.2218627929688 C 242.0237121582031 394.1097106933594 242.1948852539063 393.7757873535156 242.1801910400391 393.5347595214844 L 239.3724517822266 347.4584655761719 L 210.7296295166016 363.8990478515625 C 210.5342407226563 364.0110473632813 210.3634185791016 364.344970703125 210.3780975341797 364.5862121582031 L 213.1858367919922 410.6624755859375 M 213.1032257080078 411.204345703125 C 212.8772125244141 411.204345703125 212.7100830078125 411.023193359375 212.6912231445313 410.7138671875 L 209.8822021484375 364.6164245605469 C 209.8560485839844 364.1868286132813 210.1245422363281 363.6732177734375 210.4825744628906 363.468017578125 L 239.1716918945313 347.0008544921875 C 239.2715148925781 346.9436645507813 239.36767578125 346.9165954589844 239.4550476074219 346.9165954589844 C 239.6810607910156 346.9165954589844 239.8482055664063 347.0977478027344 239.8670654296875 347.4070739746094 L 242.6760864257813 393.5045471191406 C 242.7022399902344 393.9334411621094 242.4330139160156 394.44775390625 242.0750122070313 394.6529235839844 L 213.3865966796875 411.1200866699219 C 213.2867736816406 411.1772766113281 213.1905975341797 411.204345703125 213.1032257080078 411.204345703125 Z" stroke="none" fill="#ebebeb"/></g><path d="M212.712,418.528a1.437,1.437,0,0,1-1.215-.053,1.6,1.6,0,0,1-.7-1.157l-2.809-46.1a1.318,1.318,0,0,1,.155-.66l1.306.764a1.28,1.28,0,0,0-.158.656l2.809,46.1C212.125,418.475,212.392,418.659,212.712,418.528Z" transform="translate(-207.986 -353.453)" fill="#e0e0e0"/><g transform="translate(5.905 7.678)"><path d="M231.553,362.818l10.111-5.88c.315-.18.59-.02.613.359l.014.237a1.183,1.183,0,0,1-.529,1.012l-10.112,5.88c-.315.18-.59.02-.613-.359l-.014-.237A1.183,1.183,0,0,1,231.553,362.818Z" transform="translate(-221.066 -356.864)" fill="#e0e0e0"/><path d="M231.908,368.648l10.111-5.879c.315-.18.59-.02.613.359l.014.236a1.184,1.184,0,0,1-.529,1.013l-10.112,5.879c-.315.18-.59.02-.613-.358l-.014-.237A1.187,1.187,0,0,1,231.908,368.648Z" transform="translate(-221.177 -358.681)" fill="#e0e0e0"/><path d="M232.264,374.479l10.111-5.88c.315-.18.59-.02.613.359l.014.237a1.182,1.182,0,0,1-.529,1.012l-10.111,5.879c-.316.181-.59.021-.613-.358l-.014-.237A1.183,1.183,0,0,1,232.264,374.479Z" transform="translate(-221.288 -360.497)" fill="#e0e0e0"/><path d="M217.448,392.234l20.8-11.973c.316-.18.59-.02.613.359l.014.236a1.184,1.184,0,0,1-.529,1.013l-20.8,11.973c-.315.18-.59.02-.613-.359l-.014-.237A1.184,1.184,0,0,1,217.448,392.234Z" transform="translate(-216.672 -364.13)" fill="#e0e0e0"/><path d="M217.093,386.4l20.8-11.973c.316-.181.59-.02.613.358l.014.237a1.185,1.185,0,0,1-.53,1.013l-20.8,11.973c-.315.181-.59.021-.613-.358l-.014-.237A1.184,1.184,0,0,1,217.093,386.4Z" transform="translate(-216.562 -362.313)" fill="#e0e0e0"/><path d="M217.806,398.107l20.8-11.973c.316-.18.59-.02.613.359l.014.237a1.184,1.184,0,0,1-.53,1.012l-20.8,11.973c-.315.18-.59.02-.613-.359l-.014-.236A1.184,1.184,0,0,1,217.806,398.107Z" transform="translate(-216.784 -365.959)" fill="#e0e0e0"/><path d="M218.161,403.937l20.8-11.973c.316-.181.591-.021.613.358l.014.237a1.185,1.185,0,0,1-.529,1.013l-20.8,11.973c-.315.181-.59.021-.613-.358l-.014-.237A1.187,1.187,0,0,1,218.161,403.937Z" transform="translate(-216.895 -367.775)" fill="#e0e0e0"/><path d="M218.517,409.768l20.8-11.973c.315-.18.59-.02.613.359l.014.236a1.184,1.184,0,0,1-.529,1.013l-20.8,11.973c-.316.18-.59.02-.613-.359l-.014-.237A1.183,1.183,0,0,1,218.517,409.768Z" transform="translate(-217.005 -369.592)" fill="#e0e0e0"/><path d="M218.872,415.6l20.8-11.973c.315-.18.59-.02.613.359l.014.237a1.183,1.183,0,0,1-.529,1.013l-20.8,11.973c-.316.18-.59.02-.613-.358l-.014-.237A1.185,1.185,0,0,1,218.872,415.6Z" transform="translate(-217.116 -371.408)" fill="#e0e0e0"/><path d="M219.227,421.429l20.8-11.973c.315-.18.59-.02.613.359l.014.236a1.185,1.185,0,0,1-.53,1.013l-20.8,11.973c-.315.18-.59.02-.613-.359l-.014-.237A1.184,1.184,0,0,1,219.227,421.429Z" transform="translate(-217.227 -373.224)" fill="#e0e0e0"/></g><g transform="translate(5.246 14.562)"><path d="M215.6,371.671l8.4-4.809.614,10.077-8.4,4.809Z" transform="translate(-215.605 -366.862)" fill="#27debf"/><path d="M217.591,373.837l.185,3.023.262-.156-.056-.926a1.73,1.73,0,0,1,.839-1.439l1.242-.711.273,4.493a1.755,1.755,0,0,1-.715,1.522l-.78.446.019.321,4.2-2.4-.02-.321-.78.447c-.431.246-.81-.034-.845-.628l-.274-4.493,1.242-.711c.494-.284.921-.1.951.413l.056.927.264-.146-.185-3.023Z" transform="translate(-216.224 -367.986)" fill="#fafafa"/></g></g><g transform="translate(0 28.974)"><g transform="translate(7.873 10.873)"><path d="M204.507,405.364v26.191l-37.683-21.805V383.56Z" transform="translate(-166.824 -383.56)" fill="#27debf"/><path d="M204.507,405.364v26.191l-37.683-21.805V383.56Z" transform="translate(-166.824 -383.56)" opacity="0.38"/></g><g transform="translate(45.556 13.356)"><path d="M255.021,413.358V387.167l-33.464,19.32v26.191Z" transform="translate(-221.557 -387.167)" fill="#27debf"/><path d="M255.021,413.358V387.167l-33.464,19.32v26.191Z" transform="translate(-221.557 -387.167)" opacity="0.23"/><path d="M255.021,387.167l-33.464,19.32v26.191l.624-25.665Z" transform="translate(-221.557 -387.167)" fill="#fff" opacity="0.7"/></g><g transform="translate(45.556 0.847)"><path d="M221.557,400.827l3.138-12.684L257.856,369l-2.835,12.509Z" transform="translate(-221.557 -368.998)" fill="#27debf"/><path d="M221.557,400.827l3.138-12.684L257.856,369l-2.835,12.509Z" transform="translate(-221.557 -368.998)" opacity="0.3"/></g><path d="M163.262,378.641l-7.874-10.873,37.686,21.8,7.87,10.873Z" transform="translate(-155.388 -367.768)" fill="#27debf"/><path d="M163.262,378.641l-7.874-10.873,37.686,21.8,7.87,10.873Z" transform="translate(-155.388 -367.768)" opacity="0.45"/><path d="M155.388,367.768l37.686,21.8,7.87,10.873-8.289-10.49Z" transform="translate(-155.388 -367.768)" fill="#fff" opacity="0.7"/></g><g transform="translate(47.76 73.772)"><g transform="translate(6.841)" opacity="0.7"><g transform="translate(0 1.083)"><g transform="translate(0.602 0.177)"><path d="M235.775,439.685a.206.206,0,0,1-.206-.205v-4.609a.206.206,0,0,1,.412,0v4.609A.206.206,0,0,1,235.775,439.685Z" transform="translate(-235.569 -434.665)" fill="#fff"/></g><path d="M234.9,436.387a.214.214,0,0,1-.081-.017.206.206,0,0,1-.107-.271l.733-1.692.816.943a.206.206,0,1,1-.311.27l-.388-.448-.472,1.091A.206.206,0,0,1,234.9,436.387Z" transform="translate(-234.695 -434.408)" fill="#fff"/></g><g transform="translate(1.902)"><g transform="translate(0.602 0.176)"><path d="M238.538,438.11a.206.206,0,0,1-.206-.206V433.3a.206.206,0,1,1,.411,0V437.9A.205.205,0,0,1,238.538,438.11Z" transform="translate(-238.332 -433.091)" fill="#fff"/></g><path d="M237.664,434.812a.2.2,0,0,1-.082-.017.206.206,0,0,1-.107-.271l.732-1.69.817.942a.206.206,0,0,1-.311.27l-.388-.448-.472,1.09A.207.207,0,0,1,237.664,434.812Z" transform="translate(-237.458 -432.835)" fill="#fff"/></g></g><g transform="translate(0 2.22)" opacity="0.7"><g transform="translate(1.695 3.242)"><path d="M227.691,444.714a.453.453,0,0,1-.225-.058.543.543,0,0,1-.246-.494V443.6a.206.206,0,1,1,.411,0v.564c0,.085.023.128.039.137s.063.006.134-.036a1.2,1.2,0,0,0,.383-.929v-2.359a.206.206,0,1,1,.411,0v2.359a1.565,1.565,0,0,1-.585,1.285A.644.644,0,0,1,227.691,444.714Z" transform="translate(-227.22 -440.769)" fill="#fff"/></g><path d="M224.758,441.347v-.356a5.823,5.823,0,0,1,2.63-4.557,1.741,1.741,0,0,1,2.837,1.638v.119Zm3.861-4.875a2.1,2.1,0,0,0-1.025.319,5.432,5.432,0,0,0-2.4,3.833l4.622-2.669a1.522,1.522,0,0,0-.635-1.341A1.1,1.1,0,0,0,228.619,436.472Z" transform="translate(-224.758 -436.06)" fill="#fff"/></g></g></g><g transform="translate(225.939 125.662)"><g transform="translate(0 0)"><g transform="translate(42.626 134.931)"><g transform="translate(0 3.937)"><path d="M385.933,372.354c-.273-.033-.266.779-.182,1.13a4.693,4.693,0,0,0,3.13,2.028,24.942,24.942,0,0,0,5.893.177,30.306,30.306,0,0,1,4.351.83,6.2,6.2,0,0,0,4-.763,1.227,1.227,0,0,0,.317-.96c0-.779-.065-.938-.156-.934Z" transform="translate(-385.699 -367.516)" fill="#37474f"/><g transform="translate(0.23)"><path d="M403.183,369.344q.044.232.08.467a7.8,7.8,0,0,1,.07,2.4,2.175,2.175,0,0,1-1.461,1.011,7.339,7.339,0,0,1-3.986-.09,11.658,11.658,0,0,0-3.014-.414,28.939,28.939,0,0,1-4.1.03,9.772,9.772,0,0,1-2.981-.739,3.772,3.772,0,0,1-1.762-1.7,2.743,2.743,0,0,1,1.635-2.67,6.16,6.16,0,0,1,3.068-.526c1.144.05,2,.233,3.021.2a4.988,4.988,0,0,0,2.037-.41,2,2,0,0,0,.67-.881c.178-.354.248-.673.574-.694,0,0,4.8.083,5.283.144.558.07.578,2.01.632,2.39.042.3.039.615.105.9C403.1,368.958,403.146,369.151,403.183,369.344Z" transform="translate(-386.034 -365.328)" fill="#455a64"/></g><path d="M395.229,367.826a.713.713,0,0,0-.246-.1c-.462-.087-.834.357-1.045.707a2.945,2.945,0,0,0-.268.686,1.632,1.632,0,0,0-.05.906c.021.076.076.165.153.149s.092-.1.1-.173a3.5,3.5,0,0,1,.395-1.208,1.4,1.4,0,0,1,.3-.435,1.324,1.324,0,0,1,.474-.274c.07-.023.382-.012.313-.15a.2.2,0,0,0-.06-.064C395.273,367.854,395.251,367.84,395.229,367.826Z" transform="translate(-388.153 -366.072)" fill="#fafafa"/><path d="M397.371,367.946a.882.882,0,0,0-.622.15,1.259,1.259,0,0,0-.388.6,1.927,1.927,0,0,0-.093,1.561c.082.145.208.075.262-.051a2.072,2.072,0,0,0,.073-.481,4.4,4.4,0,0,1,.326-1.023,1.625,1.625,0,0,1,.2-.369.735.735,0,0,1,.213-.185.457.457,0,0,1,.129-.049,1.14,1.14,0,0,1,.128-.012c0-.066-.071-.106-.134-.123A.952.952,0,0,0,397.371,367.946Z" transform="translate(-388.951 -366.141)" fill="#fafafa"/><path d="M399.544,367.439a.844.844,0,0,0-.4.253,1.137,1.137,0,0,0-.2.406,4.34,4.34,0,0,0-.221,1.013,1.259,1.259,0,0,0,.147.7c.049.083.14.169.23.132s.093-.194.1-.282c.021-.162.012-.331.019-.494a2.89,2.89,0,0,1,.616-1.653.1.1,0,0,0,.031-.081c-.011-.043-.071-.049-.116-.043A1.257,1.257,0,0,0,399.544,367.439Z" transform="translate(-389.754 -365.971)" fill="#fafafa"/><path d="M391.37,367.8c-.471-.024-1.489.587-2.023,2.023a8.274,8.274,0,0,0-.324,3.273,4.663,4.663,0,0,1-2.586-1.33,2.8,2.8,0,0,1-.631-.852,2.9,2.9,0,0,1,.567-2.2,4.492,4.492,0,0,1,3.473-1.334c1.882-.036,2.028.469,2.028.469Z" transform="translate(-385.727 -365.967)" fill="#fafafa"/></g><path d="M407.543,360.457s-.149,2.468-.341,3.609c-.107.644-.74,1.638-2.737,1.6a2.309,2.309,0,0,1-2.349-1.546,40.6,40.6,0,0,1-.112-4.508Z" transform="translate(-390.774 -359.609)" fill="#ffa8a7"/></g><g transform="translate(83.792 122.311)"><path d="M454.961,348.69l-2.977-7.412-6.492,2.229s4.529,6.539,5.067,7.25C451.446,351.929,454.961,348.69,454.961,348.69Z" transform="translate(-445.492 -341.278)" fill="#ffa8a7"/><g transform="translate(1.696 6.193)"><path d="M460.016,353.546a3.819,3.819,0,0,1,0,.9l-.233,3.108a7.752,7.752,0,0,1-.169,1.221,7.5,7.5,0,0,0-.057,1.473c-.012.516-.024,1.031-.031,1.546a2.787,2.787,0,0,0,0,.66c.053.213-3.265,2.115-4.6,2.847-.078.044-.156.078-.242.117a2.112,2.112,0,0,1-2.174-.509,3.691,3.691,0,0,1,.9-4.065s.169.01.136-1.3c0-.932-.012-1.879-.1-2.807a6.07,6.07,0,0,0-.441-1.7,4.091,4.091,0,0,1-.569-1.575,2.376,2.376,0,0,1,.522-1.1,3.328,3.328,0,0,1,.811-.879,5.845,5.845,0,0,1,2.348-1.159,1.009,1.009,0,0,1,.527-.019c.266.083.423.345.6.56a6.048,6.048,0,0,0,1.5,1.115,2.66,2.66,0,0,1,1.225,1.367A1.721,1.721,0,0,1,460.016,353.546Z" transform="translate(-449.291 -350.272)" fill="#455a64"/><path d="M452.2,365.582a4.625,4.625,0,0,0-.432.626h-.005a4.673,4.673,0,0,0-.465,3.439c-2.343-.213-2.958-1.567-2.958-1.567a2.252,2.252,0,0,1,1.217-2.018,3.173,3.173,0,0,1,.51-.266.1.1,0,0,0,.024-.014A3.428,3.428,0,0,1,452.2,365.582Z" transform="translate(-448.072 -355.016)" fill="#fafafa"/><path d="M461.978,355.454c.616.239.458,1.931.068,3.559a7.764,7.764,0,0,0-.4,3.552c.2,1.354.312,1.961-.241,2.458a54.141,54.141,0,0,1-4.946,2.549,16.138,16.138,0,0,0,.981-5.088c.116-3,.317-4.936,1.71-6.3A2.636,2.636,0,0,1,461.978,355.454Z" transform="translate(-450.603 -351.84)" fill="#27debf"/><path d="M461.978,355.454c.616.239.458,1.931.068,3.559a7.764,7.764,0,0,0-.4,3.552c.2,1.354.312,1.961-.241,2.458a54.141,54.141,0,0,1-4.946,2.549,16.138,16.138,0,0,0,.981-5.088c.116-3,.317-4.936,1.71-6.3A2.636,2.636,0,0,1,461.978,355.454Z" transform="translate(-450.603 -351.84)" opacity="0.3"/><path d="M448.216,364.665a8.193,8.193,0,0,0,3.667,1.6c1.961.223,2.059-.531,2.265-2.854s.286-5.537,1.2-6.952a3.77,3.77,0,0,1,3.06-1.9c.124-.065.725.384.921.655a3.35,3.35,0,0,0-2.567,1.029c-1.225,1.2-1.449,3.725-1.5,6.023s-.158,4.96-1.988,5.239a6.661,6.661,0,0,1-4.987-1.517A.927.927,0,0,1,448.216,364.665Z" transform="translate(-447.955 -351.602)" fill="#37474f"/><g transform="translate(3.914 6.313)"><path d="M454.021,364.378a.648.648,0,0,0-.272.425,1.317,1.317,0,0,0,.665,1.206c.247.141.459.085.061-.4A2.519,2.519,0,0,1,454.021,364.378Z" transform="translate(-453.673 -360.98)" fill="#fafafa"/><path d="M454.014,362.028a.564.564,0,0,0-.166.352,2.014,2.014,0,0,0,.806,1.266c.431.192.2-.283,0-.5A8.58,8.58,0,0,1,454.014,362.028Z" transform="translate(-453.705 -360.248)" fill="#fafafa"/><path d="M453.843,359.442a.391.391,0,0,0-.2.288c-.012.187.872.85,1.148.828s.342-.11,0-.342S453.843,359.442,453.843,359.442Z" transform="translate(-453.64 -359.442)" fill="#fafafa"/></g></g></g><path d="M433.379,319.782s-14.179-21.16-14.61-22.819-3.117-18.931-3.117-18.931L410.1,298.38a33.86,33.86,0,0,1,.5,5.721,50.919,50.919,0,0,1-1.132,10c-1.48,6.992-2.317,13.69-2.317,13.69a5.609,5.609,0,0,1-3.036.664,6.349,6.349,0,0,1-2.971-.844s-.771-18.91-.991-23.247a62.157,62.157,0,0,1-.115-9.125c.327-3.889.51-7.928,1.257-16.347.656-7.392,2-23.131,2-23.131l22.785-1.511s1.919,3.637,2.147,13.079c.18,7.376.169,27.614.169,27.614,3.382,2.122,4.417,4.319,6.029,8.469,1.018,2.615,3.639,10.741,4.415,13.145A15.468,15.468,0,0,0,433.379,319.782Z" transform="translate(-347.502 -191.856)" fill="#455a64"/><path d="M344.729,266.615l-16.494,4.755-3.292.951h-.007a.908.908,0,0,1-.989-1.385c.006-.007.012-.02.019-.027l2.28-3.085,10.023-13.575,3.4,4.969Z" transform="translate(-323.786 -191.856)" fill="#f28f8f"/><path d="M339.669,259.217,326.415,269.83l-2.527,2.019a.875.875,0,0,1,.059-.915c.006-.007.012-.02.019-.027l2.28-3.085,10.023-13.575Z" transform="translate(-323.786 -191.856)" fill="#ffa8a7"/><path d="M328.235,277.511l-3.292.951h-.007a.908.908,0,0,1-.989-1.385c.006-.007.012-.02.019-.027l2.28-3.085a3.592,3.592,0,0,0,.168,2.008A2.825,2.825,0,0,0,328.235,277.511Z" transform="translate(-323.786 -197.998)" fill="#37474f"/><path d="M415.722,179.55l-1.621,1.13-1.961,1.355-70.32,48.942a9.531,9.531,0,0,0,1.187,6.87c1.769,3.183,4.872,5.545,7.266,5.489l69.8-48.581,3.74-2.6C421.3,193.7,413.221,181.141,415.722,179.55Z" transform="translate(-329.335 -168.586)" fill="#27debf"/><path d="M415.722,179.55l-1.621,1.13-1.961,1.355-70.32,48.942a9.531,9.531,0,0,0,1.187,6.87c1.769,3.183,4.872,5.545,7.266,5.489l69.8-48.581,3.74-2.6C421.3,193.7,413.221,181.141,415.722,179.55Z" transform="translate(-329.335 -168.586)" opacity="0.2"/><path d="M414.1,181.191l-1.961,1.355-70.32,48.942a9.531,9.531,0,0,0,1.187,6.87l72.348-50.983Z" transform="translate(-329.335 -169.098)" fill="#27debf"/><path d="M438.426,185.762l-3.616,2.527c-1.073.7-.187,3.4,1.38,6.145,2.072,3.648,5.337,7.356,6.76,6.435L445.611,199l.956-.666c-1.423.922-4.7-2.788-6.768-6.436-1.5-2.629-2.369-5.238-1.479-6.046l.011-.008A.263.263,0,0,1,438.426,185.762Z" transform="translate(-358.225 -170.521)" fill="#e0e0e0"/><path d="M439.8,191.9c-1.5-2.629-2.369-5.238-1.479-6.046l.01-.008a.272.272,0,0,1,.1-.081l-3.616,2.527c-1.073.7-.187,3.4,1.38,6.145L439.8,191.9Z" transform="translate(-358.225 -170.521)" fill="#fafafa"/><path d="M438.761,185.551c-2.494,1.615,5.647,14.188,8.141,12.573l3.628-2.517c-2.494,1.615-10.634-10.957-8.14-12.572Z" transform="translate(-359.456 -169.672)" fill="#27debf"/><path d="M447.425,179.55l-3.582,2.485c-2.461,1.568,5.279,13.782,7.933,12.72a.607.607,0,0,0,.151-.073l3.588-2.531C453,193.7,444.923,181.141,447.425,179.55Z" transform="translate(-361.037 -168.586)" fill="#e0e0e0"/><path d="M464.24,164.039l-15.194,10.55c-1.07.68-.209,3.362,1.332,6.092,2.061,3.655,5.321,7.4,6.759,6.509.009,0,.009,0,.02-.006l14.612-10.152c3.6-2.087.592-9.555-3.233-12.336C467.112,163.645,465.587,163.257,464.24,164.039Z" transform="translate(-362.659 -163.626)" fill="#f28f8f"/><path d="M464.24,164.039l-15.194,10.55c-1.07.68-.209,3.362,1.332,6.092L465.7,170.539s-1.917-3.783-1.141-5.33,2.311-1.438,3.978-.514C467.112,163.645,465.587,163.257,464.24,164.039Z" transform="translate(-362.659 -163.626)" fill="#ffa8a7"/><path d="M442.39,183.035l-3.629,2.516c-1.069.691-.184,3.392,1.369,6.128l3.615-2.541C442.2,186.411,441.325,183.725,442.39,183.035Z" transform="translate(-359.457 -169.672)" fill="#fff" opacity="0.4"/><path d="M447.425,179.55l-3.583,2.485c-1.071.682-.208,3.384,1.326,6.129l3.587-2.522C447.221,182.913,446.356,180.23,447.425,179.55Z" transform="translate(-361.037 -168.586)" fill="#fafafa"/><g transform="translate(56.294 10.454)"><g transform="translate(7.007 19.957)"><path d="M415.729,209.148l.772,8.4,7.51-.436-.563-9.318Z" transform="translate(-415.729 -207.797)" fill="#ffa8a7"/></g><g transform="translate(0 12.068)"><path d="M407.027,196.338s-1.673,2.464-1.457,2.726a4.006,4.006,0,0,0,1.271.545Z" transform="translate(-405.551 -196.338)" fill="#f28f8f"/></g><path d="M425.613,184.678c-.235-.22-.492-.423-.715-.655a2.569,2.569,0,0,1-.271-.332,20.5,20.5,0,0,0-1.4-2.453,6.357,6.357,0,0,0-2.379-1.654,12.8,12.8,0,0,0-5.158-.694,39.564,39.564,0,0,1-5.237.029,4.637,4.637,0,0,0-2.342.082,2.434,2.434,0,0,0-1.317,2.346,4.22,4.22,0,0,0,1.179,2.545,1.568,1.568,0,0,0-1.1,1.663,3.511,3.511,0,0,0,.924,1.934,6.011,6.011,0,0,1,1.668,2.925c.327,1.746,2.209,2.676,3.4,3.911a18.582,18.582,0,0,1,1.294,1.4c.025.032.047.069.072.1a2.218,2.218,0,0,1-1.058-.089s-.222,3.722,2.41,4.933a10.8,10.8,0,0,0,5.184-.277,18.578,18.578,0,0,0,4.617-5.322C427.171,192.129,428.5,187.392,425.613,184.678Z" transform="translate(-405.936 -178.81)" fill="#263238"/><g transform="translate(1.202 7.096)"><path d="M415.733,198.224a1.985,1.985,0,0,1-1.347.817,2.2,2.2,0,0,1-1.06-.088s-.166,2.821,1.524,4.338c-.347.14-.663.248-.933.33-1.513.45-4.417.246-4.974-.284-.832-.794-2.187-2.882-1.422-8.888a12.216,12.216,0,0,1,1.776-5.334,2.578,2.578,0,0,0,1.483,1.973,2.5,2.5,0,0,0-.414,2.087,4.98,4.98,0,0,0,1.47,2.14.293.293,0,0,0,.128.09.873.873,0,0,0,.534-.075c.537-.781,1.273-1.692,2.711-1.21C416.872,194.674,416.781,196.705,415.733,198.224Z" transform="translate(-407.296 -189.116)" fill="#ffa8a7"/></g><path d="M409.912,209.591a8.538,8.538,0,0,0,4.047.337l-.039-1.079a10.618,10.618,0,0,1-1.918.616A6.878,6.878,0,0,1,409.912,209.591Z" transform="translate(-406.91 -188.167)" fill="#f28f8f"/><path d="M413.291,199.973a1.391,1.391,0,0,1-.847-1.793,1.429,1.429,0,0,1,1.824-.832Z" transform="translate(-407.671 -184.558)" fill="#263238"/></g><path d="M422.743,283.807l1.926-8.26s3.284.235,7.318-2.992c0,0-.465,2.885-6.161,4.227l-1.89,8.093.594,10.029S422.768,283.991,422.743,283.807Z" transform="translate(-354.613 -197.559)" opacity="0.15"/><g transform="translate(54.073 34.293)"><path d="M426.237,216.7c-.722-2.17-1.805-2.975-2.862-3.179a22.734,22.734,0,0,0-3.882.031c-.235,1.206-4.12,2.067-7.615.817l-3.51.552c-3.1,1.43-3.8,5.006-5.447,8.663a5.94,5.94,0,0,0,1.681,7.268s-.306,4.39-.466,6.85q-.359,5.509-.764,11.016s3.437,3.149,14.1,2.754c7.8-.289,10.585-2.9,11.045-4.09-.42-4.9-2.887-9.52-3.365-11.036a9.245,9.245,0,0,1-.464-4.708C426.571,224.256,427.238,219.709,426.237,216.7Z" transform="translate(-402.326 -213.435)" fill="#27debf"/><path d="M426.237,216.7c-.722-2.17-1.805-2.975-2.862-3.179a22.734,22.734,0,0,0-3.882.031c-.235,1.206-4.12,2.067-7.615.817l-3.51.552c-3.1,1.43-3.8,5.006-5.447,8.663a5.94,5.94,0,0,0,1.681,7.268s-.306,4.39-.466,6.85q-.359,5.509-.764,11.016s3.437,3.149,14.1,2.754c7.8-.289,10.585-2.9,11.045-4.09-.42-4.9-2.887-9.52-3.365-11.036a9.245,9.245,0,0,1-.464-4.708C426.571,224.256,427.238,219.709,426.237,216.7Z" transform="translate(-402.326 -213.435)" fill="#fff" opacity="0.4"/></g><path d="M395.489,215.352c-6.034.323-6.425,1.649-9.193,7.275-1.464,2.976-3.767,8.959-5.151,11.83-3.042,1.374-10.068,2.5-12.834,1.906a2.227,2.227,0,0,1-1.355-.87c-.882-1.239-1.752-1.412-2.82-2.3-.828-.689-1.064-1.309-1.305-1.194a1.224,1.224,0,0,0-.448,1.6,6.237,6.237,0,0,0,.935,1.472,12.551,12.551,0,0,1-3.093-1.641c-2.284-1.618-3.619-1.606-3.408,1.961.132,2.236,1.631,3.924,6.667,5.27a40.164,40.164,0,0,0,5.633,1.194,53.576,53.576,0,0,0,14.422-.921,5.322,5.322,0,0,0,2.677-1.665c1.935-1.993,6.384-10.76,6.384-10.76C395.991,223.19,396.282,218.345,395.489,215.352Z" transform="translate(-334.069 -179.739)" fill="#ffa8a7"/></g></g><g transform="translate(276.961 84.989)"><g transform="translate(0 0)"><g transform="translate(11.119 25.151)"><path d="M416.569,150.239a.5.5,0,0,1-.187-.188L414.044,146v-2.23l6.884-2.691v2.23l-.834,2.409,4.091-2.362.249,1.382L422,152.7a.511.511,0,0,1-.739.275C421.185,152.929,416.828,150.388,416.569,150.239Z" transform="translate(-414.044 -141.08)" fill="#27debf"/><path d="M416.569,150.239a.5.5,0,0,1-.187-.188L414.044,146v-2.23l6.884-2.691v2.23l-.834,2.409,4.091-2.362.249,1.382L422,152.7a.511.511,0,0,1-.739.275C421.185,152.929,416.828,150.388,416.569,150.239Z" transform="translate(-414.044 -141.08)" opacity="0.3"/><path d="M426.169,144.387l.249,1.382-2.437,7.956a.511.511,0,0,1-.925.088l-2.643-4.578.3-1.7Z" transform="translate(-416.028 -142.11)" fill="#27debf"/><path d="M426.169,144.387l.249,1.382-2.437,7.956a.511.511,0,0,1-.925.088l-2.643-4.578.3-1.7Z" transform="translate(-416.028 -142.11)" opacity="0.2"/></g><path d="M427.684,108.938a4.925,4.925,0,0,0-2.229-3.86l0,0a4.925,4.925,0,0,0-4.457,0l-20.878,11.969a4.926,4.926,0,0,0-2.229,3.86V138.1a4.927,4.927,0,0,0,2.229,3.86v0a4.927,4.927,0,0,0,4.457,0l21.086-12.121a3.457,3.457,0,0,0,2.021-3.708Z" transform="translate(-397.894 -104.549)" fill="#27debf"/><path d="M427.684,108.938a4.925,4.925,0,0,0-2.229-3.86l0,0a4.925,4.925,0,0,0-4.457,0l-20.878,11.969a4.926,4.926,0,0,0-2.229,3.86V138.1a4.927,4.927,0,0,0,2.229,3.86v0a4.927,4.927,0,0,0,4.457,0l21.086-12.121a3.457,3.457,0,0,0,2.021-3.708Z" transform="translate(-397.894 -104.549)" opacity="0.2"/><path d="M397.894,144.511a4.927,4.927,0,0,0,2.229,3.86v0a4.981,4.981,0,0,0,4.076.187c-1.049.4-1.847-.2-1.847-1.473V129.89a4.562,4.562,0,0,1,.653-2.2l-4.455-2.569a4.562,4.562,0,0,0-.653,2.2Z" transform="translate(-397.894 -110.958)" opacity="0.2"/><path d="M427.91,108.306c-.26-.946-1.122-1.248-2.152-.655l-20.883,11.973a4.427,4.427,0,0,0-1.57,1.663l-4.452-2.567a4.492,4.492,0,0,1,1.57-1.663l20.872-11.973a4.954,4.954,0,0,1,4.46,0h0A4.915,4.915,0,0,1,427.91,108.306Z" transform="translate(-398.193 -104.551)" fill="#27debf"/><g transform="translate(9.363 15.038)"><path d="M429.244,129.474c0,1.053.739,1.479,1.65.953a3.647,3.647,0,0,0,1.65-2.858c0-1.052-.739-1.478-1.65-.952A3.647,3.647,0,0,0,429.244,129.474Z" transform="translate(-417.023 -126.392)" fill="#fafafa"/><path d="M420.368,134.6c0,1.052.739,1.478,1.65.952a3.646,3.646,0,0,0,1.65-2.857c0-1.053-.739-1.479-1.65-.953A3.648,3.648,0,0,0,420.368,134.6Z" transform="translate(-414.258 -127.988)" fill="#fafafa"/><path d="M411.493,139.723c0,1.052.739,1.479,1.65.952a3.645,3.645,0,0,0,1.65-2.857c0-1.052-.738-1.479-1.65-.953A3.648,3.648,0,0,0,411.493,139.723Z" transform="translate(-411.493 -129.584)" fill="#fafafa"/></g></g></g></g></svg>