<svg xmlns="http://www.w3.org/2000/svg" width="330" height="291.054" viewBox="0 0 330 291.054"><g transform="translate(-16.942 -62.108)"><g transform="translate(18.023 169.286)"><ellipse cx="163.578" cy="91.938" rx="163.578" ry="91.938" transform="translate(0 0)" fill="#f5f5f5"/></g><g transform="translate(27.974 212.729)"><ellipse cx="33.458" cy="19.317" rx="33.458" ry="19.317" transform="translate(0 23.022)" fill="#e0e0e0"/><ellipse cx="33.458" cy="19.317" rx="33.458" ry="19.317" transform="translate(241.072 23.022)" fill="#e0e0e0"/><ellipse cx="102.035" cy="58.91" rx="102.035" ry="58.91" transform="translate(51.826)" fill="#e0e0e0"/></g><g transform="translate(16.942 197.226)"><g transform="translate(0 0)"><path d="M46.061,288.844c.624-5.115-1.783-16.162-6.282-23.451S27.528,252.23,21.353,253.535c-5.751,1.215-6.036,8.532.077,14.149s15.448,12.875,17.382,21.531l4.939,10.934Z" transform="translate(-16.942 -253.353)" fill="#27debf"/><g opacity="0.15"><path d="M46.061,288.844c.624-5.115-1.783-16.162-6.282-23.451S27.528,252.23,21.353,253.535c-5.751,1.215-6.036,8.532.077,14.149s15.448,12.875,17.382,21.531l4.939,10.934Z" transform="translate(-16.942 -253.353)"/></g><g transform="translate(6.377 3.521)"><path d="M48.234,297.352a.375.375,0,0,1-.3-.341c-1.3-17.879-13.69-33.794-21.763-37.962a.377.377,0,0,1,.345-.669c8.226,4.246,20.853,20.427,22.168,38.577a.375.375,0,0,1-.348.4A.358.358,0,0,1,48.234,297.352Z" transform="translate(-25.968 -258.337)" fill="#fff"/></g><g transform="translate(0.781 22.426)"><path d="M41.942,316.064c-.471-2.975-3.4-8.148-8.607-12.76-5.755-5.1-13.464-8.066-14.886-11.665-1.708-4.322,2.177-7.736,8.534-6.149s16.631,11.779,16.829,25.26Z" transform="translate(-18.047 -285.094)" fill="#27debf"/><g transform="translate(5.432 3.492)"><path d="M45.816,314.65a.375.375,0,0,1-.292-.286c-3.53-15.612-14.3-22.254-19.506-23.585a.378.378,0,0,1-.272-.459.372.372,0,0,1,.459-.271c5.753,1.472,16.45,8.214,20.054,24.149a.376.376,0,0,1-.443.452Z" transform="translate(-25.735 -290.036)" fill="#fff"/></g></g></g><g transform="translate(300.521 4.038)"><path d="M442.342,291.369s-.6-9.267,2.644-17.127,8.662-13.377,14.371-14.879,11.345,2.984,5.808,7.759-15.873,10.492-18.475,25.088Z" transform="translate(-442.297 -259.068)" fill="#27debf"/><g opacity="0.15"><path d="M442.342,291.369s-.6-9.267,2.644-17.127,8.662-13.377,14.371-14.879,11.345,2.984,5.808,7.759-15.873,10.492-18.475,25.088Z" transform="translate(-442.297 -259.068)"/></g><g transform="translate(1.003 2.527)"><path d="M444.031,289.754a.289.289,0,0,1-.064-.007.313.313,0,0,1-.242-.372c3.4-16.151,13.9-24.531,18.981-26.7a.314.314,0,1,1,.247.577c-4.975,2.13-15.266,10.36-18.613,26.257A.315.315,0,0,1,444.031,289.754Z" transform="translate(-443.717 -262.644)" fill="#fff"/></g><g transform="translate(1.533 16.935)"><path d="M472.348,287.786a4.907,4.907,0,0,1-2.429,2.69,5.674,5.674,0,0,0-2.587,2.563c-.824,2.361,1.767,4.963.841,7.286a3.877,3.877,0,0,1-2.311,2,25.673,25.673,0,0,1-2.511.716,10.416,10.416,0,0,1-1.232.138,5.621,5.621,0,0,0-3.446,1.046c-1.508,1.272-1.619,3.5-2.331,5.346a8.164,8.164,0,0,1-5.009,4.656c-1.868.62-4.821.738-5.478-.015-.5-.572.252-2.729.134-3.48a31.031,31.031,0,0,1-.363-5.824,10.935,10.935,0,0,0-.129-2.654q-.29-1.467-.562-2.936a8.051,8.051,0,0,1-.425-2.984,11.069,11.069,0,0,1,1.125-3.1q.715-1.459,1.456-2.906a15.481,15.481,0,0,1,2.031-3.24,8.169,8.169,0,0,1,5.863-2.731c1.838-.042,3.772.626,5.593.191a46.53,46.53,0,0,1,5.276-1.456,6.479,6.479,0,0,1,5.433,1.634A3.431,3.431,0,0,1,472.348,287.786Z" transform="translate(-444.467 -283.038)" fill="#27debf"/><g transform="translate(1.774 2.084)"><path d="M447.26,310.029h-.023a.279.279,0,0,1-.258-.3c1.258-17.5,18.34-23.254,22.5-23.741a.282.282,0,0,1,.309.244.279.279,0,0,1-.244.31c-4.07.477-20.779,6.108-22.01,23.227A.277.277,0,0,1,447.26,310.029Z" transform="translate(-446.978 -285.988)" fill="#fff"/></g><g transform="translate(6.824 11.382)"><path d="M467.237,301.733a.277.277,0,0,1-.16-.049A14.843,14.843,0,0,0,454.5,300.6a.279.279,0,0,1-.184-.527,15.417,15.417,0,0,1,13.08,1.15.279.279,0,0,1-.156.509Z" transform="translate(-454.126 -299.149)" fill="#fff"/></g></g></g></g><g transform="translate(79.705 160.961)"><g transform="translate(10.835)"><g transform="translate(27.742)"><path d="M223.787,253.755l-63.409-36.61c26.848-15.3,68.99-19.881,103.754-9.61,42.945,12.688,63.718,45.124,43.015,70.391Z" transform="translate(-160.378 -202.023)" fill="#27debf"/><path d="M250.127,275.244v50.5l83.359,24.172v-50.5Z" transform="translate(-186.718 -223.512)" fill="#27debf"/><path d="M250.127,275.244v50.5l83.359,24.172v-50.5Z" transform="translate(-186.718 -223.512)" opacity="0.15"/><path d="M160.378,223.427v50.5l63.409,36.609v-50.5Z" transform="translate(-160.378 -208.305)" fill="#27debf"/><path d="M160.378,223.427v50.5l63.409,36.609v-50.5Z" transform="translate(-160.378 -208.305)" opacity="0.2"/><path d="M368.113,351.156c5.512-6.727,8.084-13.961,8.08-21.2v-50.5c0,7.235-2.569,14.469-8.08,21.2Z" transform="translate(-221.344 -224.748)" fill="#27debf"/><path d="M368.113,351.156c5.512-6.727,8.084-13.961,8.08-21.2v-50.5c0,7.235-2.569,14.469-8.08,21.2Z" transform="translate(-221.344 -224.748)" opacity="0.3"/></g><g transform="translate(98.912 66.915)"><path d="M318.462,328.388a125.02,125.02,0,0,1-21.01,9.554l-36.34-41.208,71.321,20.956A64.415,64.415,0,0,1,318.462,328.388Z" transform="translate(-261.111 -296.734)" fill="#455a64"/><path d="M261.111,296.734v43.544l36.341,41.209V337.942Z" transform="translate(-261.111 -296.734)" fill="#263238"/><path d="M312.547,390.191a125.076,125.076,0,0,0,21.01-9.555,64.4,64.4,0,0,0,13.97-10.7V326.395a64.417,64.417,0,0,1-13.97,10.7,125.02,125.02,0,0,1-21.01,9.554Z" transform="translate(-276.206 -305.439)" fill="#37474f"/></g><g transform="translate(0 41.627)"><path d="M164.144,341.587c-6.865-2.251-12.48-5.554-18.349-8.887-29.844-16.948-34.619-51.709-3.279-71.758l61.425,35.287Z" transform="translate(-121.112 -260.942)" fill="#27debf"/><path d="M164.144,341.587c-6.865-2.251-12.48-5.554-18.349-8.887-29.844-16.948-34.619-51.709-3.279-71.758l61.425,35.287Z" transform="translate(-121.112 -260.942)" opacity="0.3"/><path d="M221.816,310.887l-39.8,45.359v28l39.8-45.359Z" transform="translate(-138.987 -275.6)" fill="#27debf"/><path d="M221.816,310.887l-39.8,45.359v28l39.8-45.359Z" transform="translate(-138.987 -275.6)" opacity="0.5"/><path d="M164.144,383.827c-6.865-2.251-12.48-5.554-18.349-8.887-15.9-9.028-24.681-23.109-24.683-37.329V309.456c0,14.22,8.786,28.3,24.683,37.329,5.869,3.333,11.484,6.636,18.349,8.887Z" transform="translate(-121.112 -275.18)" fill="#27debf"/><path d="M164.144,383.827c-6.865-2.251-12.48-5.554-18.349-8.887-15.9-9.028-24.681-23.109-24.683-37.329V309.456c0,14.22,8.786,28.3,24.683,37.329,5.869,3.333,11.484,6.636,18.349,8.887Z" transform="translate(-121.112 -275.18)" opacity="0.4"/></g><g transform="translate(50.785 90.929)"><path d="M269.259,374.526c-23.637,6.573-52.518,5.339-76.266-1.213l37.639-42.589Z" transform="translate(-192.993 -330.724)" fill="#27debf"/><path d="M269.259,374.526c-23.637,6.573-52.518,5.339-76.266-1.213l37.639-42.589Z" transform="translate(-192.993 -330.724)" fill="#fff" opacity="0.7"/><path d="M192.993,410.307c23.748,6.552,52.63,7.787,76.266,1.214v-19.3c-23.637,6.573-52.518,5.339-76.266-1.213Z" transform="translate(-192.993 -348.415)" fill="#27debf"/><path d="M192.993,410.307c23.748,6.552,52.63,7.787,76.266,1.214v-19.3c-23.637,6.573-52.518,5.339-76.266-1.213Z" transform="translate(-192.993 -348.415)" fill="#fff" opacity="0.5"/></g></g><g transform="translate(0 58.179)"><circle cx="3.419" cy="3.419" r="3.419" transform="translate(44.005 20.267)" fill="#263238"/><path d="M153.2,308.055,115.829,284.37H105.776" transform="translate(-105.776 -284.37)" fill="none" stroke="#263238" stroke-linecap="round" stroke-linejoin="round" stroke-width="1.191"/></g><g transform="translate(140.521 61.667)"><path d="M304.668,321.411a3.419,3.419,0,1,0,3.419-3.419A3.419,3.419,0,0,0,304.668,321.411Z" transform="translate(-304.668 -297.725)" fill="#263238"/><path d="M309.507,312.992l41.025-23.686h16.05" transform="translate(-306.088 -289.307)" fill="none" stroke="#263238" stroke-linecap="round" stroke-linejoin="round" stroke-width="1.191"/></g></g><g transform="translate(244.733 101.85)"><path d="M343.807,151.49q.5.52,1.029,1.02c.468.445,1.419,1.157,1.889,1.6.145.137.7.5.75.657a10.271,10.271,0,0,1-.55-2.382,1.47,1.47,0,0,1,1.145-1.636c.318-.034.339.762,1,1.872.846,1.417,1.945,2.16,2.454,3.872a3.136,3.136,0,0,0,1.64,1.742l13.179,6.547s9.642-3.574,14.634-5.531c5.8-2.276,12.443-4.438,13.559-3.251l-11.086,10.017s-8.438,4.572-15.007,7.191a4.757,4.757,0,0,1-5.228-.638,122.087,122.087,0,0,1-11.23-7.423,73.859,73.859,0,0,0-7.175-4.638c-1.915-1.071-4.145-2.512-5.044-4.618a4.451,4.451,0,0,1-.04-3.649,4.574,4.574,0,0,0,.633-1.441,7.519,7.519,0,0,0-.042-.916.969.969,0,0,1,.323-.821.834.834,0,0,1,.87.009,2.567,2.567,0,0,1,.666.625Q342.962,150.62,343.807,151.49Z" transform="translate(-339.356 -127.335)" fill="#ffbda7"/><path d="M400.372,158.1c-4.973-.735-7.472.8-10.878,2.206-4.053,1.679-17.109,6.744-17.109,6.744l-8.424-3.971s-1.933,4.374-4.02,6.151c0,0,7.568,5.362,9.673,6.67s2.223,1.238,5.532.153,18.245-4.895,18.245-4.895Z" transform="translate(-345.397 -129.965)" fill="#37474f"/><path d="M362.316,164.367l-4.443-2.057a26.794,26.794,0,0,1-3.535,5.376l3.958,2.832a10.517,10.517,0,0,0,2.483-2.968A13.174,13.174,0,0,0,362.316,164.367Z" transform="translate(-343.753 -131.258)" fill="#263238"/><g transform="translate(37.085 63.979)"><path d="M445.588,324.767a6.471,6.471,0,0,1-5.757.171l-1.4-11.293,6.843.7Z" transform="translate(-405.518 -239.651)" fill="#ffbda7"/><path d="M415.735,316.06c-1.38,3.234-4.069,2.43-7.131.476l.189-11.4,7.236-.215Z" transform="translate(-396.764 -237.092)" fill="#ffbda7"/><g transform="translate(27.536 82.153)"><path d="M430.919,341.092a2.629,2.629,0,0,0,.13,1.747,5.5,5.5,0,0,0,3.942,1.524,9.5,9.5,0,0,0,5.565-1.15,3.9,3.9,0,0,0,2-3.116c.087-1.289-.093-2.524.49-3.531.538-.93,1.409-1.987,1.59-2.488a5.007,5.007,0,0,0-.062-2.618Z" transform="translate(-430.819 -327.033)" fill="#263238"/><path d="M436.786,327.852a6.091,6.091,0,0,1-.233,1.437,13.054,13.054,0,0,1-1.3,2.868,11.69,11.69,0,0,1-.9,1.355c-.659.832-1.487,1.524-2.185,2.324a4.612,4.612,0,0,0-1.311,2.811c-.043,1.772,1.895,2.316,3.381,2.536a10.865,10.865,0,0,0,4.8-.384,4.413,4.413,0,0,0,3.131-3.622c.067-.494.022-.995.066-1.491a6.953,6.953,0,0,1,1.284-3.137,9.329,9.329,0,0,0,1.005-1.716,5.314,5.314,0,0,0-.305-3.412c-.283-.935-.6-1.992-.932-1.893a1.207,1.207,0,0,1-.061.568,2.481,2.481,0,0,0-.244.565,4.356,4.356,0,0,1-.247.736,1.923,1.923,0,0,1-.759.89q-.064-1-.126-2a.7.7,0,0,0-.744-.813,12.584,12.584,0,0,0-3.794-.2.7.7,0,0,0-.5.237.729.729,0,0,0-.071.455A17.165,17.165,0,0,1,436.786,327.852Z" transform="translate(-430.83 -325.193)" fill="#455a64"/><path d="M436.746,334.969a5.057,5.057,0,0,1,2.93-.5,4.9,4.9,0,0,1,2.319.737.523.523,0,0,0,.673-.073h0a.493.493,0,0,0-.072-.75,4.982,4.982,0,0,0-2.611-.88,5.155,5.155,0,0,0-2.563.277S436.534,334.389,436.746,334.969Z" transform="translate(-432.549 -327.628)" fill="#f5f5f5"/><path d="M434.692,337.618a6.369,6.369,0,0,1,3.249-.43,4.6,4.6,0,0,1,2.257.782.524.524,0,0,0,.674-.073h0a.492.492,0,0,0-.072-.75,5.175,5.175,0,0,0-2.669-.954c-1.99-.081-2.5.341-2.5.341A1.643,1.643,0,0,0,434.692,337.618Z" transform="translate(-431.955 -328.418)" fill="#f5f5f5"/><path d="M441.174,330.77a4.934,4.934,0,0,0-2.491.284c-.344.206-.558.767-.329.9a4.589,4.589,0,0,1,2.2-.37,6.578,6.578,0,0,1,2.166.526c.172.07.376.17.555.262a.47.47,0,0,0,.647-.223h0a.441.441,0,0,0-.189-.562A6.379,6.379,0,0,0,441.174,330.77Z" transform="translate(-433.002 -326.821)" fill="#f5f5f5"/></g><g transform="translate(0 75.728)"><path d="M392.08,329.9a2.144,2.144,0,0,0,.135,1.572c.234.454,2.681,1.74,5.921,1.424a13.525,13.525,0,0,0,6.643-2.546,7.77,7.77,0,0,1,4.1-1.188c1.605-.14,3.692-1,4.022-1.766a3.558,3.558,0,0,0-.114-2.045Z" transform="translate(-391.886 -318.815)" fill="#263238"/><path d="M404.788,316.814l-.851-.284a.7.7,0,0,0-.481-.041c-.206.085-.279.332-.329.548a7.959,7.959,0,0,1-.312,1.421,3.517,3.517,0,0,1-.882.983,14.844,14.844,0,0,1-2.548,1.753c-1.044.6-2.069,1.075-3.15,1.6a27.329,27.329,0,0,0-3.432,1.5,2.343,2.343,0,0,0,.128,3.868,11.472,11.472,0,0,0,8.018.314c1.867-.589,3.9-2.663,6.361-2.93,1.568-.17,4.525-.7,5.5-1.922.358-.54-.191-2.2-.644-3.639-.494-1.567-.738-4.034-1.258-3.879-.021.527-.466.844-.73,1.294a9.169,9.169,0,0,0-.526,1.272,2.3,2.3,0,0,1-.788,1.106,1.049,1.049,0,0,1-1.275-.035c-.478-.463-.229-1.311-.582-1.874a1.992,1.992,0,0,0-1.13-.693Z" transform="translate(-391.845 -316.1)" fill="#455a64"/><path d="M404.557,321.689a1.459,1.459,0,0,1,1.137-.811,4.226,4.226,0,0,1,2.794.959.587.587,0,0,1-.057.971h0a.585.585,0,0,1-.671-.054A4.486,4.486,0,0,0,404.557,321.689Z" transform="translate(-395.576 -317.494)" fill="#f5f5f5"/><path d="M401.474,323.577a1.677,1.677,0,0,1,1.354-.749,5.229,5.229,0,0,1,3.056,1.041.573.573,0,0,1-.051.938h0a.56.56,0,0,1-.647-.055A4.491,4.491,0,0,0,401.474,323.577Z" transform="translate(-394.671 -318.075)" fill="#f5f5f5"/><path d="M398.058,325.29a1.881,1.881,0,0,1,1.409-.682,5.025,5.025,0,0,1,2.928,1.056.573.573,0,0,1-.051.938h0a.559.559,0,0,1-.647-.055A4.292,4.292,0,0,0,398.058,325.29Z" transform="translate(-393.669 -318.597)" fill="#f5f5f5"/></g><path d="M433.314,211.4c.777,12.38,2.035,39.691,2.035,39.691.177,1.538.745,5.235,1.025,10.784.407,8.047-.23,25.811-.23,25.811a8.7,8.7,0,0,1-6.87.544S424.7,262.9,423.231,255c-1.287-6.944-3.795-20.022-3.795-20.022l-1.173,16.92a55.585,55.585,0,0,1-.273,10.224c-.459,3.669-2.671,19.606-2.671,19.606a14.584,14.584,0,0,1-7.769.061s-.709-26.007-.875-29.388c-.189-3.854-.994-43.481-.994-43.481Z" transform="translate(-395.906 -208.915)" fill="#37474f"/><path d="M420.947,240.339l-2.135-10.1s-5.094-.293-7.984-3.042c0,0,.582,2.762,7.019,4.238l2.137,10.22.213,9.5Z" transform="translate(-397.416 -214.281)" fill="#263238"/></g><g transform="translate(46.587)"><path d="M430.865,159.666c2.433.432,2.594,1.638,3.126,4.05a19.735,19.735,0,0,1,.62,5.932L432.8,183.916l.622,16.431c-3.916,4.26-19.576,5.627-28.126-.618,0,0,.092-26.995.487-31.326.69-7.569,4.122-10.259,9.158-10.242l8.615.733Z" transform="translate(-405.295 -130.04)" fill="#27debf"/><g transform="translate(0.841)"><path d="M422.247,130.023a7.648,7.648,0,1,1-7.621-7.673A7.648,7.648,0,0,1,422.247,130.023Z" transform="translate(-406.622 -119.53)" fill="#263238"/><path d="M431.935,133.5l1.633-4.383a2.868,2.868,0,0,1,2.372.843c1.016,1.047.435,4.31-.846,7.5a66.073,66.073,0,0,1-1.76,6.773,2.636,2.636,0,0,1-1.528,1.224Z" transform="translate(-413.916 -121.51)" fill="#263238"/><path d="M425.252,136.221c.468.281,1.138-.616,1.718-1.218a2.031,2.031,0,0,1,3.4.563c.951,2.022-.846,4.683-2.331,5.143-2.56.793-2.938-.848-2.938-.848l-.227,9.221a8.231,8.231,0,0,1-6.224,4.689c-4.535.6-3.588-3.136-2.093-4.962l.017-2.806a16.121,16.121,0,0,1-3.447.165c-1.879-.3-3.057-1.785-3.621-3.822-.9-3.272-1.243-5.913-.444-12.339.876-7.044,9.072-7.088,13.488-4.288S425.252,136.221,425.252,136.221Z" transform="translate(-407.109 -120.011)" fill="#ffbda7"/><path d="M424.58,135.188c.74-.213,1.278-1.4,1.766-1.837.81-.732-.208-7.387-.208-7.387a3.151,3.151,0,0,0-.767-3.368c-1.1-1.221-2.95-1.362-6.1-1.869-1.556-.25-3.392-.373-4.934-.66a15.576,15.576,0,0,1-4.587-1.466,1.41,1.41,0,0,0-.875-.228.828.828,0,0,0-.552.462,1.556,1.556,0,0,0-.128.727,2.8,2.8,0,0,0,.133.769c.047.148.351.6.287.725-.16.321-1.373-.219-1.616-.291a.255.255,0,0,0-.178-.009.234.234,0,0,0-.1.113,2.947,2.947,0,0,0,.14,2.557,8.657,8.657,0,0,0,4.344,3.694,11.928,11.928,0,0,0,5.918.824,11.3,11.3,0,0,0,2.524-.586,6.736,6.736,0,0,0,.555.867,3.885,3.885,0,0,0,.817.715,3.4,3.4,0,0,0,.982.457c.361.094.7.048.905.437a1.875,1.875,0,0,1,.147.814q.036,1.222.073,2.445a3.97,3.97,0,0,0,.165,1.226,1.346,1.346,0,0,0,.825.867A.822.822,0,0,0,424.58,135.188Z" transform="translate(-406.485 -118.359)" fill="#263238"/><path d="M419.879,153.651a32.247,32.247,0,0,0,5.671-1.606,4.835,4.835,0,0,0,2.035-2,6.615,6.615,0,0,1-1.16,2.363c-1.078,1.368-6.549,2.359-6.549,2.359Z" transform="translate(-410.415 -127.658)" fill="#f0997a"/><g transform="translate(2.238 11.668)"><path d="M420.759,139.14a.842.842,0,1,0,.844-.873A.856.856,0,0,0,420.759,139.14Z" transform="translate(-412.912 -135.869)" fill="#263238"/><path d="M422.181,135.611l1.863,1.208a1.166,1.166,0,0,0-.342-1.576A1.084,1.084,0,0,0,422.181,135.611Z" transform="translate(-413.329 -134.931)" fill="#263238"/><path d="M421.514,146.744l-2.959,1.265a1.632,1.632,0,0,0,2.173.862A1.562,1.562,0,0,0,421.514,146.744Z" transform="translate(-412.265 -138.357)" fill="#f0997a"/><path d="M409.787,136.469l1.771-1.073a.994.994,0,0,0-1.393-.376A1.088,1.088,0,0,0,409.787,136.469Z" transform="translate(-409.652 -134.874)" fill="#263238"/><path d="M410.826,138.765a.842.842,0,1,0,.844-.873A.856.856,0,0,0,410.826,138.765Z" transform="translate(-409.996 -135.759)" fill="#263238"/><path d="M416.024,138.489l-.718,5.369-2.74-1.181Z" transform="translate(-410.507 -135.935)" fill="#f0997a"/></g></g></g><path d="M426.023,218.744l.117,2.375a.874.874,0,0,0,.772.825,17.927,17.927,0,0,0,8.23-1.056c4.962-1.847,5.038-3.424,5.038-3.424l-.011-3.222Z" transform="translate(-364.791 -146.499)" fill="#263238"/><path d="M408.245,216.2v1.836a.568.568,0,0,1-.738.545,11.156,11.156,0,0,1-2.035-.831,4.637,4.637,0,0,1-1.493-1.21l-.093-2.783Z" transform="translate(-358.294 -146.356)" fill="#263238"/><path d="M403.642,197.435c1.032,1.666,4.359,2.443,4.359,2.443s-.073-1.2,0-7.784.323-18.806,1.764-24.282a29.291,29.291,0,0,1,3.825-8.5,1.907,1.907,0,0,1,1.421-.844v-.314c-4.972-.079-6.1.425-8.2,3.068s-2.522,7.618-2.774,13.252C403.793,179.957,402.218,193.312,403.642,197.435Zm15.68-14.385c-.4,15.124-.225,18-.04,19.232,0,0,10.593,1.019,14.144-4.5,1.2-2.493-.165-8.259-.452-13.657l1.629-18.455a5.972,5.972,0,0,0-3.446-5.947l-7.815-1.022c-.656,1.529-2.122,3.509-2.83,6.509C419.608,169.036,419.545,174.539,419.322,183.05Z" transform="translate(-358.05 -130.037)" fill="#455a64"/><g transform="translate(24.98 29.684)"><g transform="translate(0 19.71)"><path d="M374.712,191.027l20.983,1.442,3.963,24.114-19.9-1.894Z" transform="translate(-374.712 -189.08)" fill="#27debf"/><path d="M374.712,191.027l20.983,1.442,3.963,24.114-19.9-1.894Z" transform="translate(-374.712 -189.08)" opacity="0.1"/><path d="M397.735,213.116c-.127.485.2,1.168,1.15,1.982.769.656,1.269,1.8,2.582,2.117a8.825,8.825,0,0,0,4.023.275l-.541-3.3Z" transform="translate(-381.461 -195.563)" opacity="0.15"/><path d="M383.085,194.032s-.047-.333-.1-.745,1.205-.66,2.82-.555l3.092.2c1.616.1,2.972.523,3.029.933l.1.745Z" transform="translate(-377.138 -189.573)" opacity="0.15"/><g transform="translate(4.731)"><path d="M381.41,190.071c-.037-.256.48-.42,1.156-.365l1.223.1s-.216-1.612,2.511-1.532,3.155,1.875,3.155,1.875l1.3.116c.721.064,1.355.32,1.417.571l.112.454-10.808-.742S381.447,190.328,381.41,190.071Z" transform="translate(-381.408 -188.271)" fill="#263238"/><path d="M383.336,191.5c.993.047,1.4.1,1.491.731.1.723.12,1.265.12,1.265l4.784.333s-.146-.913-.187-1.272.148-.614.909-.561l.094-.307-7.5-.451Z" transform="translate(-381.888 -189.143)" fill="#263238"/><path d="M382.886,194.17s-.047-.333-.1-.745,1.205-.66,2.82-.555l3.093.2c1.615.1,2.971.523,3.028.934l.1.744Z" transform="translate(-381.811 -189.614)" fill="#37474f"/></g></g><path d="M403.352,191.744c1.49.076,3.781.593,5.061.8a6.386,6.386,0,0,0,2.018.109,9.172,9.172,0,0,0,1.6-.317c1.833-.837,16.477-6.829,16.477-6.829L426.025,171.1s-.586-9.253,3.454-10.231c3.109,1.407,4.1,4.153,5.528,10.245,1.637,6.971,2.888,15.107,2.246,17.314-.442,1.518-.529,3.149-3.923,4.463-3.591,1.39-7.6,2.332-19.421,5.719a59.47,59.47,0,0,1-6.794,1.943c-6.029.945-8.434-.153-9.634-2.482-.349-.678-.4-1.429-.717-2.12a4.972,4.972,0,0,1-.494-1.152.886.886,0,0,1,.5-1.031,1.241,1.241,0,0,1,.575.023c.957.188,1.91.372,2.868.5a18.758,18.758,0,0,0,3.312.117.479.479,0,0,0,.167-.028c.166-.073.124-.139.029-.192" transform="translate(-381.034 -160.519)" fill="#ffbda7"/><path d="M437.726,160.374c2.806.348,4.649,2.7,5.24,5.472.929,4.349,1.368,6.839,2.443,12.356.975,5,1.356,10.713.732,12.271s-3.82,2.6-5.827,3.19c-3,.887-11.914,3.106-11.914,3.106.061-2.094-1.129-5.686-2.962-6.918l11.25-5L433.8,172.074S432.547,162.77,437.726,160.374Z" transform="translate(-389.6 -160.374)" fill="#37474f"/><path d="M423.592,202.1s1.527.565,2.529,3.2.432,3.721.432,3.721l-5.365,1.535s.306-4.25-2.043-6.425Z" transform="translate(-387.752 -172.618)" fill="#263238"/></g></g><g transform="translate(34.176 100.053)"><g transform="translate(6.512 53.314)"><path d="M53.318,278.619s-1.383-20.385-.326-28.055c.906-6.582,1.968-9.315,2.156-10.81,0,0,1.624-15.466,1.759-28.608A38.921,38.921,0,0,1,61.022,192.8l21.788,4.949c.453,3.34,2.488,25.941,2.849,45.695.317,17.292-.177,32.433-.177,32.433l-.023.911a8.231,8.231,0,0,0,.872,3.338,19.587,19.587,0,0,0,3.453,5.712c.459.5,3.637,3.276,4.057,3.869,1.366,1.592-1.463,2.49-3.564,2.21-2.216-.3-5.66-1.138-6.636-2.488-.651-.9-1.14-4.05-1.808-4.961-2.255-3.074-3.181-4.4-3.2-5.379-.03-1.775.581-2.477.8-3.48-.182-2.093-4.7-19.325-4.782-25.425-.037-2.907.159-6.91.159-6.91L71.3,223.143c-1.356,5.026-3.814,14.4-4.615,19.194-.98,5.852-4.307,22.9-6.4,30.643a40.777,40.777,0,0,0-1.4,6.116c0,.007-.066.68-.066.687-.047.867-.425,10.117-.768,12.069-.716,4.076-4.339,3.562-4.919.266-.493-2.8.125-11.489.138-12.555Z" transform="translate(-51.152 -191.722)" fill="#ffa8a7"/><path d="M52.719,314.268c-1.022.018-.35,3.974-.614,6.519-.283,2.728-1.177,4.721-1.433,6.958a9.074,9.074,0,0,0,.852,5.728c.712,1.634,4.294,3.874,5.654,1.537a13.136,13.136,0,0,0,1.5-7.551c-.161-2.631-.32-4.554-.373-6.555-.047-1.763,1.311-5.905-.013-6.158l-.066.687c-.475.95-5.013,1.607-5.549-.22Z" transform="translate(-50.552 -227.371)" fill="#37474f"/><g transform="translate(27.059 83.88)"><path d="M89.093,317.973a23.156,23.156,0,0,0,.011,4.77,4.656,4.656,0,0,0,2.519,2.008l.882-4.862Z" transform="translate(-88.882 -312.338)" fill="#263238"/><path d="M92.731,325.377l4.337-1.424,1.044-3.849-4.872,2.466Z" transform="translate(-89.99 -312.964)"/><path d="M96.1,311.183l.023-.911c.589.286,1.886,5.03,3.638,8.283,1.6,2.972,4.773,4.627,5.8,5.92,1.378,1.729-1.3,3.958-5.6,3.039-2.133-.456-5.362-1.821-6.238-3.26s-1.172-4.083-1.888-5.141-2.418-2.276-2.779-3.481a6.569,6.569,0,0,1,.009-3.326c.337-1.1.631-2.421,1-2.3l.025.834c.288.586,1.325,1.269,3.5,1.386A2.373,2.373,0,0,0,96.1,311.183Z" transform="translate(-88.851 -309.997)" fill="#37474f"/></g><path d="M82.441,194.588s2.664,19.181,3.139,33.667.05,33.172.05,33.172a9.456,9.456,0,0,1-4.787,1.217c-3.292.148-4.431-.95-4.431-.95a62.725,62.725,0,0,1-2.325-11.184,47.124,47.124,0,0,1,0-7.515l-2.939-19.327s-3.872,18.075-4.294,20.376-4.479,19.218-4.479,19.218a7.8,7.8,0,0,1-5.4,1.313,7.26,7.26,0,0,1-4.449-1.932s-.65-8.7-.042-13.355,1.858-8.225,2.073-11.27-.215-19.545,0-26.149.966-11.72,5.906-20.595Z" transform="translate(-51.044 -191.274)" fill="#455a64"/><path d="M79.009,230.551l2.445-12.107s4.265-1.113,6.253-3.718c0,0-.552,2.888-4.937,4.734l-2.6,12.063.884,12.462Z" transform="translate(-58.904 -198.157)" fill="#37474f"/></g><g transform="translate(0 24.082)"><path d="M96.971,155.31c5.189,2.562,10.928,6.111,13.758,6.615,4.089-.8,13-3.229,16.079-4.908a2.58,2.58,0,0,0,1.167-1.358,14.606,14.606,0,0,1,2.216-3.517c.682-.979.91-2,1.2-1.961a1.493,1.493,0,0,1,.973,1.672,12.584,12.584,0,0,1-.668,2.667,15.9,15.9,0,0,0,3.684-3.093c1.966-2.408,3.965-2.075,4.243,1.761.1,1.373.048,4.306-4.946,7.317-1.438.868-4.638,2.446-6.584,3.314-5.206,2.319-11.039,4.416-14.788,5.739a9.864,9.864,0,0,1-4.5.105c-9.478-2.132-15.832-5.512-20.886-7.681l.167-8.665C91.185,153.449,92.507,153.106,96.971,155.31Z" transform="translate(-55.007 -149.899)" fill="#ffa8a7"/><path d="M87.922,154.681a15.555,15.555,0,0,1,8.906,1.665c5.567,2.784,13.34,6.808,13.49,6.848s4.691-.894,4.691-.894.4,4.378,2.927,6.958c0,0-3.878,1.7-5.406,2.112a6.927,6.927,0,0,1-4.255-.077c-2.073-.482-14.108-4.513-14.108-4.513Z" transform="translate(-55.007 -151.264)" fill="#455a64"/><path d="M69.478,154.61l-6.226.893A21.875,21.875,0,0,1,61.2,168.132l1.982,10.223c-.081,1.218-2.223,3.562-4.19,8.145,3.682,4.929,20.567,7.337,26.456,3.011-.571-5.684-.844-8.445-1.024-10.206l-.021-6.39c7.381-6.058-1.528-15.283-4.806-18.216H76.528Z" transform="translate(-46.518 -151.282)" fill="#27debf"/><g transform="translate(0 4.074)"><path d="M41.737,180.8c1.327-5.182,5.793-14.1,7.393-18.26,1.828-4.754,4.975-6.435,8.374-6.484,1.25,1.614,1.774,9.711-2.078,14.35-1.641,3.454-5.384,10.691-5.384,10.691.127.932,2.647,10.519,4.108,13.682a2.528,2.528,0,0,0,1.3,1.241,25.455,25.455,0,0,1,4.507,3.261c.947.735,1.676.845,1.609,1.133a1.362,1.362,0,0,1-1.635.87,21.651,21.651,0,0,1-3.008-1.213,37.284,37.284,0,0,0,3.008,4.115c2.041,2.353,1.97,4.371-2.005,4.432-3.007.047-4.592-1.645-7.257-6.8-.767-1.484-1.874-3.453-2.793-5.362-2.321-4.822-2.772-5.252-4.041-8.336C41.83,183.264,41.226,182.8,41.737,180.8Z" transform="translate(-41.402 -155.782)" fill="#ffa8a7"/><path d="M59.082,155.666c-4.073.342-6.67.461-8.841,3.647s-7.708,17.511-8.454,19.681-.845,3.309,1.889,9.023a16.351,16.351,0,0,0,7.479-2.632l-.756-4.357,5.4-10.322A23.215,23.215,0,0,0,59.082,155.666Z" transform="translate(-41.335 -155.666)" fill="#455a64"/></g></g><g transform="translate(0.989)"><path d="M70.863,141.051c-.029-1.087-3.616-3.685-5.429-6.429-1.681-2.543-4.029-9.544,1.535-11.784a4.884,4.884,0,0,1-.018-2.263,4.292,4.292,0,0,1,1.5-2.246,9.636,9.636,0,0,1,4.248-1.913,23.632,23.632,0,0,1,6.955-.543,12.833,12.833,0,0,1,4.422.994,6.746,6.746,0,0,1,3.3,3.015,4.75,4.75,0,0,1,.283,3.629c-.256.729-.281.635.141,1.222a2.14,2.14,0,0,1,.417,1.552c-.162,1.193-1.3,1.487-1.436,2.079a.585.585,0,0,0,1,.519,1.2,1.2,0,0,1-1.412.952c-1.287-.07-2.43-1.816-2.43-1.816Z" transform="translate(-48.822 -115.814)" fill="#263238"/><path d="M60.771,123.437c-2.16-1.246-5.408-1.812-7.993.707-3.415,3.328-2.368,11.4-4.239,14.366-1.719,2.719-3.725,1.722-5.329,3.894a3.015,3.015,0,0,0,.856,4.12,7.684,7.684,0,0,0,8.314-.473c5.21-3.593,4.091-8.668,3.251-12.326s.006-9.952,5.141-7.842C60.771,125.882,62.8,124.607,60.771,123.437Z" transform="translate(-42.735 -117.741)" fill="#263238"/><path d="M83.813,125.255c1.647.714,3.213,3.233,3.189,10.28-.02,5.972-1.851,7.483-2.777,7.926s-2.73.219-4.486-.051l.006,3.434s4.223,4.647,1.376,6.609c-7.342-1.284-8.955-6.8-8.955-6.8l-.13-7.486s-1.01,1.061-2.787-.495c-1.467-1.284-1.994-3.487-.893-4.7a2.354,2.354,0,0,1,3.794.045s2.671.367,6.193-1.844C81.948,129.908,83.458,127.546,83.813,125.255Z" transform="translate(-50.082 -118.585)" fill="#ffa8a7"/><g transform="translate(33.887 14.123)"><path d="M90.7,136.6a.793.793,0,1,0,.822-.8A.806.806,0,0,0,90.7,136.6Z" transform="translate(-90.698 -135.804)" fill="#263238"/></g><g transform="translate(27.565 14.419)"><path d="M81.752,137.079a.851.851,0,1,0,.882-.855A.864.864,0,0,0,81.752,137.079Z" transform="translate(-81.751 -136.223)" fill="#263238"/></g><path d="M83.495,144.506l2.409.749a1.229,1.229,0,0,1-1.54.924A1.381,1.381,0,0,1,83.495,144.506Z" transform="translate(-54.684 -124.235)" fill="#f28f8f"/><path d="M92.82,134.216l-2.043-.811a1.055,1.055,0,0,1,1.415-.626A1.137,1.137,0,0,1,92.82,134.216Z" transform="translate(-56.835 -120.77)" fill="#263238"/><path d="M73.988,136.277l.02,3.318a1.558,1.558,0,0,0,1.6-1.606A1.714,1.714,0,0,0,73.988,136.277Z" transform="translate(-51.907 -121.82)" fill="#263238"/><path d="M86.924,136.293l.64,4.851,2.16-1.05Z" transform="translate(-55.704 -121.825)" fill="#f28f8f"/><path d="M82.1,149.777c-1.849-.216-5.665-1.278-6.286-2.828a4.067,4.067,0,0,0,1.368,1.968c1.153.989,4.92,2.016,4.92,2.016Z" transform="translate(-52.443 -124.952)" fill="#f28f8f"/></g></g><g transform="translate(87.306 62.108)"><g transform="translate(145.542)"><path d="M362.522,78.877,334.2,62.526a2.142,2.142,0,0,0-2.175-.207c-.547.322-8.034,4.654-8.586,4.967a2.143,2.143,0,0,0-.907,1.987V98.66a6.764,6.764,0,0,0,3.059,5.3l28.319,16.35a2.15,2.15,0,0,0,2.163.215c.554-.32,8.048-4.661,8.6-4.976a2.144,2.144,0,0,0,.9-1.985V84.175A6.762,6.762,0,0,0,362.522,78.877Z" transform="translate(-322.534 -62.108)" fill="#37474f"/><path d="M379.514,92.089V121.48a2.144,2.144,0,0,1-.9,1.985c-.537.3-7.765,4.492-8.535,4.937a2.207,2.207,0,0,0,.827-1.943V97.068a6.2,6.2,0,0,0-.9-3.01l8.613-4.98A6.249,6.249,0,0,1,379.514,92.089Z" transform="translate(-336.466 -70.024)" fill="#263238"/><path d="M325.594,106.028l28.319,16.35c1.69.976,3.059.185,3.059-1.766V91.224a6.76,6.76,0,0,0-3.059-5.3l-28.32-16.351c-1.689-.975-3.059-.184-3.059,1.766v29.388A6.764,6.764,0,0,0,325.594,106.028Z" transform="translate(-322.534 -64.177)" fill="#455a64"/><g transform="translate(7.777 15.577)"><path d="M348.123,94.105a.856.856,0,0,1,.327-.3c.113-.052.275-.016.486.106l1.571.893a1.028,1.028,0,0,1,.394.419,1.232,1.232,0,0,1,.147.589.653.653,0,0,1-.023.161.628.628,0,0,1-.068.17L339.8,112.3a.848.848,0,0,1-.326.3.565.565,0,0,1-.486-.107l-1.571-.893a1.03,1.03,0,0,1-.395-.419,1.237,1.237,0,0,1-.147-.589.691.691,0,0,1,.023-.16.637.637,0,0,1,.068-.169Z" transform="translate(-334.52 -86.982)" fill="#fafafa"/><path d="M357.151,118.084a9.117,9.117,0,0,0-1.039-3.954,6.758,6.758,0,0,0-2.62-2.747q-1.671-.965-2.619-.278a3.431,3.431,0,0,0-1.038,2.755q-.047.947-.046,1.7t.046,1.677a9.124,9.124,0,0,0,1.1,3.952,6.781,6.781,0,0,0,2.562,2.714,2.337,2.337,0,0,0,2.563.245,3.292,3.292,0,0,0,1.1-2.688c.029-.585.045-1.127.045-1.625S357.18,118.75,357.151,118.084Zm-2.686,2.281a2.721,2.721,0,0,1-.253,1.142c-.143.256-.382.288-.72.094a1.617,1.617,0,0,1-.719-.924,5.262,5.262,0,0,1-.253-1.434,38.924,38.924,0,0,1,0-4.261,2.7,2.7,0,0,1,.253-1.14c.143-.256.382-.289.719-.094a1.615,1.615,0,0,1,.72.926,5.305,5.305,0,0,1,.253,1.431A39.329,39.329,0,0,1,354.465,120.365Z" transform="translate(-338.31 -91.981)" fill="#fafafa"/><path d="M340.9,91.421a9.124,9.124,0,0,0-1.039-3.954,6.763,6.763,0,0,0-2.62-2.747q-1.671-.965-2.619-.278a3.432,3.432,0,0,0-1.039,2.755q-.047.947-.045,1.695t.045,1.677a9.134,9.134,0,0,0,1.1,3.952,6.791,6.791,0,0,0,2.563,2.714,2.339,2.339,0,0,0,2.563.245,3.3,3.3,0,0,0,1.1-2.688q.043-.877.044-1.625T340.9,91.421ZM338.216,93.7a2.727,2.727,0,0,1-.253,1.142c-.143.256-.382.288-.719.093a1.615,1.615,0,0,1-.719-.924,5.286,5.286,0,0,1-.253-1.434,39.263,39.263,0,0,1,0-4.261,2.712,2.712,0,0,1,.253-1.14q.214-.386.719-.094a1.616,1.616,0,0,1,.719.926,5.307,5.307,0,0,1,.253,1.431A38.959,38.959,0,0,1,338.216,93.7Z" transform="translate(-333.541 -84.156)" fill="#fafafa"/></g></g><path d="M119.6,78.877l28.32-16.351a2.142,2.142,0,0,1,2.175-.207c.547.322,8.034,4.654,8.586,4.967a2.143,2.143,0,0,1,.907,1.987V98.66a6.764,6.764,0,0,1-3.059,5.3l-28.319,16.35a2.15,2.15,0,0,1-2.163.215c-.554-.32-8.048-4.661-8.6-4.976a2.144,2.144,0,0,1-.9-1.985V84.175A6.762,6.762,0,0,1,119.6,78.877Z" transform="translate(-116.536 -62.108)" fill="#37474f"/><path d="M116.535,92.089V121.48a2.144,2.144,0,0,0,.9,1.985c.537.3,7.765,4.492,8.535,4.937a2.207,2.207,0,0,1-.827-1.943V97.068a6.188,6.188,0,0,1,.9-3.01l-8.614-4.98A6.249,6.249,0,0,0,116.535,92.089Z" transform="translate(-116.535 -70.024)" fill="#263238"/><path d="M160.1,106.028l-28.319,16.35c-1.69.976-3.059.185-3.059-1.766V91.224a6.76,6.76,0,0,1,3.059-5.3L160.1,69.575c1.689-.975,3.059-.184,3.059,1.766v29.388A6.764,6.764,0,0,1,160.1,106.028Z" transform="translate(-120.112 -64.177)" fill="#455a64"/><g transform="translate(15.676 15.762)"><path d="M154.3,86.551a4.112,4.112,0,0,1,.327-.675,1.353,1.353,0,0,1,.485-.454l1.571-.922c.166-.1.3-.107.395-.036a.49.49,0,0,1,.147.419,1.054,1.054,0,0,1-.023.187,1.821,1.821,0,0,1-.068.248l-11.155,29.039a4.1,4.1,0,0,1-.327.675,1.341,1.341,0,0,1-.485.454l-1.571.921c-.166.1-.3.107-.395.037a.49.49,0,0,1-.147-.42,1.068,1.068,0,0,1,.023-.187,1.787,1.787,0,0,1,.068-.247Z" transform="translate(-139.992 -84.418)" fill="#fafafa"/><path d="M164.088,104.017a3.434,3.434,0,0,0-1.039-2.754q-.947-.687-2.62.278a6.764,6.764,0,0,0-2.619,2.746,9.094,9.094,0,0,0-1.038,3.954q-.047,1-.046,1.748t.046,1.624a3.29,3.29,0,0,0,1.094,2.688,2.337,2.337,0,0,0,2.563-.245,6.789,6.789,0,0,0,2.563-2.714,9.145,9.145,0,0,0,1.1-3.953c.029-.618.045-1.178.045-1.677S164.117,104.65,164.088,104.017ZM161.4,109.4a5.306,5.306,0,0,1-.253,1.434,1.617,1.617,0,0,1-.72.925q-.5.29-.719-.094a2.7,2.7,0,0,1-.253-1.142,38.967,38.967,0,0,1,0-4.261,5.272,5.272,0,0,1,.253-1.433,1.614,1.614,0,0,1,.719-.924c.338-.2.577-.161.72.095a2.717,2.717,0,0,1,.253,1.139A39.275,39.275,0,0,1,161.4,109.4Z" transform="translate(-144.006 -89.278)" fill="#fafafa"/><path d="M146.084,97a3.438,3.438,0,0,0-1.039-2.754q-.948-.687-2.62.278a6.759,6.759,0,0,0-2.619,2.746,9.1,9.1,0,0,0-1.038,3.954q-.047,1-.046,1.748t.046,1.625a3.286,3.286,0,0,0,1.1,2.688,2.336,2.336,0,0,0,2.562-.245,6.779,6.779,0,0,0,2.563-2.714,9.145,9.145,0,0,0,1.1-3.952c.029-.619.045-1.178.045-1.677S146.113,97.636,146.084,97Zm-2.686,5.383a5.306,5.306,0,0,1-.253,1.434,1.618,1.618,0,0,1-.72.925c-.336.194-.576.163-.719-.094a2.7,2.7,0,0,1-.253-1.142,38.967,38.967,0,0,1,0-4.261,5.273,5.273,0,0,1,.253-1.433,1.613,1.613,0,0,1,.719-.923c.338-.2.577-.162.72.094a2.717,2.717,0,0,1,.253,1.139A38.93,38.93,0,0,1,143.4,102.386Z" transform="translate(-138.722 -87.219)" fill="#fafafa"/></g></g></g></svg>