<svg xmlns="http://www.w3.org/2000/svg" width="330" height="289.138" viewBox="0 0 330 289.138"><g transform="translate(-27.158 -61.401)"><g transform="translate(27.158 171.033)"><ellipse cx="165" cy="89.753" rx="165" ry="89.753" fill="#fafafa"/></g><g transform="translate(43.052 180.103)"><ellipse cx="32.449" cy="19.305" rx="32.449" ry="19.305" transform="translate(67.295 113.348)" fill="#ebebeb"/><path d="M319.731,402.912c5.8,3.347,5.8,8.774,0,12.121s-15.2,3.347-20.994,0-5.8-8.774,0-12.121S313.934,399.565,319.731,402.912Z" transform="translate(-114.048 -270.167)" fill="#ebebeb"/><path d="M256.956,242.591l11.112,6.415-2.778,1.6,25,14.434,2.778-1.6,11.112,6.415,21.37-12.365L278.287,230.2Z" transform="translate(-104.103 -224.949)" fill="#ebebeb"/><path d="M84.914,312.021l36.113-20.85-36.112-20.85L48.8,291.171Z" transform="translate(-48.802 -235.608)" fill="#ebebeb"/><path d="M181.524,261.54l36.117-20.852-30.475-17.639-36.2,20.849Z" transform="translate(-75.945 -223.049)" fill="#ebebeb"/><path d="M351.464,290.587l38.89,22.453,38.89-22.453-38.89-22.454Z" transform="translate(-129.211 -235.027)" fill="#ebebeb"/></g><g transform="translate(47.768 61.401)"><g transform="translate(77.19)"><path d="M223.059,207.32,192.6,224.905V114.813L223.06,97.228Z" transform="translate(-168.913 -70.919)" fill="#fafafa"/><g transform="translate(27.074 32.17)"><path d="M228.246,207.487l-3.384,1.954V107.164l3.384-1.954Z" transform="translate(-204.557 -105.21)" fill="#ebebeb"/><path d="M219.029,212.738l-3.384,1.954V112.486l3.384-1.954Z" transform="translate(-202.109 -106.624)" fill="#ebebeb"/><path d="M209.812,218.059l-3.384,1.954V117.807l3.384-1.954Z" transform="translate(-199.66 -108.038)" fill="#ebebeb"/><path d="M200.6,223.452l-3.384,1.954V123.129l3.384-1.954Z" transform="translate(-197.211 -109.452)" fill="#ebebeb"/></g><path d="M160.343,212.642l23.689,13.677V116.227L160.342,102.55Z" transform="translate(-160.342 -72.333)" fill="#f0f0f0"/><g transform="translate(3.383 36.078)"><path d="M164.95,212.808l3.384,1.954V112.486l-3.384-1.954Z" transform="translate(-164.949 -110.532)" fill="#e0e0e0"/><path d="M174.167,218.13l3.384,1.954V117.807l-3.384-1.954Z" transform="translate(-167.398 -111.946)" fill="#e0e0e0"/><path d="M183.384,223.452l3.384,1.954V123.129l-3.384-1.954Z" transform="translate(-169.847 -113.359)" fill="#e0e0e0"/></g><path d="M160.342,96.188,190.8,78.6,214.49,92.28l-30.458,17.585Z" transform="translate(-160.342 -65.971)" fill="#27debf"/><path d="M160.342,96.188,190.8,78.6,214.49,92.28l-30.458,17.585Z" transform="translate(-160.342 -65.971)" fill="#ebebeb"/><path d="M187.705,92.821l20.3-11.723-13.537-7.816L174.166,85.005Z" transform="translate(-164.015 -64.557)" fill="#ebebeb"/><path d="M192.6,105.417V95.648l20.3-11.723v9.77Z" transform="translate(-168.913 -67.385)" fill="#fafafa"/><path d="M174.166,99.016l0-9.769,13.537,7.815v9.769Z" transform="translate(-164.015 -68.799)" fill="#f0f0f0"/><path d="M193.367,81.408a.594.594,0,0,1-.351.488,1.871,1.871,0,0,1-1.692,0,.593.593,0,0,1-.35-.488V62.342h2.392Z" transform="translate(-168.48 -61.651)" fill="#fafafa"/><path d="M193.23,62.409a1.623,1.623,0,0,1-2.25-.166.4.4,0,0,1,0-.3,1.622,1.622,0,0,1,2.25-.166A.446.446,0,0,1,193.23,62.409Z" transform="translate(-168.474 -61.401)" fill="#ebebeb"/></g><g transform="translate(221.881 2.674)"><path d="M357.382,260.465l34.544,19.944V177.329l-34.545-19.944Z" transform="translate(-357.382 -89.575)" fill="#fafafa"/><path d="M404.424,280.409l34.544-19.944V157.385l-34.543,19.944Z" transform="translate(-369.88 -89.575)" fill="#f0f0f0"/><path d="M426.47,150.169l-34.545-19.944-34.544,19.944,34.545,19.944Z" transform="translate(-357.382 -82.359)" fill="#ebebeb"/><path d="M404.422,161.795V129.884l27.635-15.955v31.816Z" transform="translate(-369.879 -78.03)" fill="#f0f0f0"/><path d="M366.789,145.839V113.929l27.635,15.955v31.911Z" transform="translate(-359.881 -78.03)" fill="#fafafa"/><path d="M422.06,108.156,394.425,92.2l-27.635,15.955,27.635,15.955Z" transform="translate(-359.881 -72.257)" fill="#ebebeb"/><path d="M396.924,117.237,376.2,105.27V81.338L396.924,93.3Z" transform="translate(-362.381 -69.371)" fill="#fafafa"/><path d="M404.423,117.237l20.726-11.966V81.338L404.423,93.3Z" transform="translate(-369.879 -69.371)" fill="#f0f0f0"/><path d="M417.651,77.008,396.924,65.042,376.2,77.008l20.726,11.966Z" transform="translate(-362.381 -65.042)" fill="#ebebeb"/><g transform="translate(3.455 73.793)"><path d="M398.47,280.645l-3.454-1.994V184.544l3.454,1.994Z" transform="translate(-370.835 -170.583)" fill="#ebebeb"/><path d="M390.238,275.892l-3.454-1.994V179.791l3.454,1.994Z" transform="translate(-368.648 -169.321)" fill="#ebebeb"/><path d="M382.005,271.139l-3.454-1.994V175.038l3.454,1.994Z" transform="translate(-366.46 -168.058)" fill="#ebebeb"/><path d="M373.773,266.386l-3.455-1.994V170.285l3.454,1.994Z" transform="translate(-364.273 -166.795)" fill="#ebebeb"/><path d="M365.541,261.633l-3.454-1.994V165.533l3.454,1.994Z" transform="translate(-362.086 -165.533)" fill="#ebebeb"/></g><g transform="translate(38 73.793)"><path d="M409.13,280.645l3.455-1.994V184.544l-3.454,1.994Z" transform="translate(-409.13 -170.583)" fill="#e0e0e0"/><path d="M417.362,275.892l3.454-1.994V179.791l-3.454,1.994Z" transform="translate(-411.317 -169.321)" fill="#e0e0e0"/><path d="M425.594,271.139l3.454-1.994V175.038l-3.454,1.994Z" transform="translate(-413.504 -168.058)" fill="#e0e0e0"/><path d="M433.827,266.386l3.454-1.994V170.285l-3.454,1.994Z" transform="translate(-415.691 -166.795)" fill="#e0e0e0"/><path d="M442.059,261.633l3.454-1.994V165.533l-3.454,1.994Z" transform="translate(-417.878 -165.533)" fill="#e0e0e0"/></g><g transform="translate(37.566 41.633)"><path d="M408.539,161.923l3.454-1.994V136l-3.454,1.994Z" transform="translate(-408.539 -125.525)" fill="#e0e0e0"/><path d="M416.771,157.17l3.454-1.994V131.243l-3.454,1.994Z" transform="translate(-410.726 -124.263)" fill="#e0e0e0"/><path d="M425,152.417l3.454-1.994V126.49L425,128.484Z" transform="translate(-412.913 -123)" fill="#e0e0e0"/><path d="M433.235,147.665l3.455-1.994V121.737l-3.454,1.994Z" transform="translate(-415.1 -121.737)" fill="#e0e0e0"/></g><g transform="translate(9.93 41.633)"><path d="M399.057,161.923l-3.454-1.994V136l3.454,1.994Z" transform="translate(-377.466 -125.525)" fill="#ebebeb"/><path d="M390.824,157.17l-3.454-1.994V131.243l3.454,1.994Z" transform="translate(-375.279 -124.263)" fill="#ebebeb"/><path d="M382.592,152.417l-3.454-1.994V126.49l3.454,1.994Z" transform="translate(-373.092 -123)" fill="#ebebeb"/><path d="M374.359,147.665l-3.454-1.994V121.737l3.454,1.994Z" transform="translate(-370.905 -121.737)" fill="#ebebeb"/></g><g transform="translate(37.134 17.451)"><path d="M407.951,116.262l3.454-1.994V98.313l-3.454,1.994Z" transform="translate(-407.951 -91.332)" fill="#e0e0e0"/><path d="M416.183,111.509l3.454-1.994V93.56l-3.454,1.994Z" transform="translate(-410.138 -90.069)" fill="#e0e0e0"/><path d="M424.416,106.756l3.454-1.994V88.807L424.416,90.8Z" transform="translate(-412.325 -88.807)" fill="#e0e0e0"/></g><g transform="translate(16.408 17.451)"><path d="M399.645,116.262l-3.454-1.994V98.313l3.454,1.994Z" transform="translate(-384.1 -91.332)" fill="#ebebeb"/><path d="M391.413,111.509l-3.454-1.994V93.56l3.454,1.994Z" transform="translate(-381.913 -90.069)" fill="#ebebeb"/><path d="M383.18,106.756l-3.454-1.994V88.807L383.18,90.8Z" transform="translate(-379.726 -88.807)" fill="#ebebeb"/></g></g><g transform="translate(153.285 1.697)"><path d="M273.677,210.491l-9.71-5.606V89.158l9.711,5.606Z" transform="translate(-263.967 -70.472)" fill="#f5f5f5"/><path d="M263.967,85.778l16.184-9.343,9.709,5.606-16.182,9.343Z" transform="translate(-263.967 -67.092)" fill="#ebebeb"/><path d="M317.751,235.937l-9.71-5.606V114.6l9.711,5.606Z" transform="translate(-275.677 -77.233)" fill="#fafafa"/><path d="M295.438,222.742l-22.655-13.087V78.98l22.656,13.08Z" transform="translate(-266.309 -67.768)" fill="#fafafa"/><path d="M321.264,234.585l16.182-9.343V109.515l-16.182,9.343Z" transform="translate(-279.19 -75.881)" fill="#f0f0f0"/><path d="M325.672,232.359V124.107l3.237-1.869V230.491Z" transform="translate(-280.361 -79.261)" fill="#e0e0e0"/><path d="M315.686,232.359V124.107l-3.237-1.869V230.491Z" transform="translate(-276.848 -79.261)" fill="#ebebeb"/><path d="M269.854,205.747V97.495l-3.237-1.869V203.878Z" transform="translate(-264.671 -72.191)" fill="#fafafa"/><path d="M269.854,205.747V97.495l-3.237-1.869V203.878Z" transform="translate(-264.671 -72.191)" fill="#e6e6e6"/><path d="M334.487,227.27V119.017l3.237-1.869V225.4Z" transform="translate(-282.703 -77.909)" fill="#e0e0e0"/><path d="M308.041,111.224l16.184-9.343,9.709,5.606-16.182,9.343Z" transform="translate(-275.677 -73.853)" fill="#ebebeb"/><path d="M306.871,221.543l-3.236,1.869V92.736l19.419-11.211V96.473l-16.184,9.343Z" transform="translate(-274.506 -68.444)" fill="#f0f0f0"/><path d="M272.784,74.923,292.2,63.712l22.655,13.08L295.439,88Z" transform="translate(-266.31 -63.712)" fill="#ebebeb"/><path d="M298.057,222.381V100.428l-3.237-1.869V220.512Z" transform="translate(-272.164 -72.97)" fill="#ebebeb"/><path d="M289.242,217.291V95.338l-3.237-1.869V215.423Z" transform="translate(-269.822 -71.618)" fill="#ebebeb"/><path d="M280.428,212.2V90.249l-3.237-1.869V210.333Z" transform="translate(-267.481 -70.266)" fill="#ebebeb"/></g><g transform="translate(0 2.696)"><path d="M86.62,279.962V179.85l-31.4-18.125V261.836Z" transform="translate(-55.225 -90.751)" fill="#f0f0f0"/><path d="M97.979,179.85l31.4-18.125v100.11l-31.4,18.127Z" transform="translate(-66.584 -90.751)" fill="#fafafa"/><g transform="translate(3.14 76.411)"><path d="M59.5,169.129l3.139,1.813V263.8l-3.14-1.813Z" transform="translate(-59.501 -169.129)" fill="#e0e0e0"/><path d="M69.476,174.889l3.139,1.813v92.862l-3.14-1.813Z" transform="translate(-62.151 -170.66)" fill="#e0e0e0"/><path d="M79.451,180.65l3.139,1.813v92.862l-3.14-1.813Z" transform="translate(-64.801 -172.19)" fill="#e0e0e0"/><path d="M89.427,186.41l3.139,1.813v92.862l-3.14-1.813Z" transform="translate(-67.451 -173.72)" fill="#e0e0e0"/></g><g transform="translate(34.536 76.411)"><path d="M135.321,169.129l-3.139,1.813V263.8l3.14-1.813Z" transform="translate(-110.206 -169.129)" fill="#ebebeb"/><path d="M125.346,174.889l-3.139,1.813v92.862l3.14-1.813Z" transform="translate(-107.556 -170.66)" fill="#ebebeb"/><path d="M115.371,180.65l-3.139,1.813v92.862l3.14-1.813Z" transform="translate(-104.906 -172.19)" fill="#ebebeb"/><path d="M105.4,186.41l-3.14,1.813v92.862l3.14-1.813Z" transform="translate(-102.255 -173.72)" fill="#ebebeb"/></g><path d="M118.016,155.167l-31.4-18.126-31.4,18.126,31.4,18.125Z" transform="translate(-55.225 -84.193)" fill="#ebebeb"/><path d="M88.892,157.7V106.836L63.775,91.993V143.2Z" transform="translate(-57.496 -72.225)" fill="#f0f0f0"/><path d="M97.979,157.7V106.836L123.1,91.993V143.2Z" transform="translate(-66.584 -72.225)" fill="#fafafa"/><g transform="translate(9.419 25.377)"><path d="M68.051,99.631l3.139,1.813v43.785l-3.14-1.813Z" transform="translate(-68.051 -99.631)" fill="#e0e0e0"/><path d="M78.739,105.8l3.14,1.813V151.4l-3.14-1.813Z" transform="translate(-70.89 -101.27)" fill="#e0e0e0"/><path d="M89.427,111.973l3.139,1.813v43.785l-3.14-1.813Z" transform="translate(-73.73 -102.91)" fill="#e0e0e0"/></g><g transform="translate(34.536 25.377)"><path d="M126.771,99.631l-3.139,1.813v43.785l3.14-1.813Z" transform="translate(-107.934 -99.631)" fill="#ebebeb"/><path d="M116.083,105.8l-3.139,1.813V151.4l3.14-1.813Z" transform="translate(-105.095 -101.27)" fill="#ebebeb"/><path d="M105.4,111.973l-3.14,1.813v43.785l3.14-1.813Z" transform="translate(-102.255 -102.91)" fill="#ebebeb"/></g><path d="M114.009,86.808,88.891,72.478,63.775,86.808l25.117,14.844Z" transform="translate(-57.496 -67.04)" fill="#ebebeb"/><path d="M97.977,97.354V86.478l15.7-9.063V88.291Z" transform="translate(-66.583 -68.352)" fill="#fafafa"/><path d="M76.6,88.291V77.415l15.7,9.063V97.354Z" transform="translate(-60.904 -68.352)" fill="#f0f0f0"/><path d="M108,74.136,92.3,65.073,76.6,74.136,92.3,83.2Z" transform="translate(-60.904 -65.073)" fill="#ebebeb"/></g></g><g transform="translate(210.664 107.577)"><path d="M302.855,144.475c0,6.251,2.261,21.542,19.58,28.482,13.407,5.373,25.808-1.439,28.747-4.272,3.668-3.534,7.7-11.157,2.063-17.22-6.251-6.726-14.193,3-22.917-2.978C320.256,141.58,302.855,144.475,302.855,144.475Z" transform="translate(-283.91 -129.488)" fill="#263238"/><g transform="translate(16.358 32.578)"><path d="M321.744,169.765c.6-.133.571-.571,1.569-.789,10.345-2.255,17.16,7.546,24.388,15.768,7,7.964,34.122,28.078,47,25.306-.623,9.048-12.011,18.507-25.85,17.006,0,0-2.621,6.211-15.546,9.346-10.563,2.561-21.973-4.9-33.781-12.673-15.43-10.154-21.565-24.626-19.935-37.393,1.083-8.489,6.928-12.53,13.01-15.418C318.162,168.276,321.744,169.765,321.744,169.765Z" transform="translate(-299.332 -168.648)" fill="#27debf"/><path d="M380.842,244.629a10.136,10.136,0,0,0,2.361-2.989c-13.306-3.122-29.842-18.1-29.842-18.1S360.431,237.166,380.842,244.629Z" transform="translate(-313.686 -183.231)" opacity="0.1"/><path d="M357.99,184.777c-6.135-6.98-11.975-15.093-19.927-16.008,4.174,1.267,13.069,10.911,20.5,20.273,9.09,11.461,35.4,27.387,46.431,21.04C392.112,212.854,364.99,192.741,357.99,184.777Z" transform="translate(-309.622 -168.68)" fill="#fff" opacity="0.5"/></g><path d="M331.246,170.115c4.208,0,6.938,1.334,8.4,3.441,3.155,4.552,13.677,19.83,14.366,21.995S340.2,213.869,340.2,213.869l-4.418-4.381,8.429-12.982L331.81,183Z" transform="translate(-291.453 -136.459)" fill="#b16668"/><g transform="translate(26.459 72.191)"><path d="M339.028,222.592c6.561,7.743,18.214,20.206,21.58,28.142,1.295,3.051-29.494,35.861-29.494,35.861-1.281-.242-2.763-3.429-2.654-6.44,9.356-4.731,13-15.9,21.322-18.954-5.108-4.342-12.664-11.33-22.955-20.512Z" transform="translate(-316.737 -222.592)" fill="#37474f"/><path d="M347.775,259.471h0l-13.718-17.94c6.575-7.2,4.971-18.939,4.971-18.939l-12.2,18.1C335.846,248.736,342.764,255.1,347.775,259.471Z" transform="translate(-316.737 -222.592)" fill="#263238"/><path d="M358.85,260.915c-1.605,1.039-6.055,3.73-12.832,8.737-6.408,4.735-15.7,18-25.806,24.98a7.505,7.505,0,0,0,4.073,5.712s29.452-18.6,37.014-25.036C364.637,272.464,358.85,260.915,358.85,260.915Z" transform="translate(-314.98 -232.773)" fill="#37474f"/><path d="M332.677,288.459c-.546-1.2-2.181,1.353-4.37,3.517-3.535,3.5-6.823,7.274-10.237,9.354-2.258,1.375-2.88,1.068-4.294,2.859-2.034,2.577.857,5.119,3.169,8.717,1.627,2.533,2.016,7.478,3.281,9.655s4.265,4.734,6.734,3.412c1.145-.613-2.237-12.823-1.719-16.347s1.269-4.426,4.359-6.328c4.874-3,11.624-5.858,10.487-7.155a6.429,6.429,0,0,1-5.146-1.991C331.427,290.315,332.677,288.459,332.677,288.459Z" transform="translate(-313.087 -240.009)" fill="#27debf"/></g><g transform="translate(17.673)"><path d="M319.657,153.324h-2.749a14.054,14.054,0,0,1-14.053-14.054h0a14.988,14.988,0,0,1,14.988-14.988h.879c10.212,0,16,6.71,16,14.988h0C334.72,147.032,327.419,153.324,319.657,153.324Z" transform="translate(-301.583 -124.283)" fill="#263238"/><path d="M304.7,129.66a2.018,2.018,0,0,1,1.585,2.374l-3.959-.789A2.018,2.018,0,0,1,304.7,129.66Z" transform="translate(-301.443 -125.701)" fill="#263238"/><path d="M308.163,128a2.018,2.018,0,0,1-1.3,2.542l-1.245-3.84A2.018,2.018,0,0,1,308.163,128Z" transform="translate(-302.318 -124.899)" fill="#263238"/><g transform="translate(0 72.191)"><path d="M303.048,225.171c-5.377,11.744,2.213,45.4,2.213,45.4-.162,1.906-2.96,5.618-3.152,14.043-.182,7.966,2.879,24.511,3.8,36.264a7.5,7.5,0,0,0,7.009.278s4.311-38.946,5.554-48.8c1.085-8.6,3.992-29.463,3.992-29.463l9.731-20.3Z" transform="translate(-301.123 -222.592)" fill="#37474f"/></g><path d="M304.452,330.812c-.844.513-.359,1.326,0,4.709s1.916,10.869,2.221,14.1-2.089,11.523-2.1,13.689,3.9,8.551,6.665,8.553c1.778,0,4.184-4.042,4.318-5.7.359-4.443-2.221-13.109-1.87-16.268s1.942-12.7,2.213-14.382c.534-3.325.832-4.709-.083-4.709,0,0-1.05,1.836-5.6,2.077S304.452,330.812,304.452,330.812Z" transform="translate(-301.883 -179.153)" fill="#27debf"/><path d="M331.411,191.255c4.058-4.344,4.332-7.47,2.592-10.66-3.611-6.622-9.451-10.282-10.538-10.48l-8.732.162-7.26.34c-.988.315-3.652,2.811-4.7,6.638a17.018,17.018,0,0,0,.551,9.5l6.008,13.9h0c-.847,4.879-7.378,9.153-7.378,15.075,17.534.455,20.734,13.216,20.734,13.216,10.541-7.015,9.714-19.436,9.714-19.436C332.864,203.693,331.118,196.6,331.411,191.255Z" transform="translate(-301.344 -136.459)" fill="#455a64"/><path d="M313.7,203.669c-1.317-1.312-4-3.226-7.157-12.437-.672-1.958.327-6.469,1.347-8.944l-5.256-1.537a17.423,17.423,0,0,0,.7,8.833l6.008,13.9h0c-.839,4.833-7.246,9.075-7.367,14.91l.09.17a26.357,26.357,0,0,1,11.4,2.673,1.013,1.013,0,0,0-.712-1.156,46.045,46.045,0,0,1-4.46-2.207c1.566-.026,1.726-1.911,1.726-1.911l-2.075-.188s-.425-4.742,1.761-7.016S314.192,204.162,313.7,203.669Z" transform="translate(-301.348 -139.285)" fill="#37474f"/><g transform="translate(5.939 6.24)"><path d="M330.331,132.78c1.63.963,3.644,5.062,3.445,13.653-.169,7.282-2.529,9.081-3.714,9.6s-3.471.2-5.693-.167v4.37c.083-.112,4.523,3.784,4.064,6.146-.383,1.976-5.621,1.9-8.5-.054a18.6,18.6,0,0,1-4.717-4.938v-9.681a4.407,4.407,0,0,1-3.954-.51c-2.471-1.6-2.547-5.662-1.12-7.11s4.5-.99,5.074,1.011a17.563,17.563,0,0,0,8.263-2.464A13.261,13.261,0,0,0,330.331,132.78Z" transform="translate(-309.211 -132.78)" fill="#b16668"/><path d="M335.352,147.267l.146,5.512,2.9-.9Z" transform="translate(-316.156 -136.629)" fill="#9a4a4d"/><path d="M331.908,157.288l2.127.679a1.1,1.1,0,0,1-1.383.763A1.168,1.168,0,0,1,331.908,157.288Z" transform="translate(-315.228 -139.291)" fill="#9a4a4d"/><path d="M341.866,142.97l-2.23-.331a1.081,1.081,0,0,1,1.24-.964A1.184,1.184,0,0,1,341.866,142.97Z" transform="translate(-317.294 -135.14)" fill="#263238"/><path d="M316.655,148.047a2.633,2.633,0,0,0-2.049-1.762,21.5,21.5,0,0,1,8.328-2.276c4.592-.135,5.282,1.378,7.266,1.336s2.583-1.322,4.8-1.471a11.388,11.388,0,0,1,.226,5.831s-1.82.815-3.98-1.215l-.52-.786a4.815,4.815,0,0,0-1.593,1.242,7.748,7.748,0,0,1-6.06,1.606A13.344,13.344,0,0,1,316.655,148.047Z" transform="translate(-310.644 -135.727)" fill="#455a64"/><path d="M327.381,147.917a2.166,2.166,0,0,1,2.268-.927,1.718,1.718,0,0,1,1.362,1.359,2.232,2.232,0,0,1-2.135.836A1.881,1.881,0,0,1,327.381,147.917Z" transform="translate(-314.038 -136.536)" fill="#f5f5f5"/><path d="M338.484,148.368a1.76,1.76,0,0,1,.747-1.154,1.794,1.794,0,0,1,1.947.151,1.451,1.451,0,0,1-1.023,1.536A1.611,1.611,0,0,1,338.484,148.368Z" transform="translate(-316.988 -136.557)" fill="#f5f5f5"/><path d="M326.991,162.917c-2.342-.307-7.16-1.691-7.911-3.6a4.933,4.933,0,0,0,1.69,2.431c1.439,1.234,6.221,2.624,6.221,2.624Z" transform="translate(-311.833 -139.831)" fill="#9a4a4d"/></g></g><path d="M286.523,198.014l10.188-11.074a30.509,30.509,0,0,0,3.279-4.384c2.292-3.55,2.392-9.673.868-11.758-3.959,0-6.47.814-11.486,7.719-4.241,5.838-9.4,12.946-10.755,15.235-1.665,2.817-2.152,3.586-.7,6.367s6.889,9.921,11.475,15.289,7.265,7.185,10.695,7.981,4.956.121,6.889-1.651.565-3.358-1.228-3.772a14.738,14.738,0,0,1-4.8-1.967c-1.092-.79-1.439-1.407-.416-1.45,1.308-.055,2.53-.317,2.866-1.232.419-1.14-.659-.833-2.157-1.292a28.184,28.184,0,0,0-5.935-1.138c-2.446.121-8.78-12.872-8.78-12.872" transform="translate(-277.056 -136.641)" fill="#b16668"/><g transform="translate(21.921 32.906)"><g transform="translate(0 0.571)"><path d="M306.907,170.647c1.881-.1,5.289,4.154,6.966,4.8s3.537-1.953.737-5.167A13.2,13.2,0,0,0,306.907,170.647Z" transform="translate(-306.907 -169.872)" fill="#27debf"/><path d="M306.907,170.647c1.881-.1,5.289,4.154,6.966,4.8s3.537-1.953.737-5.167A13.2,13.2,0,0,0,306.907,170.647Z" transform="translate(-306.907 -169.872)" fill="#fff" opacity="0.5"/></g><g transform="translate(16.85)"><path d="M329.853,169.884s1.287-1.619,4.125-.218a8.115,8.115,0,0,1,1.341,2.392c.578,1.91.254,2.552-.623,2.552-1.285,0-1.848-1.353-2.889-2.589A18.379,18.379,0,0,0,329.853,169.884Z" transform="translate(-329.853 -169.095)" fill="#27debf"/><path d="M329.853,169.884s1.287-1.619,4.125-.218a8.115,8.115,0,0,1,1.341,2.392c.578,1.91.254,2.552-.623,2.552-1.285,0-1.848-1.353-2.889-2.589A18.379,18.379,0,0,0,329.853,169.884Z" transform="translate(-329.853 -169.095)" fill="#fff" opacity="0.5"/></g></g></g><g transform="translate(57.373 121.373)"><g transform="translate(0 35.979)"><path d="M154.479,193.024s-2.362-1.718-8.595-.553-13.618,5.96-19.849,20.295-15.563,31.581-29.081,39.216c-8.258,4.664-19.013,5.488-28.633,4.518a30.465,30.465,0,0,0,8.327,21.349c11.524,11.94,25.155,10.384,25.155,10.384a28.131,28.131,0,0,0,15.67,8.708,41.888,41.888,0,0,0,18.558-.394s8.352,1.866,14.52.394c12.282-2.932,15.746-11.27,15.578-11.477s5.836-91.063,5.836-91.063Z" transform="translate(-68.305 -192.066)" fill="#27debf"/><path d="M150.744,273.837c-4.717,13.356-23.755,33.71-36.821,36.12a23.312,23.312,0,0,0,4.591,4.029C142.005,305.35,150.744,273.837,150.744,273.837Z" transform="translate(-80.425 -213.79)" opacity="0.1"/><path d="M190.632,294.789c-.112-.137,2.5-40.21,4.262-67.145-3.568-1.825-6.549,1.337-8.057,13.388-7.169,57.32-26.3,64.839-26.3,64.839s8.352,1.866,14.52.394C187.336,303.334,190.8,295,190.632,294.789Z" transform="translate(-92.808 -201.391)" opacity="0.1"/><path d="M145.89,192.471c-6.233,1.165-13.618,5.96-19.849,20.295s-15.563,31.581-29.081,39.216c-8.258,4.664-19.013,5.488-28.633,4.518,0,0,13.309,8.31,31.3,0s26.436-32.835,29.706-42.648,14.06-22.846,25.154-20.827l-.271-.156C153.439,192.472,150.932,191.528,145.89,192.471Z" transform="translate(-68.311 -192.066)" fill="#fff" opacity="0.5"/></g><path d="M174.371,193.542c-8.822-.066-12.163,3.786-13.623,5.893-3.155,4.552-11.574,22.534-12.262,24.7S164.972,245.2,164.972,245.2l4.418-4.381-9.469-17.136,10.11-15.019Z" transform="translate(-89.602 -156.479)" fill="#37474f"/><g transform="translate(61.077)"><rect width="6.711" height="9.772" transform="translate(39.289 180.15)" fill="#ffa8a7"/><rect width="6.711" height="9.772" transform="matrix(0.999, -0.034, 0.034, 0.999, 15.691, 168.286)" fill="#ffa8a7"/><path d="M201.431,254.221c-.048,2.945,1.063,8.2,1.24,14.4.466,16.3-.411,38.7-.411,38.7.156,1.844,1.885,5.244,1.511,12.326-.508,9.62-1.339,34.237-1.339,34.237s-3.147,3.119-7.589,0c0,0-6.076-34.2-7.279-43.738-1.049-8.32-2.829-36.163-2.829-36.163l-2.5,32.439s.178,6.187.419,10.6-3.94,27.277-3.94,27.277a7.331,7.331,0,0,1-7.3.278s-2.591-34.619-3.282-38.606,1.918-51.752,1.918-51.752Z" transform="translate(-155.872 -172.6)" fill="#37474f"/><path d="M191.289,193.675a78.084,78.084,0,0,1,8.563,1.073,13.163,13.163,0,0,1,2.24.85,37.739,37.739,0,0,1,1.69,20.583,133.777,133.777,0,0,0-2.351,26.174c-3.84,5.008-23.376,6.72-31.682-.04,0,0,.223-8.343-.381-17.261-.535-7.882-1.9-15.026-1.4-18.68,1.155-8.34,4.938-12.536,12.958-13Z" transform="translate(-155.832 -156.434)" fill="#455a64"/><path d="M185.284,274.189s-6.066-.785-15.2-9.976l.3-8.738s10.806,5.707,31.671-.479l.723,7.655S192.261,261.751,185.284,274.189Z" transform="translate(-156.422 -172.806)" fill="#27debf"/><path d="M185.284,274.189s-6.066-.785-15.2-9.976l.3-8.738s10.806,5.707,31.671-.479l.723,7.655S192.261,261.751,185.284,274.189Z" transform="translate(-156.422 -172.806)" opacity="0.3"/><g transform="translate(11.161)"><path d="M202.491,157.346a3.575,3.575,0,0,1,2.959,1.041c1.27,1.3,1.007,3.705,0,9.233l-3.927.451Z" transform="translate(-175.936 -146.856)" fill="#263238"/><path d="M170.335,154.93a6.135,6.135,0,0,1-2.457-.5c-1.206-.692-1.521.678-.86,1.868a5.612,5.612,0,0,0,4.557,3.035c.035-.171,1.127-3.067,1.127-3.067Z" transform="translate(-166.679 -146.039)" fill="#263238"/><path d="M192.833,166.463c.583.349,1.415-.772,2.134-1.524a2.53,2.53,0,0,1,4.238.687c1.193,2.515-1.034,5.837-2.881,6.417-3.186,1-3.664-1.044-3.664-1.044l-.243,11.489a10.253,10.253,0,0,1-7.732,5.868c-5.646.765-4.484-3.89-2.629-6.172l.009-3.5a20.1,20.1,0,0,1-4.294.22c-2.342-.362-3.816-2.21-4.526-4.745-1.141-4.073-1.574-7.36-.607-15.369,1.061-8.777,11.271-8.869,16.784-5.4S192.833,166.463,192.833,166.463Z" transform="translate(-168.12 -145.247)" fill="#ffa8a7"/><path d="M192.027,165.267c.294.006,1.408-1.845,2.134-2.5,1.006-.916-.292-9.2-.292-9.2s1.018-3.143-.97-5.228-5.839-1.732-8.656-1.834a25.287,25.287,0,0,1-10.068-2.02c-4-1.737-4.3-1.943-4.8-.187s-.683,5.78,1.7,8.476l1.986.731s1.073.951,4.8,1.405a55.107,55.107,0,0,0,10.336-.2c1.082-.148,1.313.9,1.9,3.765C190.617,160.987,191.041,165.248,192.027,165.267Z" transform="translate(-167.314 -143.07)" fill="#263238"/><path d="M202.755,157.145l3.525-1.893a1.944,1.944,0,0,0-2.669-.883A2.1,2.1,0,0,0,202.755,157.145Z" transform="translate(-176.205 -146.011)" fill="#263238"/><path d="M185.667,186.973s5.229-1.053,7.057-2.025a6.02,6.02,0,0,0,2.527-2.5,8.244,8.244,0,0,1-1.436,2.948c-1.337,1.71-8.147,2.967-8.147,2.967Z" transform="translate(-171.724 -153.532)" fill="#f28f8f"/><g transform="translate(3.777 14.596)"><path d="M188.88,164.116l2.5.54a1.344,1.344,0,0,0-1.013-1.559A1.25,1.25,0,0,0,188.88,164.116Z" transform="translate(-176.354 -162.979)" fill="#263238"/><path d="M185.447,180.038l-2.392.9a1.255,1.255,0,0,0,1.625.792A1.337,1.337,0,0,0,185.447,180.038Z" transform="translate(-174.807 -167.488)" fill="#f28f8f"/><path d="M173.623,164.712l2.417-.9a1.238,1.238,0,0,0-1.617-.784A1.355,1.355,0,0,0,173.623,164.712Z" transform="translate(-172.283 -162.947)" fill="#263238"/><path d="M181.467,168.423l-.344,6.3-3.29-1.122Z" transform="translate(-173.419 -164.402)" fill="#f28f8f"/><g transform="translate(0 2.361)"><path d="M193.631,170.419a15.731,15.731,0,0,1,1.644-1.837,25.328,25.328,0,0,0-9.084-2.412c-4.592-.135-5.281,1.378-7.265,1.336s-3.015-1.344-4.857-1.237c-1.53.09-1.922.727-1.922.727a7.8,7.8,0,0,0-.119,3.976,4.622,4.622,0,0,0,1.873.894,5.249,5.249,0,0,0,3.981-1.215l.529-.75A4.267,4.267,0,0,1,180,171.107a7.747,7.747,0,0,0,6.06,1.606A27.188,27.188,0,0,0,193.631,170.419Z" transform="translate(-171.822 -166.162)" fill="#455a64"/><path d="M190.457,169.682a2.316,2.316,0,0,0-2.427-.991,1.756,1.756,0,0,0-1.385,1.544,2.253,2.253,0,0,0,2.212.8A2.011,2.011,0,0,0,190.457,169.682Z" transform="translate(-175.76 -166.814)" fill="#f5f5f5"/><path d="M177.193,169.919a1.951,1.951,0,0,0-1.314-1.462,2.2,2.2,0,0,0-1.927.694,1.72,1.72,0,0,0,1.3,1.455A1.877,1.877,0,0,0,177.193,169.919Z" transform="translate(-172.388 -166.763)" fill="#f5f5f5"/></g></g></g><path d="M209.236,369.813c.169-2.937.433-3.571-.593-3.792l-.047,1.252s-.829,1.768-5.513,1.853-5.474-1.659-5.474-1.659l-.231-1.344c-1,.336-.551,1.332.028,4.424.547,2.913,2.879,14.673,2.609,16.792-.262,2.055-2.16,5.491-2.275,5.7a16.814,16.814,0,0,1-2.728,3.6c-2.117,1.931-5.182,4.2-5.916,6.348-.764,2.239,4.555,3.7,6.533,3.351,2.3-.407,6.28-2.025,7.28-3.525s1.468-3.712,2.28-4.811,3.263-2.871,3.7-4.143a5.052,5.052,0,0,0-.079-2.177h0c-.065-.35-.145-.706-.231-1.054-.267-1.383-.412-3.216-.142-8.172C208.777,376.187,209.143,371.432,209.236,369.813Z" transform="translate(-161.454 -202.303)" fill="#27debf"/><path d="M209.236,369.813c.169-2.937.433-3.571-.593-3.792l-.047,1.252s-.829,1.768-5.513,1.853-5.474-1.659-5.474-1.659l-.231-1.344c-1,.336-.551,1.332.028,4.424.547,2.913,2.879,14.673,2.609,16.792-.262,2.055-2.16,5.491-2.275,5.7a16.814,16.814,0,0,1-2.728,3.6c-2.117,1.931-5.182,4.2-5.916,6.348-.764,2.239,4.555,3.7,6.533,3.351,2.3-.407,6.28-2.025,7.28-3.525s1.468-3.712,2.28-4.811,3.263-2.871,3.7-4.143a5.052,5.052,0,0,0-.079-2.177h0c-.065-.35-.145-.706-.231-1.054-.267-1.383-.412-3.216-.142-8.172C208.777,376.187,209.143,371.432,209.236,369.813Z" transform="translate(-161.454 -202.303)" opacity="0.3"/><path d="M176.94,359.326c.413-2.721.908-3.343,0-3.584l-.156,1.008s-1.182,1.165-5.308,1.165c-4.468,0-5.612-1.314-5.612-1.314l-.068-.859c-1.016.148-.881.908-.538,3.844.146,1.245,1.164,9.378,1.242,13.039s-1.71,4.811-2.881,6.226a16.326,16.326,0,0,1-1.531.88c-2.513,1.258-7.4,3.193-9.609,4.189-1.381.622-1.317,2.29.112,3.24s4.874,1.634,9.014.708c2.254-.5,5.189-2.586,7.047-2.474s5.334.085,6.706-.86.822-2.964.435-4.7h0a51.016,51.016,0,0,1-.742-8.072C175.128,369.9,176.527,362.047,176.94,359.326Z" transform="translate(-151.48 -199.572)" fill="#27debf"/><path d="M176.94,359.326c.413-2.721.908-3.343,0-3.584l-.156,1.008s-1.182,1.165-5.308,1.165c-4.468,0-5.612-1.314-5.612-1.314l-.068-.859c-1.016.148-.881.908-.538,3.844.146,1.245,1.164,9.378,1.242,13.039s-1.71,4.811-2.881,6.226a16.326,16.326,0,0,1-1.531.88c-2.513,1.258-7.4,3.193-9.609,4.189-1.381.622-1.317,2.29.112,3.24s4.874,1.634,9.014.708c2.254-.5,5.189-2.586,7.047-2.474s5.334.085,6.706-.86.822-2.964.435-4.7h0a51.016,51.016,0,0,1-.742-8.072C175.128,369.9,176.527,362.047,176.94,359.326Z" transform="translate(-151.48 -199.572)" opacity="0.3"/><path d="M186.779,278.9a46.943,46.943,0,0,1-11.068-6.182s1.393,3.512,8.961,7.664l.377,20.953Z" transform="translate(-157.917 -177.513)" fill="#263238"/></g><g transform="translate(93.265 38.314)"><path d="M219.66,225.4l-8.49-12.424a30.42,30.42,0,0,1-2.615-4.81c-1.757-3.842-.977-9.916.831-11.76,3.918.568,6.287,1.735,10.258,9.29,3.357,6.386,8.077,14.264,9.087,16.724,1.243,3.027,1.614,3.858-.223,6.4a127.565,127.565,0,0,1-14.187,15.45c-5.308,4.654-8.223,6.066-11.731,6.361s-4.922-.593-6.58-2.624-.077-3.405,1.757-3.556a14.729,14.729,0,0,0,5.035-1.257c1.195-.624,1.627-1.184.621-1.374-1.287-.243-2.459-.678-2.66-1.632-.25-1.189.773-.731,2.32-.969a28.2,28.2,0,0,1,6.036-.274c2.4.471,10.54-13.545,10.54-13.545" transform="translate(-195.312 -195.553)" fill="#ffa8a7"/><path d="M211.171,195.246c4.841.665,6.37.6,9.013,3.868s12.62,21.348,13.617,24.122.53,4.017-1.413,6.349-12.406,13.23-12.406,13.23-2.959-.315-5.3-4.946l8.382-12.715s-9.572-10.692-11.281-14.482C209.232,205.024,211.171,195.246,211.171,195.246Z" transform="translate(-199.338 -195.246)" fill="#37474f"/></g><g transform="translate(78.101 35.825)"><g transform="translate(16.442 1.261)"><path d="M209.791,195.085c-2.639-.134-7.336,4.942-9.686,5.847s-4.96-2.739-1.033-7.247A24.387,24.387,0,0,1,209.791,195.085Z" transform="translate(-197.053 -193.574)" fill="#27debf"/><path d="M209.791,195.085c-2.639-.134-7.336,4.942-9.686,5.847s-4.96-2.739-1.033-7.247A24.387,24.387,0,0,1,209.791,195.085Z" transform="translate(-197.053 -193.574)" fill="#fff" opacity="0.5"/></g><path d="M182.735,192.964s-1.806-2.272-5.785-.306a11.4,11.4,0,0,0-1.881,3.355c-.81,2.68-.355,3.579.875,3.579,1.8,0,2.591-1.9,4.053-3.632A25.835,25.835,0,0,1,182.735,192.964Z" transform="translate(-174.662 -191.857)" fill="#27debf"/><path d="M182.735,192.964s-1.806-2.272-5.785-.306a11.4,11.4,0,0,0-1.881,3.355c-.81,2.68-.355,3.579.875,3.579,1.8,0,2.591-1.9,4.053-3.632A25.835,25.835,0,0,1,182.735,192.964Z" transform="translate(-174.662 -191.857)" fill="#fff" opacity="0.5"/></g></g></g></svg>