<svg xmlns="http://www.w3.org/2000/svg" xmlns:xlink="http://www.w3.org/1999/xlink" width="330" height="299.519" viewBox="0 0 330 299.519"><defs><clipPath id="a"><path d="M393.68,95.984v9.082a2.355,2.355,0,0,1-1.065,1.846l-9.536,5.577c-.588.34-1.066.064-1.066-.615v-9.082a2.357,2.357,0,0,1,1.066-1.846c2.6-1.5,6.932-4.074,9.535-5.577C393.2,95.029,393.68,95.3,393.68,95.984Z" transform="translate(-382.014 -95.223)" fill="#27debf"/></clipPath></defs><g transform="translate(-1315 -1567)"><g transform="translate(1315 1682.344)"><ellipse cx="165" cy="92.087" rx="165" ry="92.087" fill="#f5f5f5"/></g><g transform="translate(1339.388 1717.625)"><path d="M61.131,371.6,43.47,361.669c-1.549-.894-1.549-2.345,0-3.239l88.7-51.387a6.2,6.2,0,0,1,5.608,0l17.662,9.931c1.548.894,1.548,2.345,0,3.238L66.74,371.6A6.2,6.2,0,0,1,61.131,371.6Z" transform="translate(-42.308 -271.125)" fill="#e0e0e0"/><ellipse cx="43.153" cy="26.654" rx="43.153" ry="26.654" transform="translate(86.429 74.721)" fill="#e0e0e0"/><path d="M418.949,296.616,346.7,254.906a5.517,5.517,0,0,0-4.989,0l-48.838,28.2a1.775,1.775,0,0,0-1.037,1.441,1.748,1.748,0,0,0,1.037,1.44l72.248,41.71a5.514,5.514,0,0,0,4.99,0l48.837-28.2a1.762,1.762,0,0,0,1.032-1.441C419.981,297.377,419.209,296.766,418.949,296.616Z" transform="translate(-122.9 -254.31)" fill="#e0e0e0"/><path d="M345.224,390c-3.806-.9-9.1-.254-14.2-.121,7.761-6.458,6.666-15.389-3.3-21.143-11.206-6.47-29.375-6.47-40.581,0s-11.206,16.959,0,23.429c10.862,6.271,28.265,6.464,39.529.578.233.031.458.065.7.092,6.383.709,12.6-2.045,18.1,0s3.218,6.21,3.789,7.316,2.146.34,2.147-2.941S349.2,390.951,345.224,390Z" transform="translate(-118.668 -289.701)" fill="#e0e0e0"/></g><g transform="translate(1319.578 1733.657)"><path d="M47.322,309.574c-4.218-17.5-17.3-37.048-30.292-30.172s9.413,22.241,15.9,36.693c5.686,12.665,12.05,29.848,13.536,33.9l4.871-2.3C51.3,343.411,50.95,324.622,47.322,309.574Z" transform="translate(-13.048 -277.99)" fill="#27debf"/><path d="M47.322,309.574c-4.218-17.5-17.3-37.048-30.292-30.172s9.413,22.241,15.9,36.693c5.686,12.665,12.05,29.848,13.536,33.9l4.871-2.3C51.3,343.411,50.95,324.622,47.322,309.574Z" transform="translate(-13.048 -277.99)" opacity="0.15"/><g transform="translate(7.502 4.222)"><path d="M51.09,347.705H51.1a.454.454,0,0,0,.452-.455C51.44,313.2,37.083,292.057,24.824,284.3a.454.454,0,0,0-.485.766c12.065,7.639,26.2,28.512,26.31,62.192A.453.453,0,0,0,51.09,347.705Z" transform="translate(-24.128 -284.225)" fill="#fff"/></g><g transform="translate(0.352 32.626)"><path d="M44.777,346.063c-10.04-20.29-24.06-22.464-29.246-17.854-4.139,3.68-1.03,9.276,2.829,11.667,5.028,3.115,22.1,11.243,27.855,25.885l3.791-1.787C49.868,361.358,49.072,354.741,44.777,346.063Z" transform="translate(-13.567 -326.18)" fill="#27debf"/></g><g transform="translate(7.698 39.431)"><path d="M51.4,366.5a.568.568,0,0,0,.1-.009.482.482,0,0,0,.377-.567C48.557,349.451,32.86,338.016,25,336.243a.481.481,0,0,0-.213.938c7.637,1.724,22.9,12.866,26.139,28.933A.481.481,0,0,0,51.4,366.5Z" transform="translate(-24.418 -336.231)" fill="#fff"/></g></g><g transform="translate(1350.107 1567.93)"><path d="M141.6,34.4,62.456,80.1a8.631,8.631,0,0,0-4.315,7.16l0,180.849c0,2.934,1.812,6.358,4.046,7.649s6.105,1.148,8.646-.32L149.7,229.916a10.207,10.207,0,0,0,4.6-7.969V41.73c0-2.934-1.811-6.358-4.046-7.648S144.143,32.936,141.6,34.4Z" transform="translate(-58.141 -33.201)" fill="#37474f"/><path d="M69.732,299.872a9.476,9.476,0,0,1-7.543-.206c-2.231-1.288-4.044-4.715-4.044-7.65l0-180.848a8.2,8.2,0,0,1,1.161-3.943l7.424,4.212a8.957,8.957,0,0,0-2.141,5.361V295.749C64.586,299.281,66.817,300.954,69.732,299.872Z" transform="translate(-58.141 -57.11)" fill="#263238"/><path d="M71.716,88.369A9,9,0,0,0,67.659,95.4V274.348c0,3.963,2.808,5.584,6.241,3.6l78.871-45.53a10.207,10.207,0,0,0,4.6-7.969V44.235c0-2.921-2.07-4.117-4.6-2.656Z" transform="translate(-61.215 -35.706)" fill="#455a64"/><path d="M77.711,106.138c-2.414,1.394-4.372,2.529-4.372,2.529v163.32s1.957-1.126,4.372-2.52l74.135-42.8,4.372-2.524V60.818s-1.967,1.131-4.372,2.519Z" transform="translate(-63.05 -42.121)" fill="#37474f"/><path d="M150.684,222V65.53L77.711,107.66c-2.414,1.394-4.372,2.529-4.372,2.529V266.675l72.972-42.13C148.717,223.157,150.684,222,150.684,222Z" transform="translate(-63.05 -43.643)" fill="#27debf"/><path d="M150.684,222V65.53L77.711,107.66c-2.414,1.394-4.372,2.529-4.372,2.529V266.675l72.972-42.13C148.717,223.157,150.684,222,150.684,222Z" transform="translate(-63.05 -43.643)" fill="#fff" opacity="0.6"/><g transform="translate(29.673 20.753)"><path d="M125.322,84.461l13.308-7.684c.794-.458,1.438-.133,1.438.727a3.083,3.083,0,0,1-1.438,2.387l-13.308,7.684c-.793.458-1.437.133-1.437-.727A3.083,3.083,0,0,1,125.322,84.461Z" transform="translate(-109.048 -67.961)"/><path d="M159.095,68.635c.745-.43,1.349-.081,1.349.779a2.981,2.981,0,0,1-1.349,2.336c-.745.43-1.349.082-1.349-.779A2.979,2.979,0,0,1,159.095,68.635Z" transform="translate(-119.984 -65.339)"/><path d="M167.068,64.038c.745-.43,1.349-.081,1.349.779a2.981,2.981,0,0,1-1.349,2.336c-.745.43-1.349.081-1.349-.779A2.981,2.981,0,0,1,167.068,64.038Z" transform="translate(-122.559 -63.854)"/><path d="M103.319,100.842c.745-.431,1.349-.082,1.349.779a2.981,2.981,0,0,1-1.349,2.336c-.745.43-1.349.081-1.349-.779A2.981,2.981,0,0,1,103.319,100.842Z" transform="translate(-101.97 -75.741)"/><path d="M111.292,96.245c.745-.431,1.349-.082,1.349.779a2.98,2.98,0,0,1-1.348,2.336c-.745.43-1.349.081-1.349-.779A2.979,2.979,0,0,1,111.292,96.245Z" transform="translate(-104.545 -74.256)"/></g><g transform="translate(12.348 78.39)"><path d="M78.945,207.586a2.612,2.612,0,0,1-2.565-2.766V168.434a4.442,4.442,0,0,1,.632-2.2,4.372,4.372,0,0,1,1.573-1.627l26.367-15.2a3,3,0,0,1,1.5-.422,2.484,2.484,0,0,1,2.341,1.59l.03-.009a4.011,4.011,0,0,1,.19,1.19v36.385a4.7,4.7,0,0,1-2.195,3.819l-26.371,15.2a4.111,4.111,0,0,1-.473.225A2.848,2.848,0,0,1,78.945,207.586Z" transform="translate(-76.38 -148.988)" opacity="0.1"/><g transform="translate(1.683 1.637)"><path d="M111.392,154.534a2.833,2.833,0,0,0-1.281-2.219l-1.043-.6a2.834,2.834,0,0,0-2.563,0l-26.358,15.2a2.833,2.833,0,0,0-1.281,2.219V205.51a2.833,2.833,0,0,0,1.281,2.219l1.044.6a2.828,2.828,0,0,0,2.562,0l26.358-15.194a2.833,2.833,0,0,0,1.281-2.219Z" transform="translate(-78.866 -151.406)" fill="#fafafa"/><path d="M78.866,213.361a2.833,2.833,0,0,0,1.281,2.219l1.044.6a2.862,2.862,0,0,0,2.343.1c-.6.228-1.062-.112-1.062-.843V179.059a2.62,2.62,0,0,1,.375-1.263l-3.606-2.082a2.62,2.62,0,0,0-.375,1.263Z" transform="translate(-78.866 -159.257)" fill="#e0e0e0"/><path d="M111.53,154.171c-.149-.544-.645-.717-1.237-.376l-26.361,15.2a2.539,2.539,0,0,0-.9.956l-3.6-2.08a2.6,2.6,0,0,1,.9-.957l26.354-15.2a2.851,2.851,0,0,1,2.565,0l1.046.6A2.824,2.824,0,0,1,111.53,154.171Z" transform="translate(-79.047 -151.407)" fill="#f0f0f0"/></g><g transform="translate(11.996 15.229)"><g transform="translate(0 6.552)"><path d="M94.407,209.476a.309.309,0,0,1-.309-.309V190.153a.309.309,0,0,1,.155-.267l15.041-8.685a.31.31,0,0,1,.464.268v19.015a.309.309,0,0,1-.155.267l-15.041,8.684A.311.311,0,0,1,94.407,209.476Zm.309-19.145v18.3l14.423-8.327V182Z" transform="translate(-94.098 -181.159)" fill="#27debf"/></g><g transform="translate(0 7.193)"><path d="M100.613,206.2a.309.309,0,0,1-.309-.309V186.973l-2.7-3.9-2.9,7.5a.309.309,0,1,1-.577-.223l3.114-8.042a.308.308,0,0,1,.252-.2.316.316,0,0,1,.29.131l3.091,4.46a.307.307,0,0,1,.056.176v19.015A.309.309,0,0,1,100.613,206.2Z" transform="translate(-94.099 -182.107)" fill="#27debf"/></g><g transform="translate(3.114 2.082)"><path d="M102.1,184.747a.309.309,0,0,1-.254-.133l-3.091-4.46a.309.309,0,0,1,.1-.444L107.7,174.6a.308.308,0,0,1,.409.091l3.091,4.46a.306.306,0,0,1,.048.244.31.31,0,0,1-.147.2l-8.852,5.111A.315.315,0,0,1,102.1,184.747Zm-2.646-4.669,2.738,3.95,8.315-4.8-2.738-3.95Z" transform="translate(-98.698 -174.557)" fill="#27debf"/></g><g transform="translate(3.114)"><path d="M99.007,179.294a.31.31,0,0,1-.309-.309V176.9a.312.312,0,0,1,.154-.268l8.852-5.111a.31.31,0,0,1,.464.268v2.082a.309.309,0,0,1-.619,0v-1.546l-8.233,4.754v1.9A.31.31,0,0,1,99.007,179.294Z" transform="translate(-98.698 -171.482)" fill="#27debf"/></g><g transform="translate(7.513 21.698)"><path d="M106.229,209.758l.6-1.732q.012-.028.043-.091a.221.221,0,0,1,.093-.1l.214-.123a.051.051,0,0,1,.06,0,.077.077,0,0,1,.025.066v2.714a.2.2,0,0,1-.025.094.16.16,0,0,1-.06.068l-.255.147a.05.05,0,0,1-.06,0,.077.077,0,0,1-.025-.066v-1.642l-.41,1.181a.763.763,0,0,1-.044.1.2.2,0,0,1-.072.077l-.164.095a.066.066,0,0,1-.072.006.163.163,0,0,1-.045-.044l-.409-.709v1.642a.208.208,0,0,1-.025.094.16.16,0,0,1-.06.068l-.255.148a.05.05,0,0,1-.06,0,.077.077,0,0,1-.026-.065v-2.714a.2.2,0,0,1,.026-.095.165.165,0,0,1,.06-.068l.215-.124c.042-.024.072-.027.093-.007a.46.46,0,0,1,.042.043Z" transform="translate(-105.195 -204.877)" fill="#27debf"/><path d="M109.059,210.016a.051.051,0,0,1-.06,0,.079.079,0,0,1-.025-.066v-2.713a.211.211,0,0,1,.025-.095.164.164,0,0,1,.06-.068l.255-.147a.05.05,0,0,1,.06,0,.077.077,0,0,1,.025.066v2.714a.2.2,0,0,1-.025.094.168.168,0,0,1-.06.068Z" transform="translate(-106.416 -204.625)" fill="#27debf"/><path d="M111.793,207.913a.05.05,0,0,1,.06,0,.075.075,0,0,1,.026.065v.3a.2.2,0,0,1-.026.094.163.163,0,0,1-.06.068l-1.38.8a.051.051,0,0,1-.06,0,.078.078,0,0,1-.025-.065v-2.714a.211.211,0,0,1,.025-.095.161.161,0,0,1,.06-.068l.255-.148a.051.051,0,0,1,.06,0,.077.077,0,0,1,.026.066v2.3Z" transform="translate(-106.853 -204.372)" fill="#27debf"/><path d="M114.737,206.23a.045.045,0,0,1,.019.027.143.143,0,0,1,0,.023.2.2,0,0,1-.026.095.162.162,0,0,1-.06.068l-.3.173a.1.1,0,0,1-.1.014l-.044-.027-.74-.686v1.1a.2.2,0,0,1-.026.094.154.154,0,0,1-.06.068l-.255.148a.05.05,0,0,1-.06,0,.077.077,0,0,1-.026-.065v-2.714a.2.2,0,0,1,.026-.095.156.156,0,0,1,.06-.068l.255-.148a.051.051,0,0,1,.06,0,.076.076,0,0,1,.026.065v.987l.686-1.4a.649.649,0,0,1,.06-.1.264.264,0,0,1,.081-.072l.29-.167a.051.051,0,0,1,.06,0,.077.077,0,0,1,.025.066.173.173,0,0,1-.019.074l-.848,1.72Z" transform="translate(-107.736 -203.531)" fill="#27debf"/></g></g></g><g transform="translate(48.859 57.304)"><path d="M132.873,176.441a2.612,2.612,0,0,1-2.565-2.766V137.289a4.448,4.448,0,0,1,.631-2.2,4.372,4.372,0,0,1,1.574-1.626l26.367-15.2a3,3,0,0,1,1.5-.422,2.484,2.484,0,0,1,2.341,1.59l.03-.009a4.014,4.014,0,0,1,.19,1.19V157a4.7,4.7,0,0,1-2.195,3.819l-26.371,15.2a4.122,4.122,0,0,1-.473.225A2.861,2.861,0,0,1,132.873,176.441Z" transform="translate(-130.308 -117.843)" opacity="0.1"/><g transform="translate(1.764 1.612)"><path d="M165.44,123.353a2.833,2.833,0,0,0-1.281-2.219l-1.043-.6a2.834,2.834,0,0,0-2.563,0l-26.357,15.2a2.831,2.831,0,0,0-1.282,2.219v36.383a2.833,2.833,0,0,0,1.282,2.219l1.043.6a2.831,2.831,0,0,0,2.563,0l26.357-15.194a2.832,2.832,0,0,0,1.282-2.219Z" transform="translate(-132.914 -120.225)" fill="#fafafa"/><path d="M132.914,182.18A2.833,2.833,0,0,0,134.2,184.4l1.043.6a2.864,2.864,0,0,0,2.344.1c-.6.228-1.062-.112-1.062-.843V147.878a2.622,2.622,0,0,1,.375-1.263l-3.606-2.082a2.622,2.622,0,0,0-.375,1.263Z" transform="translate(-132.914 -128.076)" fill="#e0e0e0"/><path d="M165.578,122.99c-.149-.544-.645-.717-1.237-.376l-26.361,15.2a2.54,2.54,0,0,0-.9.956l-3.6-2.08a2.6,2.6,0,0,1,.9-.957l26.354-15.2a2.851,2.851,0,0,1,2.565,0l1.046.6A2.825,2.825,0,0,1,165.578,122.99Z" transform="translate(-133.095 -120.226)" fill="#f0f0f0"/></g><g transform="translate(9.568 15.459)"><g transform="translate(0 4.9)"><path d="M150.436,175.394a5.3,5.3,0,0,1-4.114-2.412c-3.577-4.588-1.644-14.575,2.364-17.882,2.687-2.216,4.119-1.905,5.106-1.253a6.377,6.377,0,0,0,2.174-1.988,10.7,10.7,0,0,1,4.843-3.757,2.576,2.576,0,0,1,2.905.674c1.98,2.072,2.447,8.067-.2,14.511-3.751,9.138-7.56,9.553-8.481,9.519-.453.559-2.232,2.558-4.55,2.588Zm1.832-21.4c-.75,0-1.745.395-3.187,1.584-3.735,3.082-5.6,12.75-2.27,17.025a4.765,4.765,0,0,0,3.67,2.174c2.334-.03,4.152-2.454,4.17-2.478a.31.31,0,0,1,.309-.119c.034,0,4,.59,7.987-9.126,2.549-6.212,2.165-11.92.322-13.849a1.97,1.97,0,0,0-2.249-.519,10.038,10.038,0,0,0-4.575,3.568,7.775,7.775,0,0,1-2.1,2.013l.115.1c.49.411.812.66,1.21.6a3.78,3.78,0,0,0,2.159-2.1.309.309,0,1,1,.548.286,4.315,4.315,0,0,1-2.613,2.429,2.158,2.158,0,0,1-1.7-.736A2.724,2.724,0,0,0,152.268,153.991Z" transform="translate(-144.44 -147.913)" fill="#27debf"/></g><g transform="translate(11.083)"><path d="M161.127,153.166a.309.309,0,0,1-.309-.3c-.168-4.145,2.345-10.5,4.8-12.141a.309.309,0,0,1,.343.515c-2.274,1.519-4.687,7.7-4.529,11.6a.309.309,0,0,1-.3.322Z" transform="translate(-160.81 -140.676)" fill="#27debf"/></g><g transform="translate(8.7 2.956)"><path d="M159.029,150.516h-.045a1.428,1.428,0,0,1-1.217-.824,7.269,7.269,0,0,1-.359-3.9.367.367,0,0,1,.181-.255c.074-.041,1.83-1.009,3.089-.125,1.13.793.873,2.8.192,3.887A2.355,2.355,0,0,1,159.029,150.516Zm-.93-4.419a6.249,6.249,0,0,0,.309,3.25.715.715,0,0,0,.6.442,1.636,1.636,0,0,0,1.244-.873h0c.574-.917.705-2.418.007-2.906A2.364,2.364,0,0,0,158.1,146.1Z" transform="translate(-157.291 -145.043)" fill="#27debf"/></g></g></g><g transform="translate(12.348 128.118)"><path d="M78.945,281.037a2.613,2.613,0,0,1-2.565-2.767V241.885a4.444,4.444,0,0,1,.632-2.2,4.375,4.375,0,0,1,1.573-1.626l26.367-15.2a3,3,0,0,1,1.5-.422,2.485,2.485,0,0,1,2.341,1.59l.03-.009a4.015,4.015,0,0,1,.19,1.19V261.6a4.7,4.7,0,0,1-2.195,3.818l-26.371,15.2a4.129,4.129,0,0,1-.473.225A2.863,2.863,0,0,1,78.945,281.037Z" transform="translate(-76.38 -222.439)" opacity="0.1"/><g transform="translate(1.683 1.622)"><path d="M111.392,227.963a2.833,2.833,0,0,0-1.281-2.219l-1.043-.6a2.834,2.834,0,0,0-2.563,0l-26.358,15.2a2.833,2.833,0,0,0-1.281,2.219v36.383a2.833,2.833,0,0,0,1.281,2.219l1.044.6a2.828,2.828,0,0,0,2.562,0l26.358-15.194a2.833,2.833,0,0,0,1.281-2.219Z" transform="translate(-78.866 -224.835)" fill="#fafafa"/><path d="M78.866,286.79a2.833,2.833,0,0,0,1.281,2.219l1.044.6a2.862,2.862,0,0,0,2.343.1c-.6.228-1.062-.112-1.062-.843V252.488a2.62,2.62,0,0,1,.375-1.263l-3.606-2.082a2.62,2.62,0,0,0-.375,1.263Z" transform="translate(-78.866 -232.686)" fill="#e0e0e0"/><path d="M111.53,227.6c-.149-.544-.645-.717-1.237-.376l-26.361,15.2a2.54,2.54,0,0,0-.9.956l-3.6-2.08a2.6,2.6,0,0,1,.9-.957l26.354-15.2a2.851,2.851,0,0,1,2.565,0l1.046.6A2.824,2.824,0,0,1,111.53,227.6Z" transform="translate(-79.047 -224.836)" fill="#f0f0f0"/></g><g transform="translate(7.125 12.66)"><g transform="translate(7.304)"><path d="M98,268.755a.3.3,0,0,1-.162-.047.309.309,0,0,1-.147-.268c.232-13.5,9.6-25.973,17.21-27.3a.309.309,0,0,1,.361.279c.024.3.506,7.386-6.951,17.489-5.368,7.273-9.975,9.708-10.168,9.809A.312.312,0,0,1,98,268.755Zm16.653-26.933C107.447,243.4,98.783,255.1,98.325,267.9a36.539,36.539,0,0,0,9.49-9.354C114.2,249.888,114.647,243.368,114.654,241.822Z" transform="translate(-97.692 -241.139)" fill="#27debf"/></g><g transform="translate(16.361 4.88)"><path d="M115.707,256.174h-.018c-3.166-.191-4.84-2.936-4.594-7.532a.3.3,0,0,1,.325-.292.31.31,0,0,1,.292.326c-.226,4.206,1.237,6.714,4.013,6.881a.309.309,0,0,1-.019.618Z" transform="translate(-111.071 -248.348)" fill="#27debf"/></g><g transform="translate(0 25.046)"><path d="M88.756,284.752A2.519,2.519,0,0,1,87,284.1a.309.309,0,0,1-.063-.372c2.285-4.316,5.7-6.054,7.747-5.5a.309.309,0,0,1-.162.6c-1.8-.492-4.861,1.233-6.919,4.966a2.109,2.109,0,0,0,1.548.309c1.7-.238,3.894-1.9,5.1-3.873a.309.309,0,0,1,.528.323c-1.292,2.112-3.673,3.9-5.541,4.162A3.5,3.5,0,0,1,88.756,284.752Z" transform="translate(-86.904 -278.133)" fill="#27debf"/></g><g transform="translate(6.582 26.134)"><path d="M98.837,290.335a.3.3,0,0,1-.168-.05c-2.414-1.565-2.47-6.049-1.3-9.471a.309.309,0,0,1,.584.2c-1.058,3.095-1.027,7.02.772,8.545,1.733-3.581,1.321-8.119.081-9.283a.309.309,0,0,1,.423-.451c1.611,1.512,1.873,6.583-.121,10.346a.31.31,0,0,1-.273.165Z" transform="translate(-96.626 -279.741)" fill="#27debf"/></g><g transform="translate(9.035 10.007)"><g transform="translate(5.194)"><path d="M111.306,261.227h-.012c-1.924-.075-3.3-2.64-3.374-4.988a.309.309,0,0,1,.3-.319.3.3,0,0,1,.318.3c.066,2.023,1.269,4.33,2.78,4.39a.309.309,0,0,1-.012.618Z" transform="translate(-107.921 -255.92)" fill="#27debf"/></g><g transform="translate(3.35 3.663)"><path d="M108.046,265.73a.316.316,0,0,1-.051,0c-1.227-.2-2.586-2.429-2.794-4.047a.309.309,0,0,1,.267-.347.316.316,0,0,1,.347.267c.19,1.472,1.426,3.377,2.28,3.515a.31.31,0,0,1-.049.615Z" transform="translate(-105.198 -261.33)" fill="#27debf"/></g><g transform="translate(1.567 7.094)"><path d="M105.025,270.066a.3.3,0,0,1-.055-.005c-1.02-.18-2.219-2.185-2.4-3.3a.309.309,0,0,1,.609-.1c.175,1.064,1.276,2.683,1.9,2.794a.309.309,0,0,1-.053.613Z" transform="translate(-102.565 -266.399)" fill="#27debf"/></g><g transform="translate(0 11.183)"><path d="M101.913,274.54a.273.273,0,0,1-.062-.006,2.352,2.352,0,0,1-1.592-1.713.309.309,0,0,1,.23-.372.3.3,0,0,1,.372.229,1.767,1.767,0,0,0,1.114,1.25.309.309,0,0,1-.062.612Z" transform="translate(-100.25 -272.438)" fill="#27debf"/></g></g><g transform="translate(18.905 3.903)"><path d="M115.674,250.116a.763.763,0,0,1-.383-.1,1.088,1.088,0,0,1-.462-.989,2.44,2.44,0,0,1,1.046-1.971.869.869,0,0,1,.893-.047,1.089,1.089,0,0,1,.462.989,2.441,2.441,0,0,1-1.047,1.971A1.02,1.02,0,0,1,115.674,250.116Zm.708-2.593a.434.434,0,0,0-.2.066,1.826,1.826,0,0,0-.736,1.435c0,.269.083.413.153.454s.207-.009.274-.047a1.826,1.826,0,0,0,.737-1.435c0-.269-.083-.412-.153-.454A.154.154,0,0,0,116.382,247.523Z" transform="translate(-114.828 -246.904)" fill="#27debf"/></g><g transform="translate(7.304 8.441)"><path d="M100.711,260.395a.309.309,0,0,1-.282-.183c-.413-.923-2.328-.439-2.347-.433a.316.316,0,0,1-.305-.087.31.31,0,0,1-.068-.31c.556-1.648,3.776-5.28,6.353-5.768a.309.309,0,0,1,.115.607c-2.1.4-4.767,3.2-5.653,4.848.762-.1,2.028-.094,2.47.892a.309.309,0,0,1-.156.408A.3.3,0,0,1,100.711,260.395Z" transform="translate(-97.692 -253.607)" fill="#27debf"/></g></g></g><g transform="translate(48.859 106.953)"><path d="M132.873,249.774a2.613,2.613,0,0,1-2.565-2.767V210.622a4.45,4.45,0,0,1,.631-2.2,4.382,4.382,0,0,1,1.574-1.626l26.367-15.2a3,3,0,0,1,1.5-.422,2.484,2.484,0,0,1,2.341,1.59l.03-.009a4.007,4.007,0,0,1,.19,1.19v36.385a4.7,4.7,0,0,1-2.195,3.818l-26.371,15.2a4.233,4.233,0,0,1-.473.225A2.863,2.863,0,0,1,132.873,249.774Z" transform="translate(-130.308 -191.176)" opacity="0.1"/><g transform="translate(1.764 1.677)"><path d="M165.44,196.782a2.833,2.833,0,0,0-1.281-2.219l-1.043-.6a2.834,2.834,0,0,0-2.563,0l-26.357,15.2a2.831,2.831,0,0,0-1.282,2.219v36.383a2.833,2.833,0,0,0,1.282,2.219l1.043.6a2.831,2.831,0,0,0,2.563,0l26.357-15.194a2.832,2.832,0,0,0,1.282-2.219Z" transform="translate(-132.914 -193.654)" fill="#fafafa"/><path d="M132.914,255.609a2.833,2.833,0,0,0,1.282,2.219l1.043.6a2.864,2.864,0,0,0,2.344.1c-.6.228-1.062-.112-1.062-.843V221.307a2.622,2.622,0,0,1,.375-1.263l-3.606-2.082a2.622,2.622,0,0,0-.375,1.263Z" transform="translate(-132.914 -201.505)" fill="#e0e0e0"/><path d="M165.578,196.419c-.149-.544-.645-.717-1.237-.376l-26.361,15.2a2.539,2.539,0,0,0-.9.956l-3.6-2.08a2.6,2.6,0,0,1,.9-.957l26.354-15.2a2.847,2.847,0,0,1,2.565,0l1.046.6A2.826,2.826,0,0,1,165.578,196.419Z" transform="translate(-133.095 -193.655)" fill="#f0f0f0"/></g><g transform="translate(7.695 18.945)"><g transform="translate(1.321)"><path d="M147.809,243.059a8.465,8.465,0,0,1-4.022-.976.31.31,0,0,1-.135-.4L153.9,219.34a.309.309,0,0,1,.228-.175.3.3,0,0,1,.275.089l10.247,10.514a.309.309,0,0,1,.045.373c-2.9,4.885-6.577,8.779-10.359,10.963A13.2,13.2,0,0,1,147.809,243.059Zm-3.472-1.39c2.731,1.321,6.156.936,9.685-1.1a29.919,29.919,0,0,0,10.015-10.539l-9.767-10.021Z" transform="translate(-143.624 -219.159)" fill="#27debf"/></g><g transform="translate(0)"><path d="M146.35,246.054a9.5,9.5,0,0,1-4.512-1.094.31.31,0,0,1-.136-.4l11.564-25.218a.309.309,0,0,1,.228-.175.3.3,0,0,1,.275.089l11.564,11.866a.309.309,0,0,1,.044.373c-3.261,5.5-7.408,9.892-11.675,12.356A14.877,14.877,0,0,1,146.35,246.054Zm-3.963-1.507c3.1,1.515,6.99,1.083,11.005-1.234,4.125-2.382,8.143-6.615,11.332-11.933L153.64,220.007Z" transform="translate(-141.674 -219.159)" fill="#27debf"/></g><path d="M141.982,245a.31.31,0,0,1-.281-.439l11.564-25.218a.309.309,0,0,1,.228-.175.3.3,0,0,1,.275.089l11.564,11.866a.309.309,0,0,1-.443.431L153.64,220.007l-11.377,24.809A.309.309,0,0,1,141.982,245Z" transform="translate(-141.673 -219.159)" fill="#27debf"/><g transform="translate(11.151 4.511)"><path d="M158.647,228.577a.464.464,0,0,1-.3-.107c-.332-.278-.255-1.1.23-2.443a.309.309,0,0,1,.554-.058,2.744,2.744,0,0,1,.422,1.8,1.1,1.1,0,0,1-.53.7A.748.748,0,0,1,158.647,228.577Zm.127-.545h0Zm.141-1.015a4.121,4.121,0,0,0-.158.881.469.469,0,0,0,.2-.284A1.216,1.216,0,0,0,158.915,227.017Z" transform="translate(-158.145 -225.822)" fill="#27debf"/></g><g transform="translate(11.151 15.779)"><path d="M158.647,245.222a.464.464,0,0,1-.3-.107c-.332-.278-.255-1.1.23-2.444a.308.308,0,0,1,.259-.2.3.3,0,0,1,.3.145,2.747,2.747,0,0,1,.422,1.8,1.1,1.1,0,0,1-.53.7A.755.755,0,0,1,158.647,245.222Zm.127-.546h0Zm.141-1.014a4.121,4.121,0,0,0-.158.882.471.471,0,0,0,.2-.285A1.213,1.213,0,0,0,158.915,243.662Z" transform="translate(-158.145 -242.466)" fill="#27debf"/></g><g transform="translate(16.912 11.349)"><path d="M167.322,238.238a.473.473,0,0,1-.17-.032c-.482-.184-.53-1.184-.485-1.99a.311.311,0,0,1,.126-.232.307.307,0,0,1,.259-.05c.094.024.928.252,1.135.871a1.091,1.091,0,0,1-.271,1.059A.811.811,0,0,1,167.322,238.238Zm.093-.584h0Zm-.139-.968a3.712,3.712,0,0,0,.091.866c.019-.02.041-.045.066-.076.153-.191.21-.351.169-.475A.674.674,0,0,0,167.276,236.686Z" transform="translate(-166.654 -235.922)" fill="#27debf"/></g><g transform="translate(5.26 17.54)"><path d="M150.04,247.931c-.024,0-.049,0-.073,0a.553.553,0,0,1-.472-.319c-.269-.592.573-1.883.949-2.412a.309.309,0,0,1,.561.161c.018.3.08,1.838-.473,2.37A.694.694,0,0,1,150.04,247.931Zm.307-1.4a1.777,1.777,0,0,0-.288.823c0-.041.014-.045.043-.073A1.449,1.449,0,0,0,150.347,246.532Z" transform="translate(-149.443 -245.066)" fill="#27debf"/></g><g transform="translate(8.423 11.401)"><path d="M154.647,238.858a.5.5,0,0,1-.43-.212c-.328-.464.193-1.611.689-2.49a.3.3,0,0,1,.315-.154.309.309,0,0,1,.256.24,3.616,3.616,0,0,1-.135,2.231.84.84,0,0,1-.563.372A.793.793,0,0,1,154.647,238.858Zm.085-.551h0Zm.247-.9a3.084,3.084,0,0,0-.254.813.225.225,0,0,0,.1-.09A1.425,1.425,0,0,0,154.979,237.406Z" transform="translate(-154.114 -235.999)" fill="#27debf"/></g><g transform="translate(13.837 8.64)"><path d="M162.673,234.439a.458.458,0,0,1-.213-.053c-.37-.195-.447-.938-.227-2.208a.311.311,0,0,1,.179-.229.3.3,0,0,1,.29.02,1.937,1.937,0,0,1,.9,1.223,1.162,1.162,0,0,1-.4.977A.777.777,0,0,1,162.673,234.439Zm.118-.565h0Zm-.023-1.039a4.128,4.128,0,0,0-.016.908l.017-.017a.571.571,0,0,0,.214-.466A.837.837,0,0,0,162.768,232.835Z" transform="translate(-162.111 -231.921)" fill="#27debf"/></g></g></g><g transform="translate(26.889 161.072)"><path d="M100.423,315.762A2.612,2.612,0,0,1,97.858,313V298.933a4.444,4.444,0,0,1,.632-2.2,4.375,4.375,0,0,1,1.573-1.626l40.978-23.571a3,3,0,0,1,1.5-.422,2.485,2.485,0,0,1,2.342,1.59l.03-.009a3.985,3.985,0,0,1,.19,1.19v14.063a4.7,4.7,0,0,1-2.195,3.819l-40.982,23.572a4.242,4.242,0,0,1-.473.225A2.861,2.861,0,0,1,100.423,315.762Z" transform="translate(-97.858 -271.114)" opacity="0.1"/><g transform="translate(1.683 1.622)"><path d="M147.48,276.638a2.833,2.833,0,0,0-1.281-2.219l-1.043-.6a2.834,2.834,0,0,0-2.563,0l-40.969,23.568a2.833,2.833,0,0,0-1.281,2.219v14.06a2.832,2.832,0,0,0,1.281,2.219l1.044.6a2.834,2.834,0,0,0,2.563,0L146.2,292.917a2.83,2.83,0,0,0,1.282-2.219Z" transform="translate(-100.344 -273.51)" fill="#27debf"/><path d="M147.48,276.638a2.833,2.833,0,0,0-1.281-2.219l-1.043-.6a2.834,2.834,0,0,0-2.563,0l-40.969,23.568a2.833,2.833,0,0,0-1.281,2.219v14.06a2.832,2.832,0,0,0,1.281,2.219l1.044.6a2.834,2.834,0,0,0,2.563,0L146.2,292.917a2.83,2.83,0,0,0,1.282-2.219Z" transform="translate(-100.344 -273.51)" opacity="0.15"/><path d="M100.344,325.509a2.832,2.832,0,0,0,1.281,2.219l1.044.6a2.862,2.862,0,0,0,2.343.1c-.6.228-1.062-.112-1.062-.843v-14.06a2.62,2.62,0,0,1,.375-1.263l-3.606-2.082a2.622,2.622,0,0,0-.375,1.263Z" transform="translate(-100.344 -285.355)" opacity="0.3"/><path d="M147.619,276.275c-.149-.544-.645-.717-1.237-.376l-40.971,23.57a2.539,2.539,0,0,0-.9.956l-3.6-2.08a2.6,2.6,0,0,1,.9-.957l40.965-23.569a2.847,2.847,0,0,1,2.565,0l1.046.6A2.825,2.825,0,0,1,147.619,276.275Z" transform="translate(-100.525 -273.511)" opacity="0.15"/></g><g transform="translate(9.075 9.356)"><path d="M111.48,323.37a.116.116,0,0,1-.153-.011.26.26,0,0,1-.065-.2v-8.036a.623.623,0,0,1,.065-.274.409.409,0,0,1,.153-.188l2.6-1.5a1.781,1.781,0,0,1,.913-.3.816.816,0,0,1,.594.254,1.4,1.4,0,0,1,.319.649,3.753,3.753,0,0,1,.1.87,3.852,3.852,0,0,1-.052.659,4.345,4.345,0,0,1-.125.533,3.266,3.266,0,0,1-.149.4q-.077.163-.126.252a.858.858,0,0,1,.44.523,3.142,3.142,0,0,1,.126.992,6.057,6.057,0,0,1-.1,1.051,4.654,4.654,0,0,1-.32,1.047,4.049,4.049,0,0,1-.578.944,3.141,3.141,0,0,1-.873.734Zm3.022-7.814a.607.607,0,0,0-.125-.443c-.083-.081-.206-.074-.368.019l-1.252.724v1.418l1.252-.723a.9.9,0,0,0,.368-.406A1.35,1.35,0,0,0,114.5,315.556Zm-1.745,5.149,1.333-.77a.982.982,0,0,0,.388-.441,1.419,1.419,0,0,0,.146-.626.6.6,0,0,0-.146-.457c-.1-.089-.227-.087-.388.007l-1.333.77Z" transform="translate(-111.262 -293.954)" fill="#fafafa"/><path d="M124.368,306.837a.116.116,0,0,1,.153.012.265.265,0,0,1,.065.2v4.963a7.109,7.109,0,0,1-.178,1.619,6.041,6.041,0,0,1-.505,1.4,5.109,5.109,0,0,1-.779,1.128,4.239,4.239,0,0,1-.994.8,2.364,2.364,0,0,1-1,.348,1.07,1.07,0,0,1-.777-.23,1.682,1.682,0,0,1-.5-.818,4.71,4.71,0,0,1-.178-1.415v-4.963a.63.63,0,0,1,.065-.273.4.4,0,0,1,.154-.189l1.058-.611a.117.117,0,0,1,.154.012.265.265,0,0,1,.064.2v4.913a1.65,1.65,0,0,0,.238,1.031q.239.285.723.006a1.708,1.708,0,0,0,.723-.841,3.324,3.324,0,0,0,.238-1.307V307.91a.627.627,0,0,1,.065-.273.4.4,0,0,1,.153-.189Z" transform="translate(-113.979 -292)" fill="#fafafa"/><path d="M131.266,311.112a.644.644,0,0,1-.064.274.411.411,0,0,1-.154.188l-1.059.611a.117.117,0,0,1-.154-.012.266.266,0,0,1-.064-.2v-2.65l-1.867-4.209a.323.323,0,0,1-.031-.143.526.526,0,0,1,.051-.223.333.333,0,0,1,.125-.153l1.107-.639c.108-.062.188-.067.242-.015a.354.354,0,0,1,.1.129l1.018,2.472,1.025-3.652a1.4,1.4,0,0,1,.1-.243.579.579,0,0,1,.242-.263l1.106-.64a.1.1,0,0,1,.126.009.216.216,0,0,1,.052.162.632.632,0,0,1-.033.18l-1.866,6.364Z" transform="translate(-116.627 -290.358)" fill="#fafafa"/><path d="M142.586,305.075a.194.194,0,0,1-.222.017.348.348,0,0,1-.109-.112l-1.85-3.185V306a.639.639,0,0,1-.065.273.417.417,0,0,1-.154.189l-1.058.611a.116.116,0,0,1-.154-.012.263.263,0,0,1-.064-.2v-8.035a.631.631,0,0,1,.064-.274.412.412,0,0,1,.154-.189l.84-.485c.091-.053.165-.059.222-.016a.37.37,0,0,1,.109.111l1.85,3.186v-4.2a.621.621,0,0,1,.065-.273.405.405,0,0,1,.153-.188l1.059-.611a.116.116,0,0,1,.153.011.265.265,0,0,1,.065.2v8.035a.632.632,0,0,1-.065.273.4.4,0,0,1-.153.188Z" transform="translate(-120.192 -288.462)" fill="#fafafa"/><path d="M147.291,297.234a7.079,7.079,0,0,1,.2-1.427,6.328,6.328,0,0,1,.494-1.355,5.668,5.668,0,0,1,.775-1.169,4.061,4.061,0,0,1,1.055-.876,2.152,2.152,0,0,1,1.051-.339,1.175,1.175,0,0,1,.779.271,1.724,1.724,0,0,1,.494.785,4.289,4.289,0,0,1,.2,1.2c.009.351.016.72.016,1.11s-.006.758-.016,1.1a7.17,7.17,0,0,1-.2,1.427,6.538,6.538,0,0,1-.494,1.361,5.429,5.429,0,0,1-.779,1.171,4.134,4.134,0,0,1-1.051.868,2.205,2.205,0,0,1-1.055.347,1.129,1.129,0,0,1-.775-.273,1.752,1.752,0,0,1-.494-.791,4.232,4.232,0,0,1-.2-1.2q-.015-.5-.016-1.085T147.291,297.234Zm3.548.1c0-.153.01-.322.016-.508s.008-.374.008-.564,0-.374-.008-.549-.012-.331-.016-.47a2.176,2.176,0,0,0-.085-.522.8.8,0,0,0-.194-.343.451.451,0,0,0-.311-.126.868.868,0,0,0-.436.14,1.685,1.685,0,0,0-.437.364,2.278,2.278,0,0,0-.311.485,2.761,2.761,0,0,0-.193.566,3.59,3.59,0,0,0-.085.621c-.011.148-.017.311-.02.492s0,.364,0,.556,0,.377,0,.557.009.343.02.487a1.386,1.386,0,0,0,.278.871q.248.269.748-.02a1.766,1.766,0,0,0,.743-.84A3.486,3.486,0,0,0,150.838,297.338Z" transform="translate(-122.893 -287.237)" fill="#fafafa"/><path d="M159.787,290.546l.517-4.5a.789.789,0,0,1,.1-.318.469.469,0,0,1,.153-.162l1.06-.611a.1.1,0,0,1,.125.008.217.217,0,0,1,.053.162.912.912,0,0,1-.008.1l-1.042,8.463a1.086,1.086,0,0,1-.129.4.742.742,0,0,1-.276.308l-.67.387c-.108.062-.195.064-.262,0a.481.481,0,0,1-.141-.242l-.606-2.462-.607,3.161a1.635,1.635,0,0,1-.142.4.669.669,0,0,1-.261.3l-.671.387a.236.236,0,0,1-.275.009.335.335,0,0,1-.129-.249l-1.042-7.259a.713.713,0,0,1-.008-.1.514.514,0,0,1,.053-.223.334.334,0,0,1,.125-.152l1.059-.611a.162.162,0,0,1,.154-.014c.048.021.081.089.1.2l.517,3.906.477-2.527a1.813,1.813,0,0,1,.072-.265.445.445,0,0,1,.2-.253l.76-.439c.1-.056.164-.049.2.02a.661.661,0,0,1,.072.182Z" transform="translate(-125.557 -284.933)" fill="#fafafa"/></g></g><g transform="translate(10.289 18.697)"><path d="M73.339,108.668l17.58,24.651,82.891-47.85-17.594-24.65Z" transform="translate(-73.338 -60.818)" fill="#27debf"/><g transform="translate(7.525 4.349)"><path d="M84.452,122.994l7.534-4.35,17.59,24.652-7.534,4.349Z" transform="translate(-84.452 -83.844)" fill="#fafafa"/><path d="M106.725,110.144l7.534-4.35,17.59,24.652-7.534,4.349Z" transform="translate(-91.646 -79.693)" fill="#fafafa"/><path d="M129,97.293l7.534-4.35,17.59,24.652-7.534,4.349Z" transform="translate(-98.839 -75.543)" fill="#fafafa"/><path d="M151.269,84.442l7.535-4.35,17.59,24.652-7.534,4.349Z" transform="translate(-106.033 -71.392)" fill="#fafafa"/><path d="M173.541,71.592l7.534-4.35,17.59,24.652-7.534,4.349Z" transform="translate(-113.226 -67.242)" fill="#fafafa"/></g><g transform="translate(17.581 24.657)"><g transform="translate(7.533 4.349)"><path d="M110.433,159.4c0,2.4,1.686,3.376,3.767,2.175a8.326,8.326,0,0,0,3.767-6.524Z" transform="translate(-110.433 -120.26)" fill="#e0e0e0"/><path d="M132.687,146.556c0,2.4,1.686,3.376,3.767,2.175a8.327,8.327,0,0,0,3.767-6.524Z" transform="translate(-117.621 -116.11)" fill="#e0e0e0"/><path d="M154.941,133.708c0,2.4,1.686,3.376,3.767,2.175a8.326,8.326,0,0,0,3.767-6.524Z" transform="translate(-124.808 -111.961)" fill="#e0e0e0"/><path d="M177.2,120.859c0,2.4,1.686,3.376,3.767,2.175a8.326,8.326,0,0,0,3.767-6.524Z" transform="translate(-131.996 -107.811)" fill="#e0e0e0"/><path d="M199.449,108.011c0,2.4,1.686,3.376,3.767,2.175a8.324,8.324,0,0,0,3.767-6.524Z" transform="translate(-139.183 -103.661)" fill="#e0e0e0"/></g><path d="M99.306,165.829c0,2.4,1.686,3.376,3.767,2.175a8.325,8.325,0,0,0,3.767-6.524Z" transform="translate(-99.306 -117.986)" fill="#27debf"/><path d="M121.56,152.98c0,2.4,1.686,3.376,3.767,2.175a8.326,8.326,0,0,0,3.767-6.524Z" transform="translate(-106.494 -113.836)" fill="#27debf"/><path d="M143.814,140.132c0,2.4,1.686,3.376,3.767,2.175a8.325,8.325,0,0,0,3.767-6.524Z" transform="translate(-113.681 -109.686)" fill="#27debf"/><path d="M166.068,127.283c0,2.4,1.686,3.376,3.767,2.175a8.326,8.326,0,0,0,3.767-6.524Z" transform="translate(-120.869 -105.537)" fill="#27debf"/><path d="M188.322,114.435c0,2.4,1.686,3.376,3.767,2.175a8.325,8.325,0,0,0,3.767-6.524Z" transform="translate(-128.056 -101.387)" fill="#27debf"/><path d="M210.576,101.586c0,2.4,1.687,3.376,3.767,2.175a8.326,8.326,0,0,0,3.767-6.524Z" transform="translate(-135.244 -97.237)" fill="#27debf"/><g opacity="0.15"><path d="M99.306,165.829c0,2.4,1.686,3.376,3.767,2.175a8.325,8.325,0,0,0,3.767-6.524Z" transform="translate(-99.306 -117.986)"/><path d="M121.56,152.98c0,2.4,1.686,3.376,3.767,2.175a8.326,8.326,0,0,0,3.767-6.524Z" transform="translate(-106.494 -113.836)"/><path d="M143.814,140.132c0,2.4,1.686,3.376,3.767,2.175a8.325,8.325,0,0,0,3.767-6.524Z" transform="translate(-113.681 -109.686)"/><path d="M166.068,127.283c0,2.4,1.686,3.376,3.767,2.175a8.326,8.326,0,0,0,3.767-6.524Z" transform="translate(-120.869 -105.537)"/><path d="M188.322,114.435c0,2.4,1.686,3.376,3.767,2.175a8.325,8.325,0,0,0,3.767-6.524Z" transform="translate(-128.056 -101.387)"/><path d="M210.576,101.586c0,2.4,1.687,3.376,3.767,2.175a8.326,8.326,0,0,0,3.767-6.524Z" transform="translate(-135.244 -97.237)"/></g></g><g transform="translate(0 47.85)"><path d="M90.919,156.144l-17.581-13.05v-11.6Z" transform="translate(-73.338 -131.495)" fill="#27debf"/><path d="M90.919,156.144l-17.581-13.05v-11.6Z" transform="translate(-73.338 -131.495)" opacity="0.2"/></g></g></g><g transform="translate(1508.325 1642.597)"><g transform="translate(12.584 81.443)"><path d="M310.425,286.759l63.193,36.485,39.788-22.972-63.2-36.488Z" transform="translate(-310.425 -263.784)" fill="#27debf"/><path d="M310.425,286.759l63.193,36.485,39.788-22.972-63.2-36.488Z" transform="translate(-310.425 -263.784)" opacity="0.5"/><path d="M407.406,296.516,354,265.659a5.379,5.379,0,0,0-4.868,0L330.361,276.5a25.688,25.688,0,0,0-14.093,2.569c-6.566,3.51-7.485,9.109-2.051,12.5,5.227,3.267,14.447,3.3,21.017.169l40.21,23.233a5.381,5.381,0,0,0,4.868,0l27.095-15.644C408.751,298.551,408.751,297.292,407.406,296.516Z" transform="translate(-310.505 -264.201)" opacity="0.15"/></g><g transform="translate(0 22.836)"><g transform="translate(3.221 1.858)"><path d="M345.743,179.963v56.748l-39.785,22.976-9.363-51.347Z" transform="translate(-296.595 -179.963)" fill="#27debf"/><path d="M296.595,208.34l49.149-28.377v56.748l-39.785,22.976-9.363-51.347" transform="translate(-296.595 -179.963)" opacity="0.4"/></g><g transform="translate(52.37 1.858)"><path d="M441.748,221.852,432.386,273.2l-63.2-36.489V179.963Z" transform="translate(-369.19 -179.963)" fill="#27debf"/><path d="M441.748,221.852,432.386,273.2l-63.2-36.489V179.963Z" transform="translate(-369.19 -179.963)" opacity="0.3"/></g><path d="M419.981,220.965h-3.215l-72.559-41.889-49.149,28.377.72.415-3.941-.415a1.775,1.775,0,0,1,1.037-1.441l48.838-28.2a5.514,5.514,0,0,1,4.99,0l72.247,41.71C419.209,219.675,419.981,220.286,419.981,220.965Z" transform="translate(-291.837 -177.219)" fill="#455a64"/></g><g transform="translate(80.38)"><path d="M418.609,147.057l-1.72-3.117a4.16,4.16,0,0,1,3.837.034l-.039,0a3.229,3.229,0,0,1,1.386,3.314c-1.887,7.822-8.477,35.764-8.636,36.039l-2.873-1.676Z" transform="translate(-410.563 -143.488)" fill="#27debf"/><path d="M418.609,147.057l-1.72-3.117a4.16,4.16,0,0,1,3.837.034l-.039,0a3.229,3.229,0,0,1,1.386,3.314c-1.887,7.822-8.477,35.764-8.636,36.039l-2.873-1.676Z" transform="translate(-410.563 -143.488)" opacity="0.25"/></g><path d="M427.478,146.21a5.048,5.048,0,0,1,2.15,3.265l6.367,45.148-3.2-1.846-6.706-44.41-2.382-2.11A4.185,4.185,0,0,1,427.478,146.21Z" transform="translate(-334.429 -144.23)" fill="#27debf"/><g transform="translate(36.238 0.452)"><path d="M345.362,173.334l1.025,3.639,51.163-29.7-1.72-3.117Z" transform="translate(-345.362 -144.156)" fill="#27debf"/><path d="M345.362,173.334l1.025,3.639,51.163-29.7-1.72-3.117Z" transform="translate(-345.362 -144.156)" opacity="0.25"/></g><path d="M398.894,146.481l2.382,2.11-52.51,30.6-1.89-2.933Z" transform="translate(-309.613 -144.455)" fill="#27debf"/><g transform="translate(33.177 32.106)"><path d="M346.1,251.1c7.013,4.049,18.383,4.049,25.4,0s7.013-10.613,0-14.662-18.382-4.049-25.394,0S339.088,247.046,346.1,251.1Z" transform="translate(-340.841 -204.633)" opacity="0.05"/><g transform="translate(4.597)"><path d="M377.937,234.115h.023V203.841H347.636v30.274h.023c-.127,2.332,1.335,4.688,4.418,6.468C358,244,367.6,244,373.519,240.583,376.6,238.8,378.064,236.448,377.937,234.115Z" transform="translate(-347.633 -195.087)" fill="#ebebeb"/><path d="M352.077,205.854c5.921,3.419,15.521,3.419,21.441,0s5.921-8.96,0-12.379-15.521-3.418-21.441,0S346.156,202.436,352.077,205.854Z" transform="translate(-347.633 -190.911)" fill="#fafafa"/><path d="M353.174,205.69c5.559,3.139,14.573,3.139,20.132,0s5.56-8.229,0-11.369-14.573-3.139-20.132,0S347.614,202.551,353.174,205.69Z" transform="translate(-348.075 -191.252)" fill="#ebebeb"/><path d="M373.335,196.495c-5.559-3.139-14.573-3.139-20.133,0-2.447,1.382-3.815,3.143-4.107,4.948.292,1.806,1.659,3.567,4.107,4.948,5.559,3.139,14.573,3.139,20.132,0,2.448-1.382,3.816-3.143,4.107-4.948C377.151,199.638,375.784,197.877,373.335,196.495Z" transform="translate(-348.105 -191.954)" fill="#f5f5f5"/><path d="M347.637,231.33c-.02,2.256,1.46,4.515,4.441,6.235,5.921,3.419,15.521,3.419,21.441,0,2.961-1.709,4.441-3.949,4.441-6.189V211.107c0,2.24-1.481,4.481-4.441,6.189-5.921,3.419-15.521,3.419-21.441,0-2.981-1.72-4.461-3.98-4.441-6.235Z" transform="translate(-347.634 -197.419)" fill="#27debf"/><path d="M347.637,231.33c-.02,2.256,1.46,4.515,4.441,6.235,5.921,3.419,15.521,3.419,21.441,0,2.961-1.709,4.441-3.949,4.441-6.189V211.107c0,2.24-1.481,4.481-4.441,6.189-5.921,3.419-15.521,3.419-21.441,0-2.981-1.72-4.461-3.98-4.441-6.235Z" transform="translate(-347.634 -197.419)" fill="#fff" opacity="0.5"/><path d="M369.006,242.374c-5.575,1.437-12.354.855-16.926-1.8-3.085-1.772-4.547-4.126-4.423-6.468h-.025v-30.27c0,2.242,1.487,4.485,4.448,6.2a12.376,12.376,0,0,0,1.462.731V237.8C353.542,240.33,361.993,243.341,369.006,242.374Z" transform="translate(-347.632 -195.087)" opacity="0.05"/><g transform="translate(15.755 10.667)"><path d="M373.773,210.153l-1.608-.929c-1.305-.754-1.655-1.774-.78-2.279a4.558,4.558,0,0,1,3.948.45l1.608.928c1.306.754,1.655,1.774.78,2.28A4.56,4.56,0,0,1,373.773,210.153Z" transform="translate(-370.903 -206.667)" fill="#e0e0e0"/><ellipse cx="1.221" cy="0.705" rx="1.221" ry="0.705" transform="translate(0.83 0.48)" fill="#f5f5f5"/><path d="M377.2,211.124a1.907,1.907,0,0,0,1.727,0,.526.526,0,0,0,0-1,1.907,1.907,0,0,0-1.727,0A.526.526,0,0,0,377.2,211.124Z" transform="translate(-372.82 -207.717)" fill="#f5f5f5"/></g></g></g><g transform="translate(88.828 22.214)"><path d="M423.458,243.392c2.69-16.687,7.823-37.84,18.077-53.616s19.889-17.749,22.483-5.668-6.782,46.03-13.167,60.114C434.034,281.314,420.462,261.973,423.458,243.392Z" transform="translate(-423.041 -176.299)" fill="#f0997a"/><g transform="translate(18.055 9.048)" opacity="0.8"><path d="M469.326,189.944s-.315.154-.875.378-1.336.539-2.273.871c-.464.179-.967.362-1.5.547s-1.078.413-1.655.593l-3.543,1.324-1.784.7c-.585.239-1.176.445-1.732.686l-1.626.66c-.512.225-1.007.426-1.473.6-.906.394-1.706.678-2.258.9s-.9.312-.9.312.2-.284.588-.752a15.8,15.8,0,0,1,1.748-1.783c.393-.332.818-.7,1.3-1.041a16.957,16.957,0,0,1,1.547-1.029,19.693,19.693,0,0,1,1.743-.959c.6-.315,1.248-.558,1.883-.824.649-.228,1.3-.467,1.951-.638.647-.2,1.309-.309,1.936-.452a20.785,20.785,0,0,1,3.493-.366A14.744,14.744,0,0,1,469.326,189.944Z" transform="translate(-449.71 -189.664)" fill="#ffbda7"/></g><g transform="translate(3.32 69.698)" opacity="0.8"><path d="M447.562,279.528s-.316.154-.875.378-1.336.539-2.273.871c-.465.179-.968.362-1.5.548s-1.078.412-1.655.593l-3.543,1.324-1.784.7c-.585.239-1.176.445-1.732.685l-1.626.66c-.512.225-1.007.427-1.473.6-.906.393-1.705.678-2.258.9s-.9.311-.9.311.2-.284.588-.751a15.74,15.74,0,0,1,1.748-1.783c.393-.332.818-.7,1.3-1.041a17.29,17.29,0,0,1,1.547-1.03,19.784,19.784,0,0,1,1.743-.959c.6-.315,1.247-.558,1.882-.824.649-.228,1.3-.467,1.951-.639.647-.2,1.309-.309,1.936-.451a20.785,20.785,0,0,1,3.493-.366A14.706,14.706,0,0,1,447.562,279.528Z" transform="translate(-427.945 -279.248)" fill="#ffbda7"/></g><g transform="translate(12.454 19.398)" opacity="0.8"><path d="M466.113,205.2s-.393.2-1.088.489c-.68.3-1.635.723-2.79,1.2-2.294.979-5.346,2.134-8.391,3.271l-8.428,3.049-2.85,1.024c-.7.257-1.129.378-1.129.378s.251-.356.747-.934a9.683,9.683,0,0,1,.944-.99,13.481,13.481,0,0,1,1.327-1.17,28.942,28.942,0,0,1,8.215-4.535A32.164,32.164,0,0,1,461.805,205a19.878,19.878,0,0,1,3.129.029C465.682,205.113,466.113,205.2,466.113,205.2Z" transform="translate(-441.437 -204.951)" fill="#ffbda7"/></g><g transform="translate(8.746 31.571)" opacity="0.8"><path d="M460.635,223.343s-.39.23-1.079.555c-.672.347-1.616.8-2.753,1.328-2.271,1.045-5.289,2.261-8.32,3.39l-2.271.814c-.737.292-1.494.515-2.2.777l-3.969,1.318-2.914.9c-.717.225-1.167.323-1.167.323a11.826,11.826,0,0,1,.709-.99,9.035,9.035,0,0,1,.913-1.045,14.6,14.6,0,0,1,1.294-1.239,26.991,26.991,0,0,1,8.2-4.674,29.69,29.69,0,0,1,9.207-1.863,19.7,19.7,0,0,1,3.165.162C460.2,223.222,460.635,223.343,460.635,223.343Z" transform="translate(-435.959 -222.931)" fill="#ffbda7"/></g><g transform="translate(3.788 57.229)" opacity="0.8"><path d="M450.811,261.2s-.35.206-.969.5c-.6.312-1.452.716-2.475,1.194-2.041.939-4.753,2.032-7.476,3.046l-2.041.733c-.662.262-1.343.462-1.981.7l-3.567,1.185-2.618.809c-.644.2-1.048.29-1.048.29a10.672,10.672,0,0,1,.636-.89,8.306,8.306,0,0,1,.821-.939,13.242,13.242,0,0,1,1.164-1.113,24.25,24.25,0,0,1,7.367-4.2,26.678,26.678,0,0,1,8.274-1.674,17.69,17.69,0,0,1,2.844.146C450.42,261.091,450.811,261.2,450.811,261.2Z" transform="translate(-428.637 -260.83)" fill="#ffbda7"/></g><g transform="translate(5.526 44.162)" opacity="0.8"><path d="M455.879,241.941s-.39.23-1.079.555c-.671.347-1.615.8-2.753,1.328-2.271,1.045-5.289,2.262-8.319,3.39l-2.271.814c-.737.292-1.494.515-2.2.777l-3.969,1.318-2.914.9c-.717.224-1.167.322-1.167.322a12.029,12.029,0,0,1,.709-.99,9.147,9.147,0,0,1,.913-1.045,14.714,14.714,0,0,1,1.294-1.239,26.992,26.992,0,0,1,8.2-4.674,29.714,29.714,0,0,1,9.208-1.863,19.693,19.693,0,0,1,3.165.162C455.444,241.82,455.879,241.941,455.879,241.941Z" transform="translate(-431.203 -241.529)" fill="#ffbda7"/></g></g><g transform="translate(64.177 2.629)"><ellipse cx="16.707" cy="9.646" rx="16.707" ry="9.646" transform="translate(0 86.996)" opacity="0.1"/><g transform="translate(3.028)"><path d="M410.2,167.651V153.786l-4.487.184-4.487-.184v13.865a22.4,22.4,0,0,1-5.658,15.015c-2.262,2.512-4.364,6.575-4.466,13.027v46.737h0c.029,3.147,3.089,6.349,9.179,7.837a22.935,22.935,0,0,0,10.87,0c6.086-1.489,9.144-4.689,9.173-7.835h0V195.694c-.1-6.452-2.2-10.515-4.466-13.027A22.4,22.4,0,0,1,410.2,167.651Z" transform="translate(-391.102 -149.443)" fill="#27debf"/><path d="M410.2,167.651V153.786l-4.487.184-4.487-.184v13.865a22.4,22.4,0,0,1-5.658,15.015c-2.262,2.512-4.364,6.575-4.466,13.027v46.737h0c.029,3.147,3.089,6.349,9.179,7.837a22.935,22.935,0,0,0,10.87,0c6.086-1.489,9.144-4.689,9.173-7.835h0V195.694c-.1-6.452-2.2-10.515-4.466-13.027A22.4,22.4,0,0,1,410.2,167.651Z" transform="translate(-391.102 -149.443)" opacity="0.5"/><path d="M415.035,150.18c0-.041-.018-.076-.022-.116a2.16,2.16,0,0,0-1.3-1.933,7.02,7.02,0,0,0-6.355,0,2.664,2.664,0,0,0-1.158,1.19,1.25,1.25,0,0,0-.068.133c-.01.03-.012.059-.02.089a.994.994,0,0,0-.068.3v6.789a2.222,2.222,0,0,0,1.313,1.85,7.025,7.025,0,0,0,6.355,0,2.375,2.375,0,0,0,1.27-1.557.446.446,0,0,0,.051-.144Z" transform="translate(-395.928 -147.371)" fill="#37474f"/><path d="M413.713,151.8a7.025,7.025,0,0,1-6.355,0c-1.755-1.014-1.755-2.656,0-3.669a7.02,7.02,0,0,1,6.355,0C415.467,149.144,415.467,150.787,413.713,151.8Z" transform="translate(-395.927 -147.371)" fill="#455a64"/><path d="M424.3,217.8v25.424c0,2.168-1.424,4.324-4.281,5.963-4.485,2.588-11.192,3.138-16.616,1.639V225.4c5.424,1.509,12.13.959,16.616-1.639C422.873,222.125,424.3,219.957,424.3,217.8Z" transform="translate(-395.074 -170.118)" fill="#fff"/></g></g><g transform="translate(8.347 65.847)"><g transform="translate(0 6.894)"><path d="M315.274,253.185c-2.847.453-7.79,1.339-10.248,8.036-2.8,7.627,1.649,16.319,7.458,19.588,7.3,4.106,18.011,3.315,23.724-3.051,6.317-7.04,5.615-19.107.337-23.881s-12.435-2.546-14.257-1.547C319.55,253.83,317.49,252.832,315.274,253.185Z" transform="translate(-304.167 -250.931)" fill="#f28f8f"/><path d="M334.06,280.268c-7.007,4.8-17.263,4.558-23.87.481a15.254,15.254,0,0,0,4.24,3.647c7.3,4.106,18.011,3.315,23.724-3.051,4.79-5.338,5.538-13.56,3.321-19.307C341.925,263.666,341.772,274.982,334.06,280.268Z" transform="translate(-306.112 -254.518)" opacity="0.1"/><g transform="translate(1.835 5.1)" opacity="0.2"><path d="M313.435,258.464c-1.864.028-4.38,1.936-5.529,4.593-1.429,3.3-1.2,7.734-.336,10.888,1.747,6.359,8.346,9.122,8.9,8.512s-4.421-4.381-2.569-11.072C315.775,264.594,316.487,258.418,313.435,258.464Z" transform="translate(-306.877 -258.464)" fill="#fff"/></g><g transform="translate(2.893 5.985)" opacity="0.2"><path d="M312.617,260.075c-1.817.825-3.691,4.053-4.044,6.239s.071,3.606.386,3.826c.566.4,4.009-3.723,5.082-5.525C315.561,262.061,315.547,258.743,312.617,260.075Z" transform="translate(-308.44 -259.77)" fill="#fff"/></g><path d="M324.61,260.939c-1.084-.7-2.07-1.007-2.45.248s2.487,2.879,5.363,1.713,3.705-3.2,3.542-4.17a5.453,5.453,0,0,1-3.085,2.7A5.017,5.017,0,0,1,324.61,260.939Z" transform="translate(-309.967 -253.45)" fill="#b16668"/></g><g transform="translate(4.219 1.069)"><path d="M323.658,256.845a27.856,27.856,0,0,0-2.154-7.964c-1.728-3.659-4.363-6.079-5.036-6.306a7.993,7.993,0,0,0-3.292-.16c-1.518.174-3.226,1.38-2.671,1.914s2.792.751,5.7,2.967,5.936,6.787,6.231,9.673A1.182,1.182,0,0,0,323.658,256.845Z" transform="translate(-310.399 -242.327)" fill="#37474f"/><path d="M316.394,242.541c-.051-.015-.1-.031-.154-.045l-.017,0a8.856,8.856,0,0,0-3.007-.078,4.145,4.145,0,0,0-2.683,1.387c-.082.23.282.492,1.66.546a8.458,8.458,0,0,0,3.959-.778C316.722,243.293,316.9,242.746,316.394,242.541Z" transform="translate(-310.439 -242.328)" fill="#455a64"/><path d="M322.5,253.751c-1.544-3.3-5.46-5.79-8.074-6.8h0a15.427,15.427,0,0,1,3.085,1.837c2.91,2.215,5.936,6.787,6.231,9.673a1.182,1.182,0,0,0,1.219-.123s-.1-1.037-.412-2.523C324.612,257.217,323.92,256.795,322.5,253.751Z" transform="translate(-311.698 -243.82)" opacity="0.1"/></g><g transform="translate(15.626)"><path d="M327.779,250.442a7.176,7.176,0,0,0,6.363-3.263c1.814-2.966.089-6.409.089-6.409a6.692,6.692,0,0,0-5.652,2.418C326.906,245.252,327.018,248.907,327.779,250.442Z" transform="translate(-327.248 -240.748)" fill="#27debf"/><path d="M327.779,250.442a7.176,7.176,0,0,0,6.363-3.263c1.814-2.966.089-6.409.089-6.409a6.692,6.692,0,0,0-5.652,2.418C326.906,245.252,327.018,248.907,327.779,250.442Z" transform="translate(-327.248 -240.748)" opacity="0.3"/><path d="M334.231,240.769a6.692,6.692,0,0,0-5.652,2.418c-1.673,2.065-1.561,5.72-.8,7.255C328.947,244.969,334.231,240.769,334.231,240.769Z" transform="translate(-327.248 -240.748)" fill="#27debf"/></g></g><g transform="translate(5.698 41.033)"><path d="M309.687,258.277c5.434,3.4,15.189,3.3,21.789-.207s7.518-9.107,2.051-12.5-15.223-3.3-21.789.206S304.253,254.881,309.687,258.277Z" transform="translate(-302.156 -216.686)" opacity="0.15"/><g transform="translate(0 6.893)"><path d="M311.361,216.532c-2.847.454-7.79,1.34-10.248,8.036-2.8,7.627,1.649,16.32,7.458,19.588,7.3,4.107,18.011,3.315,23.724-3.051,6.318-7.04,5.615-19.106.337-23.881s-12.435-2.546-14.257-1.547C315.637,217.177,313.577,216.179,311.361,216.532Z" transform="translate(-300.254 -214.278)" fill="#f28f8f"/><path d="M330.147,243.615c-7.007,4.8-17.262,4.558-23.87.481a15.242,15.242,0,0,0,4.24,3.647c7.3,4.107,18.011,3.315,23.724-3.051,4.79-5.338,5.538-13.559,3.322-19.307C338.012,227.013,337.859,238.329,330.147,243.615Z" transform="translate(-302.199 -217.865)" opacity="0.1"/><g transform="translate(1.835 5.1)" opacity="0.2"><path d="M309.522,221.811c-1.864.028-4.379,1.937-5.529,4.594-1.429,3.3-1.2,7.734-.336,10.887,1.747,6.36,8.346,9.123,8.9,8.512s-4.421-4.38-2.569-11.072C311.863,227.941,312.574,221.765,309.522,221.811Z" transform="translate(-302.964 -221.811)" fill="#fff"/></g><g transform="translate(2.893 5.985)" opacity="0.2"><path d="M308.7,223.422c-1.817.826-3.692,4.053-4.045,6.239s.071,3.606.386,3.826c.566.4,4.009-3.724,5.082-5.525C311.648,225.408,311.634,222.091,308.7,223.422Z" transform="translate(-304.527 -223.118)" fill="#fff"/></g><path d="M320.7,224.287c-1.084-.7-2.07-1.008-2.45.247s2.487,2.879,5.363,1.713,3.705-3.2,3.542-4.17a5.451,5.451,0,0,1-3.085,2.7A5.014,5.014,0,0,1,320.7,224.287Z" transform="translate(-306.054 -216.797)" fill="#b16668"/></g><g transform="translate(4.22 1.069)"><path d="M319.746,220.193a27.862,27.862,0,0,0-2.154-7.965c-1.728-3.659-4.363-6.079-5.036-6.306a8.007,8.007,0,0,0-3.292-.16c-1.518.173-3.226,1.379-2.67,1.913s2.791.751,5.7,2.967,5.936,6.788,6.231,9.673A1.181,1.181,0,0,0,319.746,220.193Z" transform="translate(-306.486 -205.675)" fill="#37474f"/><path d="M312.481,205.888c-.051-.016-.1-.031-.154-.045l-.017,0a8.821,8.821,0,0,0-3.007-.078,4.142,4.142,0,0,0-2.683,1.387c-.081.23.282.491,1.66.545a8.466,8.466,0,0,0,3.959-.777C312.81,206.641,312.986,206.093,312.481,205.888Z" transform="translate(-306.526 -205.675)" fill="#455a64"/><path d="M318.584,217.1c-1.543-3.3-5.46-5.789-8.074-6.8h0a15.389,15.389,0,0,1,3.085,1.837c2.91,2.215,5.936,6.788,6.231,9.673a1.181,1.181,0,0,0,1.219-.123s-.1-1.037-.412-2.523C320.7,220.565,320.007,220.142,318.584,217.1Z" transform="translate(-307.786 -207.168)" opacity="0.1"/></g><g transform="translate(15.626)"><path d="M323.866,213.789a7.176,7.176,0,0,0,6.363-3.263c1.814-2.966.089-6.409.089-6.409a6.69,6.69,0,0,0-5.652,2.417C322.992,208.6,323.105,212.255,323.866,213.789Z" transform="translate(-323.334 -204.096)" fill="#27debf"/><path d="M323.866,213.789a7.176,7.176,0,0,0,6.363-3.263c1.814-2.966.089-6.409.089-6.409a6.69,6.69,0,0,0-5.652,2.417C322.992,208.6,323.105,212.255,323.866,213.789Z" transform="translate(-323.334 -204.096)" opacity="0.3"/><path d="M330.318,204.117a6.69,6.69,0,0,0-5.652,2.417c-1.674,2.065-1.561,5.721-.8,7.255C325.033,208.317,330.318,204.117,330.318,204.117Z" transform="translate(-323.334 -204.096)" fill="#27debf"/></g></g><g transform="translate(20.167 68.178)"><g transform="translate(7.67 18.104)"><path d="M348.594,278.751c0,4.319-3.5,9.193-7.821,9.193s-7.82-4.873-7.82-9.193a7.821,7.821,0,0,1,15.641,0Z" transform="translate(-332.953 -270.931)" fill="#27debf"/><path d="M348.594,278.751c0,4.319-3.5,9.193-7.821,9.193s-7.82-4.873-7.82-9.193a7.821,7.821,0,0,1,15.641,0Z" transform="translate(-332.953 -270.931)" opacity="0.6"/></g><g transform="translate(21.694 26.205)"><path d="M369.308,290.718c0,4.319-3.5,9.192-7.821,9.192s-7.82-4.873-7.82-9.192a7.821,7.821,0,1,1,15.641,0Z" transform="translate(-353.667 -282.897)" fill="#27debf"/><path d="M369.308,290.718c0,4.319-3.5,9.192-7.821,9.192s-7.82-4.873-7.82-9.192a7.821,7.821,0,1,1,15.641,0Z" transform="translate(-353.667 -282.897)" opacity="0.6"/></g><g transform="translate(35.717 34.312)"><path d="M390.022,302.693c0,4.319-3.5,9.193-7.821,9.193s-7.82-4.873-7.82-9.193a7.821,7.821,0,1,1,15.641,0Z" transform="translate(-374.381 -294.872)" fill="#27debf"/><path d="M390.022,302.693c0,4.319-3.5,9.193-7.821,9.193s-7.82-4.873-7.82-9.193a7.821,7.821,0,1,1,15.641,0Z" transform="translate(-374.381 -294.872)" opacity="0.6"/></g><g transform="translate(49.741 42.429)"><path d="M410.736,314.681c0,4.319-3.5,9.193-7.821,9.193s-7.821-4.873-7.821-9.193a7.821,7.821,0,0,1,15.642,0Z" transform="translate(-395.094 -306.861)" fill="#27debf"/><path d="M410.736,314.681c0,4.319-3.5,9.193-7.821,9.193s-7.821-4.873-7.821-9.193a7.821,7.821,0,0,1,15.642,0Z" transform="translate(-395.094 -306.861)" opacity="0.6"/></g><g transform="translate(65.218 33.343)"><path d="M433.6,301.261c0,4.319-3.5,9.193-7.821,9.193s-7.82-4.873-7.82-9.193a7.821,7.821,0,1,1,15.641,0Z" transform="translate(-417.955 -293.44)" fill="#27debf"/><path d="M433.6,301.261c0,4.319-3.5,9.193-7.821,9.193s-7.82-4.873-7.82-9.193a7.821,7.821,0,1,1,15.641,0Z" transform="translate(-417.955 -293.44)" opacity="0.6"/></g><path d="M411.284,281.937a1.735,1.735,0,0,0-1.027-1.442l-54.8-31.662a5.52,5.52,0,0,0-4.994,0l-27.8,16.052a1.735,1.735,0,0,0-1.028,1.442c0,.483,0,2.221,0,2.705a1.736,1.736,0,0,0,1.028,1.441l54.8,31.662a5.52,5.52,0,0,0,4.994,0l27.8-16.052a1.734,1.734,0,0,0,1.027-1.441C411.28,284.158,411.28,282.42,411.284,281.937Z" transform="translate(-321.628 -245.497)" fill="#27debf"/><path d="M411.284,281.937a1.735,1.735,0,0,0-1.027-1.442l-54.8-31.662a5.52,5.52,0,0,0-4.994,0l-27.8,16.052a1.735,1.735,0,0,0-1.028,1.442c0,.483,0,2.221,0,2.705a1.736,1.736,0,0,0,1.028,1.441l54.8,31.662a5.52,5.52,0,0,0,4.994,0l27.8-16.052a1.734,1.734,0,0,0,1.027-1.441C411.28,284.158,411.28,282.42,411.284,281.937Z" transform="translate(-321.628 -245.497)" opacity="0.2"/><path d="M380,308.665v2.7a5.222,5.222,0,0,1-2.537-.6l-54.8-31.664a1.736,1.736,0,0,1-1.038-1.441c.012-.485.012-2.215,0-2.7a1.766,1.766,0,0,0,1.038,1.442l54.8,31.663A5.191,5.191,0,0,0,380,308.665Z" transform="translate(-321.625 -254.129)" opacity="0.1"/><path d="M322.659,264.885l27.8-16.052a5.52,5.52,0,0,1,4.994,0l54.8,31.662c1.379.8,1.379,2.087,0,2.883l-27.8,16.052a5.52,5.52,0,0,1-4.994,0l-54.8-31.662C321.28,266.971,321.28,265.681,322.659,264.885Z" transform="translate(-321.625 -245.497)" fill="#27debf"/><path d="M408.4,311.577c2.986-1.724,3-4.514.024-6.23a12.015,12.015,0,0,0-10.827.007c-3.008,1.72-3.019,4.51-.025,6.23A11.993,11.993,0,0,0,408.4,311.577Z" transform="translate(-345.432 -263.528)" opacity="0.1"/><path d="M431.263,298.371c2.986-1.724,3-4.513.025-6.229a12.016,12.016,0,0,0-10.828.007c-3.007,1.72-3.019,4.51-.025,6.23A11.991,11.991,0,0,0,431.263,298.371Z" transform="translate(-352.815 -259.263)" opacity="0.1"/><path d="M387.689,299.6c2.986-1.724,3-4.513.025-6.23a12.016,12.016,0,0,0-10.828.007c-3.008,1.72-3.019,4.509-.025,6.229A11.993,11.993,0,0,0,387.689,299.6Z" transform="translate(-338.742 -259.661)" opacity="0.1"/><path d="M410.549,286.4c2.986-1.724,3-4.513.025-6.23a12.018,12.018,0,0,0-10.828.007c-3.007,1.72-3.018,4.51-.025,6.23A11.991,11.991,0,0,0,410.549,286.4Z" transform="translate(-346.125 -255.396)" opacity="0.1"/><path d="M366.975,287.633c2.986-1.724,3-4.513.025-6.229a12.014,12.014,0,0,0-10.828.007c-3.007,1.72-3.019,4.51-.025,6.23A11.991,11.991,0,0,0,366.975,287.633Z" transform="translate(-332.052 -255.795)" opacity="0.1"/><path d="M389.835,274.429c2.986-1.724,3-4.514.025-6.23a12.016,12.016,0,0,0-10.828.007c-3.007,1.72-3.018,4.51-.025,6.23A11.993,11.993,0,0,0,389.835,274.429Z" transform="translate(-339.435 -251.53)" opacity="0.1"/><path d="M346.261,275.662c2.986-1.724,3-4.513.025-6.23a12.014,12.014,0,0,0-10.828.007c-3.007,1.72-3.019,4.509-.025,6.229A11.993,11.993,0,0,0,346.261,275.662Z" transform="translate(-325.362 -251.928)" opacity="0.1"/><path d="M369.121,262.457c2.986-1.724,3-4.513.025-6.23a12.016,12.016,0,0,0-10.828.007c-3.007,1.72-3.018,4.509-.024,6.229A11.991,11.991,0,0,0,369.121,262.457Z" transform="translate(-332.745 -247.663)" opacity="0.1"/><path d="M433.3,291.665c0,.127,0,.254-.012.37a6.57,6.57,0,0,1-.242,1.51,5.164,5.164,0,0,1-1.6,1.362,11.962,11.962,0,0,1-10.819.012,5.2,5.2,0,0,1-1.592-1.338,6.878,6.878,0,0,1-.254-1.545c0-.116-.012-.242-.012-.37s.012-.253.012-.369c.012-.323.023-.646.058-.957a14.571,14.571,0,0,1,4.187-8.95,4.26,4.26,0,0,1,6.021,0,14.433,14.433,0,0,1,4.175,8.87q.052.519.07,1.038C433.3,291.412,433.3,291.539,433.3,291.665Z" transform="translate(-352.999 -255.803)" fill="#fafafa"/><path d="M412.586,279.682c0,.127,0,.253-.012.369a6.57,6.57,0,0,1-.242,1.51,5.173,5.173,0,0,1-1.6,1.362,11.962,11.962,0,0,1-10.819.012,5.2,5.2,0,0,1-1.592-1.338,6.878,6.878,0,0,1-.254-1.545c0-.116-.011-.242-.011-.369s.011-.254.011-.37c.012-.323.023-.646.058-.957a14.568,14.568,0,0,1,4.187-8.95,4.259,4.259,0,0,1,6.02,0,14.428,14.428,0,0,1,4.175,8.87q.053.519.07,1.038C412.586,279.428,412.586,279.555,412.586,279.682Z" transform="translate(-346.309 -251.932)" fill="#fafafa"/><path d="M410.439,304.871c0,.127,0,.253-.012.369a6.534,6.534,0,0,1-.242,1.51,5.165,5.165,0,0,1-1.6,1.361,11.962,11.962,0,0,1-10.819.012,5.205,5.205,0,0,1-1.591-1.338,6.837,6.837,0,0,1-.254-1.545c0-.116-.012-.242-.012-.369s.012-.254.012-.37c.012-.323.023-.646.058-.957a14.569,14.569,0,0,1,4.187-8.95,4.26,4.26,0,0,1,6.021,0,14.437,14.437,0,0,1,4.175,8.87q.052.519.069,1.038C410.439,304.617,410.439,304.744,410.439,304.871Z" transform="translate(-345.616 -260.068)" fill="#fafafa"/><path d="M389.725,292.886c0,.127,0,.254-.012.369a6.571,6.571,0,0,1-.242,1.511,5.176,5.176,0,0,1-1.6,1.361,11.96,11.96,0,0,1-10.818.012,5.208,5.208,0,0,1-1.592-1.338,6.852,6.852,0,0,1-.254-1.546c0-.115-.012-.242-.012-.369s.012-.254.012-.369c.012-.323.023-.646.058-.957a14.571,14.571,0,0,1,4.187-8.95,4.26,4.26,0,0,1,6.021,0,14.435,14.435,0,0,1,4.175,8.87q.052.519.069,1.038C389.725,292.632,389.725,292.76,389.725,292.886Z" transform="translate(-338.926 -256.197)" fill="#fafafa"/><path d="M391.872,267.7c0,.127,0,.254-.012.369a6.534,6.534,0,0,1-.242,1.511,5.162,5.162,0,0,1-1.6,1.361,11.96,11.96,0,0,1-10.819.012,5.217,5.217,0,0,1-1.592-1.338,6.893,6.893,0,0,1-.254-1.546c0-.115-.012-.242-.012-.369s.012-.253.012-.369c.012-.323.023-.646.058-.957a14.564,14.564,0,0,1,4.187-8.95,4.26,4.26,0,0,1,6.021,0,14.433,14.433,0,0,1,4.174,8.87q.053.519.07,1.038C391.872,267.444,391.872,267.571,391.872,267.7Z" transform="translate(-339.619 -248.062)" fill="#fafafa"/><path d="M371.158,255.713c0,.127,0,.254-.012.37a6.536,6.536,0,0,1-.242,1.51,5.174,5.174,0,0,1-1.6,1.361,11.959,11.959,0,0,1-10.819.011,5.2,5.2,0,0,1-1.592-1.338,6.879,6.879,0,0,1-.254-1.545c0-.116-.012-.242-.012-.37s.012-.254.012-.369c.012-.323.023-.646.058-.957a14.569,14.569,0,0,1,4.187-8.95,4.26,4.26,0,0,1,6.021,0,14.435,14.435,0,0,1,4.175,8.87q.052.519.069,1.038C371.158,255.459,371.158,255.587,371.158,255.713Z" transform="translate(-332.929 -244.191)" fill="#fafafa"/><path d="M369.018,280.929c0,.127,0,.253-.012.369a6.534,6.534,0,0,1-.242,1.51,5.174,5.174,0,0,1-1.6,1.362,11.962,11.962,0,0,1-10.819.012,5.217,5.217,0,0,1-1.592-1.338,6.89,6.89,0,0,1-.254-1.546c0-.116-.012-.242-.012-.369s.012-.254.012-.37c.011-.323.023-.646.058-.957a14.571,14.571,0,0,1,4.187-8.951,4.262,4.262,0,0,1,6.021,0,14.437,14.437,0,0,1,4.175,8.87q.052.519.069,1.038C369.018,280.675,369.018,280.8,369.018,280.929Z" transform="translate(-332.238 -252.335)" fill="#fafafa"/><path d="M348.3,268.957c0,.127,0,.254-.012.369a6.541,6.541,0,0,1-.242,1.511,5.172,5.172,0,0,1-1.6,1.361,11.958,11.958,0,0,1-10.819.012,5.2,5.2,0,0,1-1.592-1.338,6.879,6.879,0,0,1-.254-1.546c0-.115-.012-.242-.012-.369s.012-.254.012-.369c.012-.323.023-.646.058-.957a14.569,14.569,0,0,1,4.187-8.95,4.26,4.26,0,0,1,6.021,0,14.435,14.435,0,0,1,4.175,8.87q.052.519.069,1.038C348.3,268.7,348.3,268.83,348.3,268.957Z" transform="translate(-325.548 -248.468)" fill="#fafafa"/></g><g transform="translate(0 52.962)"><g transform="translate(3.221 0.11)"><path d="M369.153,263.767l-72.559-41.889,4.206,45.6a12.368,12.368,0,0,0,5.468,8.62l57.895,33.43a11.159,11.159,0,0,0,9.138.4c.074-.029.144-.058.213-.087a1.035,1.035,0,0,0,.121-.058,4.613,4.613,0,0,0,.507-.259l34.485-19.913a12.376,12.376,0,0,0,5.468-8.625l4.206-45.6Zm-50.094,8.089a3.556,3.556,0,0,1-.334,1.6,3.512,3.512,0,0,1-1.556-.507l-1.879-1.083a8.273,8.273,0,0,1-3.745-6.483V248.907a3.546,3.546,0,0,1,.334-1.6,3.432,3.432,0,0,1,1.561.507l1.879,1.089a8.258,8.258,0,0,1,3.739,6.483Zm18.72,10.809a3.633,3.633,0,0,1-.328,1.6,3.512,3.512,0,0,1-1.556-.507l-1.878-1.083a8.27,8.27,0,0,1-3.745-6.482V259.716a3.623,3.623,0,0,1,.328-1.6,3.386,3.386,0,0,1,1.561.507l1.884,1.089a8.252,8.252,0,0,1,3.734,6.483Zm18.726,10.809a1.1,1.1,0,1,1-1.89,1.1l-1.878-1.083a8.29,8.29,0,0,1-3.745-6.483V270.526a3.546,3.546,0,0,1,.334-1.6,3.438,3.438,0,0,1,1.561.513l1.879,1.083A8.257,8.257,0,0,1,356.506,277Zm31.863-5.923a8.273,8.273,0,0,1-3.745,6.483l-1.879,1.083a1.1,1.1,0,1,1-1.89-1.095V277.549a8.256,8.256,0,0,1,3.739-6.482l1.879-1.089a3.432,3.432,0,0,1,1.561-.507,3.547,3.547,0,0,1,.334,1.6Zm16.381-9.461A8.27,8.27,0,0,1,401,284.572l-1.873,1.083a3.424,3.424,0,0,1-1.561.507,3.546,3.546,0,0,1-.334-1.6V268.088a8.272,8.272,0,0,1,3.745-6.482l1.873-1.083a3.445,3.445,0,0,1,1.562-.507,3.533,3.533,0,0,1,.334,1.6Z" transform="translate(-296.594 -221.878)" fill="#27debf"/><path d="M369.153,263.767l-72.559-41.889,4.206,45.6a12.368,12.368,0,0,0,5.468,8.62l57.895,33.43a11.159,11.159,0,0,0,9.138.4c.074-.029.144-.058.213-.087a1.035,1.035,0,0,0,.121-.058,4.613,4.613,0,0,0,.507-.259l34.485-19.913a12.376,12.376,0,0,0,5.468-8.625l4.206-45.6Zm-50.094,8.089a3.556,3.556,0,0,1-.334,1.6,3.512,3.512,0,0,1-1.556-.507l-1.879-1.083a8.273,8.273,0,0,1-3.745-6.483V248.907a3.546,3.546,0,0,1,.334-1.6,3.432,3.432,0,0,1,1.561.507l1.879,1.089a8.258,8.258,0,0,1,3.739,6.483Zm18.72,10.809a3.633,3.633,0,0,1-.328,1.6,3.512,3.512,0,0,1-1.556-.507l-1.878-1.083a8.27,8.27,0,0,1-3.745-6.482V259.716a3.623,3.623,0,0,1,.328-1.6,3.386,3.386,0,0,1,1.561.507l1.884,1.089a8.252,8.252,0,0,1,3.734,6.483Zm18.726,10.809a1.1,1.1,0,1,1-1.89,1.1l-1.878-1.083a8.29,8.29,0,0,1-3.745-6.483V270.526a3.546,3.546,0,0,1,.334-1.6,3.438,3.438,0,0,1,1.561.513l1.879,1.083A8.257,8.257,0,0,1,356.506,277Zm31.863-5.923a8.273,8.273,0,0,1-3.745,6.483l-1.879,1.083a1.1,1.1,0,1,1-1.89-1.095V277.549a8.256,8.256,0,0,1,3.739-6.482l1.879-1.089a3.432,3.432,0,0,1,1.561-.507,3.547,3.547,0,0,1,.334,1.6Zm16.381-9.461A8.27,8.27,0,0,1,401,284.572l-1.873,1.083a3.424,3.424,0,0,1-1.561.507,3.546,3.546,0,0,1-.334-1.6V268.088a8.272,8.272,0,0,1,3.745-6.482l1.873-1.083a3.445,3.445,0,0,1,1.562-.507,3.533,3.533,0,0,1,.334,1.6Z" transform="translate(-296.594 -221.878)" fill="#fff" opacity="0.45"/><path d="M403.768,270.212V313.1c0,2.835,1.8,4.177,4.149,3.284.074-.029.144-.058.213-.087a1.035,1.035,0,0,0,.121-.058,4.613,4.613,0,0,0,.507-.259l34.485-19.913a12.376,12.376,0,0,0,5.468-8.625l4.206-45.6ZM422.984,294a8.273,8.273,0,0,1-3.745,6.483l-1.879,1.083a1.1,1.1,0,1,1-1.89-1.095V283.995a8.256,8.256,0,0,1,3.739-6.482l1.879-1.089a3.432,3.432,0,0,1,1.561-.507,3.547,3.547,0,0,1,.334,1.6Zm16.381-9.461a8.27,8.27,0,0,1-3.745,6.482l-1.873,1.083a3.424,3.424,0,0,1-1.561.507,3.546,3.546,0,0,1-.334-1.6V274.533a8.272,8.272,0,0,1,3.745-6.482l1.873-1.083a3.445,3.445,0,0,1,1.562-.507,3.533,3.533,0,0,1,.334,1.6Z" transform="translate(-331.209 -228.324)" fill="#fff" opacity="0.4"/></g><g transform="translate(87.817 38.244)"><path d="M430.57,294.841V311.32a8.266,8.266,0,0,1-3.739,6.482l-1.879,1.083c-1.515.87-2.812.588-3.4-.559a3.521,3.521,0,0,0,1.555-.507l1.879-1.083a8.273,8.273,0,0,0,3.745-6.482V293.775a3.547,3.547,0,0,0-.334-1.6C429.677,292.11,430.57,293.1,430.57,294.841Z" transform="translate(-421.547 -282.715)" fill="#455a64"/><path d="M454.771,280.876v16.473a8.262,8.262,0,0,1-3.745,6.483l-1.873,1.083c-1.515.875-2.817.593-3.411-.559a3.424,3.424,0,0,0,1.561-.507l1.873-1.083a8.27,8.27,0,0,0,3.745-6.482V279.8a3.533,3.533,0,0,0-.334-1.6C453.878,278.145,454.771,279.135,454.771,280.876Z" transform="translate(-429.361 -278.205)" fill="#455a64"/></g><path d="M456.137,241.788v5.4a1.75,1.75,0,0,1-1.037,1.441l-48.837,28.2a5.114,5.114,0,0,1-2.495.6v-5.41a5.112,5.112,0,0,0,2.495-.594l48.837-28.2a1.684,1.684,0,0,0,1.026-1.539A.272.272,0,0,1,456.137,241.788Z" transform="translate(-327.988 -228.167)" fill="#37474f"/><path d="M367.617,265.57v5.41a5.085,5.085,0,0,1-2.495-.6l-72.248-41.71a1.756,1.756,0,0,1-1.037-1.44c.006-.525,0-4.886,0-5.4a.751.751,0,0,1,.012-.11,1.69,1.69,0,0,0,1.026,1.55l72.248,41.709A5.082,5.082,0,0,0,367.617,265.57Z" transform="translate(-291.837 -221.716)" fill="#263238"/><path d="M419.981,235.389a1.761,1.761,0,0,1-1.032,1.441l-48.837,28.2a5.515,5.515,0,0,1-4.99,0l-72.248-41.709a1.751,1.751,0,0,1-1.037-1.441h3.221l49.149,28.371,23.41,13.517,49.149-28.377Z" transform="translate(-291.837 -221.768)" fill="#455a64"/><g transform="translate(16.328 25.534)"><path d="M371.268,294.037v16.479A8.266,8.266,0,0,0,375.007,317l1.878,1.083c1.516.87,2.812.588,3.405-.559a3.515,3.515,0,0,1-1.556-.507l-1.878-1.083a8.27,8.27,0,0,1-3.745-6.482V292.971a3.555,3.555,0,0,1,.334-1.6C372.161,291.306,371.268,292.3,371.268,294.037Z" transform="translate(-333.82 -269.746)" fill="#37474f"/><path d="M343.611,278.07v16.479a8.265,8.265,0,0,0,3.739,6.482l1.879,1.083c1.515.871,2.812.588,3.405-.559a3.512,3.512,0,0,1-1.556-.507l-1.878-1.083a8.271,8.271,0,0,1-3.745-6.482V277a3.546,3.546,0,0,1,.334-1.6C344.5,275.339,343.611,276.33,343.611,278.07Z" transform="translate(-324.887 -264.589)" fill="#37474f"/><path d="M315.955,262.1v16.479a8.266,8.266,0,0,0,3.739,6.482l1.879,1.083c1.515.87,2.812.588,3.4-.559a3.5,3.5,0,0,1-1.555-.506L321.544,284a8.273,8.273,0,0,1-3.745-6.483V261.036a3.546,3.546,0,0,1,.334-1.6C316.848,259.371,315.955,260.362,315.955,262.1Z" transform="translate(-315.955 -259.432)" fill="#37474f"/></g></g><g transform="translate(24.05 29.63)"><g transform="translate(0 38.165)"><path d="M327.36,243.626v.471c0,1.812.375,2.711,1.947,3.613h0c.832.477,1.276-.124,1.276-1.083l0-1.14Z" transform="translate(-327.36 -243.626)" fill="#27debf"/><path d="M327.36,243.626v.471c0,1.812.375,2.711,1.947,3.613h0c.832.477,1.276-.124,1.276-1.083l0-1.14Z" transform="translate(-327.36 -243.626)" opacity="0.25"/></g><path d="M337.106,190.536a5.911,5.911,0,0,1,2.442-3.282l1.025,3.64-9.994,36.385-3.219-1.86Z" transform="translate(-327.36 -187.254)" fill="#27debf"/><path d="M337.106,190.536a5.911,5.911,0,0,1,2.442-3.282l1.025,3.64-9.994,36.385-3.219-1.86Z" transform="translate(-327.36 -187.254)" opacity="0.25"/></g><g transform="translate(35.646 31.753)"><path d="M346.2,190.389l1.8,2.985,6.79,45.7-3.718-2.148-6.551-43.176A3.632,3.632,0,0,1,346.2,190.389Z" transform="translate(-344.488 -190.389)" fill="#27debf"/><path d="M354.2,259.125v.471c0,1.812.276,3.083,1.848,3.985h0a1.249,1.249,0,0,0,1.87-1.083v-1.225Z" transform="translate(-347.626 -212.589)" fill="#27debf"/></g></g><g transform="translate(1498.666 1744.904)"><path d="M283.838,316.932a17.059,17.059,0,0,0-3.31-.916,2.132,2.132,0,0,0-1.972,1.343,5.431,5.431,0,0,0,3.657,1.442A1.546,1.546,0,0,0,283.838,316.932Z" transform="translate(-277.889 -301.517)" fill="#263238"/><path d="M312.382,306.631c1.556-4.953,1.514-8.26.439-10.161-.721-1.274-2.973-1.78-3.931-1.862-.975-.085-1.282.655-.409,1.514s.55,1.667.079,2.722a22.584,22.584,0,0,1-2.059,3.4Z" transform="translate(-286.914 -294.601)" fill="#263238"/><path d="M283.206,313.376a7.435,7.435,0,0,1-1.507.149,5.365,5.365,0,0,1-2.449-.771,3.062,3.062,0,0,1-1.174-1.415,3.643,3.643,0,0,1-.1-1.436,4.008,4.008,0,0,1,.158-1.151,4.368,4.368,0,0,1,2.089-2.212c1.965-1.192,4.062-.158,6.975.348,2.2.383,6.445-3.114,11.625-1.244,5.056,1.825,5.114,7.254,6.13,11.607,1.659,7.1,2.934,5.327,7.13,12.454,3.377,5.736,4.557,4.721,8.346,10.336,1.873,2.776,5.575,7.683,7.47,13.774,2.338,7.522-.488,13.056-5.346,15.887-4.309,2.51-6.632,3.367-12.612,2.942a13.879,13.879,0,0,1-6.653-2.424c-2.678,1.546-8.449-2.627-10.479-4.183-3.8-2.914-1.672-5.521,1.672-4.762a18.594,18.594,0,0,1,3.893,1.353,40.072,40.072,0,0,1-2.867-7.48c-.737-3.148-.3-5.8.894-6.482a23.212,23.212,0,0,1-1.551-1.763c-.247,2.814-1.221,11.14-1.418,11.79-.262.869-2.032,2.54-3.644,2.1s-4.988-1.949-5.48-3.4c-.66-1.938,1.263-2.237,4.595-1.376l0-.074c-.093-3.53-.445-8.662-.485-12.193-.024-2.111-.051-4.677-.179-6.38l0-.017h0c-.084-1.13-.146-2.261-.121-3.395.062-2.85.409-5.956.38-7.3-.046-2.078-.334-4.248-1.853-5.723-1.5-1.454-3.493-2.221-5.254-3.29a12.07,12.07,0,0,1-1.82-1.315c-.532-.477-1.582-1.716-1.2-2.51a4.585,4.585,0,0,0,3.1.705,3.549,3.549,0,0,0,1.84-.852c.047-.048.1-.106.088-.173A.17.17,0,0,0,283.206,313.376Z" transform="translate(-277.695 -297.989)" fill="#455a64"/><path d="M343.165,394.328a2.458,2.458,0,0,0-.774,2.59s1.424,2.3,8.107,3.043c6.383.708,12.6-2.045,18.1,0s3.218,6.21,3.788,7.315,2.147.341,2.147-2.941-2.2-6.264-6.183-7.21-9.59-.19-14.907-.106c-5.441.086-6.72-2.116-7.577-3.005C344.873,392.983,343.879,393.647,343.165,394.328Z" transform="translate(-298.472 -326.537)" fill="#37474f"/><path d="M280.529,307.7a.674.674,0,0,0,.07-.081,4.141,4.141,0,0,1,.222-.357,1.136,1.136,0,0,1,.567-.265c.307-.088.6-.246.48-.6a.324.324,0,0,0-.218-.188,2.549,2.549,0,0,0-1.022-.314,2.594,2.594,0,0,0-1.215.385,4.421,4.421,0,0,0-1.8,1.676c-.2.394.3,1.615.3,1.616-.053-.13.062-.433.1-.552.234-.695,1.379-.825,1.971-1.024A1.352,1.352,0,0,0,280.529,307.7Z" transform="translate(-277.571 -298.247)" fill="#263238"/><path d="M307.444,326.88l-1.445.953s-2.844,3.327-9.206,3.609a51.143,51.143,0,0,1-6.833-.072.984.984,0,0,1,.276-.5c1.3-1.439,1.679-5.124,0-6.318s-5.19.173-8.229-1.554c.225.152.453.3.686.442,1.76,1.068,3.755,1.835,5.254,3.29a6.916,6.916,0,0,1,1.8,4.619l-.148-.014a1.369,1.369,0,0,0,.181.517c.01.2.019.4.024.6.007.351-.028.795-.043,1.353l1.419.217a22.485,22.485,0,0,0,17.668-4.808A10.089,10.089,0,0,1,307.444,326.88Z" transform="translate(-279.004 -303.773)" fill="#37474f"/><path d="M299.056,308.605c-1.02,1-2.437,2.288-3.5,3.509-.9,1.036-1.6.271-2.361-4.506-.655-4.1-1.017-4.747-1.729-4.985-.535-.178-1.474-.06-1.644-.443-.326-.734.8-2.112,3.448-2.548C297.291,298.97,300.66,307.039,299.056,308.605Z" transform="translate(-281.509 -296.214)" fill="#263238"/><path d="M310.085,325.67c.136.418.194.638.194.638s-1.93,2.749-8.458,4.085-8.91.334-8.91.334a7.13,7.13,0,0,0-.254-.945s-.33.25-.2,1.778c.089,1.1.24,1.563.828,1.7a24.035,24.035,0,0,0,9.129-.426c5.548-1.243,8.287-3.374,8.821-3.9s.326-.949-.146-2.062C310.569,325.651,310.347,325.587,310.085,325.67Z" transform="translate(-282.369 -304.628)" fill="#27debf"/><path d="M304.646,368.49c1.914-1.108,6.381-.171,10.406,4.793,0,0-.165-3.143-3.971-5.35s-6.57-1.464-7.589-.735Z" transform="translate(-285.943 -317.811)" fill="#37474f"/><path d="M306.242,389.27c.785.3,1.265.547,1.265.547,1.005,2.05,2.345,4.311,2.345,4.311A16.1,16.1,0,0,1,306.242,389.27Z" transform="translate(-286.831 -325.177)" fill="#37474f"/><path d="M298.505,388.215a3.018,3.018,0,0,1,.777-.242,2.956,2.956,0,0,1,.7.278,3.428,3.428,0,0,1,.592.415c.068.062.463.443.334.537-.037.026-.086,0-.123-.024a5.844,5.844,0,0,0-1.634-.83A6.3,6.3,0,0,0,298.505,388.215Z" transform="translate(-284.332 -324.758)" fill="#37474f"/><path d="M297.076,389.58a1.637,1.637,0,0,1,.23-.4c.967.167,2.028.479,2.252,1.333.007.027-.008.139-.06.1a7.391,7.391,0,0,0-1.247-.724A5.174,5.174,0,0,0,297.076,389.58Z" transform="translate(-283.871 -325.149)" fill="#37474f"/><path d="M287.664,380.052a1.642,1.642,0,0,1,.744-.31l.148.028a2.051,2.051,0,0,1,1.053.559c.016.017.019.1-.02.083a4.886,4.886,0,0,0-1.528-.355C287.927,380.049,287.8,380.048,287.664,380.052Z" transform="translate(-280.831 -322.1)" fill="#37474f"/><path d="M287.164,380.953a.986.986,0,0,1,.129-.4,2.572,2.572,0,0,1,.345.055c.349.083.8.248.882.645,0,.02,0,.074-.032.064a6.856,6.856,0,0,0-1.025-.346C287.363,380.958,287.264,380.957,287.164,380.953Z" transform="translate(-280.669 -322.362)" fill="#37474f"/></g><g transform="translate(1421.33 1635.646)"><g transform="translate(63.025 38.333)"><path d="M256.432,189.915c5-.341,8.193.326,10.67,6.068a211.754,211.754,0,0,1,8.258,25.5,6.144,6.144,0,0,1-1.6,6.294c-4.475,5.114-10.368,11.077-10.368,11.077l-3.187-11.127L264.1,222l-4.687-12.7Z" transform="translate(-256.432 -189.842)" fill="#ffa8a7"/><path d="M267.458,237.344a23.9,23.9,0,0,0,2.69,3.777,6.259,6.259,0,0,1-3.316-2.856Z" transform="translate(-259.791 -205.184)" fill="#f28f8f"/></g><g transform="translate(18.534 80.305)"><g transform="translate(0 103.817)"><path d="M191.169,416.638a4.944,4.944,0,0,0-.063,2.621c.25.527,1.824,2.26,5.029,2.89s7.616-.017,9.51-.115a90.427,90.427,0,0,1,9.749.869c2.974.4,5.265-.249,6.375-1.328a1.979,1.979,0,0,0,.447-1.567,7.773,7.773,0,0,0-.316-2.118Z" transform="translate(-190.794 -408.88)" fill="#37474f"/><g transform="translate(0.307)"><path d="M221.475,411.07c.059.248.113.5.16.747a12.555,12.555,0,0,1,.276,3.862,3.51,3.51,0,0,1-2.286,1.728,11.841,11.841,0,0,1-6.428.127,45.409,45.409,0,0,0-7.545-.463,46.829,46.829,0,0,1-6.6.327,15.746,15.746,0,0,1-4.855-.99c-1.305-.559-2.636-1.274-2.954-2.616-.387-2.827.8-4.076,2.144-4.862,1.418-.83,3.241-.729,5.276-.865,1.844-.123,3.186-.126,4.824-.251a23.236,23.236,0,0,0,4.151-.795c1.234-.389,2.565-1.756,3.09-1.812,0,0,8.2-.065,8.983,0,.9.075,1.181,2.879,1.293,3.489.087.478.1.989.232,1.45C221.321,410.454,221.4,410.761,221.475,411.07Z" transform="translate(-191.17 -405.179)" fill="#27debf"/></g><g transform="translate(0.307)" opacity="0.4"><path d="M221.475,411.07c.059.248.113.5.16.747a12.555,12.555,0,0,1,.276,3.862,3.51,3.51,0,0,1-2.286,1.728,11.841,11.841,0,0,1-6.428.127,45.409,45.409,0,0,0-7.545-.463,46.829,46.829,0,0,1-6.6.327,15.746,15.746,0,0,1-4.855-.99c-1.305-.559-2.636-1.274-2.954-2.616-.387-2.827.8-4.076,2.144-4.862,1.418-.83,3.241-.729,5.276-.865,1.844-.123,3.186-.126,4.824-.251a23.236,23.236,0,0,0,4.151-.795c1.234-.389,2.565-1.756,3.09-1.812,0,0,8.2-.065,8.983,0,.9.075,1.181,2.879,1.293,3.489.087.478.1.989.232,1.45C221.321,410.454,221.4,410.761,221.475,411.07Z" transform="translate(-191.17 -405.179)"/></g><path d="M196.057,418.2c-.255-2.037-.594-6.45,3.155-9l.477-.024a9.319,9.319,0,0,0-5.185,0c-3,.8-4.331,3.224-3.583,5.784C190.921,414.957,191.589,417.441,196.057,418.2Z" transform="translate(-190.716 -406.355)" fill="#fafafa"/></g><g transform="translate(17.196 64.537)"><path d="M232.518,349.126c-.265,4.68-4.625,36.644-5.006,38.358-.226,1.022-1.523,2.114-4.887,2-2.363-.081-4.223.116-4.129-1.735l-2.38-40.588Z" transform="translate(-216.116 -347.161)" fill="#ffa8a7"/></g><g transform="translate(34.246 56.427)"><path d="M241.428,378.016a9.087,9.087,0,0,0,.276,4.323c.844,2.275,2.628,3.316,3.676,4.213a29.967,29.967,0,0,1,3.053,3.52c1.026,1.244,1.251,2.056,2.846,3.37a6.555,6.555,0,0,0,5.488.771c1.34-.568,1.8-1.024,1.721-3.076-.081-2.005-6.625-2.751-6.625-2.751Z" transform="translate(-241.299 -349.017)" fill="#37474f"/><path d="M257.815,383.856c.558.2.7,1.213.784,3.223.064,1.521.736,3.747-1.467,4.707a5.581,5.581,0,0,1-5.818-1.175c-1.5-1.789-2.512-3.365-4.65-5.548-1.856-1.894-3.787-2.533-4.611-6.318-.53-2.434-.114-3.442,1.609-4.14,2.368-.959,6.087,2.176,7.943,2.67C253.2,377.7,257.258,383.656,257.815,383.856Z" transform="translate(-241.473 -347.857)" fill="#27debf"/><path d="M257.815,383.856c.558.2.7,1.213.784,3.223.064,1.521.736,3.747-1.467,4.707a5.581,5.581,0,0,1-5.818-1.175c-1.5-1.789-2.512-3.365-4.65-5.548-1.856-1.894-3.787-2.533-4.611-6.318-.53-2.434-.114-3.442,1.609-4.14,2.368-.959,6.087,2.176,7.943,2.67C253.2,377.7,257.258,383.656,257.815,383.856Z" transform="translate(-241.473 -347.857)" opacity="0.4"/><g transform="translate(4.027)"><path d="M262.432,335.183c.318,12.824-1.7,25.7-2.64,36.789-.161,1.085-5.625,3.321-7.442.138-.113-.238-5.1-36.337-5.1-36.337Z" transform="translate(-247.247 -335.183)" fill="#ffa8a7"/></g><path d="M243.007,381.385s.18-4.37,6.3-5.1l-.1-.77a5.3,5.3,0,0,0-2.39-1.378,4.5,4.5,0,0,0-4.929,1.347C240.769,376.853,241.9,380.506,243.007,381.385Z" transform="translate(-241.34 -347.695)" fill="#fafafa"/></g><path d="M251.7,300.044s-.351-8.979-.135-18.633c.135-6.06.258-9.534.016-13.769a97.786,97.786,0,0,0-1.695-14.107s-33.587-6.4-34,5.655c-.493,14.448-.961,43.1-.99,46.879-.028,3.806.2,6.306.584,14.337a33.764,33.764,0,0,0,17.13-1.088c.148-4.049.242-6.359.242-6.359l1.657-25.872s.422,5.061.714,10.36.2,6.584,1.025,16.361c3.357,1.56,13.36,1.463,16.047-1.486A107.672,107.672,0,0,0,251.7,300.044Z" transform="translate(-198.527 -251.837)" fill="#37474f"/><path d="M214.823,302.422c4.753,1.121,12.606.831,12.606.831s-.108,16.99-.981,19.217-10.963,1.86-12.181,0C214.275,313.389,214.823,302.422,214.823,302.422Z" transform="translate(-198.323 -268.175)" fill="#263238"/><g transform="translate(35.989 18.369)"><path d="M256.151,278.968s-4.376,6.018-9.662,8.273l-1.977,17.63-.638-8.8,1.217-10.643A58.338,58.338,0,0,0,256.151,278.968Z" transform="translate(-243.874 -278.968)" fill="#263238"/></g></g><g transform="translate(35.641)"><path d="M236.283,181.933l.073,11.006,11.125-.115.183-12.78Z" transform="translate(-222.54 -148.344)" fill="#ffa8a7"/><path d="M252.31,195.541c-.913-3-4.083-5.468-8.084-5.587-.892-.027-3.212-.007-3.212-.007-.455,1.853-6.4,2.722-11.256,1.579-1.462.384-7.171,1.449-8.389,1.853-3.487,1.158-4.191,4.7-4.734,16.071,0,0-.924,18.877-.568,33.049,6.133,3.232,16.145,3.184,22.887,2.5,10.591-1.07,12.639-4.938,12.639-4.938a117.765,117.765,0,0,1-.467-14.723c.131-4.627,1.464-9.526,1.875-14.77C253.614,202.746,252.936,197.6,252.31,195.541Z" transform="translate(-215.984 -151.54)" fill="#27debf"/><path d="M252.31,195.541c-.913-3-4.083-5.468-8.084-5.587-.892-.027-3.212-.007-3.212-.007-.455,1.853-6.4,2.722-11.256,1.579-1.462.384-7.171,1.449-8.389,1.853-3.487,1.158-4.191,4.7-4.734,16.071,0,0-.924,18.877-.568,33.049,6.133,3.232,16.145,3.184,22.887,2.5,10.591-1.07,12.639-4.938,12.639-4.938a117.765,117.765,0,0,1-.467-14.723c.131-4.627,1.464-9.526,1.875-14.77C253.614,202.746,252.936,197.6,252.31,195.541Z" transform="translate(-215.984 -151.54)" opacity="0.3"/><g transform="translate(2.733 4.948)"><g transform="translate(0 14.507)"><path d="M222.714,161.957s-2.952,4.457-2.674,4.856,2.588.687,2.588.687Z" transform="translate(-220.022 -161.957)" fill="#f28f8f"/></g><g transform="translate(2.51)"><path d="M231.9,140.826c-5.3.89-7.252,4.059-8.036,13.274a82.155,82.155,0,0,0-.036,8.9c.334,4.016,1.09,5.024,1.894,5.921.741.824,5.669,1.172,7.862.665,2.744-.636,8.965-2.554,12.019-6.82,3.592-5.02,4.036-11.292,1.273-14.995C240.419,139.115,234.06,140.464,231.9,140.826Z" transform="translate(-223.729 -140.53)" fill="#ffa8a7"/></g><path d="M226.682,182.255c.607.676,4.237,1.039,6.5.859l.025-1.3A16.962,16.962,0,0,1,226.682,182.255Z" transform="translate(-222.173 -153.864)" fill="#f28f8f"/></g><g transform="translate(4.807)"><path d="M227.958,146.632a4.782,4.782,0,0,0,3,5.106,6.507,6.507,0,0,0-.458,2.343,2,2,0,0,0,.2,1.152.738.738,0,0,0,1.336.028,9.731,9.731,0,0,1,1.188-1.856,3.6,3.6,0,0,1,2.3-1.163c3.315-.221,3.546,4.11,2.152,5.845-2.281,2.838-4.032.781-4.032.781s-.569,3.571,3.195,7.123a5.609,5.609,0,0,0,2.962,1.062,6.9,6.9,0,0,0,3.581-.259c1.848-3,5.77-8.016,7.172-10.665,1.345-2.541,2.934-5.5,2.25-8.464a4.832,4.832,0,0,0-2.215-3.141,6.462,6.462,0,0,0,.667-2.662,2.454,2.454,0,0,0-3.321-2.3,2.9,2.9,0,0,0-4.634-3.1,2.809,2.809,0,0,0-5.461-1.265,3.853,3.853,0,0,0-6.764.575,5.541,5.541,0,0,0-3.782-.821,3.94,3.94,0,0,0-2.994,2.315,3.074,3.074,0,0,0,.951,3.546c-1.216.067-2.158,1.676-2.158,2.894C223.083,144.632,223.7,147.755,227.958,146.632Z" transform="translate(-223.084 -133.222)" fill="#263238"/></g></g><path d="M166.4,198.989c.854,1.6,10.287,18.877,13.03,21.487,1.954,1.86,4.98,3.126,8.109.441,5.839-5.011,14.888-12.908,14.888-12.908,6.958-5.515,7.92-15.54,4.718-18.757-1.638.088-6.644.463-9.889,4.252-6.648,7.76-13.734,15.727-13.734,15.727-1.744-2.3-3.292-4.116-5.169-6.731-1.5-2.087-3.829-4.278-3.926-7a23.043,23.043,0,0,1,.686-4.228c.28-1.812.529-3.611.833-5.424a1.443,1.443,0,0,0-.1-1.068,1.072,1.072,0,0,0-1.475-.047,3.779,3.779,0,0,0-1.032,1.529l-.846,1.854c-.132.29-.327.624-.646.632-1,.026-1.167-2.118-1.421-2.768a11.419,11.419,0,0,1-.5-2.672q-.215-1.622-.431-3.244c-.041-.313-.116-.674-.4-.814-.352-.176-.756.118-1,.425a4.211,4.211,0,0,0-.815,1.681c-.332,1.439.085,3.064-.651,4.344a8.385,8.385,0,0,1-1.1,1.312,15.285,15.285,0,0,0-1.292,1.767,3.57,3.57,0,0,0-.787,3.134A32.739,32.739,0,0,0,166.4,198.989Z" transform="translate(-163.341 -148.07)" fill="#ffa8a7"/><path d="M191.792,222.976c-1.785,1.951-2.83,5.818-2.83,5.818a12.756,12.756,0,0,1,1.889-7.04Z" transform="translate(-171.614 -161.816)" fill="#f28f8f"/></g><g transform="translate(1503.738 1567)"><g transform="translate(8.487)"><g transform="translate(0)"><path d="M299.648,128.244l-1.3-.753a1.646,1.646,0,0,1-.745-1.29V73.071a1.646,1.646,0,0,1,.745-1.29l68.877-39.775a1.648,1.648,0,0,1,1.489,0l1.305.754a1.648,1.648,0,0,1,.745,1.29V87.18a1.646,1.646,0,0,1-.745,1.29l-68.876,39.774A1.645,1.645,0,0,1,299.648,128.244Z" transform="translate(-297.599 -31.828)" fill="#27debf"/><path d="M299.648,128.244l-1.3-.753a1.646,1.646,0,0,1-.745-1.29V73.071a1.646,1.646,0,0,1,.745-1.29l68.877-39.775a1.648,1.648,0,0,1,1.489,0l1.305.754a1.648,1.648,0,0,1,.745,1.29V87.18a1.646,1.646,0,0,1-.745,1.29l-68.876,39.774A1.645,1.645,0,0,1,299.648,128.244Z" transform="translate(-297.599 -31.828)" fill="#fff" opacity="0.5"/><path d="M302.471,74.2l68.877-39.775c.411-.238.745-.045.745.43V87.986a1.646,1.646,0,0,1-.745,1.29L302.471,129.05c-.411.238-.745.045-.745-.43V75.49A1.648,1.648,0,0,1,302.471,74.2Z" transform="translate(-298.932 -32.634)" fill="#27debf"/><path d="M371.7,34.474c-5.652,3.467-11.35,6.854-17.056,10.227l-17.169,10.03L320.21,64.59l-8.669,4.868-8.715,4.791,8.5-5.154,8.55-5.075,17.17-10.029,17.27-9.857C360.094,40.879,365.875,37.636,371.7,34.474Z" transform="translate(-299.287 -32.683)" fill="#fafafa"/><path d="M300.614,93.275l-2.794-1.613a1.45,1.45,0,0,0-.216.733v53.131a1.637,1.637,0,0,0,.739,1.292l1.3.754a1.665,1.665,0,0,0,1.343.068c-.343.112-.592-.088-.592-.5V94.008A1.453,1.453,0,0,1,300.614,93.275Z" transform="translate(-297.6 -51.153)" fill="#27debf"/><path d="M300.614,93.275l-2.794-1.613a1.45,1.45,0,0,0-.216.733v53.131a1.637,1.637,0,0,0,.739,1.292l1.3.754a1.665,1.665,0,0,0,1.343.068c-.343.112-.592-.088-.592-.5V94.008A1.453,1.453,0,0,1,300.614,93.275Z" transform="translate(-297.6 -51.153)" opacity="0.3"/></g><path d="M301.726,84.713,372.092,44.1v13.87L301.729,98.58Z" transform="translate(-298.932 -35.791)" fill="#455a64"/><g transform="translate(6.402 28.229)"><g transform="translate(50.749 14.69)"><path d="M393.68,95.984v9.082a2.355,2.355,0,0,1-1.065,1.846l-9.536,5.577c-.588.34-1.066.064-1.066-.615v-9.082a2.357,2.357,0,0,1,1.066-1.846c2.6-1.5,6.932-4.074,9.535-5.577C393.2,95.029,393.68,95.3,393.68,95.984Z" transform="translate(-382.014 -95.223)" fill="#27debf"/><g clip-path="url(#a)"><path d="M393.68,95.984v9.082a2.355,2.355,0,0,1-1.065,1.846l-9.536,5.577c-.588.34-1.066.064-1.066-.615v-9.082a2.357,2.357,0,0,1,1.066-1.846c2.6-1.5,6.932-4.074,9.535-5.577C393.2,95.029,393.68,95.3,393.68,95.984Z" transform="translate(-382.014 -95.223)" opacity="0.2"/><g transform="translate(-2.119 1.491)"><path d="M394.549,98.121l.241-.7-15.665,9.116-.241.7Z" transform="translate(-378.884 -97.425)" fill="#fff"/></g><g transform="translate(7.427 5.024)"><path d="M392.984,107.826l.482-.557v-4.626l-.482.557Z" transform="translate(-392.984 -102.643)" fill="#fff"/></g><g transform="translate(3.758 7.233)"><path d="M387.565,111.083l.482-.557v-4.619l-.482.557Z" transform="translate(-387.565 -105.907)" fill="#fff"/></g><g transform="translate(-2.119 6.127)"><path d="M394.549,104.968l.241-.7-15.665,9.116-.241.7Z" transform="translate(-378.884 -104.273)" fill="#fff"/></g></g></g><g transform="translate(0.263)"><path d="M308.027,109.629q-.584-.409-.584-1.811a5.2,5.2,0,0,1,.571-2.483,4.2,4.2,0,0,1,1.636-1.686,3.269,3.269,0,0,1,.81-.349,1.16,1.16,0,0,1,.615-.016.09.09,0,0,1,.061.1.473.473,0,0,1-.037.159l-.215.621a.274.274,0,0,1-.085.139.165.165,0,0,1-.1.011,1.41,1.41,0,0,0-.923.24,2.47,2.47,0,0,0-.978,1.05,3.576,3.576,0,0,0-.349,1.64q0,.963.364,1.233t.994-.092a3.191,3.191,0,0,0,.965-.852.473.473,0,0,1,.1-.109c.028-.016.057,0,.086.041l.238.408a.172.172,0,0,1,.024.084.389.389,0,0,1-.073.165,4.236,4.236,0,0,1-1.474,1.307Q308.611,110.039,308.027,109.629Z" transform="translate(-307.443 -83.125)" fill="#27debf"/><path d="M313.81,107.041c-.043-.033-.064-.108-.064-.227v-4.835a.682.682,0,0,1,.064-.306.521.521,0,0,1,.211-.212l1.547-.893q1.553-.9,1.553.913a3.2,3.2,0,0,1-.183,1.088,2.953,2.953,0,0,1-.544.93l.642,1.505a.279.279,0,0,1,.018.1.24.24,0,0,1-.128.221l-.679.392a.246.246,0,0,1-.128.045c-.028,0-.053-.03-.074-.084l-.562-1.469-.728.421v1.6a.658.658,0,0,1-.061.3.522.522,0,0,1-.215.21l-.458.265C313.923,107.062,313.854,107.074,313.81,107.041Zm1.611-3.763a1.3,1.3,0,0,0,.7-1.217c0-.283-.053-.459-.159-.529s-.265-.043-.477.08l-.728.42v1.63Z" transform="translate(-309.479 -82.163)" fill="#27debf"/><path d="M319.537,103.578c-.043-.033-.064-.108-.064-.227V98.515a.659.659,0,0,1,.064-.305.511.511,0,0,1,.211-.212l2.538-1.465c.1-.056.165-.07.2-.039s.055.108.055.233v.3a.694.694,0,0,1-.055.3.477.477,0,0,1-.2.2l-1.8,1.041v1.288l1.26-.727c.1-.056.165-.069.2-.039s.056.108.056.233v.285a.7.7,0,0,1-.056.3.477.477,0,0,1-.2.2l-1.26.728v1.3l1.8-1.038c.1-.056.165-.068.2-.035s.055.112.055.237v.293a.671.671,0,0,1-.055.3.49.49,0,0,1-.2.194l-2.531,1.462C319.65,103.6,319.579,103.61,319.537,103.578Z" transform="translate(-311.328 -80.938)" fill="#27debf"/><path d="M324.72,100.775c-.043-.033-.064-.108-.064-.227V95.713a.674.674,0,0,1,.064-.306.511.511,0,0,1,.211-.211l1.284-.742q1.046-.6,1.59-.249t.544,1.789a4.918,4.918,0,0,1-.55,2.413A4.114,4.114,0,0,1,326.215,100l-1.284.741C324.833,100.8,324.763,100.808,324.72,100.775Zm1.544-1.792a1.98,1.98,0,0,0,.813-.873,3.609,3.609,0,0,0,.269-1.537q0-.978-.269-1.223t-.813.07l-.6.346v3.562Z" transform="translate(-313.002 -80.161)" fill="#27debf"/><path d="M330.916,97.58c-.043-.033-.064-.108-.064-.227V92.517a.662.662,0,0,1,.064-.305.513.513,0,0,1,.211-.211l.458-.265c.1-.059.174-.071.215-.038s.061.113.061.238V96.77a.666.666,0,0,1-.061.3.52.52,0,0,1-.215.209l-.458.265C331.029,97.6,330.959,97.613,330.916,97.58Z" transform="translate(-315.004 -79.388)" fill="#27debf"/><path d="M334.226,94.97c-.043-.033-.064-.108-.064-.227v-4.2l-1,.58c-.1.056-.165.07-.2.039s-.055-.108-.055-.233v-.3a.7.7,0,0,1,.055-.3.481.481,0,0,1,.2-.2l3.021-1.744c.1-.056.166-.068.2-.037s.058.111.058.236v.3a.648.648,0,0,1-.058.294.494.494,0,0,1-.2.2l-1,.579v4.2a.652.652,0,0,1-.064.3.539.539,0,0,1-.217.211l-.452.261C334.341,94.989,334.269,95,334.226,94.97Z" transform="translate(-315.666 -78.306)" fill="#27debf"/><path d="M342.345,89.815q-.584-.409-.584-1.811a5.2,5.2,0,0,1,.572-2.483,4.192,4.192,0,0,1,1.636-1.686,3.251,3.251,0,0,1,.81-.349,1.16,1.16,0,0,1,.615-.016.089.089,0,0,1,.061.1.439.439,0,0,1-.036.159l-.215.621a.274.274,0,0,1-.085.139.157.157,0,0,1-.1.011,1.416,1.416,0,0,0-.923.24,2.475,2.475,0,0,0-.978,1.05,3.594,3.594,0,0,0-.348,1.64q0,.963.364,1.234t.993-.093a3.2,3.2,0,0,0,.967-.852.44.44,0,0,1,.1-.108c.028-.017.057,0,.086.039l.238.409a.172.172,0,0,1,.024.084.389.389,0,0,1-.073.165,4.236,4.236,0,0,1-1.474,1.307Q342.929,90.224,342.345,89.815Z" transform="translate(-318.527 -76.725)" fill="#27debf"/><path d="M347.668,87.434a.68.68,0,0,1,.018-.141l1.584-5.945a.914.914,0,0,1,.095-.246.424.424,0,0,1,.15-.14l.446-.257c.065-.038.114-.049.147-.032a.25.25,0,0,1,.091.139l1.584,4.116a.429.429,0,0,1,.018.12.215.215,0,0,1-.11.2l-.74.427c-.057.034-.1.045-.125.036s-.05-.04-.07-.094l-.281-.8-1.486.857-.276,1.121a.6.6,0,0,1-.07.175.375.375,0,0,1-.125.109l-.74.427C347.7,87.551,347.668,87.527,347.668,87.434Zm2.574-3.418-.507-1.468-.514,2.058Z" transform="translate(-320.435 -75.831)" fill="#27debf"/><path d="M354.587,83.5c-.043-.033-.064-.108-.064-.228V78.436a.669.669,0,0,1,.064-.305.511.511,0,0,1,.211-.212l1.547-.893q1.554-.9,1.553.913a3.2,3.2,0,0,1-.183,1.088,2.951,2.951,0,0,1-.544.93l.642,1.5a.282.282,0,0,1,.018.1.24.24,0,0,1-.129.221l-.678.391a.25.25,0,0,1-.129.046c-.028,0-.053-.031-.073-.084l-.563-1.469-.728.42v1.6a.666.666,0,0,1-.061.3.521.521,0,0,1-.214.209l-.459.265C354.7,83.519,354.63,83.532,354.587,83.5Zm1.611-3.764a1.294,1.294,0,0,0,.7-1.217q0-.424-.159-.528t-.477.079l-.728.42v1.631Z" transform="translate(-322.649 -74.559)" fill="#27debf"/><path d="M360.313,80.226c-.043-.033-.064-.108-.064-.228V75.163a.668.668,0,0,1,.064-.306.522.522,0,0,1,.211-.211l1.284-.741q1.045-.6,1.59-.249t.544,1.789a4.915,4.915,0,0,1-.55,2.413,4.118,4.118,0,0,1-1.584,1.591l-1.284.741Q360.378,80.275,360.313,80.226Zm1.544-1.792a1.98,1.98,0,0,0,.813-.873,3.6,3.6,0,0,0,.269-1.538q0-.978-.269-1.222t-.813.07l-.6.345V78.78Z" transform="translate(-324.498 -73.524)" fill="#27debf"/><g opacity="0.15"><path d="M308.027,109.629q-.584-.409-.584-1.811a5.2,5.2,0,0,1,.571-2.483,4.2,4.2,0,0,1,1.636-1.686,3.269,3.269,0,0,1,.81-.349,1.16,1.16,0,0,1,.615-.016.09.09,0,0,1,.061.1.473.473,0,0,1-.037.159l-.215.621a.274.274,0,0,1-.085.139.165.165,0,0,1-.1.011,1.41,1.41,0,0,0-.923.24,2.47,2.47,0,0,0-.978,1.05,3.576,3.576,0,0,0-.349,1.64q0,.963.364,1.233t.994-.092a3.191,3.191,0,0,0,.965-.852.473.473,0,0,1,.1-.109c.028-.016.057,0,.086.041l.238.408a.172.172,0,0,1,.024.084.389.389,0,0,1-.073.165,4.236,4.236,0,0,1-1.474,1.307Q308.611,110.039,308.027,109.629Z" transform="translate(-307.443 -83.125)" fill="#27debf"/><path d="M313.81,107.041c-.043-.033-.064-.108-.064-.227v-4.835a.682.682,0,0,1,.064-.306.521.521,0,0,1,.211-.212l1.547-.893q1.553-.9,1.553.913a3.2,3.2,0,0,1-.183,1.088,2.953,2.953,0,0,1-.544.93l.642,1.505a.279.279,0,0,1,.018.1.24.24,0,0,1-.128.221l-.679.392a.246.246,0,0,1-.128.045c-.028,0-.053-.03-.074-.084l-.562-1.469-.728.421v1.6a.658.658,0,0,1-.061.3.522.522,0,0,1-.215.21l-.458.265C313.923,107.062,313.854,107.074,313.81,107.041Zm1.611-3.763a1.3,1.3,0,0,0,.7-1.217c0-.283-.053-.459-.159-.529s-.265-.043-.477.08l-.728.42v1.63Z" transform="translate(-309.479 -82.163)" fill="#27debf"/><path d="M319.537,103.578c-.043-.033-.064-.108-.064-.227V98.515a.659.659,0,0,1,.064-.305.511.511,0,0,1,.211-.212l2.538-1.465c.1-.056.165-.07.2-.039s.055.108.055.233v.3a.694.694,0,0,1-.055.3.477.477,0,0,1-.2.2l-1.8,1.041v1.288l1.26-.727c.1-.056.165-.069.2-.039s.056.108.056.233v.285a.7.7,0,0,1-.056.3.477.477,0,0,1-.2.2l-1.26.728v1.3l1.8-1.038c.1-.056.165-.068.2-.035s.055.112.055.237v.293a.671.671,0,0,1-.055.3.49.49,0,0,1-.2.194l-2.531,1.462C319.65,103.6,319.579,103.61,319.537,103.578Z" transform="translate(-311.328 -80.938)" fill="#27debf"/><path d="M324.72,100.775c-.043-.033-.064-.108-.064-.227V95.713a.674.674,0,0,1,.064-.306.511.511,0,0,1,.211-.211l1.284-.742q1.046-.6,1.59-.249t.544,1.789a4.918,4.918,0,0,1-.55,2.413A4.114,4.114,0,0,1,326.215,100l-1.284.741C324.833,100.8,324.763,100.808,324.72,100.775Zm1.544-1.792a1.98,1.98,0,0,0,.813-.873,3.609,3.609,0,0,0,.269-1.537q0-.978-.269-1.223t-.813.07l-.6.346v3.562Z" transform="translate(-313.002 -80.161)" fill="#27debf"/><path d="M330.916,97.58c-.043-.033-.064-.108-.064-.227V92.517a.662.662,0,0,1,.064-.305.513.513,0,0,1,.211-.211l.458-.265c.1-.059.174-.071.215-.038s.061.113.061.238V96.77a.666.666,0,0,1-.061.3.52.52,0,0,1-.215.209l-.458.265C331.029,97.6,330.959,97.613,330.916,97.58Z" transform="translate(-315.004 -79.388)" fill="#27debf"/><path d="M334.226,94.97c-.043-.033-.064-.108-.064-.227v-4.2l-1,.58c-.1.056-.165.07-.2.039s-.055-.108-.055-.233v-.3a.7.7,0,0,1,.055-.3.481.481,0,0,1,.2-.2l3.021-1.744c.1-.056.166-.068.2-.037s.058.111.058.236v.3a.648.648,0,0,1-.058.294.494.494,0,0,1-.2.2l-1,.579v4.2a.652.652,0,0,1-.064.3.539.539,0,0,1-.217.211l-.452.261C334.341,94.989,334.269,95,334.226,94.97Z" transform="translate(-315.666 -78.306)" fill="#27debf"/><path d="M342.345,89.815q-.584-.409-.584-1.811a5.2,5.2,0,0,1,.572-2.483,4.192,4.192,0,0,1,1.636-1.686,3.251,3.251,0,0,1,.81-.349,1.16,1.16,0,0,1,.615-.016.089.089,0,0,1,.061.1.439.439,0,0,1-.036.159l-.215.621a.274.274,0,0,1-.085.139.157.157,0,0,1-.1.011,1.416,1.416,0,0,0-.923.24,2.475,2.475,0,0,0-.978,1.05,3.594,3.594,0,0,0-.348,1.64q0,.963.364,1.234t.993-.093a3.2,3.2,0,0,0,.967-.852.44.44,0,0,1,.1-.108c.028-.017.057,0,.086.039l.238.409a.172.172,0,0,1,.024.084.389.389,0,0,1-.073.165,4.236,4.236,0,0,1-1.474,1.307Q342.929,90.224,342.345,89.815Z" transform="translate(-318.527 -76.725)" fill="#27debf"/><path d="M347.668,87.434a.68.68,0,0,1,.018-.141l1.584-5.945a.914.914,0,0,1,.095-.246.424.424,0,0,1,.15-.14l.446-.257c.065-.038.114-.049.147-.032a.25.25,0,0,1,.091.139l1.584,4.116a.429.429,0,0,1,.018.12.215.215,0,0,1-.11.2l-.74.427c-.057.034-.1.045-.125.036s-.05-.04-.07-.094l-.281-.8-1.486.857-.276,1.121a.6.6,0,0,1-.07.175.375.375,0,0,1-.125.109l-.74.427C347.7,87.551,347.668,87.527,347.668,87.434Zm2.574-3.418-.507-1.468-.514,2.058Z" transform="translate(-320.435 -75.831)" fill="#27debf"/><path d="M354.587,83.5c-.043-.033-.064-.108-.064-.228V78.436a.669.669,0,0,1,.064-.305.511.511,0,0,1,.211-.212l1.547-.893q1.554-.9,1.553.913a3.2,3.2,0,0,1-.183,1.088,2.951,2.951,0,0,1-.544.93l.642,1.5a.282.282,0,0,1,.018.1.24.24,0,0,1-.129.221l-.678.391a.25.25,0,0,1-.129.046c-.028,0-.053-.031-.073-.084l-.563-1.469-.728.42v1.6a.666.666,0,0,1-.061.3.521.521,0,0,1-.214.209l-.459.265C354.7,83.519,354.63,83.532,354.587,83.5Zm1.611-3.764a1.294,1.294,0,0,0,.7-1.217q0-.424-.159-.528t-.477.079l-.728.42v1.631Z" transform="translate(-322.649 -74.559)" fill="#27debf"/><path d="M360.313,80.226c-.043-.033-.064-.108-.064-.228V75.163a.668.668,0,0,1,.064-.306.522.522,0,0,1,.211-.211l1.284-.741q1.045-.6,1.59-.249t.544,1.789a4.915,4.915,0,0,1-.55,2.413,4.118,4.118,0,0,1-1.584,1.591l-1.284.741Q360.378,80.275,360.313,80.226Zm1.544-1.792a1.98,1.98,0,0,0,.813-.873,3.6,3.6,0,0,0,.269-1.538q0-.978-.269-1.222t-.813.07l-.6.345V78.78Z" transform="translate(-324.498 -73.524)" fill="#27debf"/></g></g><g transform="translate(0 34.435)"><path d="M316.554,139.455l2.72-1.57c.353-.2.639-.039.639.369v.832a1.415,1.415,0,0,1-.639,1.108l-2.72,1.57c-.353.2-.64.039-.64-.369v-.832A1.413,1.413,0,0,1,316.554,139.455Z" transform="translate(-309.916 -128.718)" fill="#27debf"/><path d="M307.695,144.57l2.72-1.571c.353-.2.639-.039.639.369v.832a1.412,1.412,0,0,1-.639,1.108l-2.72,1.57c-.353.2-.64.039-.64-.369v-.832A1.412,1.412,0,0,1,307.695,144.57Z" transform="translate(-307.055 -130.37)" fill="#27debf"/><path d="M342.056,124.533,308.2,144.079a2.354,2.354,0,0,0-1.066,1.846v1c0,.68.477.955,1.066.615l33.855-19.547a2.354,2.354,0,0,0,1.066-1.845v-1C343.122,124.468,342.645,124.193,342.056,124.533Z" transform="translate(-307.081 -124.387)" fill="#27debf"/><path d="M316.554,139.455l2.72-1.57c.353-.2.639-.039.639.369v.832a1.415,1.415,0,0,1-.639,1.108l-2.72,1.57c-.353.2-.64.039-.64-.369v-.832A1.413,1.413,0,0,1,316.554,139.455Z" transform="translate(-309.916 -128.718)" fill="#455a64"/><path d="M307.695,144.57l2.72-1.571c.353-.2.639-.039.639.369v.832a1.412,1.412,0,0,1-.639,1.108l-2.72,1.57c-.353.2-.64.039-.64-.369v-.832A1.412,1.412,0,0,1,307.695,144.57Z" transform="translate(-307.055 -130.37)" fill="#455a64"/><path d="M342.056,124.533,308.2,144.079a2.354,2.354,0,0,0-1.066,1.846v1c0,.68.477.955,1.066.615l33.855-19.547a2.354,2.354,0,0,0,1.066-1.845v-1C343.122,124.468,342.645,124.193,342.056,124.533Z" transform="translate(-307.081 -124.387)" fill="#455a64"/></g><g transform="translate(0 3.861)"><g transform="translate(0 28.975)"><path d="M307.748,131.272l.126-.072c.383-.221.693.014.693.524v2.666a1.74,1.74,0,0,1-.7,1.355l-.108.066c-.388.238-.7.017-.7-.494V132.6A1.66,1.66,0,0,1,307.748,131.272Z" transform="translate(-307.055 -124.962)" fill="#fafafa"/><path d="M313.03,128.242l.126-.073c.383-.221.693.014.693.525v2.666a1.741,1.741,0,0,1-.7,1.355l-.107.066c-.388.238-.7.017-.7-.494v-2.721A1.658,1.658,0,0,1,313.03,128.242Z" transform="translate(-308.761 -123.983)" fill="#fafafa"/><path d="M318.311,125.212l.126-.073c.383-.221.693.014.693.525v2.666a1.74,1.74,0,0,1-.7,1.355l-.108.066c-.388.238-.7.017-.7-.494v-2.721A1.66,1.66,0,0,1,318.311,125.212Z" transform="translate(-310.467 -123.004)" fill="#fafafa"/><path d="M323.593,122.182l.126-.072c.383-.221.693.014.693.524V125.3a1.741,1.741,0,0,1-.7,1.355l-.107.066c-.388.238-.7.017-.7-.494v-2.72A1.658,1.658,0,0,1,323.593,122.182Z" transform="translate(-312.173 -122.026)" fill="#fafafa"/></g><g transform="translate(16.725 19.317)"><path d="M332.452,117.006l.126-.072c.383-.221.693.014.693.524v2.666a1.739,1.739,0,0,1-.7,1.355l-.108.066c-.388.238-.7.017-.7-.494V118.33A1.66,1.66,0,0,1,332.452,117.006Z" transform="translate(-331.759 -110.696)" fill="#fafafa"/><path d="M337.734,113.976l.126-.072c.383-.221.693.014.693.524v2.666a1.741,1.741,0,0,1-.7,1.355l-.107.066c-.388.238-.7.017-.7-.494V115.3A1.658,1.658,0,0,1,337.734,113.976Z" transform="translate(-333.465 -109.717)" fill="#fafafa"/><path d="M343.015,110.946l.126-.072c.383-.221.693.014.693.524v2.666a1.74,1.74,0,0,1-.7,1.355l-.108.066c-.388.238-.7.017-.7-.494V112.27A1.66,1.66,0,0,1,343.015,110.946Z" transform="translate(-335.171 -108.739)" fill="#fafafa"/><path d="M348.3,107.916l.126-.072c.383-.221.693.014.693.524v2.666a1.74,1.74,0,0,1-.7,1.355l-.107.066c-.388.238-.7.017-.7-.494V109.24A1.658,1.658,0,0,1,348.3,107.916Z" transform="translate(-336.877 -107.76)" fill="#fafafa"/></g><g transform="translate(33.45 9.659)"><path d="M357.156,102.74l.126-.072c.383-.221.693.014.693.524v2.666a1.74,1.74,0,0,1-.7,1.355l-.108.066c-.388.238-.7.017-.7-.494v-2.721A1.66,1.66,0,0,1,357.156,102.74Z" transform="translate(-356.463 -96.43)" fill="#fafafa"/><path d="M362.438,99.71l.126-.073c.383-.221.693.014.693.525v2.666a1.741,1.741,0,0,1-.7,1.355l-.107.066c-.388.238-.7.017-.7-.494v-2.721A1.658,1.658,0,0,1,362.438,99.71Z" transform="translate(-358.169 -95.451)" fill="#fafafa"/><path d="M367.719,96.68l.126-.073c.383-.221.693.014.693.525V99.8a1.739,1.739,0,0,1-.7,1.355l-.108.066c-.388.238-.7.017-.7-.494V98A1.66,1.66,0,0,1,367.719,96.68Z" transform="translate(-359.875 -94.473)" fill="#fafafa"/><path d="M373,93.65l.126-.072c.383-.221.693.014.693.524v2.666a1.74,1.74,0,0,1-.7,1.355l-.107.066c-.388.238-.7.017-.7-.494V94.974A1.658,1.658,0,0,1,373,93.65Z" transform="translate(-361.581 -93.494)" fill="#fafafa"/></g><g transform="translate(50.176)"><path d="M381.86,88.474l.126-.072c.383-.221.693.014.693.525v2.665a1.739,1.739,0,0,1-.7,1.355l-.108.066c-.388.238-.7.017-.7-.494V89.8A1.66,1.66,0,0,1,381.86,88.474Z" transform="translate(-381.167 -82.164)" fill="#fafafa"/><path d="M387.142,85.444l.126-.072c.383-.221.693.014.693.524v2.666a1.74,1.74,0,0,1-.7,1.355l-.107.066c-.388.238-.7.017-.7-.494V86.768A1.658,1.658,0,0,1,387.142,85.444Z" transform="translate(-382.873 -81.185)" fill="#fafafa"/><path d="M392.423,82.414l.126-.072c.383-.221.693.014.693.524v2.666a1.739,1.739,0,0,1-.7,1.355l-.108.066c-.388.238-.7.017-.7-.494V83.738A1.66,1.66,0,0,1,392.423,82.414Z" transform="translate(-384.579 -80.207)" fill="#fafafa"/><path d="M397.705,79.384l.126-.072c.383-.221.693.014.693.525V82.5a1.74,1.74,0,0,1-.7,1.355l-.107.066c-.388.238-.7.017-.7-.494V80.708A1.658,1.658,0,0,1,397.705,79.384Z" transform="translate(-386.285 -79.228)" fill="#fafafa"/></g></g></g><path d="M300.393,103.319l-2.794-1.613v13.886l2.8,1.594Z" transform="translate(-297.599 -54.397)" fill="#263238"/></g><g transform="translate(0 66.793)"><path d="M296.35,132.118l0,0h0l-2.79-1.63-8.134,7.829a1.145,1.145,0,0,0,.224,1.827c.036.018,2.266,1.319,2.687,1.561a1.759,1.759,0,0,0,.89.187l7.124-1.371a59.105,59.105,0,0,0,0-8.4Z" transform="translate(-285.063 -130.485)" fill="#27debf"/><path d="M288.334,141.7c-.421-.242-2.651-1.544-2.687-1.561a1.145,1.145,0,0,1-.224-1.827l8.134-7.829,2.794,1.633-8.133,7.82A1.153,1.153,0,0,0,288.334,141.7Z" transform="translate(-285.063 -130.485)" fill="#fff" opacity="0.5"/></g></g></g></svg>