<svg xmlns="http://www.w3.org/2000/svg" xmlns:xlink="http://www.w3.org/1999/xlink" width="330" height="320.457" viewBox="0 0 330 320.457"><defs><clipPath id="a"><path d="M222.093,334.26l7.669,4.428c.574.332.5.91-.161,1.293l-10.676,6.233a2.485,2.485,0,0,1-2.239.093l-7.669-4.428c-.574-.331-.5-.91.161-1.292,2.93-1.692,7.744-4.542,10.675-6.234A2.488,2.488,0,0,1,222.093,334.26Z" transform="translate(-208.631 -334.036)" fill="#27debf"/></clipPath></defs><g transform="translate(-20.751 -31.705)"><g transform="translate(20.751 161.636)"><ellipse cx="165" cy="95.263" rx="165" ry="95.263" fill="#f5f5f5"/></g><g transform="translate(30.337 171.133)"><path d="M264.833,322.687a1.8,1.8,0,0,0,.371.219,2.6,2.6,0,0,0,.827.149c3.393.239,6.834.671,10.169.007s6.369-2.38,9.707-2.949a4.719,4.719,0,0,1,3.241.348c-.059-1.826-2.3-3.789-3.616-4.85a24.748,24.748,0,0,0-2.659-1.846c-.462-.283-.932-.555-1.4-.82-.233-.131-1.057-.765-1.305-.716a26.878,26.878,0,0,0,7.113-2.108c2.208-1.131,7.178-4.744,7.827-7.139a29.373,29.373,0,0,1-6.567-2.691c-.475-.242-2.177.929-2.71.914a4.564,4.564,0,0,0-1.936.6c-3.434,1.546-7.361,1.53-11.1,1.123s-7.473-1.175-11.237-1.037c-2.712.1-5.292,1.079-7.956,1.244-1.944.12-3.724-1.223-5.443-1.977-4.053-1.778-8.694-1.484-13.075-.853-2.19.315-4.37.7-6.571.943a59.423,59.423,0,0,1-6.637.043c-.554,0,.4,4.894.546,5.325.474,1.358,1.277,3.319,2.572,4.08a5.18,5.18,0,0,0,2.741.476,59.872,59.872,0,0,0,12.817-1.635,1.553,1.553,0,0,1,.873-.04,1.657,1.657,0,0,1,.618.5,20.1,20.1,0,0,0,6.29,4.076,3.719,3.719,0,0,0,1.179.413,3.449,3.449,0,0,0,1.005-.077,23.965,23.965,0,0,0,8.991-3.661,16.734,16.734,0,0,0,5.747,3.306.528.528,0,0,0,.229-.033c-.845.167-1.667.51-2.552.635a11.715,11.715,0,0,1-3.255.006,12.5,12.5,0,0,0,.722,1.652c1.127,2.274,2.309,4.619,4.263,6.238C264.712,322.593,264.772,322.642,264.833,322.687Z" transform="translate(-86.356 -245.877)" fill="#e0e0e0"/><path d="M148.639,398.737l82.929-47.88a.952.952,0,0,0,0-1.8l-49.677-28.7a3.45,3.45,0,0,0-3.123,0L95.84,368.232a.952.952,0,0,0,0,1.8l49.677,28.7A3.451,3.451,0,0,0,148.639,398.737Z" transform="translate(-51.09 -251.499)" fill="#e0e0e0"/><ellipse cx="41.591" cy="24.013" rx="41.591" ry="24.013" transform="translate(215.064 31.986)" fill="#e0e0e0"/><ellipse cx="22.777" cy="13.15" rx="22.777" ry="13.15" transform="translate(238.568 90.721)" fill="#e0e0e0"/><path d="M318.838,388.634c8.895,5.136,8.895,13.462,0,18.6s-23.316,5.135-32.211,0-8.895-13.462,0-18.6S309.944,383.5,318.838,388.634Z" transform="translate(-102.599 -269.565)" fill="#e0e0e0"/><path d="M71.106,320.99l-36.74-21.217a.476.476,0,0,1,0-.9l58.81-33.954a1.726,1.726,0,0,1,1.561,0l36.74,21.217a.476.476,0,0,1,0,.9L72.667,320.99A1.726,1.726,0,0,1,71.106,320.99Z" transform="translate(-34.043 -236.097)" fill="#e0e0e0"/><path d="M169.846,277.675l-36.74-21.217a.475.475,0,0,1,0-.9l52.587-30.342a1.726,1.726,0,0,1,1.561,0l36.74,21.217a.476.476,0,0,1,0,.9l-52.587,30.342A1.726,1.726,0,0,1,169.846,277.675Z" transform="translate(-61.569 -225.028)" fill="#e0e0e0"/></g><g transform="translate(41.311 92.739)"><g transform="translate(75.133)"><path d="M194.132,117.012a5.975,5.975,0,0,0-6.121.363c-5.016,2.9-9.1,11.266-9.1,18.659v17.428a.793.793,0,0,0,1.585,0V136.035c0-6.888,3.725-14.643,8.3-17.287,1.691-.976,3.26-1.1,4.537-.364,1.89,1.092,2.975,3.864,2.975,7.6V143.34a.793.793,0,0,0,1.585,0V125.989C197.9,121.667,196.526,118.4,194.132,117.012Z" transform="translate(-160.538 -116.331)" fill="#37474f"/><g transform="translate(49.095 8.788)"><path d="M244.943,220.344l-4.881-83.785-13.973-8.043-4.582,78.3Z" transform="translate(-221.506 -128.516)" fill="#27debf"/><path d="M244.943,220.344l-4.881-83.785-13.973-8.043-4.582,78.3Z" transform="translate(-221.506 -128.516)" opacity="0.2"/></g><g transform="translate(0 8.788)"><path d="M158.017,156.861l-4.582,78.3,49.095-28.345,4.582-78.3Z" transform="translate(-153.434 -128.516)" fill="#27debf"/><path d="M158.017,156.861l-4.582,78.3,49.095-28.345,4.582-78.3Z" transform="translate(-153.434 -128.516)" opacity="0.3"/></g><g transform="translate(0 37.133)"><path d="M158.017,167.817l13.973,8.043,4.881,83.785-23.437-13.531Z" transform="translate(-153.434 -167.817)" fill="#27debf"/><path d="M158.017,167.817l13.973,8.043,4.881,83.785-23.437-13.531Z" transform="translate(-153.434 -167.817)" opacity="0.15"/></g><path d="M176.871,270.585,166.8,256.442l-1.261-49.384-1.258,48.528-10.845,1.467Z" transform="translate(-153.434 -141.624)" opacity="0.15"/><path d="M228.258,139.668l-49.095,28.345,4.881,83.785,49.095-28.345ZM193.78,169.974c-.968.55-1.753.089-1.753-1.028a3.877,3.877,0,0,1,1.754-3.037c.969-.559,1.753-.1,1.753,1.028A3.848,3.848,0,0,1,193.78,169.974Zm17.4-10.124c-.969.55-1.753.09-1.753-1.028a3.874,3.874,0,0,1,1.753-3.037c.969-.56,1.753-.1,1.753,1.028A3.848,3.848,0,0,1,211.181,159.85Z" transform="translate(-160.607 -122.837)" fill="#27debf"/><path d="M213.549,128.06a5.971,5.971,0,0,0-6.12.364c-5.017,2.9-9.1,11.266-9.1,18.659v17.429a.793.793,0,0,0,1.585,0V147.083c0-6.888,3.725-14.642,8.3-17.286,1.689-.977,3.258-1.1,4.536-.364,1.891,1.092,2.976,3.864,2.976,7.6v17.351a.792.792,0,0,0,1.585,0V137.037C217.316,132.715,215.943,129.442,213.549,128.06Z" transform="translate(-165.951 -119.411)" fill="#455a64"/></g><g transform="translate(0 13.755)"><path d="M95.891,136.183c-2.028-1.169-4.52-1.021-7.014.418-5.747,3.318-10.423,12.908-10.423,21.379v19.97a.908.908,0,1,0,1.815,0V157.98c0-7.892,4.269-16.777,9.515-19.807,1.937-1.119,3.734-1.264,5.2-.417,2.167,1.251,3.409,4.427,3.409,8.713V166.35a.908.908,0,0,0,1.815,0V146.469C100.207,141.517,98.634,137.768,95.891,136.183Z" transform="translate(-57.398 -135.403)" fill="#37474f"/><g transform="translate(56.253 10.07)"><path d="M154.111,254.582l-5.593-96-16.011-9.216-5.251,89.713Z" transform="translate(-127.256 -149.365)" fill="#27debf"/><path d="M154.111,254.582l-5.593-96-16.011-9.216-5.251,89.713Z" transform="translate(-127.256 -149.365)" fill="#fff" opacity="0.6"/><path d="M154.111,254.582l-5.593-96-16.011-9.216-5.251,89.713Z" transform="translate(-127.256 -149.365)" opacity="0.05"/></g><g transform="translate(0 10.07)"><path d="M54.509,181.842l-5.251,89.713,56.253-32.478,5.251-89.713Z" transform="translate(-49.259 -149.365)" fill="#27debf"/><path d="M54.509,181.842l-5.251,89.713,56.253-32.478,5.251-89.713Z" transform="translate(-49.259 -149.365)" fill="#fff" opacity="0.3"/><path d="M54.509,181.842l-5.251,89.713,56.253-32.478,5.251-89.713Z" transform="translate(-49.259 -149.365)" opacity="0.05"/></g><g transform="translate(0 42.547)"><path d="M54.509,194.4l16.011,9.216,5.593,96-26.854-15.5Z" transform="translate(-49.259 -194.396)" fill="#27debf"/><path d="M54.509,194.4l16.011,9.216,5.593,96-26.854-15.5Z" transform="translate(-49.259 -194.396)" fill="#fff" opacity="0.55"/></g><path d="M76.113,312.148l-11.542-16.2-1.445-56.585-1.441,55.6-12.426,1.681Z" transform="translate(-49.258 -164.384)" opacity="0.05"/><path d="M134.992,162.142,78.738,194.62l5.593,96,56.254-32.477Zm-39.5,34.725c-1.109.63-2.009.1-2.009-1.178a4.44,4.44,0,0,1,2.009-3.48c1.11-.64,2.009-.113,2.009,1.178A4.411,4.411,0,0,1,95.487,196.867Zm19.937-11.6c-1.109.63-2.009.1-2.009-1.178a4.439,4.439,0,0,1,2.009-3.48c1.11-.64,2.009-.113,2.009,1.178A4.408,4.408,0,0,1,115.424,185.267Z" transform="translate(-57.477 -142.857)" fill="#27debf"/><path d="M134.992,162.142,78.738,194.62l5.593,96,56.254-32.477Zm-39.5,34.725c-1.109.63-2.009.1-2.009-1.178a4.44,4.44,0,0,1,2.009-3.48c1.11-.64,2.009-.113,2.009,1.178A4.411,4.411,0,0,1,95.487,196.867Zm19.937-11.6c-1.109.63-2.009.1-2.009-1.178a4.439,4.439,0,0,1,2.009-3.48c1.11-.64,2.009-.113,2.009,1.178A4.408,4.408,0,0,1,115.424,185.267Z" transform="translate(-57.477 -142.857)" fill="#fff" opacity="0.7"/><path d="M118.138,148.842c-2.03-1.169-4.519-1.022-7.012.418-5.748,3.318-10.424,12.908-10.424,21.379v19.97a.908.908,0,1,0,1.816,0V170.64c0-7.892,4.268-16.778,9.515-19.807,1.936-1.119,3.734-1.264,5.2-.418,2.167,1.251,3.41,4.427,3.41,8.713V179.01a.908.908,0,0,0,1.816,0V159.128C122.456,154.176,120.882,150.427,118.138,148.842Z" transform="translate(-63.6 -138.932)" fill="#455a64"/></g></g><g transform="translate(77.861 237.802)"><path d="M99.941,365.464v1.58a1.726,1.726,0,0,0,.781,1.352l48.242,27.853a1.726,1.726,0,0,0,1.561,0l80.468-46.459a1.726,1.726,0,0,0,.78-1.352v-1.579a1.727,1.727,0,0,0-.78-1.352l-48.243-27.852a1.726,1.726,0,0,0-1.561,0l-80.467,46.458A1.727,1.727,0,0,0,99.941,365.464Z" transform="translate(-99.938 -317.467)" fill="#37474f"/><path d="M150.7,392.866l80.468-46.459a.476.476,0,0,0,0-.9l-48.243-27.852a1.726,1.726,0,0,0-1.561,0L100.9,364.112a.476.476,0,0,0,0,.9l48.242,27.853A1.726,1.726,0,0,0,150.7,392.866Z" transform="translate(-100.115 -317.467)" fill="#455a64"/><path d="M149.744,411.121V414.5a1.52,1.52,0,0,1-.779-.187l-48.242-27.853a1.714,1.714,0,0,1-.787-1.349v-1.579a1.747,1.747,0,0,1,.642-1.255c-.281.252-.231.584.145.8l48.242,27.853A1.52,1.52,0,0,0,149.744,411.121Z" transform="translate(-99.937 -335.536)" fill="#263238"/><path d="M101.024,376.2l16.33,9.277,16.289,9.348,8.143,4.676,4.072,2.337,2.036,1.169,1.018.585.5.286a1.32,1.32,0,0,0,.48.129,1.449,1.449,0,0,0,.984-.245l1.015-.589,2.03-1.178,4.06-2.358,8.121-4.715,32.574-18.7,16.289-9.349,16.33-9.276-16.2,9.5-16.24,9.431-32.484,18.859-8.143,4.676-4.072,2.337-2.035,1.169-1.018.585a1.935,1.935,0,0,1-.6.258,2.108,2.108,0,0,1-.655.04,1.735,1.735,0,0,1-.644-.18l-.518-.3-1.015-.589-2.03-1.178-4.06-2.358-8.121-4.715-16.24-9.432Z" transform="translate(-100.24 -328.654)" fill="#455a64"/><path d="M101.024,376.2l16.33,9.277,16.289,9.348,8.143,4.676,4.072,2.337,2.036,1.169,1.018.585.5.286a1.32,1.32,0,0,0,.48.129,1.449,1.449,0,0,0,.984-.245l1.015-.589,2.03-1.178,4.06-2.358,8.121-4.715,32.574-18.7,16.289-9.349,16.33-9.276-16.2,9.5-16.24,9.431-32.484,18.859-8.143,4.676-4.072,2.337-2.035,1.169-1.018.585a1.935,1.935,0,0,1-.6.258,2.108,2.108,0,0,1-.655.04,1.735,1.735,0,0,1-.644-.18l-.518-.3-1.015-.589-2.03-1.178-4.06-2.358-8.121-4.715-16.24-9.432Z" transform="translate(-100.24 -328.654)" fill="#fff" opacity="0.3"/><g transform="translate(13.504 11.95)"><g transform="translate(64.888)"><path d="M222.093,334.26l7.669,4.428c.574.332.5.91-.161,1.293l-10.676,6.233a2.485,2.485,0,0,1-2.239.093l-7.669-4.428c-.574-.331-.5-.91.161-1.292,2.93-1.692,7.744-4.542,10.675-6.234A2.488,2.488,0,0,1,222.093,334.26Z" transform="translate(-208.631 -334.036)" fill="#27debf"/><g clip-path="url(#a)"><g transform="translate(-0.078 -0.202)"><path d="M226.3,334.184l-.2-.428-17.578,10.219.2.428Z" transform="translate(-208.523 -333.757)" fill="#fff"/></g><g transform="translate(10.692 3.687)"><path d="M227.362,341.853l.308-.449-3.907-2.256-.308.449Z" transform="translate(-223.455 -339.149)" fill="#fff"/></g><g transform="translate(6.637 6.117)"><path d="M221.734,345.219l.308-.449-3.9-2.252-.308.449Z" transform="translate(-217.833 -342.518)" fill="#fff"/></g><g transform="translate(3.837 2.059)"><path d="M231.727,337.319l-.2-.428L213.951,347.11l.2.428Z" transform="translate(-213.951 -336.891)" fill="#fff"/></g></g></g><g transform="translate(0 5.052)"><path d="M123.034,383.956a5.7,5.7,0,0,1-2.964-.8q-1.429-.825-1.409-1.7t1.458-1.71a7.254,7.254,0,0,1,1.214-.562,5.5,5.5,0,0,1,1.173-.282.353.353,0,0,1,.214.03.2.2,0,0,1,.091.109l.215.458c.022.057.014.1-.025.119a.645.645,0,0,1-.19.053,4.494,4.494,0,0,0-1.544.548q-.85.491-.829,1.046t.987,1.113a3.848,3.848,0,0,0,1.953.56,3.611,3.611,0,0,0,1.828-.493,2.4,2.4,0,0,0,1.008-.925.252.252,0,0,1,.091-.11.353.353,0,0,1,.206-.014l.876.133a.4.4,0,0,1,.132.038c.033.019.041.062.025.128q-.183.639-1.528,1.416A6.028,6.028,0,0,1,123.034,383.956Z" transform="translate(-118.661 -351.594)" fill="#27debf"/><path d="M130.4,380.284a.705.705,0,0,1-.355-.1l-4.9-2.827c-.121-.07-.183-.139-.186-.207s.062-.141.194-.217l2.089-1.207a3.706,3.706,0,0,1,3.931-.152,1.667,1.667,0,0,1,.747.718.789.789,0,0,1-.112.784l2.767.6a.535.535,0,0,1,.14.053c.1.057.091.12-.025.186l-.917.529a.69.69,0,0,1-.2.084.566.566,0,0,1-.227-.017l-2.576-.61-.983.568,1.618.935c.121.069.183.137.186.2s-.065.138-.2.217l-.619.358A.756.756,0,0,1,130.4,380.284Zm-.693-2.912q.47-.273.507-.522c.025-.167-.106-.333-.392-.5a1.6,1.6,0,0,0-.842-.238,1.755,1.755,0,0,0-.842.257l-.983.568,1.652.953Z" transform="translate(-120.416 -350.529)" fill="#27debf"/><path d="M137.655,376a.707.707,0,0,1-.355-.1l-4.9-2.827q-.183-.1-.186-.208c0-.068.062-.14.193-.216l3.427-1.979a.708.708,0,0,1,.351-.112.726.726,0,0,1,.343.112l.305.177c.128.074.193.14.2.2s-.058.128-.19.2l-2.436,1.406,1.3.753,1.7-.982a.693.693,0,0,1,.351-.112.718.718,0,0,1,.343.112l.289.167c.126.073.193.14.2.2s-.058.128-.19.2l-1.7.982,1.313.758,2.428-1.4a.692.692,0,0,1,.356-.11.758.758,0,0,1,.346.115l.3.172c.127.073.192.139.195.2s-.063.126-.195.2l-3.419,1.974A.746.746,0,0,1,137.655,376Z" transform="translate(-122.44 -349.269)" fill="#27debf"/><path d="M144.227,372.3a.7.7,0,0,1-.355-.1l-4.9-2.827c-.121-.07-.182-.139-.186-.207s.062-.141.194-.217l1.735-1a5.888,5.888,0,0,1,2.824-.849,5.439,5.439,0,0,1,2.865.806q1.437.83,1.38,1.654t-1.454,1.631l-1.734,1A.744.744,0,0,1,144.227,372.3Zm1.172-1.73q.736-.424.689-.871t-1.036-1.018a3.862,3.862,0,0,0-1.758-.6,2.794,2.794,0,0,0-1.5.4l-.809.467,3.608,2.084Z" transform="translate(-124.272 -348.304)" fill="#27debf"/><path d="M152.081,368.3a.7.7,0,0,1-.355-.1l-4.9-2.827c-.12-.07-.182-.138-.185-.207s.062-.141.194-.217l.619-.358a.748.748,0,0,1,.376-.117.74.74,0,0,1,.359.113l4.9,2.826c.121.07.183.138.186.2s-.065.138-.2.217l-.62.358A.737.737,0,0,1,152.081,368.3Z" transform="translate(-126.462 -347.572)" fill="#27debf"/><path d="M156.373,365.049a.713.713,0,0,1-.355-.1l-4.253-2.456-1.354.782a.7.7,0,0,1-.351.112.726.726,0,0,1-.343-.112l-.306-.177c-.126-.073-.192-.14-.2-.2s.058-.129.19-.2l4.079-2.355a.723.723,0,0,1,.359-.113.737.737,0,0,1,.351.113l.306.177c.121.07.183.136.185.2s-.062.131-.194.207l-1.354.783,4.253,2.455c.121.07.182.138.182.2s-.069.14-.206.219l-.611.353A.769.769,0,0,1,156.373,365.049Z" transform="translate(-127.178 -346.388)" fill="#27debf"/><path d="M166.541,358.838a5.706,5.706,0,0,1-2.964-.8q-1.429-.824-1.408-1.7t1.458-1.709a7.125,7.125,0,0,1,1.214-.563,5.5,5.5,0,0,1,1.173-.281.359.359,0,0,1,.214.029.193.193,0,0,1,.091.109l.215.458c.022.057.014.1-.025.12a.665.665,0,0,1-.19.052,4.513,4.513,0,0,0-1.544.548q-.85.492-.829,1.046t.987,1.114a3.856,3.856,0,0,0,1.953.56,3.626,3.626,0,0,0,1.828-.493,2.406,2.406,0,0,0,1.008-.925.257.257,0,0,1,.091-.11.359.359,0,0,1,.206-.014l.876.133a.41.41,0,0,1,.133.038c.032.019.04.062.025.128q-.182.639-1.528,1.416A6.038,6.038,0,0,1,166.541,358.838Z" transform="translate(-130.79 -344.591)" fill="#27debf"/><path d="M174.1,355.551a.419.419,0,0,1-.107-.091l-2.956-4.176a.251.251,0,0,1-.066-.186c.012-.048.061-.1.149-.148l.6-.348a.569.569,0,0,1,.252-.083,1.135,1.135,0,0,1,.318.04l7.234,1.706a.743.743,0,0,1,.156.063c.094.054.091.109-.009.166l-1,.577a.525.525,0,0,1-.206.076.709.709,0,0,1-.232-.024l-1.354-.343-2.007,1.158.6.777a.165.165,0,0,1,.042.133c-.012.035-.056.075-.133.12l-1,.576A.272.272,0,0,1,174.1,355.551Zm1.52-3.137-2.469-.634,1.09,1.43Z" transform="translate(-133.242 -343.683)" fill="#27debf"/><path d="M182.09,350.439a.705.705,0,0,1-.355-.1l-4.9-2.827c-.121-.07-.182-.139-.185-.208s.061-.141.193-.216l2.089-1.207a3.7,3.7,0,0,1,3.931-.152,1.677,1.677,0,0,1,.748.717.789.789,0,0,1-.113.785l2.767.6a.494.494,0,0,1,.141.053c.1.057.091.119-.025.186l-.917.529a.656.656,0,0,1-.2.084.548.548,0,0,1-.226-.017l-2.576-.61-.984.568,1.618.934c.121.07.183.138.186.2s-.065.138-.2.217l-.62.357A.748.748,0,0,1,182.09,350.439Zm-.694-2.913q.471-.272.508-.522t-.392-.5a1.6,1.6,0,0,0-.842-.239,1.765,1.765,0,0,0-.842.257l-.983.568,1.652.953Z" transform="translate(-134.828 -342.209)" fill="#27debf"/><path d="M189.349,346.249a.717.717,0,0,1-.356-.105l-4.9-2.827c-.12-.07-.182-.139-.185-.208s.062-.141.194-.216l1.735-1a5.887,5.887,0,0,1,2.824-.849,5.441,5.441,0,0,1,2.865.806q1.437.83,1.379,1.654t-1.453,1.631l-1.735,1A.752.752,0,0,1,189.349,346.249Zm1.172-1.731q.735-.424.689-.871t-1.036-1.018a3.865,3.865,0,0,0-1.759-.6,2.791,2.791,0,0,0-1.5.4l-.809.467,3.608,2.084Z" transform="translate(-136.851 -341.041)" fill="#27debf"/><g opacity="0.15"><path d="M123.034,383.956a5.7,5.7,0,0,1-2.964-.8q-1.429-.825-1.409-1.7t1.458-1.71a7.254,7.254,0,0,1,1.214-.562,5.5,5.5,0,0,1,1.173-.282.353.353,0,0,1,.214.03.2.2,0,0,1,.091.109l.215.458c.022.057.014.1-.025.119a.645.645,0,0,1-.19.053,4.494,4.494,0,0,0-1.544.548q-.85.491-.829,1.046t.987,1.113a3.848,3.848,0,0,0,1.953.56,3.611,3.611,0,0,0,1.828-.493,2.4,2.4,0,0,0,1.008-.925.252.252,0,0,1,.091-.11.353.353,0,0,1,.206-.014l.876.133a.4.4,0,0,1,.132.038c.033.019.041.062.025.128q-.183.639-1.528,1.416A6.028,6.028,0,0,1,123.034,383.956Z" transform="translate(-118.661 -351.594)"/><path d="M130.4,380.284a.705.705,0,0,1-.355-.1l-4.9-2.827c-.121-.07-.183-.139-.186-.207s.062-.141.194-.217l2.089-1.207a3.706,3.706,0,0,1,3.931-.152,1.667,1.667,0,0,1,.747.718.789.789,0,0,1-.112.784l2.767.6a.535.535,0,0,1,.14.053c.1.057.091.12-.025.186l-.917.529a.69.69,0,0,1-.2.084.566.566,0,0,1-.227-.017l-2.576-.61-.983.568,1.618.935c.121.069.183.137.186.2s-.065.138-.2.217l-.619.358A.756.756,0,0,1,130.4,380.284Zm-.693-2.912q.47-.273.507-.522c.025-.167-.106-.333-.392-.5a1.6,1.6,0,0,0-.842-.238,1.755,1.755,0,0,0-.842.257l-.983.568,1.652.953Z" transform="translate(-120.416 -350.529)"/><path d="M137.655,376a.707.707,0,0,1-.355-.1l-4.9-2.827q-.183-.1-.186-.208c0-.068.062-.14.193-.216l3.427-1.979a.708.708,0,0,1,.351-.112.726.726,0,0,1,.343.112l.305.177c.128.074.193.14.2.2s-.058.128-.19.2l-2.436,1.406,1.3.753,1.7-.982a.693.693,0,0,1,.351-.112.718.718,0,0,1,.343.112l.289.167c.126.073.193.14.2.2s-.058.128-.19.2l-1.7.982,1.313.758,2.428-1.4a.692.692,0,0,1,.356-.11.758.758,0,0,1,.346.115l.3.172c.127.073.192.139.195.2s-.063.126-.195.2l-3.419,1.974A.746.746,0,0,1,137.655,376Z" transform="translate(-122.44 -349.269)"/><path d="M144.227,372.3a.7.7,0,0,1-.355-.1l-4.9-2.827c-.121-.07-.182-.139-.186-.207s.062-.141.194-.217l1.735-1a5.888,5.888,0,0,1,2.824-.849,5.439,5.439,0,0,1,2.865.806q1.437.83,1.38,1.654t-1.454,1.631l-1.734,1A.744.744,0,0,1,144.227,372.3Zm1.172-1.73q.736-.424.689-.871t-1.036-1.018a3.862,3.862,0,0,0-1.758-.6,2.794,2.794,0,0,0-1.5.4l-.809.467,3.608,2.084Z" transform="translate(-124.272 -348.304)"/><path d="M152.081,368.3a.7.7,0,0,1-.355-.1l-4.9-2.827c-.12-.07-.182-.138-.185-.207s.062-.141.194-.217l.619-.358a.748.748,0,0,1,.376-.117.74.74,0,0,1,.359.113l4.9,2.826c.121.07.183.138.186.2s-.065.138-.2.217l-.62.358A.737.737,0,0,1,152.081,368.3Z" transform="translate(-126.462 -347.572)"/><path d="M156.373,365.049a.713.713,0,0,1-.355-.1l-4.253-2.456-1.354.782a.7.7,0,0,1-.351.112.726.726,0,0,1-.343-.112l-.306-.177c-.126-.073-.192-.14-.2-.2s.058-.129.19-.2l4.079-2.355a.723.723,0,0,1,.359-.113.737.737,0,0,1,.351.113l.306.177c.121.07.183.136.185.2s-.062.131-.194.207l-1.354.783,4.253,2.455c.121.07.182.138.182.2s-.069.14-.206.219l-.611.353A.769.769,0,0,1,156.373,365.049Z" transform="translate(-127.178 -346.388)"/><path d="M166.541,358.838a5.706,5.706,0,0,1-2.964-.8q-1.429-.824-1.408-1.7t1.458-1.709a7.125,7.125,0,0,1,1.214-.563,5.5,5.5,0,0,1,1.173-.281.359.359,0,0,1,.214.029.193.193,0,0,1,.091.109l.215.458c.022.057.014.1-.025.12a.665.665,0,0,1-.19.052,4.513,4.513,0,0,0-1.544.548q-.85.492-.829,1.046t.987,1.114a3.856,3.856,0,0,0,1.953.56,3.626,3.626,0,0,0,1.828-.493,2.406,2.406,0,0,0,1.008-.925.257.257,0,0,1,.091-.11.359.359,0,0,1,.206-.014l.876.133a.41.41,0,0,1,.133.038c.032.019.04.062.025.128q-.182.639-1.528,1.416A6.038,6.038,0,0,1,166.541,358.838Z" transform="translate(-130.79 -344.591)"/><path d="M174.1,355.551a.419.419,0,0,1-.107-.091l-2.956-4.176a.251.251,0,0,1-.066-.186c.012-.048.061-.1.149-.148l.6-.348a.569.569,0,0,1,.252-.083,1.135,1.135,0,0,1,.318.04l7.234,1.706a.743.743,0,0,1,.156.063c.094.054.091.109-.009.166l-1,.577a.525.525,0,0,1-.206.076.709.709,0,0,1-.232-.024l-1.354-.343-2.007,1.158.6.777a.165.165,0,0,1,.042.133c-.012.035-.056.075-.133.12l-1,.576A.272.272,0,0,1,174.1,355.551Zm1.52-3.137-2.469-.634,1.09,1.43Z" transform="translate(-133.242 -343.683)"/><path d="M182.09,350.439a.705.705,0,0,1-.355-.1l-4.9-2.827c-.121-.07-.182-.139-.185-.208s.061-.141.193-.216l2.089-1.207a3.7,3.7,0,0,1,3.931-.152,1.677,1.677,0,0,1,.748.717.789.789,0,0,1-.113.785l2.767.6a.494.494,0,0,1,.141.053c.1.057.091.119-.025.186l-.917.529a.656.656,0,0,1-.2.084.548.548,0,0,1-.226-.017l-2.576-.61-.984.568,1.618.934c.121.07.183.138.186.2s-.065.138-.2.217l-.62.357A.748.748,0,0,1,182.09,350.439Zm-.694-2.913q.471-.272.508-.522t-.392-.5a1.6,1.6,0,0,0-.842-.239,1.765,1.765,0,0,0-.842.257l-.983.568,1.652.953Z" transform="translate(-134.828 -342.209)"/><path d="M189.349,346.249a.717.717,0,0,1-.356-.105l-4.9-2.827c-.12-.07-.182-.139-.185-.208s.062-.141.194-.216l1.735-1a5.887,5.887,0,0,1,2.824-.849,5.441,5.441,0,0,1,2.865.806q1.437.83,1.379,1.654t-1.453,1.631l-1.735,1A.752.752,0,0,1,189.349,346.249Zm1.172-1.731q.735-.424.689-.871t-1.036-1.018a3.865,3.865,0,0,0-1.759-.6,2.791,2.791,0,0,0-1.5.4l-.809.467,3.608,2.084Z" transform="translate(-136.851 -341.041)"/></g></g><g transform="translate(29.793 31.876)"><path d="M169.663,399.56l3.062-1.768a1.493,1.493,0,0,1,1.344-.056l.7.405c.344.2.3.547-.1.776l-3.062,1.768a1.493,1.493,0,0,1-1.344.056l-.7-.406C169.222,400.137,169.266,399.789,169.663,399.56Z" transform="translate(-162.581 -383.634)" fill="#27debf"/><path d="M160.3,404.966l3.062-1.768a1.493,1.493,0,0,1,1.344-.056l.7.406c.344.2.3.546-.1.775l-3.062,1.768a1.494,1.494,0,0,1-1.344.056l-.7-.406C159.858,405.543,159.9,405.2,160.3,404.966Z" transform="translate(-159.97 -385.141)" fill="#27debf"/><path d="M205.842,378.551,167.72,400.56c-.663.383-.734.961-.161,1.293l.847.488a2.488,2.488,0,0,0,2.239-.093l38.121-22.009c.663-.382.735-.961.161-1.292l-.847-.488A2.488,2.488,0,0,0,205.842,378.551Z" transform="translate(-161.978 -378.234)" fill="#27debf"/><g opacity="0.3"><path d="M169.663,399.56l3.062-1.768a1.493,1.493,0,0,1,1.344-.056l.7.405c.344.2.3.547-.1.776l-3.062,1.768a1.493,1.493,0,0,1-1.344.056l-.7-.406C169.222,400.137,169.266,399.789,169.663,399.56Z" transform="translate(-162.581 -383.634)"/><path d="M160.3,404.966l3.062-1.768a1.493,1.493,0,0,1,1.344-.056l.7.406c.344.2.3.546-.1.775l-3.062,1.768a1.494,1.494,0,0,1-1.344.056l-.7-.406C159.858,405.543,159.9,405.2,160.3,404.966Z" transform="translate(-159.97 -385.141)"/><path d="M205.842,378.551,167.72,400.56c-.663.383-.734.961-.161,1.293l.847.488a2.488,2.488,0,0,0,2.239-.093l38.121-22.009c.663-.382.735-.961.161-1.292l-.847-.488A2.488,2.488,0,0,0,205.842,378.551Z" transform="translate(-161.978 -378.234)"/></g></g><g transform="translate(22.112 8.347)"><g transform="translate(0 32.623)"><path d="M149.643,400.754l.142-.081a1.726,1.726,0,0,1,1.561,0l2.252,1.3a.49.49,0,0,1,.011.92l-.118.072a1.674,1.674,0,0,1-1.551.018l-2.3-1.326A.476.476,0,0,1,149.643,400.754Z" transform="translate(-149.319 -393.531)" fill="#fafafa"/><path d="M155.241,397.54l.142-.082a1.726,1.726,0,0,1,1.561,0l2.252,1.3a.49.49,0,0,1,.011.92l-.118.071a1.674,1.674,0,0,1-1.551.019l-2.3-1.327A.475.475,0,0,1,155.241,397.54Z" transform="translate(-150.88 -392.635)" fill="#fafafa"/><path d="M160.839,394.325l.141-.081a1.728,1.728,0,0,1,1.562,0l2.252,1.3a.49.49,0,0,1,.011.92l-.118.071a1.672,1.672,0,0,1-1.551.018l-2.3-1.326A.476.476,0,0,1,160.839,394.325Z" transform="translate(-152.441 -391.739)" fill="#fafafa"/><path d="M166.437,391.111l.141-.082a1.728,1.728,0,0,1,1.562,0l2.252,1.3a.49.49,0,0,1,.011.92l-.118.071a1.674,1.674,0,0,1-1.551.018l-2.3-1.326A.476.476,0,0,1,166.437,391.111Z" transform="translate(-154.001 -390.843)" fill="#fafafa"/></g><g transform="translate(18.831 21.748)"><path d="M175.753,385.676l.142-.082a1.726,1.726,0,0,1,1.561,0l2.252,1.3a.49.49,0,0,1,.011.92l-.118.071a1.672,1.672,0,0,1-1.551.018l-2.3-1.326A.476.476,0,0,1,175.753,385.676Z" transform="translate(-175.43 -378.454)" fill="#fafafa"/><path d="M181.351,382.462l.142-.081a1.726,1.726,0,0,1,1.561,0l2.252,1.3a.49.49,0,0,1,.011.92l-.118.071a1.674,1.674,0,0,1-1.551.018l-2.3-1.326A.476.476,0,0,1,181.351,382.462Z" transform="translate(-176.99 -377.557)" fill="#fafafa"/><path d="M186.949,379.248l.142-.081a1.726,1.726,0,0,1,1.561,0l2.252,1.3a.49.49,0,0,1,.011.92l-.118.072a1.674,1.674,0,0,1-1.551.018l-2.3-1.327A.475.475,0,0,1,186.949,379.248Z" transform="translate(-178.551 -376.661)" fill="#fafafa"/><path d="M192.547,376.034l.141-.082a1.728,1.728,0,0,1,1.562,0l2.252,1.3a.49.49,0,0,1,.011.92l-.118.071a1.674,1.674,0,0,1-1.551.019l-2.3-1.327A.475.475,0,0,1,192.547,376.034Z" transform="translate(-180.111 -375.765)" fill="#fafafa"/></g><g transform="translate(37.662 10.874)"><path d="M201.863,370.6l.142-.081a1.726,1.726,0,0,1,1.561,0l2.252,1.3a.49.49,0,0,1,.011.92l-.118.072a1.674,1.674,0,0,1-1.551.018l-2.3-1.326A.476.476,0,0,1,201.863,370.6Z" transform="translate(-201.539 -363.377)" fill="#fafafa"/><path d="M207.461,367.385l.142-.082a1.724,1.724,0,0,1,1.561,0l2.252,1.3a.49.49,0,0,1,.011.92l-.118.071a1.672,1.672,0,0,1-1.551.019l-2.3-1.327A.475.475,0,0,1,207.461,367.385Z" transform="translate(-203.1 -362.48)" fill="#fafafa"/><path d="M213.059,364.17l.142-.081a1.726,1.726,0,0,1,1.561,0l2.252,1.3a.49.49,0,0,1,.011.92l-.118.071a1.672,1.672,0,0,1-1.551.018l-2.3-1.326A.476.476,0,0,1,213.059,364.17Z" transform="translate(-204.661 -361.584)" fill="#fafafa"/><path d="M218.657,360.956l.141-.081a1.728,1.728,0,0,1,1.562,0l2.252,1.3a.49.49,0,0,1,.011.92l-.118.071a1.674,1.674,0,0,1-1.551.018l-2.3-1.326A.476.476,0,0,1,218.657,360.956Z" transform="translate(-206.221 -360.688)" fill="#fafafa"/></g><g transform="translate(56.493)"><path d="M227.973,355.522l.142-.082a1.726,1.726,0,0,1,1.561,0l2.252,1.3a.49.49,0,0,1,.011.92l-.118.071a1.674,1.674,0,0,1-1.551.019l-2.3-1.327A.475.475,0,0,1,227.973,355.522Z" transform="translate(-227.65 -348.299)" fill="#fafafa"/><path d="M233.571,352.307l.142-.082a1.726,1.726,0,0,1,1.561,0l2.252,1.3a.49.49,0,0,1,.011.92l-.118.071a1.674,1.674,0,0,1-1.551.018l-2.3-1.326A.476.476,0,0,1,233.571,352.307Z" transform="translate(-229.21 -347.403)" fill="#fafafa"/><path d="M239.169,349.093l.142-.081a1.726,1.726,0,0,1,1.561,0l2.252,1.3a.49.49,0,0,1,.011.92l-.118.072a1.674,1.674,0,0,1-1.551.018l-2.3-1.326A.476.476,0,0,1,239.169,349.093Z" transform="translate(-230.771 -346.507)" fill="#fafafa"/><path d="M244.767,345.879l.141-.082a1.726,1.726,0,0,1,1.562,0l2.252,1.3a.49.49,0,0,1,.011.92l-.118.071a1.674,1.674,0,0,1-1.551.019l-2.3-1.327A.475.475,0,0,1,244.767,345.879Z" transform="translate(-232.331 -345.61)" fill="#fafafa"/></g></g></g></g><g transform="translate(212.49 254.087)"><g transform="translate(60.932)"><g transform="translate(0 5.556)"><g transform="translate(0 3.705)"><path d="M409.594,360.6a12.773,12.773,0,0,0-4.727-4.371c-7.726-4.461-20.255-4.461-27.981,0a12.771,12.771,0,0,0-4.726,4.371h-1.07v4.042h.014c.142,2.811,2.066,5.6,5.781,7.742,7.727,4.461,20.255,4.461,27.981,0,3.716-2.145,5.653-4.932,5.8-7.742h0V360.6Z" transform="translate(-371.09 -352.887)" fill="#27debf"/></g><g transform="translate(0 3.705)" opacity="0.25"><path d="M409.594,360.6a12.773,12.773,0,0,0-4.727-4.371c-7.726-4.461-20.255-4.461-27.981,0a12.771,12.771,0,0,0-4.726,4.371h-1.07v4.042h.014c.142,2.811,2.066,5.6,5.781,7.742,7.727,4.461,20.255,4.461,27.981,0,3.716-2.145,5.653-4.932,5.8-7.742h0V360.6Z" transform="translate(-371.09 -352.887)"/></g><path d="M390.877,352.887a28.609,28.609,0,0,0-13.992,3.346,12.77,12.77,0,0,0-4.726,4.371h-1.07v4.042h.014c.142,2.811,2.066,5.6,5.781,7.742a28.593,28.593,0,0,0,13.992,3.346Z" transform="translate(-371.09 -349.182)" opacity="0.1"/><path d="M380.07,355.459a21.713,21.713,0,0,0-3.184,1.491,12.77,12.77,0,0,0-4.726,4.371h-1.07v4.042h.014c.142,2.811,2.066,5.6,5.781,7.742a21.644,21.644,0,0,0,3.184,1.491Z" transform="translate(-371.09 -349.899)" opacity="0.1"/><path d="M413.508,355.459a21.712,21.712,0,0,1,3.184,1.491,12.765,12.765,0,0,1,4.726,4.371h1.07v4.042h0c-.143,2.811-2.08,5.6-5.8,7.742a21.642,21.642,0,0,1-3.184,1.491Z" transform="translate(-382.915 -349.899)" fill="#27debf" opacity="0.5"/><g transform="translate(0)"><path d="M404.867,351.1c-7.726-4.461-20.255-4.461-27.981,0s-7.727,11.695,0,16.155,20.255,4.461,27.981,0S412.594,355.557,404.867,351.1Z" transform="translate(-371.09 -347.75)" fill="#27debf"/><path d="M404.867,351.1c-7.726-4.461-20.255-4.461-27.981,0s-7.727,11.695,0,16.155,20.255,4.461,27.981,0S412.594,355.557,404.867,351.1Z" transform="translate(-371.09 -347.75)" opacity="0.2"/><g transform="translate(0.863 0.86)"><path d="M402.562,355.737a22.325,22.325,0,0,0-18.222,0c-2.591,1.328-4.016,3.149-4.016,5.123s1.426,3.792,4.016,5.12a22.295,22.295,0,0,0,18.222,0c2.587-1.328,4.014-3.145,4.014-5.12S405.149,357.064,402.562,355.737Z" transform="translate(-374.528 -350.294)" fill="#27debf"/><path d="M402.562,355.737a22.325,22.325,0,0,0-18.222,0c-2.591,1.328-4.016,3.149-4.016,5.123s1.426,3.792,4.016,5.12a22.295,22.295,0,0,0,18.222,0c2.587-1.328,4.014-3.145,4.014-5.12S405.149,357.064,402.562,355.737Z" transform="translate(-374.528 -350.294)" opacity="0.4"/><path d="M404.771,352.175a30.05,30.05,0,0,0-27.119,0c-3.461,2-5.364,4.6-5.364,7.332s1.9,5.335,5.364,7.332a30.086,30.086,0,0,0,27.119,0c3.458-2,5.364-4.6,5.364-7.332S408.228,354.173,404.771,352.175Zm-4.449,12.452a22.295,22.295,0,0,1-18.222,0c-2.591-1.328-4.016-3.145-4.016-5.12s1.426-3.8,4.016-5.123a22.325,22.325,0,0,1,18.222,0c2.587,1.328,4.014,3.149,4.014,5.123S402.908,363.3,400.321,364.627Z" transform="translate(-372.287 -348.942)" fill="#27debf"/></g></g><g transform="translate(7.342 5.036)"><ellipse cx="12.444" cy="6.386" rx="12.444" ry="6.386" opacity="0.2"/><ellipse cx="12.444" cy="6.386" rx="12.444" ry="6.386" fill="#27debf"/><ellipse cx="12.444" cy="6.386" rx="12.444" ry="6.386" opacity="0.6"/><path d="M402.557,358.95c-4.86-2.494-12.739-2.494-17.6,0-2.01,1.031-3.186,2.327-3.533,3.67.348,1.342,1.523,2.639,3.533,3.67,4.86,2.493,12.739,2.493,17.6,0,2.009-1.031,3.185-2.328,3.533-3.67C405.742,361.277,404.567,359.981,402.557,358.95Z" transform="translate(-381.313 -355.387)" fill="#27debf"/><path d="M402.557,358.95c-4.86-2.494-12.739-2.494-17.6,0-2.01,1.031-3.186,2.327-3.533,3.67.348,1.342,1.523,2.639,3.533,3.67,4.86,2.493,12.739,2.493,17.6,0,2.009-1.031,3.185-2.328,3.533-3.67C405.742,361.277,404.567,359.981,402.557,358.95Z" transform="translate(-381.313 -355.387)" opacity="0.5"/></g><g transform="translate(12.119 6.45)"><path d="M399.472,357.462v1.825l-.623.658-1.152,1.207v-1.9Z" transform="translate(-390.626 -356.908)" fill="#27debf"/><path d="M399.472,357.462v1.825l-.623.658-1.152,1.207v-1.9Z" transform="translate(-390.626 -356.908)" opacity="0.3"/><path d="M396.456,359.87v1.078a10.128,10.128,0,0,1-1.771.5,1.915,1.915,0,0,1-.758-.028,1.774,1.774,0,0,1-.361-.149c-.439-.263-.511-.652.326-1.134A2.919,2.919,0,0,1,396.456,359.87Z" transform="translate(-389.385 -357.529)" fill="#27debf"/><path d="M396.456,359.87v1.078a10.128,10.128,0,0,1-1.771.5,1.915,1.915,0,0,1-.758-.028,1.774,1.774,0,0,1-.361-.149c-.439-.263-.511-.652.326-1.134A2.919,2.919,0,0,1,396.456,359.87Z" transform="translate(-389.385 -357.529)" opacity="0.45"/><path d="M403.224,364.667v1.575l-2,1.151-1.476-.853a7.52,7.52,0,0,1-5.716.257v-1.577l.907-.9-.907.25a5.837,5.837,0,0,1-4.452-.509c-.9-.516-1.31-1.081-1.308-1.662v-1.533l.161-.671-.544-.317V358.3l1.477.853a2.277,2.277,0,0,0-1.094,1.693v.018c.016.567.436,1.116,1.308,1.621,1.941,1.121,3.864.751,5.626.185,1.638-.534,2.832-1.163,3.776-.618.586.34.409.751-.25,1.132a3.274,3.274,0,0,1-2.813.164l-1.887,1.87a6.7,6.7,0,0,0,1.042.306,7.772,7.772,0,0,0,4.674-.562l1.476.854Z" transform="translate(-387.893 -357.143)" fill="#27debf"/><path d="M388.424,361.581v.018c.016.567.436,1.116,1.308,1.621,1.941,1.121,3.864.751,5.626.185,1.638-.534,2.832-1.163,3.776-.618.586.34.409.751-.25,1.132a3.274,3.274,0,0,1-2.813.164l-1.887,1.87a6.7,6.7,0,0,0,1.042.306,7.772,7.772,0,0,0,4.674-.562l1.476.854,2-1.152v1.575l-2,1.151-1.476-.853a7.519,7.519,0,0,1-5.716.257v-1.577l.907-.9-.907.25a5.837,5.837,0,0,1-4.452-.509c-.9-.516-1.31-1.081-1.308-1.662V361.6l.162-.671" transform="translate(-388.041 -357.874)" opacity="0.35"/><path d="M387.893,358.3v1.577l.544.317,0,.005a3.211,3.211,0,0,1,.935-1.045Z" transform="translate(-387.893 -357.143)" opacity="0.45"/><g transform="translate(13.852 5.155)"><path d="M408.248,365.181a1.838,1.838,0,0,1-.149.751l-1-.574a1.964,1.964,0,0,0,1.134-1.516C408.241,364.274,408.248,365.139,408.248,365.181Z" transform="translate(-407.1 -363.842)" fill="#27debf"/></g><g transform="translate(13.852 5.155)" opacity="0.3"><path d="M408.248,365.181a1.838,1.838,0,0,1-.149.751l-1-.574a1.964,1.964,0,0,0,1.134-1.516C408.241,364.274,408.248,365.139,408.248,365.181Z" transform="translate(-407.1 -363.842)"/></g><path d="M402.89,364.027l-1.142-.663a1.945,1.945,0,0,0,1.142-1.75,1.473,1.473,0,0,0-.009-.154,2.158,2.158,0,0,0-1.276-1.548v-.005a5.244,5.244,0,0,0-2.656-.692c-.074,0-.153.005-.227.005H398.7l-.237.014c-.069.005-.138.01-.208.02-.03,0-.059,0-.084.009a1.508,1.508,0,0,0-.158.02,10.6,10.6,0,0,0-1.291.267c-.2.054-.405.114-.6.178-.287.089-.569.182-.836.272-.109.04-.213.074-.317.109a9.762,9.762,0,0,1-1.77.5,1.841,1.841,0,0,1-.762-.03,1.614,1.614,0,0,1-.356-.149c-.445-.257-.514-.648.322-1.132a2.919,2.919,0,0,1,2.566-.267l1.776-1.79a7.6,7.6,0,0,0-5.355.3l-1.479-.85-2.013,1.162,1.478.851a2.284,2.284,0,0,0-1.1,1.7v.015c.02.568.435,1.117,1.31,1.621,1.943,1.123,3.866.752,5.627.183,1.636-.534,2.829-1.162,3.773-.618.589.341.41.752-.247,1.132a3.246,3.246,0,0,1-2.813.163l-1.889,1.874a7.323,7.323,0,0,0,1.044.307,6.967,6.967,0,0,0,1.821.133,8.443,8.443,0,0,0,2.852-.7l1.479.855,1.993-1.152Z" transform="translate(-387.893 -356.694)" fill="#27debf"/><path d="M404.335,367.54v1.575l1.478.853v-1.575Z" transform="translate(-392.477 -359.718)" fill="#27debf"/><path d="M404.335,367.54v1.575l1.478.853v-1.575Z" transform="translate(-392.477 -359.718)" opacity="0.45"/></g><g transform="translate(0.863 0.86)"><path d="M387.893,357.856l2.012-1.162,1.478.85-1.465-.613Z" transform="translate(-376.638 -351.103)" fill="#f5f5f5"/><path d="M394.139,359.519a2.919,2.919,0,0,1,2.566-.267l1.776-1.79-1.776,1.605A2.691,2.691,0,0,0,394.139,359.519Z" transform="translate(-378.379 -351.317)" fill="#f5f5f5"/><path d="M396.408,367.172a7.323,7.323,0,0,0,1.044.307,6.965,6.965,0,0,0,1.821.133,6.411,6.411,0,0,1-2.566-.513l1.59-1.8Z" transform="translate(-379.011 -353.502)" fill="#f5f5f5"/><path d="M404.335,367.425l1.478.667,1.992-.963-1.992,1.15Z" transform="translate(-381.221 -354.012)" fill="#f5f5f5"/><path d="M377.8,352.441c5.238-3.182,13.406-3.5,13.406-3.5a27.562,27.562,0,0,0-13.557,3.233c-3.461,2-5.364,4.6-5.364,7.332C372.287,359.507,372.474,355.677,377.8,352.441Z" transform="translate(-372.287 -348.942)" fill="#f5f5f5"/><path d="M396.408,374.49c5.559.247,11.265-.858,15.517-3.313,4.423-2.553,6.314-6.014,5.675-9.343,0,0,.826,5.426-6.008,9.139S396.408,374.49,396.408,374.49Z" transform="translate(-379.011 -352.536)" fill="#f5f5f5"/></g><g transform="translate(0.008 0.003)" opacity="0.15"><path d="M374.292,356.116a12.99,12.99,0,0,1,3.748-3.1c.248-.141.5-.276.752-.418l0,0-.635-.635c-.191.1-.368.2-.552.3a14.044,14.044,0,0,0-3.933,3.231h0l.616.616Z" transform="translate(-371.819 -348.928)" fill="#fff"/><path d="M402.621,377.685a32.342,32.342,0,0,1-5.109.4q-1.328,0-2.615-.106h0l.921.921h0a33.531,33.531,0,0,0,7.553-.467l-.745-.745Z" transform="translate(-377.735 -356.098)" fill="#fff"/><path d="M381.094,362.475c-.382-1.747.644-3.556,3.067-4.953l-.5-.5-.033.019c-.2.117-.376.239-.555.361-.089.062-.18.123-.265.186-.141.1-.272.21-.4.317-.105.088-.208.176-.306.266s-.2.193-.3.291-.2.216-.292.325c-.076.091-.153.182-.223.275-.092.122-.172.247-.25.371-.056.087-.113.175-.162.263-.074.136-.134.275-.194.414-.035.083-.078.164-.107.248a4.112,4.112,0,0,0-.136.492c-.015.064-.038.127-.05.193a4.024,4.024,0,0,0-.061.666Z" transform="translate(-373.674 -350.338)" fill="#fff"/><path d="M396.592,371.764a20.947,20.947,0,0,1-9.646-1.626l1.24,1.24.01,0c.466.159.955.3,1.454.423.114.029.229.057.345.084.51.12,1.03.227,1.567.311l.027,0c.515.08,1.045.137,1.579.183.156.013.312.025.469.035.5.034,1.012.056,1.526.058l.132,0c.41,0,.816-.011,1.218-.03l.129-.007c.2-.01.391-.03.586-.045Z" transform="translate(-375.518 -353.995)" fill="#fff"/><path d="M414.948,352.164c3.458,2,5.364,4.6,5.364,7.327a5.832,5.832,0,0,1-.063.864l.73.73c.836-3.429-1.035-7.035-5.6-9.672a24.448,24.448,0,0,0-6.589-2.516l1.2,1.2A22.346,22.346,0,0,1,414.948,352.164Z" transform="translate(-381.608 -348.073)" fill="#fff"/><path d="M396.672,348.607c.4,0,.785.007,1.181.022l-.871-.872h-.005a32.983,32.983,0,0,0-5.093.333l.765.765A32.44,32.44,0,0,1,396.672,348.607Z" transform="translate(-376.895 -347.755)" fill="#fff"/><path d="M417.389,372.814l.623.623a14,14,0,0,0,3.053-2.373l0,0-.606-.606A13.9,13.9,0,0,1,417.389,372.814Z" transform="translate(-384.005 -354.083)" fill="#fff"/><path d="M414.785,364.492a5.222,5.222,0,0,1-2.327,3.1l.489.489c.071-.052.15-.1.219-.153.041-.032.084-.063.124-.1q.309-.246.578-.5c.048-.045.092-.092.138-.138.157-.16.3-.322.438-.488.038-.047.074-.094.109-.141a5.4,5.4,0,0,0,.319-.473c.035-.059.073-.118.105-.177a4.647,4.647,0,0,0,.25-.531c.027-.069.052-.14.076-.21.014-.042.022-.086.035-.128Z" transform="translate(-382.631 -352.421)" fill="#fff"/><path d="M397.483,353.812l.662.661a22.186,22.186,0,0,1,6.281.852l-.953-.953c-.043-.01-.083-.022-.126-.031-.255-.057-.517-.107-.78-.155-.151-.028-.3-.059-.456-.084-.246-.04-.5-.071-.749-.1-.176-.022-.349-.049-.527-.068-.224-.024-.454-.038-.681-.056-.209-.017-.415-.038-.626-.048-.16-.008-.323-.008-.484-.013-.27-.009-.538-.02-.811-.02C397.981,353.793,397.733,353.8,397.483,353.812Z" transform="translate(-378.456 -349.438)" fill="#fff"/><path d="M407.977,376.892l.716.716a25.352,25.352,0,0,0,3.165-.956l-.666-.666A26.191,26.191,0,0,1,407.977,376.892Z" transform="translate(-381.381 -355.625)" fill="#fff"/><path d="M385.486,350.2l-.694-.695a23.847,23.847,0,0,0-3.01,1.111l.653.652A23.551,23.551,0,0,1,385.486,350.2Z" transform="translate(-374.079 -348.243)" fill="#fff"/><path d="M387.314,356.18a17.26,17.26,0,0,1,3.143-.978l-.565-.564-.044.011a16.77,16.77,0,0,0-3.044,1.021Z" transform="translate(-375.479 -349.674)" fill="#fff"/><path d="M406.263,371.121a20.016,20.016,0,0,1-3.38.741l.609.609c.1-.015.19-.036.287-.053.422-.074.837-.156,1.241-.25.123-.028.246-.058.368-.089.444-.113.878-.236,1.3-.374.041-.014.084-.025.125-.039Z" transform="translate(-379.961 -354.269)" fill="#fff"/><path d="M401.725,348.722c.8.056,1.594.149,2.366.269L403.1,348c-.758-.092-1.523-.156-2.288-.191h0l.914.914Z" transform="translate(-379.383 -347.769)" fill="#fff"/><path d="M423.969,368.384l-.631-.631a7.351,7.351,0,0,1-.842,1.253h0l.617.617h0A9.316,9.316,0,0,0,423.969,368.384Z" transform="translate(-385.428 -353.33)" fill="#fff"/><path d="M410.365,356.164a14.944,14.944,0,0,0-2.048-.85h0l1.205,1.205c.179.082.362.16.534.248,2.106,1.08,3.3,2.452,3.577,3.863l.741.741c0-.019.005-.037.005-.056v-.034C414.376,359.31,412.951,357.489,410.365,356.164Z" transform="translate(-381.475 -349.861)" fill="#fff"/><path d="M377.322,371.019c-2.933-1.693-4.747-3.819-5.229-6.087l-.992-.992c.106,2.842,2.041,5.662,5.789,7.823a22.01,22.01,0,0,0,3.727,1.693l-1.538-1.545A18.576,18.576,0,0,1,377.322,371.019Z" transform="translate(-371.101 -352.267)" fill="#fff"/><path d="M385.131,376.162l1.29,1.29h0c.872.234,1.772.426,2.686.589l-1.091-1.091A25.578,25.578,0,0,1,385.131,376.162Z" transform="translate(-375.012 -355.674)" fill="#fff"/><path d="M372.319,360.607l-.666-.666h0a6.711,6.711,0,0,0-.454,1.644l.794.8A5.909,5.909,0,0,1,372.319,360.607Z" transform="translate(-371.128 -351.152)" fill="#fff"/></g></g><g transform="translate(1.182)"><g transform="translate(0 3.705)"><path d="M411.232,352.9a12.775,12.775,0,0,0-4.726-4.371c-7.727-4.461-20.255-4.461-27.982,0A12.769,12.769,0,0,0,373.8,352.9h-1.069v4.043h.014c.143,2.811,2.066,5.6,5.781,7.742,7.727,4.461,20.255,4.461,27.982,0,3.716-2.145,5.653-4.932,5.795-7.742h0V352.9Z" transform="translate(-372.729 -345.184)" fill="#27debf"/></g><g transform="translate(0 3.705)" opacity="0.25"><path d="M411.232,352.9a12.775,12.775,0,0,0-4.726-4.371c-7.727-4.461-20.255-4.461-27.982,0A12.769,12.769,0,0,0,373.8,352.9h-1.069v4.043h.014c.143,2.811,2.066,5.6,5.781,7.742,7.727,4.461,20.255,4.461,27.982,0,3.716-2.145,5.653-4.932,5.795-7.742h0V352.9Z" transform="translate(-372.729 -345.184)"/></g><path d="M392.516,345.184a28.6,28.6,0,0,0-13.992,3.346A12.769,12.769,0,0,0,373.8,352.9h-1.069v4.043h.014c.143,2.811,2.066,5.6,5.781,7.742a28.6,28.6,0,0,0,13.992,3.346Z" transform="translate(-372.729 -341.479)" opacity="0.1"/><path d="M381.709,347.755a21.756,21.756,0,0,0-3.185,1.491,12.769,12.769,0,0,0-4.726,4.371h-1.069v4.043h.014c.143,2.811,2.066,5.6,5.781,7.742a21.684,21.684,0,0,0,3.185,1.491Z" transform="translate(-372.729 -342.196)" opacity="0.1"/><path d="M415.146,347.755a21.8,21.8,0,0,1,3.185,1.491,12.769,12.769,0,0,1,4.726,4.371h1.069v4.043h0c-.143,2.811-2.08,5.6-5.795,7.742a21.649,21.649,0,0,1-3.185,1.491Z" transform="translate(-384.554 -342.196)" fill="#27debf" opacity="0.5"/><g transform="translate(0)"><path d="M406.506,343.393c-7.727-4.461-20.255-4.461-27.982,0s-7.726,11.694,0,16.155,20.255,4.461,27.982,0S414.232,347.854,406.506,343.393Z" transform="translate(-372.729 -340.047)" fill="#27debf"/><path d="M406.506,343.393c-7.727-4.461-20.255-4.461-27.982,0s-7.726,11.694,0,16.155,20.255,4.461,27.982,0S414.232,347.854,406.506,343.393Z" transform="translate(-372.729 -340.047)" opacity="0.2"/><g transform="translate(0.863 0.86)"><path d="M404.2,348.034a22.325,22.325,0,0,0-18.222,0c-2.591,1.327-4.017,3.148-4.017,5.123s1.427,3.792,4.017,5.12a22.295,22.295,0,0,0,18.222,0c2.586-1.328,4.013-3.146,4.013-5.12S406.787,349.361,404.2,348.034Z" transform="translate(-376.166 -342.591)" fill="#27debf"/><path d="M404.2,348.034a22.325,22.325,0,0,0-18.222,0c-2.591,1.327-4.017,3.148-4.017,5.123s1.427,3.792,4.017,5.12a22.295,22.295,0,0,0,18.222,0c2.586-1.328,4.013-3.146,4.013-5.12S406.787,349.361,404.2,348.034Z" transform="translate(-376.166 -342.591)" opacity="0.4"/><path d="M406.41,344.472a30.05,30.05,0,0,0-27.119,0c-3.462,2-5.364,4.6-5.364,7.332s1.9,5.334,5.364,7.332a30.086,30.086,0,0,0,27.119,0c3.457-2,5.364-4.6,5.364-7.332S409.866,346.47,406.41,344.472Zm-4.449,12.452a22.295,22.295,0,0,1-18.222,0c-2.591-1.328-4.017-3.146-4.017-5.12s1.427-3.8,4.017-5.123a22.325,22.325,0,0,1,18.222,0c2.586,1.327,4.013,3.148,4.013,5.123S404.547,355.6,401.96,356.924Z" transform="translate(-373.926 -341.239)" fill="#27debf"/></g></g><g transform="translate(7.341 5.036)"><ellipse cx="12.444" cy="6.386" rx="12.444" ry="6.386" opacity="0.2"/><ellipse cx="12.444" cy="6.386" rx="12.444" ry="6.386" fill="#27debf"/><ellipse cx="12.444" cy="6.386" rx="12.444" ry="6.386" opacity="0.6"/><path d="M404.2,351.247c-4.86-2.494-12.74-2.494-17.6,0-2.009,1.031-3.186,2.327-3.533,3.67.348,1.342,1.524,2.638,3.533,3.67,4.86,2.494,12.74,2.494,17.6,0,2.009-1.031,3.186-2.327,3.533-3.67C407.381,353.574,406.2,352.278,404.2,351.247Z" transform="translate(-382.951 -347.684)" fill="#27debf"/><path d="M404.2,351.247c-4.86-2.494-12.74-2.494-17.6,0-2.009,1.031-3.186,2.327-3.533,3.67.348,1.342,1.524,2.638,3.533,3.67,4.86,2.494,12.74,2.494,17.6,0,2.009-1.031,3.186-2.327,3.533-3.67C407.381,353.574,406.2,352.278,404.2,351.247Z" transform="translate(-382.951 -347.684)" opacity="0.5"/></g><g transform="translate(12.119 6.45)"><path d="M401.111,349.759v1.825l-.623.658-1.152,1.207v-1.9Z" transform="translate(-392.265 -349.205)" fill="#27debf"/><path d="M401.111,349.759v1.825l-.623.658-1.152,1.207v-1.9Z" transform="translate(-392.265 -349.205)" opacity="0.3"/><path d="M398.095,352.167v1.077a10.111,10.111,0,0,1-1.771.5,1.918,1.918,0,0,1-.759-.028,1.737,1.737,0,0,1-.361-.149c-.439-.262-.51-.652.326-1.134A2.92,2.92,0,0,1,398.095,352.167Z" transform="translate(-391.024 -349.826)" fill="#27debf"/><path d="M398.095,352.167v1.077a10.111,10.111,0,0,1-1.771.5,1.918,1.918,0,0,1-.759-.028,1.737,1.737,0,0,1-.361-.149c-.439-.262-.51-.652.326-1.134A2.92,2.92,0,0,1,398.095,352.167Z" transform="translate(-391.024 -349.826)" opacity="0.45"/><path d="M404.863,356.964v1.575l-2,1.151-1.476-.853a7.523,7.523,0,0,1-5.716.257v-1.577l.907-.9-.907.25a5.836,5.836,0,0,1-4.452-.509c-.9-.516-1.31-1.081-1.309-1.662v-1.533l.162-.671-.544-.317V350.6l1.476.853a2.281,2.281,0,0,0-1.094,1.693v.018c.017.567.436,1.116,1.309,1.621,1.941,1.121,3.864.751,5.625.185,1.639-.534,2.832-1.163,3.776-.618.586.34.408.751-.25,1.132a3.278,3.278,0,0,1-2.814.164l-1.886,1.87a6.7,6.7,0,0,0,1.042.306,7.771,7.771,0,0,0,4.673-.562l1.476.853Z" transform="translate(-389.532 -349.44)" fill="#27debf"/><path d="M390.062,353.878v.018c.017.567.436,1.116,1.309,1.621,1.941,1.121,3.864.751,5.625.185,1.639-.534,2.832-1.163,3.776-.618.586.34.408.751-.25,1.132a3.278,3.278,0,0,1-2.814.164l-1.886,1.87a6.7,6.7,0,0,0,1.042.306,7.771,7.771,0,0,0,4.673-.562l1.476.853,2-1.151v1.575l-2,1.151-1.476-.853a7.523,7.523,0,0,1-5.716.257V358.25l.907-.9-.907.25a5.836,5.836,0,0,1-4.452-.509c-.9-.516-1.31-1.081-1.309-1.662V353.9l.162-.671" transform="translate(-389.68 -350.171)" opacity="0.35"/><path d="M389.532,350.6v1.576l.544.317,0,.005a3.228,3.228,0,0,1,.935-1.045Z" transform="translate(-389.532 -349.44)" opacity="0.45"/><g transform="translate(13.852 5.155)"><path d="M409.886,357.478a1.838,1.838,0,0,1-.149.751l-1-.574a1.962,1.962,0,0,0,1.133-1.516C409.879,356.571,409.886,357.435,409.886,357.478Z" transform="translate(-408.739 -356.139)" fill="#27debf"/></g><g transform="translate(13.852 5.155)" opacity="0.3"><path d="M409.886,357.478a1.838,1.838,0,0,1-.149.751l-1-.574a1.962,1.962,0,0,0,1.133-1.516C409.879,356.571,409.886,357.435,409.886,357.478Z" transform="translate(-408.739 -356.139)"/></g><path d="M404.529,356.324l-1.142-.662a1.947,1.947,0,0,0,1.142-1.75,1.476,1.476,0,0,0-.01-.154,2.155,2.155,0,0,0-1.276-1.548V352.2a5.241,5.241,0,0,0-2.655-.692c-.074,0-.154,0-.228,0h-.025l-.237.015c-.069.005-.138.01-.208.019-.03.005-.059.005-.084.01-.055.005-.109.01-.159.02a10.723,10.723,0,0,0-1.29.268c-.2.054-.405.113-.6.177-.286.089-.568.183-.835.273-.109.039-.213.074-.317.108a9.776,9.776,0,0,1-1.771.5,1.836,1.836,0,0,1-.761-.03,1.6,1.6,0,0,1-.356-.149c-.445-.257-.514-.648.322-1.132a2.917,2.917,0,0,1,2.566-.267l1.775-1.79a7.6,7.6,0,0,0-5.355.3l-1.479-.85-2.012,1.162,1.478.85a2.286,2.286,0,0,0-1.1,1.7v.014c.019.569.435,1.118,1.31,1.622,1.943,1.123,3.866.751,5.627.183,1.636-.534,2.828-1.162,3.773-.618.589.341.41.751-.247,1.132a3.248,3.248,0,0,1-2.813.163l-1.889,1.874a7.3,7.3,0,0,0,1.044.307,6.962,6.962,0,0,0,1.82.133,8.422,8.422,0,0,0,2.852-.7l1.478.855,1.993-1.152Z" transform="translate(-389.532 -348.991)" fill="#27debf"/><path d="M405.974,359.837v1.575l1.478.853V360.69Z" transform="translate(-394.116 -352.015)" fill="#27debf"/><path d="M405.974,359.837v1.575l1.478.853V360.69Z" transform="translate(-394.116 -352.015)" opacity="0.45"/></g><g transform="translate(0.863 0.86)"><path d="M389.532,350.153l2.012-1.162,1.478.85-1.465-.613Z" transform="translate(-378.277 -343.4)" fill="#f5f5f5"/><path d="M395.778,351.816a2.917,2.917,0,0,1,2.566-.267l1.775-1.79-1.775,1.605A2.689,2.689,0,0,0,395.778,351.816Z" transform="translate(-380.018 -343.614)" fill="#f5f5f5"/><path d="M398.047,359.469a7.3,7.3,0,0,0,1.044.307,6.963,6.963,0,0,0,1.82.133,6.418,6.418,0,0,1-2.566-.513l1.591-1.8Z" transform="translate(-380.65 -345.799)" fill="#f5f5f5"/><path d="M405.974,359.722l1.478.666,1.992-.963-1.992,1.15Z" transform="translate(-382.86 -346.309)" fill="#f5f5f5"/><path d="M379.441,344.738c5.239-3.183,13.407-3.5,13.407-3.5a27.561,27.561,0,0,0-13.557,3.233c-3.462,2-5.364,4.6-5.364,7.332C373.926,351.8,374.113,347.974,379.441,344.738Z" transform="translate(-373.926 -341.239)" fill="#f5f5f5"/><path d="M398.046,366.786c5.56.247,11.265-.857,15.518-3.312,4.422-2.553,6.314-6.014,5.674-9.343,0,0,.826,5.426-6.008,9.14S398.046,366.786,398.046,366.786Z" transform="translate(-380.65 -344.833)" fill="#f5f5f5"/></g><g transform="translate(0.007 0.003)" opacity="0.15"><path d="M375.93,348.413a12.982,12.982,0,0,1,3.749-3.1c.248-.141.5-.276.751-.418h0l-.635-.636c-.19.1-.367.2-.552.3a14.055,14.055,0,0,0-3.932,3.232h0l.617.617Z" transform="translate(-373.457 -341.225)" fill="#fff"/><path d="M404.259,369.982a32.332,32.332,0,0,1-5.109.4q-1.329,0-2.614-.106h0l.922.921h0a33.527,33.527,0,0,0,7.552-.467l-.745-.745Z" transform="translate(-379.373 -348.395)" fill="#fff"/><path d="M382.733,354.771c-.382-1.747.644-3.555,3.067-4.953l-.5-.5-.034.019c-.195.116-.375.238-.554.361-.089.062-.18.123-.265.186-.141.1-.272.21-.4.317-.105.088-.208.177-.305.267s-.2.193-.3.291-.2.216-.292.325c-.077.092-.154.182-.223.276-.092.122-.172.246-.251.371-.055.087-.113.174-.162.263a4.389,4.389,0,0,0-.194.414c-.036.083-.078.164-.108.248a4.4,4.4,0,0,0-.136.491c-.014.065-.038.128-.05.193a4.1,4.1,0,0,0-.061.666Z" transform="translate(-375.312 -342.635)" fill="#fff"/><path d="M398.231,364.061a20.944,20.944,0,0,1-9.646-1.626l1.24,1.24.01,0c.466.159.955.3,1.454.423l.345.084c.51.119,1.03.227,1.566.311l.027,0c.516.08,1.046.136,1.579.182q.234.021.469.036c.5.034,1.013.056,1.526.058.045,0,.088,0,.133,0,.409,0,.815-.011,1.218-.03l.128-.007c.2-.011.391-.03.586-.045Z" transform="translate(-377.157 -346.292)" fill="#fff"/><path d="M416.586,344.461c3.458,2,5.364,4.6,5.364,7.327a5.836,5.836,0,0,1-.064.864l.731.73c.835-3.429-1.035-7.036-5.6-9.672a24.432,24.432,0,0,0-6.589-2.515l1.2,1.2A22.321,22.321,0,0,1,416.586,344.461Z" transform="translate(-383.247 -340.37)" fill="#fff"/><path d="M398.31,340.9c.4,0,.785.007,1.181.021l-.872-.871h0a33.009,33.009,0,0,0-5.095.332l.766.766A32.435,32.435,0,0,1,398.31,340.9Z" transform="translate(-378.533 -340.051)" fill="#fff"/><path d="M419.027,365.11l.624.624a13.991,13.991,0,0,0,3.052-2.373l0,0-.606-.606A13.9,13.9,0,0,1,419.027,365.11Z" transform="translate(-385.643 -346.38)" fill="#fff"/><path d="M416.424,356.788a5.221,5.221,0,0,1-2.327,3.1l.489.489c.071-.052.15-.1.219-.154l.124-.1q.309-.246.578-.5c.048-.046.092-.092.138-.139a6.511,6.511,0,0,0,.438-.488c.038-.047.073-.094.109-.141a5.376,5.376,0,0,0,.319-.473c.036-.059.074-.118.106-.177a4.579,4.579,0,0,0,.249-.53c.028-.07.053-.14.076-.21.014-.043.022-.086.035-.128Z" transform="translate(-384.269 -344.717)" fill="#fff"/><path d="M399.122,346.109l.661.661a22.19,22.19,0,0,1,6.282.852l-.953-.953-.126-.03c-.256-.058-.518-.107-.78-.155-.152-.028-.3-.059-.456-.084-.247-.04-.5-.071-.75-.1-.175-.022-.349-.049-.526-.068-.225-.024-.454-.038-.682-.056-.208-.016-.415-.037-.625-.048-.16-.008-.323-.008-.484-.013-.27-.009-.539-.02-.811-.02C399.62,346.09,399.372,346.1,399.122,346.109Z" transform="translate(-380.094 -341.735)" fill="#fff"/><path d="M409.616,369.189l.715.715a25.155,25.155,0,0,0,3.165-.956l-.666-.666A26.191,26.191,0,0,1,409.616,369.189Z" transform="translate(-383.02 -347.922)" fill="#fff"/><path d="M387.125,342.5l-.695-.695a23.791,23.791,0,0,0-3.009,1.111l.652.652A23.453,23.453,0,0,1,387.125,342.5Z" transform="translate(-375.717 -340.54)" fill="#fff"/><path d="M388.953,348.477a17.174,17.174,0,0,1,3.142-.978l-.564-.564-.044.01a16.829,16.829,0,0,0-3.044,1.022Z" transform="translate(-377.117 -341.97)" fill="#fff"/><path d="M407.9,363.417a19.942,19.942,0,0,1-3.38.741l.609.609c.1-.015.19-.036.287-.053.421-.074.837-.156,1.24-.25.124-.029.247-.059.369-.089.444-.112.877-.236,1.3-.374.04-.013.084-.025.125-.038Z" transform="translate(-381.599 -346.565)" fill="#fff"/><path d="M403.364,341.018c.8.056,1.593.149,2.366.269l-.992-.992c-.757-.092-1.523-.156-2.288-.191h0l.914.914Z" transform="translate(-381.021 -340.066)" fill="#fff"/><path d="M425.607,360.68l-.63-.63a7.311,7.311,0,0,1-.843,1.253h0l.617.617h0A9.212,9.212,0,0,0,425.607,360.68Z" transform="translate(-387.067 -345.627)" fill="#fff"/><path d="M412,348.46a14.893,14.893,0,0,0-2.048-.85h0l1.205,1.205c.179.082.363.16.534.248,2.106,1.08,3.3,2.452,3.577,3.863l.741.741c0-.019.005-.037.005-.056v-.034C416.014,351.607,414.589,349.786,412,348.46Z" transform="translate(-383.113 -342.158)" fill="#fff"/><path d="M378.961,363.316c-2.934-1.693-4.748-3.82-5.23-6.087l-.992-.992c.107,2.842,2.041,5.662,5.789,7.823a22.106,22.106,0,0,0,3.728,1.693l-1.538-1.545A18.555,18.555,0,0,1,378.961,363.316Z" transform="translate(-372.739 -344.564)" fill="#fff"/><path d="M386.77,368.459l1.29,1.29h0c.871.234,1.771.426,2.686.589l-1.091-1.091A25.7,25.7,0,0,1,386.77,368.459Z" transform="translate(-376.651 -347.971)" fill="#fff"/><path d="M373.957,352.9l-.666-.666h0a6.67,6.67,0,0,0-.454,1.644l.793.8A5.927,5.927,0,0,1,373.957,352.9Z" transform="translate(-372.767 -343.449)" fill="#fff"/></g></g></g><g transform="translate(0 29.927)"><g transform="translate(0 3.705)"><path d="M325.108,394.4a12.764,12.764,0,0,0-4.726-4.371c-7.727-4.461-20.255-4.461-27.982,0a12.764,12.764,0,0,0-4.726,4.371h-1.069v4.042h.014c.142,2.811,2.066,5.6,5.781,7.742,7.726,4.461,20.255,4.461,27.981,0,3.716-2.145,5.653-4.931,5.795-7.742h0V394.4Z" transform="translate(-286.605 -386.679)" fill="#27debf"/></g><g transform="translate(0 3.705)" opacity="0.25"><path d="M325.108,394.4a12.764,12.764,0,0,0-4.726-4.371c-7.727-4.461-20.255-4.461-27.982,0a12.764,12.764,0,0,0-4.726,4.371h-1.069v4.042h.014c.142,2.811,2.066,5.6,5.781,7.742,7.726,4.461,20.255,4.461,27.981,0,3.716-2.145,5.653-4.931,5.795-7.742h0V394.4Z" transform="translate(-286.605 -386.679)"/></g><path d="M306.392,386.68a28.593,28.593,0,0,0-13.992,3.346,12.761,12.761,0,0,0-4.727,4.371h-1.069v4.042h.014c.143,2.811,2.066,5.6,5.782,7.742a28.6,28.6,0,0,0,13.992,3.346Z" transform="translate(-286.605 -382.975)" opacity="0.1"/><path d="M295.585,389.251a21.641,21.641,0,0,0-3.184,1.491,12.761,12.761,0,0,0-4.727,4.371h-1.069v4.042h.014c.143,2.811,2.066,5.6,5.782,7.742a21.641,21.641,0,0,0,3.184,1.491Z" transform="translate(-286.605 -383.691)" opacity="0.1"/><path d="M329.022,389.251a21.612,21.612,0,0,1,3.185,1.491,12.764,12.764,0,0,1,4.726,4.371H338v4.042h0c-.142,2.811-2.079,5.6-5.795,7.742a21.612,21.612,0,0,1-3.185,1.491Z" transform="translate(-298.43 -383.691)" fill="#27debf" opacity="0.5"/><g transform="translate(0)"><path d="M320.382,384.889c-7.727-4.461-20.255-4.461-27.982,0s-7.726,11.694,0,16.155,20.255,4.461,27.981,0S328.109,389.349,320.382,384.889Z" transform="translate(-286.605 -381.543)" fill="#27debf"/><path d="M320.382,384.889c-7.727-4.461-20.255-4.461-27.982,0s-7.726,11.694,0,16.155,20.255,4.461,27.981,0S328.109,389.349,320.382,384.889Z" transform="translate(-286.605 -381.543)" opacity="0.2"/><g transform="translate(0.863 0.859)"><path d="M318.077,389.529a22.325,22.325,0,0,0-18.222,0c-2.591,1.328-4.016,3.149-4.016,5.123s1.426,3.792,4.016,5.12a22.295,22.295,0,0,0,18.222,0c2.587-1.328,4.013-3.145,4.013-5.12S320.664,390.856,318.077,389.529Z" transform="translate(-290.043 -384.086)" fill="#27debf"/><path d="M318.077,389.529a22.325,22.325,0,0,0-18.222,0c-2.591,1.328-4.016,3.149-4.016,5.123s1.426,3.792,4.016,5.12a22.295,22.295,0,0,0,18.222,0c2.587-1.328,4.013-3.145,4.013-5.12S320.664,390.856,318.077,389.529Z" transform="translate(-290.043 -384.086)" opacity="0.4"/><path d="M320.286,385.967a30.05,30.05,0,0,0-27.119,0c-3.462,2-5.364,4.6-5.364,7.332s1.9,5.335,5.364,7.333a30.086,30.086,0,0,0,27.119,0c3.457-2,5.364-4.6,5.364-7.333S323.743,387.965,320.286,385.967Zm-4.449,12.452a22.295,22.295,0,0,1-18.222,0c-2.591-1.328-4.016-3.145-4.016-5.12s1.426-3.8,4.016-5.123a22.324,22.324,0,0,1,18.222,0c2.587,1.328,4.013,3.149,4.013,5.123S318.423,397.091,315.836,398.419Z" transform="translate(-287.802 -382.734)" fill="#27debf"/></g></g><g transform="translate(7.342 5.036)"><ellipse cx="12.444" cy="6.386" rx="12.444" ry="6.386" opacity="0.2"/><ellipse cx="12.444" cy="6.386" rx="12.444" ry="6.386" fill="#27debf"/><ellipse cx="12.444" cy="6.386" rx="12.444" ry="6.386" opacity="0.6"/><path d="M318.072,392.742c-4.86-2.494-12.739-2.494-17.6,0-2.009,1.031-3.185,2.327-3.533,3.67.347,1.342,1.523,2.639,3.533,3.67,4.86,2.494,12.739,2.494,17.6,0,2.01-1.031,3.186-2.328,3.533-3.67C321.257,395.07,320.082,393.773,318.072,392.742Z" transform="translate(-296.828 -389.18)" fill="#27debf"/><path d="M318.072,392.742c-4.86-2.494-12.739-2.494-17.6,0-2.009,1.031-3.185,2.327-3.533,3.67.347,1.342,1.523,2.639,3.533,3.67,4.86,2.494,12.739,2.494,17.6,0,2.01-1.031,3.186-2.328,3.533-3.67C321.257,395.07,320.082,393.773,318.072,392.742Z" transform="translate(-296.828 -389.18)" opacity="0.5"/></g><g transform="translate(12.119 6.45)"><path d="M314.987,391.254v1.825l-.623.658-1.152,1.207v-1.9Z" transform="translate(-306.141 -390.7)" fill="#27debf"/><path d="M314.987,391.254v1.825l-.623.658-1.152,1.207v-1.9Z" transform="translate(-306.141 -390.7)" opacity="0.3"/><path d="M311.971,393.663v1.078a10.13,10.13,0,0,1-1.771.5,1.89,1.89,0,0,1-.758-.028,1.8,1.8,0,0,1-.362-.149c-.439-.263-.51-.652.327-1.134A2.921,2.921,0,0,1,311.971,393.663Z" transform="translate(-304.9 -391.321)" fill="#27debf"/><path d="M311.971,393.663v1.078a10.13,10.13,0,0,1-1.771.5,1.89,1.89,0,0,1-.758-.028,1.8,1.8,0,0,1-.362-.149c-.439-.263-.51-.652.327-1.134A2.921,2.921,0,0,1,311.971,393.663Z" transform="translate(-304.9 -391.321)" opacity="0.45"/><path d="M318.739,398.459v1.575l-2,1.151-1.476-.853a7.516,7.516,0,0,1-5.716.257v-1.576l.907-.9-.907.25a5.837,5.837,0,0,1-4.452-.509c-.9-.516-1.31-1.081-1.308-1.662v-1.533l.162-.671-.545-.317V392.1l1.476.853a2.279,2.279,0,0,0-1.093,1.693v.018c.016.567.436,1.116,1.308,1.621,1.941,1.121,3.864.751,5.626.186,1.639-.535,2.832-1.163,3.776-.618.586.339.409.751-.25,1.132a3.274,3.274,0,0,1-2.813.164l-1.887,1.871a6.776,6.776,0,0,0,1.042.306,7.777,7.777,0,0,0,4.673-.563l1.476.854Z" transform="translate(-303.408 -390.935)" fill="#27debf"/><path d="M303.939,395.373v.018c.016.567.436,1.116,1.308,1.621,1.941,1.121,3.864.751,5.626.186,1.639-.535,2.831-1.163,3.776-.618.586.339.409.751-.25,1.132a3.274,3.274,0,0,1-2.813.164l-1.887,1.871a6.776,6.776,0,0,0,1.042.306,7.777,7.777,0,0,0,4.674-.563l1.476.854,2-1.152v1.575l-2,1.151-1.476-.853a7.516,7.516,0,0,1-5.716.257v-1.576l.907-.9-.907.25a5.837,5.837,0,0,1-4.452-.509c-.9-.516-1.31-1.081-1.308-1.662v-1.533l.162-.671" transform="translate(-303.556 -391.666)" opacity="0.35"/><path d="M303.408,392.1v1.577l.545.317,0,.005a3.223,3.223,0,0,1,.935-1.045Z" transform="translate(-303.408 -390.935)" opacity="0.45"/><g transform="translate(13.852 5.155)"><path d="M323.762,398.973a1.837,1.837,0,0,1-.149.751l-1-.573a1.964,1.964,0,0,0,1.134-1.517C323.756,398.066,323.762,398.931,323.762,398.973Z" transform="translate(-322.615 -397.634)" fill="#27debf"/></g><g transform="translate(13.852 5.155)" opacity="0.3"><path d="M323.762,398.973a1.837,1.837,0,0,1-.149.751l-1-.573a1.964,1.964,0,0,0,1.134-1.517C323.756,398.066,323.762,398.931,323.762,398.973Z" transform="translate(-322.615 -397.634)"/></g><path d="M318.4,397.819l-1.142-.663a1.945,1.945,0,0,0,1.142-1.75c0-.054-.005-.1-.009-.153a2.155,2.155,0,0,0-1.276-1.548V393.7a5.237,5.237,0,0,0-2.656-.692c-.074,0-.154.005-.227.005h-.025l-.237.014c-.069.005-.138.01-.208.02-.03.005-.059.005-.084.009a1.514,1.514,0,0,0-.159.02,10.587,10.587,0,0,0-1.29.267c-.2.054-.405.114-.6.178-.287.089-.569.183-.836.272-.109.04-.213.074-.317.109a9.757,9.757,0,0,1-1.77.5,1.839,1.839,0,0,1-.762-.03,1.612,1.612,0,0,1-.356-.149c-.445-.257-.514-.648.322-1.132a2.919,2.919,0,0,1,2.566-.267l1.776-1.79a7.6,7.6,0,0,0-5.356.3l-1.478-.851-2.013,1.162,1.478.851a2.285,2.285,0,0,0-1.1,1.7v.015c.019.568.435,1.117,1.31,1.622,1.943,1.122,3.866.752,5.627.182,1.636-.534,2.829-1.162,3.773-.618.589.341.41.752-.247,1.132a3.249,3.249,0,0,1-2.813.164l-1.889,1.874a7.328,7.328,0,0,0,1.044.307,6.969,6.969,0,0,0,1.821.133,8.459,8.459,0,0,0,2.852-.7l1.478.855,1.993-1.153Z" transform="translate(-303.408 -390.486)" fill="#27debf"/><path d="M319.85,401.332v1.575l1.478.853v-1.575Z" transform="translate(-307.992 -393.51)" fill="#27debf"/><path d="M319.85,401.332v1.575l1.478.853v-1.575Z" transform="translate(-307.992 -393.51)" opacity="0.45"/></g><g transform="translate(0.863 0.859)"><path d="M303.408,391.648l2.012-1.162,1.478.85-1.465-.613Z" transform="translate(-292.153 -384.895)" fill="#f5f5f5"/><path d="M309.654,393.311a2.919,2.919,0,0,1,2.566-.267l1.776-1.79-1.776,1.605A2.691,2.691,0,0,0,309.654,393.311Z" transform="translate(-293.894 -385.109)" fill="#f5f5f5"/><path d="M311.923,400.965a7.328,7.328,0,0,0,1.044.307,6.969,6.969,0,0,0,1.821.133,6.411,6.411,0,0,1-2.566-.514l1.59-1.8Z" transform="translate(-294.526 -387.294)" fill="#f5f5f5"/><path d="M319.85,401.218l1.478.666,1.992-.963-1.992,1.15Z" transform="translate(-296.736 -387.804)" fill="#f5f5f5"/><path d="M293.318,386.233c5.238-3.182,13.406-3.5,13.406-3.5a27.56,27.56,0,0,0-13.557,3.233c-3.462,2-5.364,4.6-5.364,7.332C287.8,393.3,287.989,389.469,293.318,386.233Z" transform="translate(-287.802 -382.734)" fill="#f5f5f5"/><path d="M311.923,408.282c5.559.247,11.265-.858,15.517-3.313,4.422-2.552,6.314-6.014,5.675-9.343,0,0,.826,5.426-6.008,9.139S311.923,408.282,311.923,408.282Z" transform="translate(-294.526 -386.328)" fill="#f5f5f5"/></g><g transform="translate(0.008 0.003)" opacity="0.15"><path d="M289.807,389.908a13,13,0,0,1,3.748-3.1c.248-.141.5-.276.751-.418h0l-.635-.635c-.19.1-.367.2-.551.3a14.034,14.034,0,0,0-3.933,3.231h0l.616.617Z" transform="translate(-287.334 -382.72)" fill="#fff"/><path d="M318.135,411.477a32.329,32.329,0,0,1-5.108.4q-1.33,0-2.615-.107h0l.921.921h0a33.563,33.563,0,0,0,7.552-.468l-.745-.745Z" transform="translate(-293.25 -389.89)" fill="#fff"/><path d="M296.609,396.267c-.382-1.747.644-3.556,3.067-4.953l-.5-.5-.033.019c-.2.117-.376.239-.555.361-.089.061-.18.123-.265.185-.141.1-.272.21-.4.317-.105.088-.208.176-.306.266s-.2.193-.3.291-.2.216-.292.325c-.076.091-.154.182-.223.275-.092.122-.172.247-.251.371-.055.087-.113.175-.162.263-.074.136-.135.275-.194.414-.035.083-.078.164-.107.249a4.1,4.1,0,0,0-.136.491c-.015.064-.039.128-.05.193a4.031,4.031,0,0,0-.061.666Z" transform="translate(-289.189 -384.13)" fill="#fff"/><path d="M312.107,405.556a20.944,20.944,0,0,1-9.646-1.626l1.24,1.24.01,0c.465.159.955.3,1.454.423.114.029.229.057.345.084.51.12,1.03.227,1.566.311l.027,0c.515.08,1.045.137,1.579.183.156.013.312.025.469.035.5.034,1.012.056,1.526.058l.132,0c.41,0,.816-.011,1.218-.03l.129-.006c.2-.011.391-.03.586-.045Z" transform="translate(-291.033 -387.787)" fill="#fff"/><path d="M330.463,385.956c3.458,2,5.364,4.6,5.364,7.327a5.828,5.828,0,0,1-.063.864l.73.73c.836-3.429-1.035-7.035-5.6-9.672a24.448,24.448,0,0,0-6.589-2.516l1.2,1.2A22.41,22.41,0,0,1,330.463,385.956Z" transform="translate(-297.123 -381.865)" fill="#fff"/><path d="M312.187,382.4c.4,0,.785.007,1.181.022l-.871-.871h0a32.994,32.994,0,0,0-5.094.333l.765.765A32.441,32.441,0,0,1,312.187,382.4Z" transform="translate(-292.41 -381.547)" fill="#fff"/><path d="M332.9,406.606l.623.623a13.993,13.993,0,0,0,3.053-2.373l0,0-.606-.606A13.915,13.915,0,0,1,332.9,406.606Z" transform="translate(-299.52 -387.875)" fill="#fff"/><path d="M330.3,398.284a5.222,5.222,0,0,1-2.327,3.1l.489.489c.071-.051.15-.1.219-.153l.124-.1q.309-.246.577-.5c.048-.045.092-.092.138-.138.157-.16.305-.322.438-.488.038-.047.073-.094.109-.141a5.385,5.385,0,0,0,.319-.473c.035-.059.073-.118.105-.177a4.643,4.643,0,0,0,.249-.531c.028-.069.053-.14.076-.21.014-.042.022-.085.035-.128Z" transform="translate(-298.146 -386.213)" fill="#fff"/><path d="M313,387.6l.661.662a22.184,22.184,0,0,1,6.282.851l-.953-.953c-.043-.01-.084-.022-.126-.031-.255-.057-.518-.106-.78-.155-.152-.028-.3-.059-.456-.084-.247-.04-.5-.071-.75-.1-.175-.022-.348-.049-.526-.068-.224-.024-.454-.038-.682-.056-.208-.016-.415-.037-.625-.048-.16-.009-.323-.008-.484-.014-.27-.009-.538-.02-.811-.02C313.5,387.585,313.248,387.6,313,387.6Z" transform="translate(-293.971 -383.23)" fill="#fff"/><path d="M323.492,410.684l.716.716a25.3,25.3,0,0,0,3.164-.956l-.666-.666A25.943,25.943,0,0,1,323.492,410.684Z" transform="translate(-296.896 -389.417)" fill="#fff"/><path d="M301,383.994l-.695-.694a23.613,23.613,0,0,0-3.009,1.111l.652.651A23.705,23.705,0,0,1,301,383.994Z" transform="translate(-289.594 -382.035)" fill="#fff"/><path d="M302.829,389.972a17.248,17.248,0,0,1,3.142-.977l-.564-.565-.044.011a16.768,16.768,0,0,0-3.044,1.021Z" transform="translate(-290.994 -383.466)" fill="#fff"/><path d="M321.778,404.913a20.023,20.023,0,0,1-3.38.741l.609.609c.1-.015.19-.037.287-.053.422-.074.837-.156,1.24-.25.123-.029.246-.059.368-.09.444-.112.877-.236,1.3-.374.041-.014.084-.025.125-.039Z" transform="translate(-295.476 -388.061)" fill="#fff"/><path d="M317.24,382.514c.8.056,1.594.149,2.366.269l-.992-.992c-.758-.092-1.523-.156-2.288-.191h0l.914.915Z" transform="translate(-294.898 -381.561)" fill="#fff"/><path d="M339.484,402.176l-.631-.631a7.322,7.322,0,0,1-.842,1.253h0l.617.617h0A9.254,9.254,0,0,0,339.484,402.176Z" transform="translate(-300.943 -387.122)" fill="#fff"/><path d="M325.88,389.956a14.943,14.943,0,0,0-2.048-.85h0l1.205,1.205c.179.082.363.16.534.248,2.106,1.08,3.3,2.453,3.577,3.863l.741.741c0-.019,0-.038.005-.056v-.034C329.891,393.1,328.465,391.281,325.88,389.956Z" transform="translate(-296.99 -383.653)" fill="#fff"/><path d="M292.837,404.811c-2.933-1.693-4.748-3.819-5.23-6.086l-.992-.992c.106,2.842,2.04,5.662,5.789,7.823a22.011,22.011,0,0,0,3.727,1.693l-1.538-1.545A18.477,18.477,0,0,1,292.837,404.811Z" transform="translate(-286.616 -386.059)" fill="#fff"/><path d="M300.646,409.954l1.29,1.29h0c.872.234,1.771.425,2.686.588l-1.091-1.091A25.54,25.54,0,0,1,300.646,409.954Z" transform="translate(-290.527 -389.466)" fill="#fff"/><path d="M287.834,394.4l-.666-.666h0a6.686,6.686,0,0,0-.454,1.644l.793.8A5.914,5.914,0,0,1,287.834,394.4Z" transform="translate(-286.643 -384.944)" fill="#fff"/></g></g></g><g transform="translate(165.554 109.733)"><g transform="translate(72.756 49.483)"><path d="M322.4,236.272c7.3-11.391-2.26-14.636,5.038-26.028l11.539-1.74c-8.116,8.94.881,14.223-6.938,23.365Z" transform="translate(-322.405 -208.504)" fill="#27debf"/><path d="M322.4,236.272c7.3-11.391-2.26-14.636,5.038-26.028l11.539-1.74c-8.116,8.94.881,14.223-6.938,23.365Z" transform="translate(-322.405 -208.504)" opacity="0.1"/><path d="M327.2,232.656c2.05-7.25-1.428-10.91.624-18.16a5.861,5.861,0,0,0,1.942-1.672l6.037-1.039a1.07,1.07,0,0,0-.065.787.593.593,0,0,0,.491.361c-3.784,7.589,1.6,9.364-2.187,16.954a3.17,3.17,0,0,0-1.838,1.753l-4.751,2.052a1.22,1.22,0,0,0,.128-.763.359.359,0,0,0-.38-.273m-.643.68c.584-.245.741.235.161,1.127l5.728-2.514a2.752,2.752,0,0,1,1.635-1.725c4.451-8.059-1.568-9.789,2.883-17.849-.7.127-.934-.406-.354-1.24l-6.883,1.144a4.067,4.067,0,0,1-2.161,1.8c-2.5,7.822,1.494,11.436-1.01,19.259Z" transform="translate(-323.563 -209.237)" opacity="0.3"/><g transform="translate(4.582 9.8)" opacity="0.3"><path d="M335.157,224.592a4.251,4.251,0,0,1-2.765,4.236c-1.67.563-3.2-.534-3.57-2.4a3.756,3.756,0,0,1,2.765-4.236A2.772,2.772,0,0,1,335.157,224.592Zm-5.735,1.664a2.264,2.264,0,0,0,2.929,1.934,3.358,3.358,0,0,0,2.206-3.424,2.271,2.271,0,0,0-2.929-1.934A3.039,3.039,0,0,0,329.422,226.256Z" transform="translate(-328.759 -222.093)"/></g></g><g transform="translate(20.485 109.358)"><path d="M249.929,305.913c13.272-2.623,9-11.766,22.267-14.389l9.246,7.121c-12.07.335-9.652,10.484-21.663,11.173Z" transform="translate(-249.929 -291.524)" fill="#27debf"/><path d="M249.929,305.913c13.272-2.623,9-11.766,22.267-14.389l9.246,7.121c-12.07.335-9.652,10.484-21.663,11.173Z" transform="translate(-249.929 -291.524)" opacity="0.07"/><path d="M257.14,306.067c6.65-3.54,6.883-8.585,13.534-12.125a5.846,5.846,0,0,0,2.55.244l4.93,3.636a1.07,1.07,0,0,0-.612.5.592.592,0,0,0,.08.6c-8.1,2.526-5.651,7.637-13.747,10.163a3.166,3.166,0,0,0-2.538-.113l-4.769-2.007a1.22,1.22,0,0,0,.639-.436.359.359,0,0,0-.066-.463m-.936.007c.581.251.343.7-.7.9l5.781,2.392a2.75,2.75,0,0,1,2.377-.015c8.9-2.368,5.977-7.91,14.874-10.279-.575-.416-.354-.956.65-1.114l-5.591-4.174a4.068,4.068,0,0,1-2.795-.313c-7.377,3.61-7.217,9-14.594,12.608Z" transform="translate(-251.483 -292.066)" opacity="0.3"/><g transform="translate(12.392 6.808)" opacity="0.3"><path d="M273.483,305.756a4.251,4.251,0,0,1-4.971.938c-1.563-.814-1.829-2.677-.741-4.236a3.756,3.756,0,0,1,4.971-.938A2.772,2.772,0,0,1,273.483,305.756Zm-5.172-2.986a2.264,2.264,0,0,0,.633,3.452,3.36,3.36,0,0,0,4-.779,2.272,2.272,0,0,0-.633-3.452A3.039,3.039,0,0,0,268.311,302.77Z" transform="translate(-267.111 -300.964)"/></g></g><g transform="translate(69.073 21.956)"><path d="M348.545,173.9c-13.174,3.074-8.588,12.066-21.763,15.14-3.793-2.72-5.69-4.08-9.483-6.8,12.052-.746,9.289-10.807,21.269-11.905Z" transform="translate(-317.299 -170.337)" fill="#27debf"/><path d="M344.393,174.868c-6.526,3.765-6.585,8.815-13.112,12.579a5.862,5.862,0,0,0-2.557-.156l-5.051-3.465a1.069,1.069,0,0,0,.6-.519.591.591,0,0,0-.1-.6c8-2.8,5.387-7.825,13.392-10.626a3.17,3.17,0,0,0,2.541.026l4.836,1.843a1.216,1.216,0,0,0-.624.457.359.359,0,0,0,.082.461m.935-.039c-.589-.232-.367-.684.671-.92l-5.858-2.193a2.75,2.75,0,0,1-2.375.1c-8.811,2.671-5.7,8.109-14.515,10.78.589.4.386.943-.612,1.136l5.731,3.981a4.069,4.069,0,0,1,2.8.216c7.25-3.859,6.9-9.237,14.155-13.1Z" transform="translate(-318.788 -170.721)" opacity="0.3"/><g transform="translate(11.971 5.523)" opacity="0.3"><path d="M334.515,179.466a4.25,4.25,0,0,1,4.936-1.107c1.59.76,1.919,2.613.886,4.208a3.755,3.755,0,0,1-4.936,1.107A2.772,2.772,0,0,1,334.515,179.466Zm5.27,2.808a2.264,2.264,0,0,0-.75-3.429,3.359,3.359,0,0,0-3.969.915,2.271,2.271,0,0,0,.751,3.429A3.038,3.038,0,0,0,339.785,182.273Z" transform="translate(-333.897 -177.995)"/></g></g><g transform="translate(37.96 66.483)"><path d="M305.405,235.642c-13.174,3.074-8.588,12.066-21.763,15.14l-9.483-6.8c12.052-.747,9.289-10.807,21.269-11.906Z" transform="translate(-274.159 -232.076)" fill="#27debf"/><path d="M301.253,236.607c-6.526,3.765-6.585,8.815-13.112,12.579a5.852,5.852,0,0,0-2.557-.156l-5.051-3.466a1.066,1.066,0,0,0,.6-.519.591.591,0,0,0-.1-.6c8-2.8,5.387-7.825,13.392-10.626a3.168,3.168,0,0,0,2.541.026l4.836,1.843a1.216,1.216,0,0,0-.624.457.359.359,0,0,0,.081.461m.935-.039c-.589-.232-.367-.684.671-.92L297,233.455a2.75,2.75,0,0,1-2.375.1c-8.811,2.671-5.7,8.109-14.515,10.78.589.4.386.943-.612,1.137l5.73,3.98a4.064,4.064,0,0,1,2.8.217c7.25-3.86,6.9-9.238,14.155-13.1Z" transform="translate(-275.648 -232.46)" opacity="0.3"/><g transform="translate(11.971 5.523)" opacity="0.3"><path d="M291.375,241.205a4.249,4.249,0,0,1,4.936-1.108c1.59.76,1.919,2.613.886,4.208a3.756,3.756,0,0,1-4.936,1.108A2.772,2.772,0,0,1,291.375,241.205Zm5.27,2.807a2.264,2.264,0,0,0-.75-3.429,3.359,3.359,0,0,0-3.969.915,2.271,2.271,0,0,0,.751,3.429A3.039,3.039,0,0,0,296.645,244.012Z" transform="translate(-290.757 -239.734)"/></g></g><g transform="translate(39.078 124.027)"><path d="M306.883,321.481c-12.92-4.011-13.511,6.066-26.431,2.055l-4.742-10.663c10.774,5.45,13.478-4.626,24.369.484Z" transform="translate(-275.71 -311.863)" fill="#27debf"/><path d="M306.883,321.481c-12.92-4.011-13.511,6.066-26.431,2.055l-4.742-10.663c10.774,5.45,13.478-4.626,24.369.484Z" transform="translate(-275.71 -311.863)" opacity="0.1"/><path d="M302.793,319.447c-7.534-.052-10.139,4.274-17.673,4.221a5.863,5.863,0,0,0-2.128-1.428l-2.605-5.545a1.069,1.069,0,0,0,.776-.147.591.591,0,0,0,.216-.568c8.322,1.632,8.6-4.027,16.927-2.394a3.165,3.165,0,0,0,2.179,1.307l3.239,4.036a1.22,1.22,0,0,0-.77.079.36.36,0,0,0-.162.439m.827.439c-.392-.5.03-.776,1.044-.454l-3.945-4.855a2.752,2.752,0,0,1-2.1-1.118c-8.952-2.151-9.022,4.112-17.973,1.96.307.64-.144,1.009-1.1.671l2.93,6.332a4.066,4.066,0,0,1,2.309,1.605c8.206.336,10.629-4.477,18.835-4.141Z" transform="translate(-276.779 -312.181)" opacity="0.3"/><g transform="translate(11.561 2.893)" opacity="0.3"><path d="M293.523,316.121a4.249,4.249,0,0,1,4.818,1.541c.987,1.46.335,3.225-1.364,4.078a3.755,3.755,0,0,1-4.818-1.54A2.772,2.772,0,0,1,293.523,316.121Zm3.127,5.087a2.264,2.264,0,0,0,1.087-3.338,3.36,3.36,0,0,0-3.887-1.217,2.272,2.272,0,0,0-1.087,3.338A3.039,3.039,0,0,0,296.65,321.208Z" transform="translate(-291.739 -315.874)"/></g></g><g transform="translate(32.254)"><path d="M297.612,149.216c-13.009-3.711-13.367,6.376-26.376,2.666l-4.988-10.551c10.9,5.2,13.368-4.936,24.374-.079Z" transform="translate(-266.248 -139.894)" fill="#27debf"/><path d="M293.494,147.3c-7.532.122-10.037,4.508-17.571,4.629a5.845,5.845,0,0,0-2.159-1.378l-2.733-5.483a1.068,1.068,0,0,0,.772-.164.591.591,0,0,0,.2-.573c8.357,1.439,8.509-4.225,16.867-2.785a3.165,3.165,0,0,0,2.208,1.256l3.331,3.959a1.219,1.219,0,0,0-.767.1.359.359,0,0,0-.152.443m.837.42c-.4-.488.012-.776,1.033-.478l-4.056-4.762a2.752,2.752,0,0,1-2.123-1.069c-9-1.944-8.924,4.319-17.923,2.375.322.633-.12,1.012-1.087.7,1.23,2.506,1.846,3.758,3.077,6.262A4.068,4.068,0,0,1,275.6,152.3c8.212.147,10.523-4.722,18.734-4.575Z" transform="translate(-267.342 -140.211)" opacity="0.3"/><g transform="translate(11.665 2.978)" opacity="0.3"><path d="M284.147,144.3A4.249,4.249,0,0,1,289,145.732c1.021,1.437.409,3.216-1.269,4.109a3.756,3.756,0,0,1-4.853-1.429A2.773,2.773,0,0,1,284.147,144.3Zm3.243,5.014a2.265,2.265,0,0,0,1.01-3.362,3.36,3.36,0,0,0-3.914-1.127,2.272,2.272,0,0,0-1.009,3.362A3.039,3.039,0,0,0,287.391,149.316Z" transform="translate(-282.422 -144.024)"/></g></g><g transform="translate(0 109.42)"><path d="M252.89,300.93c-13.009-3.71-13.367,6.378-26.377,2.667l-4.987-10.551c10.9,5.2,13.368-4.936,24.374-.079Z" transform="translate(-221.526 -291.609)" fill="#27debf"/><path d="M248.772,299.016c-7.533.122-10.037,4.508-17.571,4.629a5.846,5.846,0,0,0-2.159-1.378l-2.733-5.483a1.068,1.068,0,0,0,.772-.164.593.593,0,0,0,.2-.573c8.357,1.439,8.509-4.225,16.867-2.785a3.166,3.166,0,0,0,2.208,1.256l3.331,3.959a1.219,1.219,0,0,0-.767.1.359.359,0,0,0-.152.443m.837.42c-.4-.488.012-.776,1.033-.478l-4.056-4.762a2.752,2.752,0,0,1-2.123-1.069c-9-1.944-8.924,4.319-17.923,2.375.322.633-.12,1.012-1.087.7l3.077,6.263a4.064,4.064,0,0,1,2.345,1.551c8.212.147,10.523-4.721,18.734-4.575Z" transform="translate(-222.62 -291.926)" opacity="0.3"/><g transform="translate(11.665 2.978)" opacity="0.3"><path d="M239.425,296.017a4.249,4.249,0,0,1,4.852,1.429c1.021,1.437.409,3.216-1.269,4.109a3.756,3.756,0,0,1-4.853-1.429A2.772,2.772,0,0,1,239.425,296.017Zm3.243,5.014a2.263,2.263,0,0,0,1.009-3.362,3.359,3.359,0,0,0-3.913-1.128,2.272,2.272,0,0,0-1.009,3.362A3.039,3.039,0,0,0,242.668,301.031Z" transform="translate(-237.7 -295.739)"/></g></g><g transform="translate(32.998 24.785)"><path d="M299.747,178.145c-13.824,3.367-7.209,12.593-21.034,15.961l-11.435-7.33c12.605-2.059,8.44-10.457,21.045-12.516Z" transform="translate(-267.279 -174.259)" fill="#27debf"/><path d="M299.747,178.145c-13.824,3.367-7.209,12.593-21.034,15.961l-11.435-7.33c12.605-2.059,8.44-10.457,21.045-12.516Z" transform="translate(-267.279 -174.259)" opacity="0.07"/><g transform="translate(4.011 1.094)" opacity="0.3"><path d="M295.389,179.436c-6.618,3.864-6.359,8.91-12.978,12.773a6.949,6.949,0,0,0-2.62-.234l-5.5-3.756a.96.96,0,0,0,.507-.534.72.72,0,0,0-.118-.625c8.119-2.767,5.028-8.055,13.149-10.821a9.552,9.552,0,0,0,2.561.027l5.444,2.218a1.041,1.041,0,0,0-.538.464.445.445,0,0,0,.089.489m1.3,0c-.654-.272-.456-.754.63-.973l-6.49-2.587a6.3,6.3,0,0,1-2.941-.1c-9.211,2.565-5.284,8.507-14.495,11.072.665.449.495,1.031-.553,1.206l6.487,4.5a4.448,4.448,0,0,1,3.018.332c7.607-3.991,6.737-9.459,14.344-13.45Z" transform="translate(-272.84 -175.776)"/></g><g transform="translate(12.388 5.863)" opacity="0.3"><path d="M291.076,186.947a3.1,3.1,0,0,1-4.187.924c-1.55-.816-2.12-2.432-1.355-3.644a3.419,3.419,0,0,1,4.187-.923,2.608,2.608,0,0,1,1.356,3.643m.647.318a3.173,3.173,0,0,0-1.626-4.472c-1.854-.825-4.262-.358-5.211,1.116s-.291,3.446,1.626,4.472,4.331.562,5.211-1.116Z" transform="translate(-284.456 -182.388)"/></g></g><g transform="translate(40.18 108.957)"><path d="M277.237,302.107c6.2-5.708,18.61-5.431,24.808-11.139l8.269,4.774c-3.586,6.461-15.709,7.861-19.3,14.322Z" transform="translate(-277.237 -290.968)" fill="#27debf"/><g transform="translate(3.076 1.905)" opacity="0.3"><path d="M282.715,301.941c6.026-4,13.5-3.431,19.523-7.435a2.893,2.893,0,0,0,1.827-.214l4.38,2.529a1.615,1.615,0,0,0-.123.7,1.172,1.172,0,0,0,.229.627c-4.889,4.66-11.794,4.415-16.683,9.075a3.1,3.1,0,0,0-2.093.061l-6.689-3.861a1.279,1.279,0,0,0,.042-.752,1.645,1.645,0,0,0-.413-.733m-1.213-.1c.8.461.968,1.184.485,1.675l8.029,4.635a1.778,1.778,0,0,1,2.224-.111c4.729-5.23,12.46-4.745,17.189-9.974a.992.992,0,0,1-.193-1.507l-5.1-2.945a1.74,1.74,0,0,1-1.931.28c-6.2,3.506-14.5,4.442-20.7,7.948Z" transform="translate(-281.502 -293.61)"/></g><g transform="translate(12.572 6.42)" opacity="0.3"><path d="M297.34,300.658a8.731,8.731,0,0,1,5.988.371c1.385.8,1.119,2.031-.642,2.717a7.814,7.814,0,0,1-5.988-.371c-1.563-.9-1.3-2.134.642-2.717m-.625-.361c-2.418.7-2.72,2.238-.766,3.367a9.455,9.455,0,0,0,7.361.442c2.146-.86,2.449-2.4.766-3.367s-4.944-1.145-7.361-.442Z" transform="translate(-294.668 -299.87)"/></g></g></g><g transform="translate(65.356 37.435)"><path d="M116.547,44.835l-5.786,3.341c.029-.3.049-.591.049-.881V45.36c0-3.445-2.094-5.028-4.678-3.536a8.573,8.573,0,0,0-2.788,2.846c-.423-4.368-3.366-6.245-6.94-4.181-3.865,2.231-7,8.218-7,13.371v2.9A9.033,9.033,0,0,0,90,60.162l-4.806,2.775A6.215,6.215,0,0,0,82.6,67.894c0,1.911,1.162,2.789,2.595,1.962l31.354-18.1a6.214,6.214,0,0,0,2.594-4.958C119.141,44.885,117.98,44.008,116.547,44.835Z" transform="translate(-82.598 -39.65)" fill="#ebebeb"/><g transform="translate(45.505 11.378)"><path d="M171.313,59.338l-4.367,2.521c.022-.223.037-.446.037-.664v-1.46c0-2.6-1.58-3.794-3.53-2.669a6.483,6.483,0,0,0-2.1,2.149c-.32-3.3-2.54-4.713-5.237-3.156-2.917,1.684-5.281,6.2-5.281,10.091v2.185a6.833,6.833,0,0,0,.447,2.572L147.65,73a4.69,4.69,0,0,0-1.958,3.742c0,1.442.876,2.1,1.958,1.48l23.663-13.661a4.692,4.692,0,0,0,1.958-3.742C173.271,59.377,172.394,58.715,171.313,59.338Z" transform="translate(-145.692 -55.426)" fill="#ebebeb"/></g></g><g transform="translate(229.347 31.705)"><g transform="translate(36.501 34.312)"><path d="M366.491,126.386c2.226-.867,4.47-10.031,4.47-10.031l-9.293-3.348-1.08,3.635A21.034,21.034,0,0,0,366.491,126.386Z" transform="translate(-360.588 -88.682)" fill="#9e5d55"/><path d="M378.2,79.387s-5.611-.868-9.208,2.321-8.409,24.441-8.409,24.441,4.867,5.7,10.761,4.03S378.2,79.387,378.2,79.387Z" transform="translate(-360.588 -79.279)" fill="#37474f"/></g><g transform="translate(23.369 87.295)"><g transform="translate(17.454)"><path d="M416.962,294.086h-8.378l-1.116-14.842,9.494,1.485Z" transform="translate(-377.979 -188.009)" fill="#87423a"/><path d="M376.82,282.09l-9.187.316-.143-15.772,10.662-.626Z" transform="translate(-366.834 -184.319)" fill="#87423a"/><path d="M405.563,153.692c1.048,9.741-.471,49.283-.471,49.283.174,2.043,2.141,5.676,2.293,13.037.222,10.674-1.823,35.023-1.823,35.023a13.009,13.009,0,0,1-9.013-.228s-4.705-34.378-6.037-44.943c-1.163-9.221-4.485-33.347-4.485-33.347L381,203.856a52.332,52.332,0,0,1,.415,11.34c-.348,4.887-4.047,28.122-4.047,28.122a17.747,17.747,0,0,1-10.189,0s-.512-36.7-.6-41.187c-.1-5.112,1.2-49.387,1.2-49.387Z" transform="translate(-366.581 -152.743)" fill="#37474f"/><path d="M389.275,177.676s-6.635-2.164-11.046-6.427c0,0,2,3.741,7.941,7.223l-1.425,27.468Z" transform="translate(-369.828 -157.902)" fill="#263238"/></g><g transform="translate(37.705 101.745)"><path d="M394.83,316.265a3.834,3.834,0,0,0,.113,2.546c.331.52,2.231,2.141,5.667,2.387,3.283.235,6.215-.208,8.143-1.432a5.675,5.675,0,0,0,3.042-4.444c.182-1.87-.027-3.675.865-5.114.824-1.329,2.135-2.827,2.421-3.548a7.289,7.289,0,0,0,.022-3.809Z" transform="translate(-394.66 -296.336)" fill="#37474f"/><path d="M403.851,297.419a7.254,7.254,0,0,1-.379,2.082,19.075,19.075,0,0,1-2.011,4.115,17,17,0,0,1-1.369,1.931c-.993,1.181-2.226,2.151-3.278,3.285a6.715,6.715,0,0,0-2.027,4.03c-.14,2.575,2.655,3.45,4.807,3.833a15.8,15.8,0,0,0,6.992-.351,6.42,6.42,0,0,0,4.71-5.131c.119-.715.075-1.446.16-2.165a10.109,10.109,0,0,1,2-4.505,13.578,13.578,0,0,0,1.537-2.452c.671-1.594.133-3.388-.3-4.975-.371-1.371-.79-2.923-1.273-2.794-.006.711,0,.785-.508,1.267-.645.609-.673,1.526-1.354,2.065a9.409,9.409,0,0,0,.478-1.831,1.047,1.047,0,0,0-.145-.728,1.914,1.914,0,0,0-.791-.423,15.8,15.8,0,0,0-3.126-.712,9.319,9.319,0,0,0-3.051-.022,1.323,1.323,0,0,0-.767.444,1.532,1.532,0,0,0-.274.88C403.84,295.673,403.872,296.735,403.851,297.419Z" transform="translate(-394.694 -293.817)" fill="#455a64"/><path d="M403.547,307.361c.958-.718,3.107-.728,4.282-.6a7.111,7.111,0,0,1,3.339,1.172.763.763,0,0,0,.984-.078h0a.717.717,0,0,0-.073-1.094,7.239,7.239,0,0,0-3.758-1.393c-2.891-.2-3.74.292-3.74.292S403.263,306.508,403.547,307.361Z" transform="translate(-397.126 -297.024)" fill="#f5f5f5"/><path d="M400.5,311.05c1.206-.713,3.569-.61,4.744-.485A6.687,6.687,0,0,1,408.5,311.8a.762.762,0,0,0,.983-.078h0a.717.717,0,0,0-.073-1.094,7.52,7.52,0,0,0-3.838-1.5c-2.891-.2-3.645.387-3.645.387A2.393,2.393,0,0,0,400.5,311.05Z" transform="translate(-396.289 -298.073)" fill="#f5f5f5"/><path d="M410.123,301.519a7.176,7.176,0,0,0-3.635.3c-.509.286-.845,1.091-.516,1.295a6.67,6.67,0,0,1,3.222-.443,9.573,9.573,0,0,1,3.126.859c.247.11.539.264.8.406a.686.686,0,0,0,.951-.3h0a.642.642,0,0,0-.251-.827A9.27,9.27,0,0,0,410.123,301.519Z" transform="translate(-397.777 -295.942)" fill="#f5f5f5"/></g><g transform="translate(0 93.513)"><path d="M342.656,301.4a3.113,3.113,0,0,0,.128,2.292c.32.671,3.823,2.646,8.548,2.327A19.673,19.673,0,0,0,361.1,302.6c1.8-1.193,3.677-1.416,6.016-1.549s5.412-1.3,5.925-2.4a5.177,5.177,0,0,0-.077-2.979Z" transform="translate(-342.411 -286.103)" fill="#37474f"/><path d="M361.691,282.949q-.184-.04-.374-.077a1.472,1.472,0,0,0-.623-.034,1.214,1.214,0,0,0-.583.394,11.689,11.689,0,0,0-1.207,1.895c-.99,1.616-3.069,2.953-5.34,4.174-1.544.83-3.056,1.473-4.65,2.19-1.626.731-3.784,1.178-5.056,2.035a3.408,3.408,0,0,0,.019,5.63c1.823,1.07,6.617,2.229,11.646.8,2.74-.776,5.781-3.7,9.377-3.985,2.286-.179,6.611-.821,8.083-2.557.544-.77-.182-3.212-.779-5.319-.651-2.3-1.271-5.889-2.032-5.688a1.046,1.046,0,0,1-.4.859c-.282.291-.661.477-.969.74a6.033,6.033,0,0,0-1.265,1.82,1.362,1.362,0,0,1-.649.7c-.385.144-.674-.1-1.011-.254a1.968,1.968,0,0,0-1.367-.1,8.488,8.488,0,0,1,.242-1.35.786.786,0,0,0,.033-.436.7.7,0,0,0-.293-.329A7.306,7.306,0,0,0,361.691,282.949Z" transform="translate(-342.38 -282.403)" fill="#455a64"/><path d="M360.849,289.794a2.119,2.119,0,0,1,1.688-1.13c1.041-.194,2.878.573,4.02,1.514a.853.853,0,0,1-.123,1.409h0a.851.851,0,0,1-.974-.107A6.522,6.522,0,0,0,360.849,289.794Z" transform="translate(-347.529 -284.14)" fill="#f5f5f5"/><path d="M356.377,292.348a2.442,2.442,0,0,1,2-1.031,7.613,7.613,0,0,1,4.4,1.646.835.835,0,0,1-.115,1.363h0a.815.815,0,0,1-.938-.109A6.537,6.537,0,0,0,356.377,292.348Z" transform="translate(-346.282 -284.888)" fill="#f5f5f5"/><path d="M351.441,294.644a2.734,2.734,0,0,1,2.078-.931,7.31,7.31,0,0,1,4.213,1.662.835.835,0,0,1-.115,1.363h0a.814.814,0,0,1-.938-.109A6.241,6.241,0,0,0,351.441,294.644Z" transform="translate(-344.906 -285.556)" fill="#f5f5f5"/></g></g><g transform="translate(41.015 34.332)"><path d="M391.784,79.627a56.7,56.7,0,0,1,8.739,1.959c2.017.718,2.443,3.012,2.873,4.9,1.375,6.054,1.613,18.753,1.613,18.753l1.677,37.718c-5.122,3.731-29.06,5.9-39.839-1.973,0,0,2.61-43.638,2.61-49.121S372.5,79.8,380.914,79.308Z" transform="translate(-366.847 -79.308)" fill="#27debf"/></g><g transform="translate(41.015 34.332)" opacity="0.3"><path d="M391.784,79.627a56.7,56.7,0,0,1,8.739,1.959c2.017.718,2.443,3.012,2.873,4.9,1.375,6.054,1.613,18.753,1.613,18.753l1.677,37.718c-5.122,3.731-29.06,5.9-39.839-1.973,0,0,2.61-43.638,2.61-49.121S372.5,79.8,380.914,79.308Z" transform="translate(-366.847 -79.308)"/></g><g transform="translate(43.328)"><path d="M399.868,40.861a3.6,3.6,0,0,0-1.921-1.028l2.5-1.344a2.013,2.013,0,0,0-2.765-.915,2.171,2.171,0,0,0-.932,2.759s-11.032-6.676-15-6.676c-5.452,0-10.762,1.856-8.926,9.646,1.25,5.306,3.474,10.1,8.926,10.1,4.283,0,12.855,7.483,12.855,7.483a3.4,3.4,0,0,0,1.967-1.586c.641-1.235,2.241-8.749,2.241-8.749h0C400.45,46.421,401.185,42.207,399.868,40.861Z" transform="translate(-370.723 -32.25)" fill="#263238"/><path d="M395.266,51.472c.6.361,1.466-.8,2.211-1.579a2.622,2.622,0,0,1,4.391.712c1.236,2.605-1.071,6.047-2.986,6.649-3.3,1.036-3.8-1.081-3.8-1.081l-.244,12.267h0a9.286,9.286,0,0,1-8.725,3.375c-2.2-.392-4.125-1.615-2.02-4.053l.009-3.623a20.8,20.8,0,0,1-4.448.228c-2.427-.375-3.954-2.29-4.69-4.917-1.182-4.219-1.631-7.626-.628-15.924,1.1-9.1,11.679-9.19,17.391-5.594S395.266,51.472,395.266,51.472Z" transform="translate(-371.095 -32.825)" fill="#9e5d55"/><path d="M390.924,52.2c0-1.545-1.862-1.931-5.6-1.9-2.255.017-11.965,0-11.965,0v0c-2.972.206-3.378,1.134-3.291,2.881.151,3.033.605,4.951,3.926,4.931,2.231-.014,4.2-1.194,4.189-3.77v-.8a1.07,1.07,0,0,1,1.07-1.069h0a1.07,1.07,0,0,1,1.07,1.067v.713a4.286,4.286,0,0,0,.33,1.706,5.112,5.112,0,0,0,6.368,2.979C390.948,57.978,390.919,54.28,390.924,52.2Z" transform="translate(-370.055 -36.887)" fill="#27debf"/><path d="M390.924,52.2c0-1.545-1.862-1.931-5.6-1.9-2.255.017-11.965,0-11.965,0v0c-2.972.206-3.378,1.134-3.291,2.881.151,3.033.605,4.951,3.926,4.931,2.231-.014,4.2-1.194,4.189-3.77v-.8a1.07,1.07,0,0,1,1.07-1.069h0a1.07,1.07,0,0,1,1.07,1.067v.713a4.286,4.286,0,0,0,.33,1.706,5.112,5.112,0,0,0,6.368,2.979C390.948,57.978,390.919,54.28,390.924,52.2Z" transform="translate(-370.055 -36.887)" opacity="0.7"/><path d="M374.087,38.349c1.995,1.62,3.293,2.485,7.149,2.622a17.263,17.263,0,0,0,7.654-1.5,4.962,4.962,0,0,0,1.138,2.5,7.568,7.568,0,0,0,2.7,1.775c.208,1.636.2,3.737.3,5.382.034.556.031,3.45,1.349,2.623a6.734,6.734,0,0,0,1.149-1.289,19.3,19.3,0,0,1,1.516-1.685c1.042-.948-.3-9.534-.3-9.534a4.167,4.167,0,0,0-.718-4.636c-1.428-1.571-3.419-3.489-9.9-2.723-4.618.546-9.643,1.986-13.7-.009C371.868,34.2,372.658,37.188,374.087,38.349Z" transform="translate(-370.666 -31.705)" fill="#263238"/><path d="M388.1,73.31s5.417-1.091,7.311-2.1a6.241,6.241,0,0,0,2.618-2.591,8.537,8.537,0,0,1-1.487,3.056c-1.385,1.771-8.442,3.074-8.442,3.074Z" transform="translate(-375.084 -41.996)" fill="#87423a"/></g><g transform="translate(46.908 10.612)"><path d="M391.03,47.381l2.564.985a1.442,1.442,0,0,0-.818-1.82A1.34,1.34,0,0,0,391.03,47.381Z" transform="translate(-379.482 -46.429)" fill="#263238"/><path d="M387.962,65.491,385.014,66.6a1.547,1.547,0,0,0,2,.977A1.649,1.649,0,0,0,387.962,65.491Z" transform="translate(-377.805 -51.735)" fill="#87423a"/><path d="M375.118,48.383l2.537-1.106a1.329,1.329,0,0,0-1.778-.746A1.453,1.453,0,0,0,375.118,48.383Z" transform="translate(-375.019 -46.418)" fill="#263238"/><path d="M381.517,54.427l-.386,7.078-3.7-1.26Z" transform="translate(-375.692 -48.651)" fill="#87423a"/></g><g transform="translate(51.088 33.463)"><path d="M388.626,100.667a4.119,4.119,0,0,1-1.476-.272c-2.842-1.085-4.415-5.175-4.1-10.673.564-9.979,2.337-10.777,2.855-11.127l.777-.371-.008.795h0a2.567,2.567,0,0,0-1.175,1.16c-.59,1.176-1.4,3.807-1.729,9.585-.292,5.173,1.1,8.989,3.641,9.958,1.871.713,4.077-.3,6.054-2.785,4.085-5.129,5.5-13.614,3.967-17.428l.028-1.406.3.431c2.349,4.068.467,13.582-3.73,18.852C392.319,99.528,390.416,100.667,388.626,100.667Z" transform="translate(-381.425 -78.102)" fill="#27debf"/><path d="M388.111,108.534A5.11,5.11,0,0,1,385,107.308c-2.769-2.13-5.064-8.733-3.861-16.774.96-6.421,2.89-9.615,2.968-9.748l.528.364a29.24,29.24,0,0,0-2.783,9.491c-1.162,7.769.981,14.091,3.588,16.1a4.011,4.011,0,0,0,3.328,1.008c1.756-.37,3.923-1.529,5.8-4.965,3.374-6.169,3.37-15.43,2.615-21.393l.715-.091c.769,6.076.794,15.572-2.663,21.892-1.986,3.632-4.346,4.847-6.322,5.263A3.873,3.873,0,0,1,388.111,108.534Z" transform="translate(-380.814 -78.85)" fill="#27debf"/></g><g transform="translate(26.888 36.565)"><g transform="translate(14.277 1.614)"><path d="M379.147,130.86a10,10,0,0,1-1.968.512c-2.971.533-5.951.679-8.942.93-.438.036-.958.13-1.131.534-.2.473.236.966.661,1.256,1.817,1.24,6.987,2.439,13.682,2.436a39.416,39.416,0,0,0,7.284-.71c2.27-.424,6.246-1.316,11.377-2.824,3.832-1.126,7.605-2.451,11.357-3.82,2.725-.995,5.794-1.928,8.205-3.592.277-.192.67-.442.775-.785,1.964-4.663-3.582-18.145-5.963-24.356-4.2-10.956-7.5-15.987-12.725-15.793,0,0-2.917,4.037-.907,10.953,1.625,5.594,5.793,15.107,8.416,22.446-4.069,1.9-8.052,3.975-12.153,5.808-1.861.832-5.477,2.929-8.707,2.823" transform="translate(-367.056 -84.642)" fill="#9e5d55"/></g><path d="M412.811,82.448s4.614-.463,6.954,1.569,7.262,12.65,9.894,22.6a22.018,22.018,0,0,1-11.167,5.556l-6.339-17.192S409,87.026,412.811,82.448Z" transform="translate(-365.008 -82.403)" fill="#37474f"/><g transform="translate(0 34.966)"><path d="M347.259,143.616l22.052-12.731,11.025,6.365-22.051,12.731Z" transform="translate(-347.259 -130.885)" fill="#27debf"/><path d="M352.887,143.618l16.429-9.484a3.958,3.958,0,0,0,2.283,0l5.761,3.326a.891.891,0,0,0,0,1.32l-16.428,9.484a3.961,3.961,0,0,0-2.284,0l-5.761-3.326a.891.891,0,0,0,0-1.32m-.871-.038a.736.736,0,0,1,0,1.4l6.565,3.791a2.669,2.669,0,0,1,2.418,0l17.233-9.949a.737.737,0,0,1,0-1.4l-6.565-3.791a2.683,2.683,0,0,1-2.418,0l-17.233,9.949Z" transform="translate(-348.585 -131.651)" opacity="0.3"/><g transform="translate(11.877 6.856)" opacity="0.3"><path d="M371.686,144.988a7.3,7.3,0,0,1-6.6,0c-1.819-1.05-1.818-2.758,0-3.808a7.3,7.3,0,0,1,6.6,0C373.505,142.23,373.5,143.938,371.686,144.988Zm-5.971-3.447c-1.474.851-1.474,2.236,0,3.087a5.917,5.917,0,0,0,5.346,0c1.475-.851,1.475-2.236,0-3.087A5.917,5.917,0,0,0,365.715,141.54Z" transform="translate(-363.727 -140.392)"/></g><g transform="translate(0 12.731)"><path d="M347.259,148.537v2.68l11.025,6.365V154.9Z" transform="translate(-347.259 -148.537)" fill="#27debf"/><g opacity="0.2"><path d="M347.259,148.537v2.68l11.025,6.365V154.9Z" transform="translate(-347.259 -148.537)"/></g><path d="M361.2,157.443l-3.481-1.937,3.482,2.1Z" transform="translate(-350.176 -150.48)" opacity="0.3"/><path d="M347.26,150.3l1.161.738-1.16-.6Z" transform="translate(-347.259 -149.029)" opacity="0.3"/><path d="M347.26,151.188l5.8,3.449-5.8-3.251Z" transform="translate(-347.26 -149.276)" opacity="0.3"/><path d="M360.3,157.821l-5.8-3.245,5.8,3.456Z" transform="translate(-349.278 -150.221)" opacity="0.3"/></g><g transform="translate(11.025 6.365)"><path d="M362.547,155.122,384.6,142.392v-2.681l-22.051,12.731Z" transform="translate(-362.547 -139.711)" fill="#27debf"/><g opacity="0.1"><path d="M362.547,155.122,384.6,142.392v-2.681l-22.051,12.731Z" transform="translate(-362.547 -139.711)"/></g><g transform="translate(0 1.261)"><g transform="translate(0 11.469)" opacity="0.3" style="mix-blend-mode:multiply;isolation:isolate"><path d="M362.547,157.96l1.162-.6-1.162.76Z" transform="translate(-362.547 -157.363)"/></g><g transform="translate(0.001 9.443)" opacity="0.3" style="mix-blend-mode:multiply;isolation:isolate"><path d="M362.547,157.815l5.835-3.261-5.835,3.472Z" transform="translate(-362.547 -154.554)"/></g><g transform="translate(17.989)" opacity="0.3" style="mix-blend-mode:multiply;isolation:isolate"><path d="M391.552,141.46l-4.062,2.424,4.062-2.266Z" transform="translate(-387.49 -141.46)"/></g><g transform="translate(19.73 0.674)" opacity="0.3" style="mix-blend-mode:multiply;isolation:isolate"><path d="M392.225,142.395,389.9,143.81l2.321-1.265Z" transform="translate(-389.903 -142.395)"/></g></g></g><path d="M391.788,142.227A34.406,34.406,0,0,1,386,141.166a45.319,45.319,0,0,0-6.055-.746c-.708-.05-.9.57-.684,1.168a2,2,0,0,0,.389.612,6.844,6.844,0,0,0,2.554,1.624,7.581,7.581,0,0,1,1.512.713c.35.256.552.569.314.936a3.575,3.575,0,0,1-1.5.935" transform="translate(-356.157 -133.543)" fill="#9e5d55"/></g></g><g transform="translate(0 62.272)"><g transform="translate(0 15.483)"><path d="M309.978,153.9c13.271-2.623,9-11.766,22.266-14.388l9.246,7.12c-12.07.335-9.651,10.484-21.663,11.173Z" transform="translate(-309.978 -139.515)" fill="#27debf"/><path d="M309.978,153.9c13.271-2.623,9-11.766,22.266-14.388l9.246,7.12c-12.07.335-9.651,10.484-21.663,11.173Z" transform="translate(-309.978 -139.515)" opacity="0.1"/><path d="M317.189,154.057c6.65-3.54,6.882-8.585,13.533-12.125a5.851,5.851,0,0,0,2.551.244l4.93,3.636a1.07,1.07,0,0,0-.612.5.59.59,0,0,0,.079.6c-8.095,2.526-5.65,7.637-13.746,10.163a3.166,3.166,0,0,0-2.538-.113l-4.77-2.007a1.217,1.217,0,0,0,.639-.436.359.359,0,0,0-.066-.463m-.936.007c.581.251.343.7-.7.9l5.78,2.392a2.753,2.753,0,0,1,2.377-.015c8.9-2.368,5.977-7.91,14.874-10.278-.575-.417-.353-.956.651-1.115l-5.592-4.174a4.069,4.069,0,0,1-2.795-.313c-7.377,3.61-7.217,9-14.593,12.608Z" transform="translate(-311.532 -140.056)" opacity="0.3"/><g transform="translate(12.392 6.807)" opacity="0.3"><path d="M333.531,153.746a4.249,4.249,0,0,1-4.971.938c-1.563-.814-1.829-2.677-.741-4.236a3.756,3.756,0,0,1,4.971-.938A2.772,2.772,0,0,1,333.531,153.746Zm-5.171-2.986a2.264,2.264,0,0,0,.632,3.452,3.359,3.359,0,0,0,4-.779,2.272,2.272,0,0,0-.633-3.452A3.038,3.038,0,0,0,328.36,150.76Z" transform="translate(-327.16 -148.954)"/></g></g><path d="M347.551,118.047c-3.183,2.089-7.346,4.747-9.3,5.955s-5.1,3.253-7.662,4.853a58.341,58.341,0,0,0-6.909,4.785c-1.722,1.434-3.754,3.108-5.45,4.575-1.217,1.053-2.575,1.934-3.786,3a1.391,1.391,0,0,0-.621,1.075,1.288,1.288,0,0,0,.651.852,7.187,7.187,0,0,0,5.447.924,12.485,12.485,0,0,0,5.04-2.5,15.447,15.447,0,0,1,3.643-2.525,1.169,1.169,0,0,1-.2.913c-.171.275-.4.512-.594.771a4.118,4.118,0,0,0-.816,2.138,2.113,2.113,0,0,0,.115.979,1.081,1.081,0,0,0,.7.653,1.465,1.465,0,0,0,1.427-.8,20.705,20.705,0,0,1,2.692-2.915,28.173,28.173,0,0,0,2.955-4.4,6.8,6.8,0,0,1,3.173-2.2c1.582-.732,3.191-1.408,4.8-2.069,6.226-2.555,10.593-4.316,10.593-4.316Z" transform="translate(-311.05 -118.047)" fill="#9e5d55"/></g></g></g></svg>