<svg xmlns="http://www.w3.org/2000/svg" width="330" height="263.042" viewBox="0 0 330 263.042"><g transform="translate(-32.442 -65.475)"><g transform="translate(32.442 156.122)"><path d="M80.77,335.663c64.436,33.663,168.909,33.664,233.344,0s64.437-88.24,0-121.9-168.909-33.663-233.345,0S16.333,302,80.77,335.663Z" transform="translate(-32.442 -188.515)" fill="#f5f5f5"/></g><g transform="translate(41.831 126.264)"><g transform="translate(0.001 47.514)"><g transform="translate(0 17.278)"><path d="M66.136,292.949,45.188,280.854V235.932l20.949,12.095Z" transform="translate(-45.187 -235.932)" fill="#e0e0e0"/></g><g transform="translate(20.949 12.095)"><path d="M73.622,246.174,103.548,228.9v44.923L73.622,291.1Z" transform="translate(-73.622 -228.896)" fill="#ebebeb"/></g><path d="M96.062,224.574,66.136,241.852,45.187,229.757,75.114,212.48Z" transform="translate(-45.187 -212.48)" fill="#f5f5f5"/><g transform="translate(23.941 17.278)"><path d="M77.684,249.754l23.941-13.822.55.318v16.64L78.234,266.711l-.55-.318Z" transform="translate(-77.684 -235.932)" fill="#e0e0e0"/><g transform="translate(0.55 0.318)"><path d="M78.432,250.186l23.941-13.822V253L78.431,266.825Z" transform="translate(-78.431 -236.363)" fill="#f5f5f5"/></g><g transform="translate(8.978 9.03)"><path d="M90.827,250.7l4.071-2.352c.529-.305.958-.165.958.312a1.914,1.914,0,0,1-.958,1.417l-4.071,2.35c-.529.305-.957.167-.957-.31A1.915,1.915,0,0,1,90.827,250.7Z" transform="translate(-89.87 -248.188)" fill="#e0e0e0"/></g></g><g transform="translate(23.39 38.332)"><path d="M76.937,278.332l23.941-13.822v16.64l.551.318L77.486,295.29l-.55-.319Z" transform="translate(-76.936 -264.51)" fill="#e0e0e0"/><g transform="translate(0.55 0.318)"><path d="M77.684,278.764l23.941-13.823v16.64L77.683,295.4Z" transform="translate(-77.683 -264.941)" fill="#f5f5f5"/></g><g transform="translate(8.979 9.03)"><path d="M90.08,279.279l4.071-2.351c.528-.3.957-.165.957.312a1.918,1.918,0,0,1-.957,1.417l-4.072,2.35c-.528.3-.957.166-.956-.311A1.917,1.917,0,0,1,90.08,279.279Z" transform="translate(-89.123 -276.767)" fill="#e0e0e0"/></g></g></g><g transform="translate(0 17.278)"><path d="M66.135,228.456,45.186,216.361V171.439l20.948,12.095Z" transform="translate(-45.186 -171.439)" fill="#e0e0e0"/></g><g transform="translate(20.948 12.095)"><path d="M73.621,181.681,103.547,164.4v44.923L73.621,226.6Z" transform="translate(-73.621 -164.403)" fill="#ebebeb"/></g><path d="M96.061,160.081,66.135,177.359,45.186,165.264l29.926-17.278Z" transform="translate(-45.186 -147.986)" fill="#f5f5f5"/><g transform="translate(23.94 17.278)"><path d="M77.683,185.26l23.941-13.822.55.318V188.4L78.233,202.218l-.551-.318Z" transform="translate(-77.682 -171.438)" fill="#e0e0e0"/><g transform="translate(8.978 9.03)"><path d="M90.826,186.207l4.071-2.35c.529-.306.957-.166.957.311a1.915,1.915,0,0,1-.957,1.417l-4.072,2.35c-.528.305-.956.166-.956-.311A1.918,1.918,0,0,1,90.826,186.207Z" transform="translate(-89.869 -183.695)" fill="#e0e0e0"/></g></g><g transform="translate(23.39 38.332)"><path d="M76.935,213.839l23.941-13.822v16.639l.55.318L77.485,230.8l-.551-.318Z" transform="translate(-76.935 -200.017)" fill="#e0e0e0"/><g transform="translate(0.551 0.318)"><path d="M77.683,214.271l23.941-13.822v16.639L77.682,230.91Z" transform="translate(-77.682 -200.449)" fill="#f5f5f5"/></g><g transform="translate(8.978 9.03)"><path d="M90.078,214.786l4.072-2.351c.528-.305.957-.166.957.312a1.915,1.915,0,0,1-.958,1.416l-4.071,2.351c-.529.3-.957.166-.957-.312A1.918,1.918,0,0,1,90.078,214.786Z" transform="translate(-89.121 -212.274)" fill="#e0e0e0"/></g></g><g transform="translate(23.94 17.277)"><path d="M77.682,185.26l23.941-13.822v16.639L77.682,201.9Z" transform="translate(-77.682 -171.438)" fill="#e0e0e0"/><g transform="translate(22.807 0.656)"><path d="M121.745,179.893l-13.1-7.564v14.659l13.1,7.564Z" transform="translate(-108.639 -172.329)" fill="#e0e0e0"/></g><g transform="translate(8.979 1.728)"><path d="M89.869,204.883V184.15l5.137-2.976.848,1.248,14.963-8.639v19.005Z" transform="translate(-89.869 -173.783)" fill="#ebebeb"/><g transform="translate(0 0.864)"><path d="M89.869,205.192l1.5-18.142,20.949-12.094-1.5,18.141Z" transform="translate(-89.869 -174.956)" fill="#f5f5f5"/></g></g><g transform="translate(0.549 15.449)"><path d="M89.849,199l-11.422-6.594v14.659l11.422,6.594Z" transform="translate(-78.427 -192.407)" fill="#ebebeb"/></g><g transform="translate(11.971 6.911)"><path d="M93.931,194.641l23.941-13.822v16.639L93.93,211.28Z" transform="translate(-93.93 -180.818)" fill="#f5f5f5"/></g><g transform="translate(20.398 15.623)"><path d="M106.326,195.156l4.072-2.351c.528-.305.957-.166.957.312a1.916,1.916,0,0,1-.958,1.416l-4.071,2.351c-.529.305-.957.166-.957-.312A1.919,1.919,0,0,1,106.326,195.156Z" transform="translate(-105.369 -192.644)" fill="#e0e0e0"/></g><g transform="translate(11.174 20.273)"><path d="M93.646,199.416l-.8-.46v16.639l.8.46Z" transform="translate(-92.848 -198.956)" fill="#e0e0e0"/></g><g transform="translate(11.174 6.451)"><path d="M92.848,194.016l23.941-13.822.8.46L93.646,194.476Z" transform="translate(-92.848 -180.194)" fill="#ebebeb"/></g></g><g transform="translate(247.451 20.295)"><g transform="translate(0 17.278)"><path d="M402.013,256l-20.949-12.094V198.985l20.949,12.095Z" transform="translate(-381.064 -198.985)" fill="#e0e0e0"/></g><g transform="translate(20.949 12.095)"><path d="M409.5,209.228l29.926-17.278v44.923L409.5,254.151Z" transform="translate(-409.499 -191.95)" fill="#ebebeb"/></g><path d="M431.939,187.628l-29.926,17.278-20.949-12.095,29.926-17.278Z" transform="translate(-381.064 -175.534)" fill="#f5f5f5"/><g transform="translate(23.941 17.278)"><path d="M413.561,212.808,437.5,198.985l.55.318v16.639l-23.941,13.822-.55-.318Z" transform="translate(-413.56 -198.985)" fill="#e0e0e0"/><g transform="translate(0.55 0.318)"><path d="M414.308,213.24l23.941-13.822v16.639l-23.941,13.822Z" transform="translate(-414.308 -199.417)" fill="#f5f5f5"/></g><g transform="translate(8.978 9.03)"><path d="M426.7,213.754l4.07-2.35c.529-.306.957-.166.957.311a1.915,1.915,0,0,1-.957,1.417l-4.071,2.351c-.529.305-.957.166-.957-.312A1.916,1.916,0,0,1,426.7,213.754Z" transform="translate(-425.747 -211.242)" fill="#e0e0e0"/></g></g><g transform="translate(23.39 38.332)"><path d="M412.814,241.386l23.941-13.822V244.2l.55.318-23.941,13.822-.55-.319Z" transform="translate(-412.813 -227.564)" fill="#e0e0e0"/><g transform="translate(0.55 0.318)"><path d="M413.561,241.818,437.5,228v16.639L413.56,258.457Z" transform="translate(-413.56 -227.996)" fill="#f5f5f5"/></g><g transform="translate(8.977 9.03)"><path d="M425.957,242.333l4.071-2.351c.528-.305.957-.166.957.312a1.919,1.919,0,0,1-.957,1.417l-4.072,2.35c-.529.305-.957.166-.957-.311A1.918,1.918,0,0,1,425.957,242.333Z" transform="translate(-424.999 -239.821)" fill="#e0e0e0"/></g></g></g></g><g transform="translate(85.464 218.432)"><g transform="translate(0 12.416)"><g transform="translate(9.642)"><path d="M133.307,326.906s.087-11.685-7.28-20.445c-6.526-7.759-9.994-12.681-7.934-14.948s6.469-2.814,12.432,3.457,6.424,23.664,5.6,27.6Z" transform="translate(-117.5 -289.944)" fill="#27debf"/><path d="M133.307,326.906s.087-11.685-7.28-20.445c-6.526-7.759-9.994-12.681-7.934-14.948s6.469-2.814,12.432,3.457,6.424,23.664,5.6,27.6Z" transform="translate(-117.5 -289.944)" opacity="0.2"/><path d="M135.886,314.994a.369.369,0,0,1-.36-.292c-2.579-12.061-9.2-18.729-12.916-21.63a.368.368,0,0,1,.453-.581c3.8,2.963,10.556,9.768,13.182,22.057a.369.369,0,0,1-.283.438A.394.394,0,0,1,135.886,314.994Z" transform="translate(-118.808 -290.594)" fill="#fff"/></g><g transform="translate(0 14.26)"><path d="M129.61,336.349l-2.993,1.728a5.421,5.421,0,0,0-4.041-3.455c-3.275-.768-6.682-.614-8.976-3.457s.5-5.933,0-8.027-.832-2.7-4.94-4.787-5.732-5.564-2.64-7.918,8.117-.625,11.142,1.44c2.7,1.844,5.262,2.33,8.271,2.7s7.921,2.053,7.169,9.049A55.189,55.189,0,0,1,129.61,336.349Z" transform="translate(-104.412 -309.299)" fill="#27debf"/><path d="M122.837,332.929a.368.368,0,0,1-.113-.719c.27-.086,6.647-2.1,9.34.063a.368.368,0,0,1-.461.574c-2.388-1.917-8.591.044-8.653.063A.358.358,0,0,1,122.837,332.929Z" transform="translate(-109.166 -315.085)" fill="#fff"/><path d="M131.526,336.671a.368.368,0,0,1-.366-.329c-1.641-15.515-20.33-22.875-20.519-22.948a.368.368,0,1,1,.264-.687c.193.074,19.3,7.593,20.987,23.558a.368.368,0,0,1-.327.405Z" transform="translate(-105.99 -310.19)" fill="#fff"/></g></g><g transform="translate(190.309)"><path d="M381.2,316.613c.085-.253,3.245-16.525,0-28.062-2.975-10.578-6.792-14.482-12.271-15.342s-7.858,3.085-4.948,8.431,9.912,12.449,11.633,24.4c.709,4.918,1.3,9.193,1.3,9.193Z" transform="translate(-362.727 -273.091)" fill="#27debf"/><path d="M381.2,316.613c.085-.253,3.245-16.525,0-28.062-2.975-10.578-6.792-14.482-12.271-15.342s-7.858,3.085-4.948,8.431,9.912,12.449,11.633,24.4c.709,4.918,1.3,9.193,1.3,9.193Z" transform="translate(-362.727 -273.091)" opacity="0.2"/><path d="M381.081,308.142h-.021a.367.367,0,0,1-.347-.388c.754-13.171-3.566-24.932-11.278-30.7a.369.369,0,0,1,.442-.59c7.906,5.909,12.34,17.914,11.571,31.328A.368.368,0,0,1,381.081,308.142Z" transform="translate(-364.454 -273.96)" fill="#fff"/><g transform="translate(15.244 7.012)"><path d="M395.129,327.594c-.423-3.024,1.319-7.568,5.45-8.64s5.976-3.449,4.484-6.044-1.14-4.971,2.612-6.051,7.036-2.962,4.873-6.91c-1.567-2.864-1.915-4.719,1.931-10.367,3.189-4.683.582-7.431-3.413-6.911s-6.457,5.269-8.951,6.071-3.077-3.453-6.371-1.552-3.09,6.773-3.194,10.168-.326,4.165-3.3,3.748-5.883.076-5.826,7.274c.048,6.177,3.346,13.823,3.346,13.823Z" transform="translate(-383.419 -282.609)" fill="#27debf"/><path d="M392.091,323.883l-.042,0a.369.369,0,0,1-.325-.407c2.075-18.562,18-34.214,22.157-37.39a.368.368,0,1,1,.447.586c-4.1,3.135-19.827,18.583-21.872,36.887A.369.369,0,0,1,392.091,323.883Z" transform="translate(-385.605 -283.504)" fill="#fff"/><path d="M401.949,309.733a.369.369,0,0,1-.129-.714c5.944-2.211,12.675-1.169,12.959-1.124a.368.368,0,0,1,.305.422.374.374,0,0,1-.421.306c-.067-.012-6.829-1.056-12.585,1.087A.378.378,0,0,1,401.949,309.733Z" transform="translate(-388.2 -289.191)" fill="#fff"/><path d="M393.066,321.832a.368.368,0,0,1-.276-.125,21.667,21.667,0,0,1-4.854-10.07.369.369,0,0,1,.729-.111,21.318,21.318,0,0,0,4.677,9.694.368.368,0,0,1-.276.612Z" transform="translate(-384.607 -290.14)" fill="#fff"/></g></g></g><g transform="translate(110.663 101.105)"><g transform="translate(0 0)"><path d="M138.615,170.855V284.89l116.713-67.383V113.838l-86.786,50.106-2.993-8.639Z" transform="translate(-138.615 -113.838)" fill="#27debf"/><path d="M138.615,170.855V284.89l116.713-67.383V113.838l-86.786,50.106-2.993-8.639Z" transform="translate(-138.615 -113.838)" opacity="0.7"/></g><path d="M138.615,284.889,144.6,181.222l116.712-67.384-5.984,103.668Z" transform="translate(-138.615 -113.838)" fill="#e0e0e0"/><g transform="translate(0 1.728)"><path d="M138.615,285.507l8.977-101.94L264.3,116.183l-8.977,101.94Z" transform="translate(-138.615 -116.183)" fill="#27debf"/><path d="M138.615,285.507l8.977-101.94L264.3,116.183l-8.977,101.94Z" transform="translate(-138.615 -116.183)" opacity="0.7"/></g></g><g transform="translate(128.619 111.472)"><g transform="translate(0 0)"><path d="M162.988,184.926V298.961L279.7,231.577V127.91l-86.786,50.106-2.993-8.639Z" transform="translate(-162.988 -127.91)" fill="#27debf"/><path d="M162.988,184.926V298.961L279.7,231.577V127.91l-86.786,50.106-2.993-8.639Z" transform="translate(-162.988 -127.91)" opacity="0.5"/></g><path d="M162.988,298.961l5.984-103.668,116.712-67.384L279.7,231.577Z" transform="translate(-162.988 -127.909)" fill="#e0e0e0"/><g transform="translate(0 1.728)"><path d="M162.988,299.578l8.977-101.94,116.712-67.384L279.7,232.195Z" transform="translate(-162.988 -130.254)" fill="#27debf"/><path d="M162.988,299.578l8.977-101.94,116.712-67.384L279.7,232.195Z" transform="translate(-162.988 -130.254)" opacity="0.5"/></g></g><g transform="translate(149.566 65.475)"><g transform="translate(0)"><g transform="translate(28.553 197.108)"><path d="M279.433,389.244C258.485,377.149,239.049,364,230.177,348.57l26.933-15.55Z" transform="translate(-230.177 -333.02)" fill="#e0e0e0"/></g><g transform="translate(0 58.092)"><path d="M191.421,201.343V315.378l116.713-67.384V144.326l-86.786,50.106-2.993-8.639Z" transform="translate(-191.421 -144.326)" fill="#27debf"/><path d="M191.421,201.343V315.378l116.713-67.384V144.326l-86.786,50.106-2.993-8.639Z" transform="translate(-191.421 -144.326)" opacity="0.2"/></g><g transform="translate(32.918)"><g transform="translate(0.368 0.368)"><path d="M236.94,214.431c-.294,0-.338-.339-.338-.542V116.624a2.455,2.455,0,0,1,1.092-1.891L321.929,66.1a.807.807,0,0,1,.385-.125c.295,0,.338.34.338.542v97.266a2.453,2.453,0,0,1-1.092,1.891l-84.235,48.633A.811.811,0,0,1,236.94,214.431Z" transform="translate(-236.602 -65.975)" fill="#fff"/></g><path d="M322.134,66.22a.645.645,0,0,1,.018.166v97.266a2.106,2.106,0,0,1-.908,1.572L237.01,213.856a.1.1,0,1,1-.171-.1V116.492a2.1,2.1,0,0,1,.908-1.572l84.235-48.632a.643.643,0,0,1,.152-.068m.049-.745a1.161,1.161,0,0,0-.569.174l-84.235,48.633a2.821,2.821,0,0,0-1.276,2.21v97.265c0,.577.288.911.707.911a1.156,1.156,0,0,0,.569-.174l84.235-48.632a2.82,2.82,0,0,0,1.276-2.21V66.386c0-.577-.287-.911-.707-.911Z" transform="translate(-236.102 -65.475)" fill="#27debf"/><path d="M322.134,66.22a.645.645,0,0,1,.018.166v97.266a2.106,2.106,0,0,1-.908,1.572L237.01,213.856a.1.1,0,1,1-.171-.1V116.492a2.1,2.1,0,0,1,.908-1.572l84.235-48.632a.643.643,0,0,1,.152-.068m.049-.745a1.161,1.161,0,0,0-.569.174l-84.235,48.633a2.821,2.821,0,0,0-1.276,2.21v97.265c0,.577.288.911.707.911a1.156,1.156,0,0,0,.569-.174l84.235-48.632a2.82,2.82,0,0,0,1.276-2.21V66.386c0-.577-.287-.911-.707-.911Z" transform="translate(-236.102 -65.475)" fill="#fff" opacity="0.7"/><g transform="translate(8.979 37.449)"><path d="M248.289,133.584l29.926-17.278v34.556L248.289,168.14Z" transform="translate(-248.289 -116.306)" fill="#27debf"/><path d="M248.289,133.584l29.926-17.278v34.556L248.289,168.14Z" transform="translate(-248.289 -116.306)" fill="#fff" opacity="0.8"/><g transform="translate(4.489 8.639)"><path d="M275.33,128.032V138.4l-.937.524v-3.177c0-1.753-1.429-2.351-3.19-1.334l-12.694,7.329a6.6,6.6,0,0,0-3.19,5.017v3.176l-.937.559V140.127Z" transform="translate(-254.382 -128.032)" fill="#fff"/><g transform="translate(2.993 7.715)"><path d="M270.627,157.21c-1.535.887-2.78-.044-2.78-2.078V138.5L264,140.6v16.755a6.632,6.632,0,0,1-2.779,5.289l-2.78,1.6v1.1l14.964-8.639v-1.1Z" transform="translate(-258.444 -138.504)" fill="#fff"/></g></g></g><g transform="translate(44.89 15.769)"><path d="M297.033,106.831c0,.954.858,1.233,1.915.623l29.091-16.8a3.831,3.831,0,0,0,1.914-2.833c0-.954-.857-1.233-1.914-.623L298.948,104A3.83,3.83,0,0,0,297.033,106.831Z" transform="translate(-297.033 -86.879)" fill="#455a64"/><g transform="translate(0 10.367)"><path d="M297.033,120.9c0,.955.858,1.233,1.915.623l29.091-16.8a3.834,3.834,0,0,0,1.914-2.833c0-.954-.857-1.233-1.914-.623l-29.091,16.8A3.832,3.832,0,0,0,297.033,120.9Z" transform="translate(-297.033 -100.951)" fill="#455a64"/></g><g transform="translate(0 20.734)"><path d="M297.033,134.974c0,.954.858,1.233,1.915.623l29.091-16.8a3.833,3.833,0,0,0,1.914-2.833c0-.954-.857-1.233-1.914-.623l-29.091,16.8A3.833,3.833,0,0,0,297.033,134.974Z" transform="translate(-297.033 -115.022)" fill="#455a64"/></g><g transform="translate(0 31.1)"><path d="M297.033,149.045c0,.954.858,1.233,1.915.623l29.091-16.8a3.831,3.831,0,0,0,1.914-2.833c0-.953-.857-1.233-1.914-.623l-29.091,16.8A3.83,3.83,0,0,0,297.033,149.045Z" transform="translate(-297.033 -129.093)" fill="#455a64"/></g></g><g transform="translate(8.979 57.236)"><path d="M248.289,183.854c0,.954.858,1.233,1.914.623l65-37.532a3.833,3.833,0,0,0,1.914-2.833c0-.954-.857-1.233-1.914-.623l-65,37.532A3.833,3.833,0,0,0,248.289,183.854Z" transform="translate(-248.289 -143.165)" fill="#455a64"/><g transform="translate(0 10.367)"><path d="M248.289,197.925c0,.954.858,1.233,1.914.623l65-37.532a3.831,3.831,0,0,0,1.914-2.833c0-.954-.857-1.233-1.914-.623l-65,37.532A3.833,3.833,0,0,0,248.289,197.925Z" transform="translate(-248.289 -157.236)" fill="#455a64"/></g><g transform="translate(0 20.734)"><path d="M248.289,212c0,.954.858,1.233,1.914.623l65-37.531a3.834,3.834,0,0,0,1.914-2.833c0-.955-.857-1.233-1.914-.623l-65,37.532A3.831,3.831,0,0,0,248.289,212Z" transform="translate(-248.289 -171.307)" fill="#455a64"/></g></g></g><g transform="translate(0.001 70.187)"><path d="M191.422,319.7l20.948-91.573,116.712-67.384-20.948,91.573Z" transform="translate(-191.422 -160.743)" fill="#27debf"/><g transform="translate(28.552 59.006)"><path d="M230.177,256.385V324.3l26.934-15.551V240.835Z" transform="translate(-230.177 -240.835)" fill="#27debf"/><path d="M230.177,256.385V324.3l26.934-15.551V240.835Z" transform="translate(-230.177 -240.835)" opacity="0.2"/></g></g><g transform="translate(29.926 96.103)"><g transform="translate(0.369 0.638)"><path d="M280.08,352.938c-2.288-1.7-24.375-18.588-35.6-42.7-11.952-25.667-11.941-55.6-11.937-66.874v-.351l80.065-46.225c0,11.372.011,41.352,12.006,67.11,10.966,23.553,32.208,40.243,35.577,42.792Z" transform="translate(-232.541 -196.787)" fill="#fff"/></g><path d="M312.106,197.2c0,11.845.23,41.265,12.04,66.628,10.6,22.761,30.756,39.132,35.247,42.593l-79.419,45.853c-3.1-2.34-24.361-18.936-35.295-42.418-11.917-25.593-11.906-55.471-11.9-66.718V243l79.328-45.8m.737-1.276-80.8,46.65c0,10.6-.223,41.4,11.971,67.594,11.97,25.708,35.912,42.986,35.912,42.986l80.8-46.65s-23.941-17.279-35.912-42.987c-12.2-26.19-11.971-56.994-11.971-67.593Z" transform="translate(-232.041 -195.921)" fill="#27debf"/><path d="M312.106,197.2c0,11.845.23,41.265,12.04,66.628,10.6,22.761,30.756,39.132,35.247,42.593l-79.419,45.853c-3.1-2.34-24.361-18.936-35.295-42.418-11.917-25.593-11.906-55.471-11.9-66.718V243l79.328-45.8m.737-1.276-80.8,46.65c0,10.6-.223,41.4,11.971,67.594,11.97,25.708,35.912,42.986,35.912,42.986l80.8-46.65s-23.941-17.279-35.912-42.987c-12.2-26.19-11.971-56.994-11.971-67.593Z" transform="translate(-232.041 -195.921)" fill="#fff" opacity="0.7"/><g transform="translate(15.741 15.312)"><g transform="translate(28.512)"><path d="M319.519,217.034l-25.553,14.754a3.634,3.634,0,0,0-1.857,2.8c.036.933.928,1.2,1.986.586l25.553-14.755a3.616,3.616,0,0,0,1.843-2.8C321.456,216.687,320.576,216.424,319.519,217.034Z" transform="translate(-292.108 -216.705)" fill="#455a64"/></g><g transform="translate(29.129 10.046)"><path d="M320.284,230.677l-25.554,14.754a3.4,3.4,0,0,0-1.779,2.752c.079.908,1.006,1.149,2.064.539l25.554-14.754a3.377,3.377,0,0,0,1.764-2.75C322.254,230.31,321.34,230.067,320.284,230.677Z" transform="translate(-292.945 -230.341)" fill="#455a64"/></g><g transform="translate(30.226 19.814)"><path d="M321.7,243.946,296.142,258.7a3.149,3.149,0,0,0-1.7,2.7c.126.882,1.093,1.1,2.149.491l25.555-14.754a3.132,3.132,0,0,0,1.679-2.7C323.7,243.556,322.753,243.335,321.7,243.946Z" transform="translate(-294.434 -243.6)" fill="#455a64"/></g><g transform="translate(31.832 29.288)"><path d="M323.8,256.813l-25.554,14.753a2.918,2.918,0,0,0-1.608,2.653c.174.855,1.18,1.05,2.237.44l25.554-14.754a2.893,2.893,0,0,0,1.591-2.649C325.849,256.4,324.859,256.2,323.8,256.813Z" transform="translate(-296.614 -256.459)" fill="#455a64"/></g><g transform="translate(33.988 38.444)"><path d="M326.65,269.252,301.1,284.006a2.678,2.678,0,0,0-1.513,2.6c.225.824,1.275.995,2.332.384l25.553-14.754a2.653,2.653,0,0,0,1.5-2.594C328.739,268.816,327.707,268.642,326.65,269.252Z" transform="translate(-299.54 -268.888)" fill="#455a64"/></g><g transform="translate(0 47.264)"><path d="M317.164,281.235l-62.282,35.958c-1.056.611-1.694,1.749-1.407,2.538s1.384.931,2.44.321L318.2,284.095a2.408,2.408,0,0,0,1.387-2.531C319.3,280.774,318.221,280.625,317.164,281.235Z" transform="translate(-253.407 -280.859)" fill="#455a64"/></g><g transform="translate(3.406 55.685)"><path d="M321.7,292.679l-62.282,35.959c-1.057.61-1.637,1.717-1.287,2.47s1.495.866,2.552.256l62.282-35.958c1.057-.611,1.625-1.713,1.276-2.465S322.758,292.069,321.7,292.679Z" transform="translate(-258.03 -292.289)" fill="#455a64"/></g><g transform="translate(7.548 63.709)"><path d="M327.243,303.588l-62.282,35.958c-1.057.61-1.584,1.688-1.165,2.4s1.626.789,2.683.179l62.281-35.959c1.058-.61,1.564-1.676,1.146-2.389S328.3,302.977,327.243,303.588Z" transform="translate(-263.652 -303.181)" fill="#455a64"/></g><g transform="translate(12.414 71.291)"><path d="M333.776,313.895l-62.282,35.958c-1.056.611-1.531,1.659-1.048,2.335s1.738.723,2.8.113l62.282-35.959c1.056-.61,1.515-1.647,1.033-2.322S334.833,313.284,333.776,313.895Z" transform="translate(-270.256 -313.472)" fill="#455a64"/></g><g transform="translate(17.907 78.503)"><path d="M341.174,323.7l-62.282,35.959c-1.056.61-1.485,1.633-.947,2.276s1.837.665,2.9.054l62.282-35.958c1.057-.611,1.471-1.622.933-2.265A2.4,2.4,0,0,0,341.174,323.7Z" transform="translate(-277.712 -323.261)" fill="#455a64"/></g><g transform="translate(23.977 85.375)"><path d="M349.363,333.041,287.082,369c-1.057.61-1.443,1.608-.853,2.222a2.633,2.633,0,0,0,2.987,0L351.5,335.266c1.056-.611,1.43-1.6.841-2.211A2.611,2.611,0,0,0,349.363,333.041Z" transform="translate(-285.953 -332.589)" fill="#455a64"/></g><g transform="translate(30.608 91.933)"><path d="M358.317,341.959l-62.282,35.958c-1.057.61-1.4,1.585-.761,2.17a2.856,2.856,0,0,0,3.078-.053l62.282-35.958c1.057-.61,1.389-1.573.749-2.158A2.832,2.832,0,0,0,358.317,341.959Z" transform="translate(-294.952 -341.491)" fill="#455a64"/></g></g><g transform="translate(7.469 35.742)"><path d="M271.56,244.435,242.178,261.4c.327,10.641,1.541,26,5.994,41.462L277.554,285.9C273.1,270.436,271.887,255.077,271.56,244.435Z" transform="translate(-242.178 -244.435)" fill="#27debf"/><path d="M271.56,244.435,242.178,261.4c.327,10.641,1.541,26,5.994,41.462L277.554,285.9C273.1,270.436,271.887,255.077,271.56,244.435Z" transform="translate(-242.178 -244.435)" fill="#fff" opacity="0.8"/><g transform="translate(0 10.874)"><path d="M254.162,262.927a4.869,4.869,0,0,0-1.436-3.732l-10.548,6.09c.086,2.811.238,5.96.491,9.345a6.893,6.893,0,0,0,3.991-.7C250.8,271.994,254.162,267.07,254.162,262.927Z" transform="translate(-242.178 -259.195)" fill="#27debf"/><path d="M254.162,262.927a4.869,4.869,0,0,0-1.436-3.732l-10.548,6.09c.086,2.811.238,5.96.491,9.345a6.893,6.893,0,0,0,3.991-.7C250.8,271.994,254.162,267.07,254.162,262.927Z" transform="translate(-242.178 -259.195)" fill="#fff" opacity="0.6"/></g><g transform="translate(11.274 17.48)"><path d="M279.091,281.978h0c-1.96-2.472-5.945-10.095-7.648-13.417a.738.738,0,0,0-1.361.125,80.838,80.838,0,0,0-3.188,19.341,28.049,28.049,0,0,1-6.237-6.942.65.65,0,0,0-1.17.2,72.271,72.271,0,0,0-1.6,24.539h0l23.7-13.683C280.6,288.732,279.784,285.33,279.091,281.978Z" transform="translate(-257.481 -268.161)" fill="#27debf"/><path d="M279.091,281.978h0c-1.96-2.472-5.945-10.095-7.648-13.417a.738.738,0,0,0-1.361.125,80.838,80.838,0,0,0-3.188,19.341,28.049,28.049,0,0,1-6.237-6.942.65.65,0,0,0-1.17.2,72.271,72.271,0,0,0-1.6,24.539h0l23.7-13.683C280.6,288.732,279.784,285.33,279.091,281.978Z" transform="translate(-257.481 -268.161)" fill="#fff" opacity="0.6"/></g></g></g></g></g></g></svg>