<svg xmlns="http://www.w3.org/2000/svg" width="330" height="320.097" viewBox="0 0 330 320.097"><g transform="translate(-15.952 -31.19)"><g transform="translate(15.952 160.68)"><ellipse cx="165" cy="95.304" rx="165" ry="95.304" fill="#f5f5f5"/></g><g transform="translate(41.621 193.232)"><ellipse cx="28.912" cy="16.692" rx="28.912" ry="16.692" transform="translate(202.584 20.495)" fill="#e0e0e0"/><path d="M229.35,409.549l80.3-46.363c1.76-1.016,1.76-2.663,0-3.679L140.358,261.8a7.043,7.043,0,0,0-6.372,0l-80.3,46.363c-1.76,1.016-1.76,2.663,0,3.679l169.3,97.7A7.043,7.043,0,0,0,229.35,409.549Z" transform="translate(-52.363 -261.042)" fill="#e0e0e0"/></g><g transform="translate(24.89 179.008)"><g transform="translate(254.924 48.358)"><path d="M394.74,355.848l-4.508-3.886s.178-13.883,4.241-25.056C400.187,311.2,412.31,307.757,416,310.147s3.7,7.376-5.36,15.331C405.3,330.172,397.532,340.782,394.74,355.848Z" transform="translate(-390.232 -309.46)" fill="#27debf"/><g opacity="0.15"><path d="M394.74,355.848l-4.508-3.886s.178-13.883,4.241-25.056C400.187,311.2,412.31,307.757,416,310.147s3.7,7.376-5.36,15.331C405.3,330.172,397.532,340.782,394.74,355.848Z" transform="translate(-390.232 -309.46)"/></g><g transform="translate(3.626 2.196)"><path d="M395.672,349.973a.406.406,0,0,0,.051.006.368.368,0,0,0,.388-.348c.857-15.581,10.2-31.016,18.355-36.381a.368.368,0,1,0-.405-.615c-8.308,5.462-17.816,21.145-18.685,36.955A.368.368,0,0,0,395.672,349.973Z" transform="translate(-395.375 -312.575)" fill="#fff"/></g><g transform="translate(3.175 15.495)"><path d="M409.354,373.2c.712.616,2.56-.068,3.275-.369a7.8,7.8,0,0,0,3.113-2.425,7.3,7.3,0,0,0,1.476-4.182,17.234,17.234,0,0,0-.1-2.4q-.1-1.173-.206-2.347a5.74,5.74,0,0,1,.111-2.3c.49-1.482,2.047-2.284,3.452-2.964,1.554-.752,3.227-1.817,3.576-3.648a6.563,6.563,0,0,0-.866-4.145c-.659-1.278-1.507-2.46-2.07-3.783a4.582,4.582,0,0,1-.367-3.023,4.774,4.774,0,0,1,.965-1.655,25.7,25.7,0,0,0,2.638-3.184,3.652,3.652,0,0,0,.121-3.908,4.268,4.268,0,0,0-3-1.4,7.369,7.369,0,0,0-3.129.46c-3.22,1.05-5.548,4.168-8.872,4.811a31.606,31.606,0,0,1-3.908.185,4.687,4.687,0,0,0-3.487,1.508c-1.572,2.04-.014,5.234-1.277,7.478-1.117,1.987-3.339,2.4-4.87,4.085a4.63,4.63,0,0,0-1.083,2.673,13.594,13.594,0,0,0,.257,4.925,34.056,34.056,0,0,0,1.755,4.733C396.9,362.39,409.245,373.11,409.354,373.2Z" transform="translate(-394.736 -331.439)" fill="#27debf"/><g transform="translate(6.938 2.125)"><path d="M404.876,368.1h.01a.37.37,0,0,0,.425-.308c2.2-14.477,12.052-29.014,17.869-32.662a.369.369,0,0,0-.391-.625c-5.935,3.722-15.976,18.5-18.206,33.176A.368.368,0,0,0,404.876,368.1Z" transform="translate(-404.578 -334.454)" fill="#fff"/></g><g transform="translate(12.394 18.325)"><path d="M412.614,358.334a.336.336,0,0,0,.11,0,49.511,49.511,0,0,1,10.748.349.369.369,0,0,0,.42-.309.358.358,0,0,0-.309-.42,50.355,50.355,0,0,0-10.939-.353.369.369,0,0,0-.031.728Z" transform="translate(-412.316 -357.432)" fill="#fff"/></g></g></g><g transform="translate(0)"><g transform="translate(6.035)"><path d="M56.5,297.21l6.295-3.634s1.542-13.481.516-23.92c-1.442-14.67-10.915-32.321-22.218-28.176s5.182,19.085,8.851,31.528S56.5,297.21,56.5,297.21Z" transform="translate(-37.19 -240.865)" fill="#27debf"/><path d="M56.5,297.21l6.295-3.634s1.542-13.481.516-23.92c-1.442-14.67-10.915-32.321-22.218-28.176s5.182,19.085,8.851,31.528S56.5,297.21,56.5,297.21Z" transform="translate(-37.19 -240.865)" opacity="0.15"/><path d="M62.671,297.61h-.013a.381.381,0,0,1-.368-.394c1.105-32.6-15.121-48.993-15.285-49.154a.381.381,0,1,1,.535-.543c.166.164,16.628,16.8,15.512,49.723A.381.381,0,0,1,62.671,297.61Z" transform="translate(-40.052 -242.796)" fill="#fff"/></g><g transform="translate(0 19.451)"><path d="M50.614,307.951l4.479-2.587a49.421,49.421,0,0,0-3.774-20.488c-3.948-9.782-13.744-17.9-18.672-16.193s-4.8,5.2-2.4,8.864S47.262,289.949,50.614,307.951Z" transform="translate(-28.63 -268.456)" fill="#27debf"/><path d="M54.8,308.122h0a.381.381,0,0,1-.379-.383c.089-20.609-19.263-34.539-19.458-34.677a.381.381,0,1,1,.441-.622c.2.141,19.871,14.3,19.78,35.3A.381.381,0,0,1,54.8,308.122Z" transform="translate(-30.449 -269.61)" fill="#fff"/></g></g></g><g transform="translate(44.69 180.02)"><g transform="translate(1.602)"><path d="M311.161,338.667a.963.963,0,0,0-.118-.2,1.334,1.334,0,0,0-.1-.126.905.905,0,0,0-.118-.142c-.039-.039-.087-.086-.134-.125a3.118,3.118,0,0,0-.487-.346L146.04,242.951a6.03,6.03,0,0,0-5.442,0L60.113,289.417a3.707,3.707,0,0,0-.322.2,1.33,1.33,0,0,0-.11.087,2.081,2.081,0,0,0-.456.511.727.727,0,0,0-.078.133.793.793,0,0,0-.087.212,1.257,1.257,0,0,0-.039.166,1.105,1.105,0,0,0-.032.275,1.565,1.565,0,0,0,.016.189,2,2,0,0,0,.055.212,1.52,1.52,0,0,0,.087.2,2.371,2.371,0,0,0,.967.943l164.162,94.781a4.992,4.992,0,0,0,1.62.551,7.257,7.257,0,0,0,1.1.094,7.159,7.159,0,0,0,1.093-.086,2.292,2.292,0,0,0,.354-.071,4.954,4.954,0,0,0,.983-.33c.1-.047.2-.1.291-.157L310.2,340.869C311.232,340.271,311.554,339.421,311.161,338.667ZM293.483,335.3l-5.15,2.973-68.572,39.562a5.2,5.2,0,0,1-.55.276,4.654,4.654,0,0,1-3.531,0,5.4,5.4,0,0,1-.558-.276l-130.2-75.168-6.3-3.634a2.436,2.436,0,0,1-.59-.463c-.652-.716-.448-1.629.59-2.233l73.69-42.542a4.688,4.688,0,0,1,2.863-.795,2.882,2.882,0,0,1,.7.189,2.515,2.515,0,0,1,.362.173L293.483,332.6A1.557,1.557,0,0,1,293.483,335.3Z" transform="translate(-58.989 -242.302)" fill="#455a64"/></g><g transform="translate(0 47.322)"><path d="M59.124,309.427a6.09,6.09,0,0,0-2.408,4.508v3.6a6,6,0,0,0,2.721,4.721l164.15,94.772a5.152,5.152,0,0,0,2,.609,6.509,6.509,0,0,0,.728.047.007.007,0,0,1,.009,0v-9.889l0-.006a7.424,7.424,0,0,1-1.1-.09,4.956,4.956,0,0,1-1.624-.556L59.44,312.356C58.058,311.557,57.946,310.295,59.124,309.427Z" transform="translate(-56.716 -309.427)" fill="#37474f"/></g><path d="M350.236,405.889a10.926,10.926,0,0,0-9.712,0,3.9,3.9,0,0,0-1.454,1.329c-.873,1.51.723,2.65,1.454,3.075a10.926,10.926,0,0,0,9.712,0,4.029,4.029,0,0,0,1.454-1.329C352.564,407.454,350.959,406.314,350.236,405.889Z" transform="translate(-139.94 -290.227)" fill="#27debf"/><g transform="translate(42.525 23.789)"><path d="M125.665,281.444a.81.81,0,0,0,0-1.535,2.941,2.941,0,0,0-2.661,0,.811.811,0,0,0,0,1.536A2.939,2.939,0,0,0,125.665,281.444Z" transform="translate(-118.634 -277.091)" fill="#263238"/><path d="M119.885,291.854a.719.719,0,0,0,0-1.363,2.608,2.608,0,0,0-2.36,0,.719.719,0,0,0,0,1.363A2.608,2.608,0,0,0,119.885,291.854Z" transform="translate(-117.036 -280.224)" fill="#263238"/><path d="M125.48,285.422l13.214-7.629c.724-.418.761-1.075.081-1.467a2.811,2.811,0,0,0-2.541.047L123.02,284c-.724.418-.76,1.074-.081,1.466A2.811,2.811,0,0,0,125.48,285.422Z" transform="translate(-118.634 -276.045)" fill="#263238"/></g><g transform="translate(169.606 95.669)"><path d="M380.864,378.005c1.127.876,1.005,2.113-.358,2.9L300.02,427.374a5.552,5.552,0,0,1-2.723.646v9.889a5.517,5.517,0,0,0,2.714-.658L380.5,390.795a6.012,6.012,0,0,0,2.723-4.716l.011-3.6A6.1,6.1,0,0,0,380.864,378.005Z" transform="translate(-297.297 -378.005)" fill="#263238"/></g><g transform="translate(5.605 55.865)"><g transform="translate(14.824 8.559)"><path d="M106.382,344.454a3.017,3.017,0,0,1,1.407,2.336.875.875,0,0,1-.388.821c-.169.094-.809.476-.986.574a1.033,1.033,0,0,1-1.014-.116L87.1,337.5a3.016,3.016,0,0,1-1.407-2.336.893.893,0,0,1,.356-.8c.173-.11.84-.494,1.015-.592a1.032,1.032,0,0,1,1.017.115Z" transform="translate(-85.693 -333.685)" fill="#263238"/><path d="M105.4,345.259,87.1,334.692c-.777-.448-1.407-.13-1.407.712A3.017,3.017,0,0,0,87.1,337.74l18.3,10.567c.777.448,1.406.13,1.406-.712A3.015,3.015,0,0,0,105.4,345.259Z" transform="translate(-85.693 -333.922)" fill="#455a64"/></g><path d="M75.681,326.73a3.017,3.017,0,0,1,1.407,2.336.876.876,0,0,1-.388.821c-.169.094-.809.477-.986.574a1.033,1.033,0,0,1-1.015-.116l-8.628-4.981a3.016,3.016,0,0,1-1.406-2.336.892.892,0,0,1,.355-.8c.174-.11.84-.494,1.015-.592a1.033,1.033,0,0,1,1.017.115Z" transform="translate(-64.666 -321.545)" fill="#263238"/><path d="M74.7,327.533l-8.628-4.981c-.777-.448-1.406-.13-1.406.711a3.016,3.016,0,0,0,1.406,2.336l8.628,4.981c.778.448,1.407.13,1.407-.711A3.015,3.015,0,0,0,74.7,327.533Z" transform="translate(-64.666 -321.782)" fill="#455a64"/></g><g transform="translate(20.275 10.635)"><path d="M301.3,339.713l-5.15,2.973-68.572,39.562a5.06,5.06,0,0,1-.55.275,4.648,4.648,0,0,1-3.531,0,5.246,5.246,0,0,1-.558-.275l-130.2-75.168-6.3-3.633a2.454,2.454,0,0,1-.59-.464c-.652-.716-.448-1.628.59-2.233l73.69-42.542a4.691,4.691,0,0,1,2.863-.794,2.912,2.912,0,0,1,.7.188,2.521,2.521,0,0,1,.362.173L301.3,337.015A1.557,1.557,0,0,1,301.3,339.713Z" transform="translate(-85.475 -257.388)" fill="#27debf"/><path d="M301.3,339.713l-5.15,2.973-68.572,39.562a5.06,5.06,0,0,1-.55.275,4.648,4.648,0,0,1-3.531,0,5.246,5.246,0,0,1-.558-.275l-130.2-75.168-6.3-3.633a2.454,2.454,0,0,1-.59-.464c-.652-.716-.448-1.628.59-2.233l73.69-42.542a4.691,4.691,0,0,1,2.863-.794,2.912,2.912,0,0,1,.7.188,2.521,2.521,0,0,1,.362.173L301.3,337.015A1.557,1.557,0,0,1,301.3,339.713Z" transform="translate(-85.475 -257.388)" fill="#fff" opacity="0.8"/><g transform="translate(6.473 4.772)"><g transform="translate(7.973 33.183)"><path d="M108.046,314.238a.227.227,0,0,1-.106-.034l-.362-.209-.871.5a.14.14,0,0,1-.149,0l-.13-.075a.228.228,0,0,1-.06-.044.178.178,0,0,1-.028-.051l-.369-1.283a.087.087,0,0,1,0-.053c0-.013.019-.027.047-.042l.121-.07a.2.2,0,0,1,.109-.03.255.255,0,0,1,.113.037l1.264.73.192-.111a.191.191,0,0,1,.1-.03.253.253,0,0,1,.11.038l.086.049c.038.023.058.042.06.061s-.014.038-.051.059l-.192.111.362.209c.038.022.058.042.059.061s-.018.039-.056.062l-.147.084A.188.188,0,0,1,108.046,314.238Zm-.718-.454-.9-.52.269.885Z" transform="translate(-105.966 -311.705)" fill="#455a64"/><path d="M109.376,313.036a2.343,2.343,0,0,1-1.091-.334q-.539-.312-.576-.63t.428-.586a2.019,2.019,0,0,1,.394-.176,1.692,1.692,0,0,1,.4-.082.117.117,0,0,1,.066.01.07.07,0,0,1,.027.028l.08.137c.008.018.007.03,0,.036a.257.257,0,0,1-.051.011,1.5,1.5,0,0,0-.566.188q-.314.181-.288.4c.018.147.165.3.443.461a1.761,1.761,0,0,0,.8.259,1.216,1.216,0,0,0,.679-.157,1.26,1.26,0,0,0,.193-.135.467.467,0,0,0,.113-.133l-.588-.339-.363.209a.183.183,0,0,1-.1.029.251.251,0,0,1-.11-.038l-.082-.047q-.06-.035-.061-.061c0-.018.016-.037.053-.059l.58-.335a.206.206,0,0,1,.12-.03.3.3,0,0,1,.13.044l.838.484a.279.279,0,0,1,.063.046.044.044,0,0,1,.007.046c-.045.168-.214.336-.5.5A1.842,1.842,0,0,1,109.376,313.036Z" transform="translate(-106.479 -311.227)" fill="#455a64"/></g><g transform="translate(14.546 29.22)"><g transform="translate(2.313 1.336)"><path d="M119.791,307.62a.308.308,0,0,1,0,.584,1.12,1.12,0,0,1-1.011,0,.308.308,0,0,1,0-.584A1.12,1.12,0,0,1,119.791,307.62Z" transform="translate(-118.571 -307.499)" fill="#455a64"/></g><g transform="translate(1.142 0.66)"><path d="M117.463,306.859c-.51.294-.667.715-.472,1.086a.327.327,0,0,0,.3.113h0c.171-.012.285-.11.234-.205-.141-.262-.03-.559.329-.766a2.052,2.052,0,0,1,1.326-.19c.165.03.336-.036.356-.135h0c.016-.078-.067-.152-.2-.176A2.929,2.929,0,0,0,117.463,306.859Z" transform="translate(-116.91 -306.54)" fill="#455a64"/></g><path d="M116.175,306.116c-.757.437-1.028,1.05-.814,1.615a.306.306,0,0,0,.309.13h0c.166-.011.276-.1.239-.2-.179-.46.041-.962.66-1.319a3.789,3.789,0,0,1,2.287-.382c.163.021.322-.042.341-.137h0c.018-.085-.081-.161-.225-.179A4.646,4.646,0,0,0,116.175,306.116Z" transform="translate(-115.29 -305.605)" fill="#455a64"/></g><g transform="translate(30.229 17.215)"><path d="M137.647,295.637a.161.161,0,0,1-.085-.028.052.052,0,0,1-.025-.055l.154-.749a.533.533,0,0,1,.017-.054.09.09,0,0,1,.043-.047l.262-.15a.2.2,0,0,1,.18,0l2.161,1.248a.055.055,0,0,1,0,.1l-.271.156a.175.175,0,0,1-.09.021.183.183,0,0,1-.091-.02l-1.652-.955-.1.489a.069.069,0,0,1-.047.048.213.213,0,0,1-.1.016Z" transform="translate(-137.536 -290.334)" fill="#455a64"/><path d="M140.048,294.251a.154.154,0,0,1-.085-.028.053.053,0,0,1-.025-.055l.154-.749a.434.434,0,0,1,.017-.054.09.09,0,0,1,.044-.046l.26-.151a.179.179,0,0,1,.091-.021.175.175,0,0,1,.09.021l2.161,1.248a.055.055,0,0,1,0,.1l-.27.156a.183.183,0,0,1-.091.021.175.175,0,0,1-.09-.021l-1.653-.954-.1.489a.072.072,0,0,1-.047.048.218.218,0,0,1-.1.016Z" transform="translate(-138.244 -289.925)" fill="#455a64"/><path d="M142.967,292.809a.18.18,0,0,1,.09-.022.186.186,0,0,1,.09.021l.328.19a.062.062,0,0,1,.037.052.061.061,0,0,1-.037.052l-.311.18a.179.179,0,0,1-.091.021.178.178,0,0,1-.09-.021l-.328-.19a.061.061,0,0,1-.037-.052.063.063,0,0,1,.037-.052Zm1.171.676a.176.176,0,0,1,.09-.022.178.178,0,0,1,.09.021l.328.19a.062.062,0,0,1,.037.052.065.065,0,0,1-.037.052l-.311.18a.179.179,0,0,1-.091.021.175.175,0,0,1-.09-.021l-.329-.19a.06.06,0,0,1-.037-.052.063.063,0,0,1,.037-.052Z" transform="translate(-139.036 -289.819)" fill="#455a64"/><path d="M147.033,292.09a.2.2,0,0,1-.181,0l-.4-.234-1.038.6a.178.178,0,0,1-.09.022.181.181,0,0,1-.091-.021l-.238-.137a.135.135,0,0,1-.06-.06.7.7,0,0,1-.023-.073l-.255-1.329a.111.111,0,0,1,.054-.128l.254-.147a.2.2,0,0,1,.18,0l1.338.773.288-.166a.178.178,0,0,1,.09-.021.184.184,0,0,1,.09.021l.238.137a.062.062,0,0,1,.037.052.06.06,0,0,1-.037.051l-.288.167.4.233a.055.055,0,0,1,0,.1Zm-1-.475-.716-.414.143.744Z" transform="translate(-139.635 -289.162)" fill="#455a64"/><path d="M146.727,289.429a.06.06,0,0,1-.036-.052.059.059,0,0,1,.037-.052l1.257-.726a.183.183,0,0,1,.091-.021.177.177,0,0,1,.091.021l.238.137a.056.056,0,0,1,0,.105l-.94.542.391.269a.524.524,0,0,1,.135-.128c.055-.037.1-.066.139-.088a1.881,1.881,0,0,1,.4-.171,1.755,1.755,0,0,1,.427-.075,1.663,1.663,0,0,1,.427.034,1.35,1.35,0,0,1,.4.152.865.865,0,0,1,.3.252.346.346,0,0,1,.063.252.45.45,0,0,1-.135.245,1.343,1.343,0,0,1-.3.223,2.1,2.1,0,0,1-.449.2,1.763,1.763,0,0,1-.421.074,1.454,1.454,0,0,1-.374-.027,1.186,1.186,0,0,1-.311-.109c-.03-.013-.042-.031-.041-.051a.071.071,0,0,1,.04-.052l.271-.156a.185.185,0,0,1,.081-.023.276.276,0,0,1,.1.013.64.64,0,0,0,.189.036.786.786,0,0,0,.343-.065,1.535,1.535,0,0,0,.156-.079c.128-.074.2-.152.2-.238s-.047-.162-.166-.232a.664.664,0,0,0-.369-.077.909.909,0,0,0-.411.118.735.735,0,0,0-.144.1.331.331,0,0,0-.061.075.493.493,0,0,1-.032.058.161.161,0,0,1-.062.054l-.308.178a.175.175,0,0,1-.09.021.178.178,0,0,1-.09-.021Z" transform="translate(-140.237 -288.577)" fill="#455a64"/></g><g transform="translate(0 36.866)"><path d="M95.354,322.53l-.7-.4.93-.537.7.4Z" transform="translate(-94.657 -317.967)" fill="#455a64"/><path d="M97.041,321.219l-1.394-.805.93-.537,1.395.805Z" transform="translate(-94.949 -317.462)" fill="#455a64"/><path d="M98.728,319.909,96.636,318.7l.93-.537,2.092,1.208Z" transform="translate(-95.241 -316.956)" fill="#455a64"/><path d="M100.414,318.6l-2.789-1.61.93-.537,2.789,1.61Z" transform="translate(-95.532 -316.451)" fill="#455a64"/></g><g transform="translate(63.757)"><path d="M189.255,264.163a.98.98,0,0,0-.547.083l-3.478,2c-.226.13-.167.367.133.541l1.268.732a1.488,1.488,0,0,0,.613.178,1.369,1.369,0,0,0,.275,0,.714.714,0,0,0,.271-.08l3.478-2c.225-.13.166-.367-.133-.54l-1.268-.732A1.506,1.506,0,0,0,189.255,264.163Zm-2.044,3.407a.657.657,0,0,1-.262-.087l-1.268-.732c-.221-.128-.267-.317-.1-.412l3.478-2a.364.364,0,0,1,.142-.044.4.4,0,0,1,.087,0,.64.64,0,0,1,.262.087l1.268.732c.221.128.269.316.1.412l-3.478,2A.391.391,0,0,1,187.211,267.57Z" transform="translate(-185.093 -264.158)" fill="#455a64"/><g transform="translate(0.871 0.409)"><path d="M186.824,266.893l1.5.866-.547.314a.262.262,0,0,1-.185.016l-1.115-.644c-.16-.092-.195-.236-.078-.307Z" transform="translate(-186.329 -265.374)" fill="#455a64"/><path d="M187.395,266.532l.65-.378,1.5.866-.655.375Z" transform="translate(-186.643 -265.156)" fill="#455a64"/><path d="M188.682,265.792l.65-.378,1.5.868-.655.375Z" transform="translate(-187.023 -264.937)" fill="#455a64"/><path d="M190.718,264.751l1.081.624c.2.115.156.282-.111.436l-.22.126-1.5-.866.519-.3A.32.32,0,0,1,190.718,264.751Z" transform="translate(-187.403 -264.738)" fill="#455a64"/></g><g transform="translate(4.739 0.096)"><path d="M191.989,264.311a.922.922,0,0,1,.644.171l.235.136c.26.15.4.321.306.381l-.165.109-1.193-.694Z" transform="translate(-191.816 -264.293)" fill="#455a64"/></g></g><path d="M178.434,271.48l2.7-2.342,1.421,2.023-1.864-.508Z" transform="translate(-119.372 -265.627)" fill="#455a64"/></g></g><path d="M196.613,285.215l-61.55,35.536,61.551,35.635,61.55-35.636Z" transform="translate(-79.83 -254.962)" opacity="0.1"/><g transform="translate(140.898 71.416)"><path d="M256.576,375.04v.453a2.508,2.508,0,0,0,1.136,1.967l24.359,14.064a2.508,2.508,0,0,0,2.271,0l40.337-23.288a2.51,2.51,0,0,0,1.135-1.967v-.453a2.511,2.511,0,0,0-1.135-1.967L300.32,349.785a2.507,2.507,0,0,0-2.271,0l-40.337,23.288A2.508,2.508,0,0,0,256.576,375.04Z" transform="translate(-256.576 -345.347)" fill="#27debf"/><path d="M256.576,375.04v.453a2.508,2.508,0,0,0,1.136,1.967l24.359,14.064a2.508,2.508,0,0,0,2.271,0l40.337-23.288a2.51,2.51,0,0,0,1.135-1.967v-.453a2.511,2.511,0,0,0-1.135-1.967L300.32,349.785a2.507,2.507,0,0,0-2.271,0l-40.337,23.288A2.508,2.508,0,0,0,256.576,375.04Z" transform="translate(-256.576 -345.347)" fill="#27debf"/><path d="M335.823,363.848l-24.359-14.063a2.507,2.507,0,0,0-2.271,0l-14.843,8.569V391.8h0a2.321,2.321,0,0,0,1.136-.272l40.337-23.288a2.511,2.511,0,0,0,1.136-1.967v-.453A2.512,2.512,0,0,0,335.823,363.848Z" transform="translate(-267.72 -345.347)" fill="#fff" opacity="0.3"/><path d="M335.823,363.848l-24.359-14.063a2.507,2.507,0,0,0-2.271,0l-14.843,8.569V391.8h0a2.321,2.321,0,0,0,1.136-.272l40.337-23.288a2.511,2.511,0,0,0,1.136-1.967v-.453A2.512,2.512,0,0,0,335.823,363.848Z" transform="translate(-267.72 -345.347)" opacity="0.15"/><path d="M283.206,362.054l-25.494,14.719a2.508,2.508,0,0,0-1.136,1.966v.453a2.508,2.508,0,0,0,1.136,1.967l24.359,14.064a2.329,2.329,0,0,0,1.136.272h0Z" transform="translate(-256.576 -349.047)" fill="#fff" opacity="0.3"/><path d="M283.206,362.054l-25.494,14.719a2.508,2.508,0,0,0-1.136,1.966v.453a2.508,2.508,0,0,0,1.136,1.967l24.359,14.064a2.329,2.329,0,0,0,1.136.272h0Z" transform="translate(-256.576 -349.047)" opacity="0.2"/><path d="M278.449,386.2,257.99,374.385a.692.692,0,0,1,0-1.311l40.337-23.288a2.507,2.507,0,0,1,2.271,0l24.359,14.063a.692.692,0,0,1,0,1.311l-6.692,3.864-2.343,1.352-31.3,18.073a2.513,2.513,0,0,1-2.271,0l-1.984-1.146Z" transform="translate(-256.854 -345.347)" fill="#27debf"/><path d="M278.449,386.2,257.99,374.385a.692.692,0,0,1,0-1.311l40.337-23.288a2.507,2.507,0,0,1,2.271,0l24.359,14.063a.692.692,0,0,1,0,1.311l-6.692,3.864-2.343,1.352-31.3,18.073a2.513,2.513,0,0,1-2.271,0l-1.984-1.146Z" transform="translate(-256.854 -345.347)" fill="#fff" opacity="0.3"/><path d="M297.024,366.578l27.936-2.725-27.69,1.568,3.33-15.631a2.351,2.351,0,0,0-1.237-.26l-5.224,21.129-36.608,3.019a.76.76,0,0,0,.461.711l29.564-1.716-4.069,16.051,5.2-16.117h0l5.05-.293a2.737,2.737,0,0,0,1.666-.7h0v0a2.731,2.731,0,0,0,.852-1.466Z" transform="translate(-256.857 -345.351)" opacity="0.15"/><path d="M266.267,372.958l27.874-2.3,1-3.994.551-2.224,3.68-14.912a2.274,2.274,0,0,0-1.038.261l-20.169,11.644-20.168,11.644a.821.821,0,0,0-.461.6l5.591-.461Z" transform="translate(-256.858 -345.352)" fill="#fff" opacity="0.3"/><path d="M309.672,344.706a10.2,10.2,0,0,1,9.225,0c2.548,1.471,2.548,3.856,0,5.326a10.2,10.2,0,0,1-9.226,0C307.124,348.562,307.124,346.177,309.672,344.706Z" transform="translate(-271.676 -343.603)" fill="#f28f8f"/><g transform="translate(39.139 1.883)"><path d="M312.341,349.034a.333.333,0,0,1-.192-.066.127.127,0,0,1-.052-.129l.381-1.677c.011-.041.025-.09.043-.148a.286.286,0,0,1,.14-.152l.933-.539a.469.469,0,0,1,.413,0l4.94,2.852a.127.127,0,0,1,0,.239l-1,.577a.463.463,0,0,1-.413,0l-3.342-1.93-.221.923a.171.171,0,0,1-.111.113.449.449,0,0,1-.219.033Z" transform="translate(-312.094 -346.275)" fill="#fafafa"/></g></g></g><g transform="translate(99.924 129.428)"><g transform="translate(1.223 59.562)"><path d="M136.8,289.855l60.328-34.83,60.328,34.83-60.328,34.83Z" transform="translate(-136.798 -255.025)"/></g><path d="M196.613,230.1V170.538l-61.55,35.536,51.5,29.831Z" transform="translate(-135.063 -170.538)" fill="#37474f"/><g transform="translate(61.55)"><path d="M222.37,170.538V230.1l10.057,5.8,51.495-29.83Z" transform="translate(-222.37 -170.538)" fill="#263238"/></g><g transform="translate(0 35.536)"><g transform="translate(0 0)"><path d="M135.063,220.946V279.1l61.55,35.536v-58.05Z" transform="translate(-135.063 -220.946)" fill="#27debf"/></g><g transform="translate(0 0)" opacity="0.38"><path d="M135.063,220.946V279.1l61.55,35.536v-58.05Z" transform="translate(-135.063 -220.946)"/></g><g transform="translate(61.55)"><path d="M222.37,256.581v58.05L283.92,279.1v-58.15Z" transform="translate(-222.37 -220.945)" fill="#27debf"/><g opacity="0.23"><path d="M222.37,256.581v58.05L283.92,279.1v-58.15Z" transform="translate(-222.37 -220.945)"/></g><path d="M222.371,271.494l1.214,55.832,44.7-24.292-45.917,26.51Z" transform="translate(-222.37 -235.858)" fill="#fff" opacity="0.7"/></g><g transform="translate(76.784 68.405)"><g transform="translate(0 1.73)"><g transform="translate(0.962 0.282)"><path d="M245.672,328.849a.328.328,0,0,1-.329-.329v-7.361a.329.329,0,1,1,.657,0v7.361A.328.328,0,0,1,245.672,328.849Z" transform="translate(-245.343 -320.83)" fill="#f0f0f0"/></g><path d="M244.307,323.59a.34.34,0,0,1-.13-.027.329.329,0,0,1-.171-.432l1.17-2.7,1.3,1.507a.329.329,0,1,1-.5.431l-.62-.716-.754,1.741A.33.33,0,0,1,244.307,323.59Z" transform="translate(-243.979 -320.43)" fill="#f0f0f0"/></g><g transform="translate(3.039)"><g transform="translate(0.961 0.281)"><path d="M249.981,326.392a.328.328,0,0,1-.328-.329V318.7a.328.328,0,1,1,.656,0v7.36A.328.328,0,0,1,249.981,326.392Z" transform="translate(-249.653 -318.375)" fill="#f0f0f0"/></g><path d="M248.618,321.134a.342.342,0,0,1-.13-.027.329.329,0,0,1-.171-.433l1.169-2.7,1.3,1.5a.329.329,0,0,1-.5.431l-.62-.716-.754,1.742A.331.331,0,0,1,248.618,321.134Z" transform="translate(-248.29 -317.976)" fill="#f0f0f0"/></g></g><g transform="translate(65.856 71.952)"><g transform="translate(2.707 5.178)"><path d="M233.07,336.654a.723.723,0,0,1-.359-.092.865.865,0,0,1-.393-.79v-.9a.329.329,0,1,1,.657,0v.9c0,.135.037.2.063.219s.1.01.215-.056a1.927,1.927,0,0,0,.611-1.485v-3.768a.329.329,0,1,1,.657,0v3.768a2.5,2.5,0,0,1-.935,2.052A1.026,1.026,0,0,1,233.07,336.654Z" transform="translate(-232.318 -330.352)" fill="#f0f0f0"/></g><path d="M228.478,331.451v-.569a9.3,9.3,0,0,1,4.2-7.278,2.781,2.781,0,0,1,4.531,2.616v.19Zm6.168-7.787a3.352,3.352,0,0,0-1.638.509,8.679,8.679,0,0,0-3.841,6.122l7.383-4.263a2.433,2.433,0,0,0-1.015-2.142A1.761,1.761,0,0,0,234.646,323.665Z" transform="translate(-228.478 -323.007)" fill="#f0f0f0"/></g></g><path d="M196.613,170.538l-61.55,35.536,61.551,35.635,61.55-35.636Z" transform="translate(-135.063 -170.538)" fill="#27debf"/><path d="M196.613,170.538l-61.55,35.536,61.551,35.635,61.55-35.636Z" transform="translate(-135.063 -170.538)" opacity="0.1"/><path d="M135.063,220.946l61.551,33.432,61.55-33.432-61.55,35.636Z" transform="translate(-135.063 -185.409)" fill="#fff" opacity="0.7"/><path d="M171.289,197.733l61.6,35.565,9.478-5.484-61.59-35.559Z" transform="translate(-145.75 -176.945)" fill="#455a64"/><g transform="translate(87.135 50.864)"><path d="M268.145,242.688V254.74L267,254.086l-1.191,2.055-1.191-.7-1.191,2.079-1.191-.7-1.191,2.055-1.191-.677-1.191,2.055V248.177Z" transform="translate(-258.662 -242.688)" fill="#27debf"/><path d="M268.145,242.688V254.74L267,254.086l-1.191,2.055-1.191-.7-1.191,2.079-1.191-.7-1.191,2.055-1.191-.677-1.191,2.055V248.177Z" transform="translate(-258.662 -242.688)" fill="#37474f"/></g></g><g transform="translate(28.722 41.928)"><g transform="translate(39.762)"><g transform="translate(34.302 54.888)"><path d="M154.206,124.278l-7.541,4.353-7.541,4.354,5.834,15.323a1.514,1.514,0,0,0,.629.771c.81.493,8.7,5.012,8.967,5.177a1.547,1.547,0,0,0,2.3-.925l6.315-23.876Z" transform="translate(-139.125 -124.278)" fill="#27debf"/><g opacity="0.2"><path d="M154.206,124.278l-7.541,4.353-7.541,4.354,5.834,15.323a1.514,1.514,0,0,0,.629.771c.81.493,8.7,5.012,8.967,5.177a1.547,1.547,0,0,0,2.3-.925l6.315-23.876Z" transform="translate(-139.125 -124.278)"/></g><g transform="translate(8.967 5.177)"><path d="M151.844,140.328l7.541-4.354,7.54-4.353L160.61,155.5a1.542,1.542,0,0,1-2.932.154Z" transform="translate(-151.844 -131.621)" fill="#27debf"/></g></g><path d="M186.109,58.408c0-3.01-1.045-5.132-2.737-6.143-1.612-.962-7.441-4.288-9.048-5.213-1.726-.993-4.107-.848-6.739.672L90.468,92.248v37.963l8.966,5.165,77.116-44.523c5.279-3.048,9.558-10.459,9.558-16.555Z" transform="translate(-90.468 -46.422)" fill="#27debf"/><g opacity="0.5"><path d="M186.109,58.408c0-3.01-1.045-5.132-2.737-6.143-1.612-.962-7.441-4.288-9.048-5.213-1.726-.993-4.107-.848-6.739.672L90.468,92.248v37.963l8.966,5.165,77.116-44.523c5.279-3.048,9.558-10.459,9.558-16.555Z" transform="translate(-90.468 -46.422)" fill="#fff"/></g><g transform="translate(8.967 5.163)"><path d="M180.3,93.012c5.279-3.048,9.558-10.459,9.558-16.555V60.568c0-6.1-4.279-8.566-9.558-5.519L103.187,99.573v37.963Z" transform="translate(-103.187 -53.744)" fill="#27debf"/></g></g><g transform="translate(0 32.306)"><path d="M87.468,99.821h0l-.043-.023,0,0L76.89,93.711l-.01-.006-.061-.031v0c-4.909-2.487-11.45-1.82-18.509,2.726-14.184,9.134-25.017,30.2-24.2,47.046.407,8.4,3.605,14.244,8.494,16.785v0l.044.022,0,0L53.2,166.328l0,0,.051.027v0c4.91,2.495,11.473,1.766,18.538-2.784,14.183-9.133,25.017-30.2,24.2-47.046C95.584,108.126,92.358,102.361,87.468,99.821Z" transform="translate(-34.066 -92.247)" fill="#37474f"/><g transform="translate(0 27.592)"><path d="M52.841,177.682l-10.186-5.876h-.008l-.047-.029c-4.888-2.546-8.083-8.393-8.491-16.779-.364-7.514,1.593-15.863,5.12-23.613l10.518,6.147c-3.535,7.75-5.485,16.1-5.12,23.612C45.028,169.364,48.127,175.058,52.841,177.682Z" transform="translate(-34.067 -131.386)" fill="#263238"/></g><g transform="translate(10.522 6.106)"><path d="M76.2,166.126c14.183-9.133,25.017-30.2,24.2-47.046s-12.979-23.1-27.162-13.971-25.017,30.2-24.2,47.046S62.014,175.26,76.2,166.126Z" transform="translate(-48.991 -100.908)" fill="#455a64"/></g><g transform="translate(20.271 18.787)"><g transform="translate(9.653)"><path d="M81.169,139.365a4.02,4.02,0,0,1-2.036-.536c-1.664-.961-2.62-3.116-2.62-5.913,0-5.044,3.1-10.939,6.91-13.138a4.9,4.9,0,0,1,5-.347c1.664.962,2.62,3.117,2.62,5.914,0,5.045-3.1,10.939-6.91,13.139A5.967,5.967,0,0,1,81.169,139.365ZM86.38,120.31a4.58,4.58,0,0,0-2.252.689c-3.421,1.975-6.2,7.321-6.2,11.917,0,2.279.7,3.99,1.913,4.692a3.559,3.559,0,0,0,3.585-.345c3.422-1.975,6.2-7.322,6.2-11.918,0-2.279-.7-3.99-1.913-4.692A2.636,2.636,0,0,0,86.38,120.31Z" transform="translate(-76.513 -118.896)" fill="#27debf"/></g><g transform="translate(3.341 13.703)"><path d="M68.266,143.394a.705.705,0,0,1-.353-1.316l6.319-3.649a.705.705,0,0,1,.706,1.222L68.618,143.3A.713.713,0,0,1,68.266,143.394Z" transform="translate(-67.56 -138.334)" fill="#27debf"/></g><g transform="translate(0 3.412)"><path d="M70.741,155.653a.7.7,0,0,1-.687-.544l-4.587-19.614c-.023-.1-.109-.408-.3-.443l-1.776-.335a.706.706,0,1,1,.262-1.387l1.776.335a1.836,1.836,0,0,1,1.409,1.508l4.369,18.689,16.065-9.275a2.733,2.733,0,0,0,1.055-1.74l3.079-16.723c.109-.594-.027-.916-.107-.972-.012-.009-.1-.007-.241.076l-4.415,2.549a.705.705,0,1,1-.706-1.221l4.415-2.549A1.588,1.588,0,0,1,92.117,124a2.306,2.306,0,0,1,.68,2.381L89.717,143.1a4.081,4.081,0,0,1-1.736,2.706l-16.889,9.751A.712.712,0,0,1,70.741,155.653Z" transform="translate(-62.821 -123.736)" fill="#27debf"/></g><g transform="translate(5.063 24.167)"><path d="M71.976,170.229a1.766,1.766,0,0,1-.892-.238A2.541,2.541,0,0,1,70,167.679a5.735,5.735,0,0,1,2.456-4.63L89.4,153.271a.705.705,0,0,1,.706,1.222l-16.936,9.778a4.335,4.335,0,0,0-1.75,3.408c0,.644.193.986.374,1.091.208.119.51-.018.67-.111l18.127-10.465a.705.705,0,0,1,.706,1.222L73.165,169.88A2.392,2.392,0,0,1,71.976,170.229Z" transform="translate(-70.003 -153.177)" fill="#27debf"/></g><g transform="translate(7.434 33.689)"><g transform="translate(0 6.875)"><path d="M75.348,184.013a1.777,1.777,0,0,1-.9-.238,2.557,2.557,0,0,1-1.086-2.326,5.774,5.774,0,0,1,2.473-4.663,2.036,2.036,0,0,1,2.093-.112A2.556,2.556,0,0,1,79.019,179a5.777,5.777,0,0,1-2.474,4.663A2.407,2.407,0,0,1,75.348,184.013Zm1.684-6.165a1.06,1.06,0,0,0-.487.16,4.374,4.374,0,0,0-1.767,3.441c0,.652.2,1,.38,1.1.211.12.518-.017.682-.112A4.376,4.376,0,0,0,77.607,179c0-.651-.2-1-.38-1.1A.389.389,0,0,0,77.032,177.848Z" transform="translate(-73.366 -176.435)" fill="#27debf"/></g><g transform="translate(11.907)"><path d="M92.239,174.261a1.776,1.776,0,0,1-.9-.238,2.557,2.557,0,0,1-1.086-2.326,5.774,5.774,0,0,1,2.474-4.663,2.036,2.036,0,0,1,2.093-.112,2.557,2.557,0,0,1,1.086,2.326,5.777,5.777,0,0,1-2.474,4.663A2.407,2.407,0,0,1,92.239,174.261Zm1.684-6.165a1.06,1.06,0,0,0-.487.16,4.375,4.375,0,0,0-1.768,3.441c0,.652.2,1,.38,1.1.21.121.519-.017.682-.112a4.378,4.378,0,0,0,1.768-3.441c0-.651-.2-1-.38-1.1A.384.384,0,0,0,93.923,168.1Z" transform="translate(-90.256 -166.683)" fill="#27debf"/></g></g><g transform="translate(13.743 39.191)"><path d="M83.021,177.937a.705.705,0,0,1-.354-1.316l3.532-2.04a.705.705,0,0,1,.7,1.222l-3.531,2.04A.71.71,0,0,1,83.021,177.937Z" transform="translate(-82.315 -174.487)" fill="#27debf"/></g><g transform="translate(13.063 4.336)"><path d="M84.166,135.625a.708.708,0,0,1-.477-.186L81.579,133.5a.705.705,0,1,1,.954-1.038l1.394,1.278,3.781-8.284a.705.705,0,0,1,1.283.587l-4.184,9.166a.706.706,0,0,1-.5.4A.735.735,0,0,1,84.166,135.625Z" transform="translate(-81.351 -125.047)" fill="#27debf"/></g></g></g><g transform="translate(68.133 21.876)"><path d="M147.144,104.259a8.006,8.006,0,0,1,.226-1.626,7.231,7.231,0,0,1,.562-1.545,6.459,6.459,0,0,1,.885-1.332,4.59,4.59,0,0,1,1.2-1,2.435,2.435,0,0,1,1.2-.386,1.344,1.344,0,0,1,.889.309,1.981,1.981,0,0,1,.562.9,4.858,4.858,0,0,1,.225,1.367c.012.4.018.821.018,1.264s-.006.864-.018,1.259a8.09,8.09,0,0,1-.225,1.626,7.516,7.516,0,0,1-.562,1.551,6.235,6.235,0,0,1-.889,1.336,4.721,4.721,0,0,1-1.2.988,2.506,2.506,0,0,1-1.2.4,1.293,1.293,0,0,1-.885-.312,2,2,0,0,1-.562-.9,4.788,4.788,0,0,1-.226-1.366q-.019-.57-.019-1.237T147.144,104.259Zm4.043.119c.006-.174.012-.367.018-.578s.01-.426.01-.644,0-.425-.01-.625-.012-.378-.018-.536a2.469,2.469,0,0,0-.1-.6.9.9,0,0,0-.221-.389.5.5,0,0,0-.354-.142.968.968,0,0,0-.5.159,1.873,1.873,0,0,0-.5.415,2.486,2.486,0,0,0-.355.552,3.141,3.141,0,0,0-.221.644,4.036,4.036,0,0,0-.1.709c-.013.168-.02.355-.023.559s0,.417,0,.634,0,.429,0,.635.01.391.023.555a1.575,1.575,0,0,0,.317.993q.281.306.853-.024a2,2,0,0,0,.846-.957A3.957,3.957,0,0,0,151.187,104.378Z" transform="translate(-135.553 -83.624)" fill="#fafafa"/><path d="M159.577,93.448a3.288,3.288,0,0,1,1.086-.429,1.178,1.178,0,0,1,.816.125,1.29,1.29,0,0,1,.515.716,4.12,4.12,0,0,1,.18,1.335,6.151,6.151,0,0,1-.286,1.931,5.024,5.024,0,0,1-.811,1.538l1.143,2.716a.387.387,0,0,1,.027.14.6.6,0,0,1-.059.254.383.383,0,0,1-.143.175l-1.253.723c-.123.071-.21.08-.262.024a.643.643,0,0,1-.124-.183l-1.022-2.444-.848.49v3.034a.713.713,0,0,1-.073.312.462.462,0,0,1-.175.215l-1.206.7a.134.134,0,0,1-.176-.012.306.306,0,0,1-.073-.227v-9.16a.725.725,0,0,1,.073-.312.47.47,0,0,1,.176-.216Zm-1.041,4.9,1.041-.6a1.926,1.926,0,0,0,.639-.6,1.692,1.692,0,0,0,.254-.969q0-.6-.254-.676a.817.817,0,0,0-.639.142l-1.041.6Z" transform="translate(-138.417 -82.038)" fill="#fafafa"/><path d="M168.6,88.281a2.492,2.492,0,0,1,1.16-.38,1.365,1.365,0,0,1,.907.292,1.984,1.984,0,0,1,.6.909,4.841,4.841,0,0,1,.244,1.454c.006.2.009.375.009.541v.943q0,.241-.009.53a8.181,8.181,0,0,1-.24,1.741,7.664,7.664,0,0,1-.585,1.586,6.294,6.294,0,0,1-.888,1.328,4.583,4.583,0,0,1-1.151.955l-2.487,1.436a.133.133,0,0,1-.175-.013.3.3,0,0,1-.073-.228v-9.16a.724.724,0,0,1,.073-.312.464.464,0,0,1,.175-.214Zm1.206,3.2q-.055-1.6-1.253-.908l-.94.544v5.387l.986-.57a2.55,2.55,0,0,0,1.206-2.326q.01-.3.009-.566V92.031Q169.817,91.776,169.808,91.484Z" transform="translate(-141.096 -80.535)" fill="#fafafa"/><path d="M179.971,89.074a.135.135,0,0,1,.176.011.308.308,0,0,1,.073.227v1.5a.728.728,0,0,1-.073.312.463.463,0,0,1-.176.215l-4.365,2.52a.134.134,0,0,1-.176-.012.3.3,0,0,1-.074-.227v-9.16a.711.711,0,0,1,.074-.312.459.459,0,0,1,.176-.215l4.291-2.478a.134.134,0,0,1,.175.013.3.3,0,0,1,.074.227v1.5a.721.721,0,0,1-.074.312.466.466,0,0,1-.175.215l-2.837,1.638V86.9l2.634-1.521a.135.135,0,0,1,.176.013.3.3,0,0,1,.074.226v1.5a.734.734,0,0,1-.074.312.471.471,0,0,1-.176.215l-2.634,1.52v1.588Z" transform="translate(-143.882 -78.627)" fill="#fafafa"/><path d="M186.5,77.9a3.3,3.3,0,0,1,1.086-.429,1.174,1.174,0,0,1,.816.125,1.288,1.288,0,0,1,.515.716,4.122,4.122,0,0,1,.18,1.336,6.171,6.171,0,0,1-.285,1.931A5.041,5.041,0,0,1,188,83.119l1.142,2.716a.373.373,0,0,1,.027.14.586.586,0,0,1-.059.255.387.387,0,0,1-.143.175l-1.253.723q-.184.107-.262.024a.652.652,0,0,1-.124-.183l-1.022-2.445-.847.491v3.034a.716.716,0,0,1-.074.312.458.458,0,0,1-.175.215l-1.206.7a.134.134,0,0,1-.176-.012.3.3,0,0,1-.074-.227v-9.16a.714.714,0,0,1,.074-.312.465.465,0,0,1,.176-.216Zm-1.041,4.9,1.041-.6a1.937,1.937,0,0,0,.64-.6,1.7,1.7,0,0,0,.253-.969q0-.594-.253-.676a.822.822,0,0,0-.64.143l-1.041.6Z" transform="translate(-146.36 -77.452)" fill="#fafafa"/><path d="M132.433,133.7q-.01.189-.014.518c0,.219,0,.446,0,.677s0,.457,0,.677.008.391.014.51a3.223,3.223,0,0,0,.082.577.9.9,0,0,0,.2.408.5.5,0,0,0,.35.159.98.98,0,0,0,.525-.169,2.02,2.02,0,0,0,.516-.412,2.588,2.588,0,0,0,.331-.467,2.419,2.419,0,0,0,.2-.476q.069-.238.106-.429a1.685,1.685,0,0,1,.1-.377.477.477,0,0,1,.212-.216l1.206-.7a.109.109,0,0,1,.143.01.246.246,0,0,1,.061.185,5.664,5.664,0,0,1-.231,1.494,6.884,6.884,0,0,1-.608,1.457,6.958,6.958,0,0,1-.907,1.269,4.664,4.664,0,0,1-1.128.927,2.379,2.379,0,0,1-1.184.379,1.352,1.352,0,0,1-.889-.316,1.986,1.986,0,0,1-.567-.9,4.816,4.816,0,0,1-.225-1.353q-.018-.571-.018-1.237c0-.443.006-.873.018-1.286a7.331,7.331,0,0,1,.221-1.61,7.678,7.678,0,0,1,.566-1.554,6.42,6.42,0,0,1,.89-1.343,4.617,4.617,0,0,1,1.188-.991,2.521,2.521,0,0,1,1.128-.374,1.525,1.525,0,0,1,.907.22,1.624,1.624,0,0,1,.608.756,3.2,3.2,0,0,1,.231,1.228.588.588,0,0,1-.061.255.373.373,0,0,1-.143.174l-1.206.7c-.1.061-.175.07-.212.03a.619.619,0,0,1-.1-.261,1.945,1.945,0,0,0-.106-.307.57.57,0,0,0-.2-.247.563.563,0,0,0-.331-.085,1.151,1.151,0,0,0-.516.185,1.918,1.918,0,0,0-.525.437,2.539,2.539,0,0,0-.35.564,2.885,2.885,0,0,0-.2.642A5.027,5.027,0,0,0,132.433,133.7Z" transform="translate(-130.711 -92.584)" fill="#fafafa"/><path d="M139.913,129.308a8.112,8.112,0,0,1,.225-1.626,7.361,7.361,0,0,1,.562-1.545,6.544,6.544,0,0,1,.885-1.332,4.612,4.612,0,0,1,1.2-1,2.443,2.443,0,0,1,1.2-.386,1.338,1.338,0,0,1,.889.309,1.951,1.951,0,0,1,.562.9,4.774,4.774,0,0,1,.226,1.366q.019.6.019,1.265t-.019,1.259a7.938,7.938,0,0,1-.226,1.625,7.348,7.348,0,0,1-.562,1.552,6.162,6.162,0,0,1-.889,1.335,4.688,4.688,0,0,1-1.2.989,2.5,2.5,0,0,1-1.2.4,1.294,1.294,0,0,1-.885-.312,2.016,2.016,0,0,1-.562-.9,4.845,4.845,0,0,1-.225-1.366q-.018-.57-.018-1.237T139.913,129.308Zm4.044.118c.006-.173.012-.367.018-.577s.009-.427.009-.644,0-.425-.009-.625-.012-.378-.018-.536a2.545,2.545,0,0,0-.1-.6.9.9,0,0,0-.221-.389.51.51,0,0,0-.355-.142.972.972,0,0,0-.5.159,1.881,1.881,0,0,0-.5.415,2.5,2.5,0,0,0-.355.552,3.156,3.156,0,0,0-.221.644,4.12,4.12,0,0,0-.1.709c-.012.168-.02.355-.023.56s0,.417,0,.633,0,.43,0,.635.011.392.023.555a1.578,1.578,0,0,0,.317.994q.28.3.852-.025a2.005,2.005,0,0,0,.847-.956A4,4,0,0,0,143.957,129.426Z" transform="translate(-133.42 -91.013)" fill="#fafafa"/><path d="M153.792,127.185a.221.221,0,0,1-.253.018.42.42,0,0,1-.123-.128l-2.109-3.631v4.793a.727.727,0,0,1-.073.312.471.471,0,0,1-.176.215l-1.206.7a.134.134,0,0,1-.176-.011.3.3,0,0,1-.073-.227v-9.16a.718.718,0,0,1,.073-.312.466.466,0,0,1,.176-.215l.957-.553a.222.222,0,0,1,.253-.02.419.419,0,0,1,.125.128l2.109,3.631v-4.792a.712.712,0,0,1,.074-.312.459.459,0,0,1,.174-.214l1.207-.7a.132.132,0,0,1,.174.012.3.3,0,0,1,.074.227v9.16a.713.713,0,0,1-.074.312.461.461,0,0,1-.174.215Z" transform="translate(-136.284 -89.025)" fill="#fafafa"/><path d="M163.544,111.795a.133.133,0,0,1,.176.013.3.3,0,0,1,.073.227v1.5a.723.723,0,0,1-.073.312.467.467,0,0,1-.176.215l-2.754,1.59V117.6l2.57-1.483a.134.134,0,0,1,.175.012.3.3,0,0,1,.073.227v1.5a.72.72,0,0,1-.073.312.467.467,0,0,1-.175.214l-2.57,1.483v3.063a.73.73,0,0,1-.073.312.466.466,0,0,1-.175.214l-1.207.7a.134.134,0,0,1-.176-.012.306.306,0,0,1-.073-.227v-9.161a.732.732,0,0,1,.073-.312.467.467,0,0,1,.176-.215Z" transform="translate(-139.082 -87.576)" fill="#fafafa"/><path d="M167.4,120.223a.134.134,0,0,1-.176-.012.3.3,0,0,1-.073-.227v-9.16a.723.723,0,0,1,.073-.312.464.464,0,0,1,.176-.214l1.206-.7a.135.135,0,0,1,.176.013.306.306,0,0,1,.073.227V119a.73.73,0,0,1-.073.312.459.459,0,0,1-.176.214Z" transform="translate(-141.46 -86.929)" fill="#fafafa"/><path d="M174.138,105.915a3.314,3.314,0,0,1,1.086-.429,1.172,1.172,0,0,1,.815.125,1.292,1.292,0,0,1,.516.716,4.141,4.141,0,0,1,.18,1.336,6.146,6.146,0,0,1-.286,1.93,5.015,5.015,0,0,1-.81,1.538l1.142,2.716a.374.374,0,0,1,.027.14.6.6,0,0,1-.06.254.382.382,0,0,1-.142.175l-1.253.723c-.122.07-.21.079-.262.023a.643.643,0,0,1-.124-.183l-1.023-2.444-.847.49v3.034a.728.728,0,0,1-.073.312.468.468,0,0,1-.175.214l-1.207.7a.134.134,0,0,1-.176-.011.308.308,0,0,1-.073-.227v-9.161a.727.727,0,0,1,.073-.312.469.469,0,0,1,.176-.216Zm-1.041,4.9,1.041-.6a1.942,1.942,0,0,0,.639-.6,1.692,1.692,0,0,0,.253-.969q0-.6-.253-.676a.818.818,0,0,0-.639.143l-1.041.6Z" transform="translate(-142.713 -85.716)" fill="#fafafa"/><path d="M183.166,107.478a.631.631,0,0,1-.123-.162l-.866-1.839v4.693a.735.735,0,0,1-.073.312.465.465,0,0,1-.175.214l-1.207.7a.134.134,0,0,1-.176-.013.3.3,0,0,1-.073-.227v-9.16a.735.735,0,0,1,.073-.312.473.473,0,0,1,.176-.214l1.069-.617c.123-.071.214-.073.276,0a.85.85,0,0,1,.119.158l1.492,3.066,1.492-4.789c.018-.058.057-.157.119-.3a.652.652,0,0,1,.276-.315l1.068-.618a.135.135,0,0,1,.176.013.308.308,0,0,1,.073.228v9.16a.73.73,0,0,1-.073.312.465.465,0,0,1-.176.214l-1.206.7a.133.133,0,0,1-.175-.013.3.3,0,0,1-.074-.226v-4.694l-.866,2.839a2.57,2.57,0,0,1-.124.307.545.545,0,0,1-.216.245l-.59.341C183.291,107.527,183.219,107.528,183.166,107.478Z" transform="translate(-145.391 -83.522)" fill="#fafafa"/><path d="M196.009,100.688a.135.135,0,0,1,.176.012.307.307,0,0,1,.073.227v1.5a.729.729,0,0,1-.073.312.471.471,0,0,1-.176.215l-4.365,2.52a.135.135,0,0,1-.176-.011.307.307,0,0,1-.073-.227v-9.16a.728.728,0,0,1,.073-.312.464.464,0,0,1,.176-.215l4.292-2.478a.131.131,0,0,1,.174.013.3.3,0,0,1,.075.226v1.5a.719.719,0,0,1-.075.312.461.461,0,0,1-.174.215L193.1,96.98v1.532l2.634-1.521a.134.134,0,0,1,.176.013.3.3,0,0,1,.074.226v1.5a.731.731,0,0,1-.074.312.463.463,0,0,1-.176.215l-2.634,1.521v1.588Z" transform="translate(-148.613 -82.053)" fill="#fafafa"/><path d="M202.484,89.593a2.492,2.492,0,0,1,1.16-.38,1.365,1.365,0,0,1,.907.292,1.984,1.984,0,0,1,.6.909,4.836,4.836,0,0,1,.245,1.454c.006.195.009.374.009.541v.943c0,.161,0,.337-.009.529a8.2,8.2,0,0,1-.24,1.741,7.6,7.6,0,0,1-.584,1.585,6.3,6.3,0,0,1-.888,1.328,4.544,4.544,0,0,1-1.152.955l-2.486,1.436a.133.133,0,0,1-.176-.012.3.3,0,0,1-.073-.227v-9.16a.715.715,0,0,1,.073-.312.469.469,0,0,1,.176-.216Zm1.206,3.2q-.055-1.6-1.253-.907l-.94.541v5.389l.986-.569a2.551,2.551,0,0,0,1.206-2.327q.009-.3.009-.565V93.343Q203.7,93.088,203.69,92.8Z" transform="translate(-151.092 -80.922)" fill="#fafafa"/></g></g><g transform="translate(236.327 31.19)"><g transform="translate(12.125 93.005)"><g transform="translate(0 0.374)"><path d="M384.511,170.114a41.859,41.859,0,0,0-2.172-6.468s-21.059,2.492-26.5,2.6c-2.036,8.935-2.682,11.4-4.291,16.689a248.617,248.617,0,0,0-5.762,27.633c-.345,2.348,1.594,8.142,2.456,10.353,5.029,12.887,13.325,33.466,13.325,33.466a11.009,11.009,0,0,1,.711,5.493,29.227,29.227,0,0,1-2.379,8.044,21.928,21.928,0,0,1-1.3,2.617c-1.151,2.546.469,2.992,3.05,1.85,2.723-1.2,4.455-4.092,5.2-6.182,1.112-3.117,3.237-8.022,3.148-9.606l.031-.029-.051-.176h0l-.4-3.13s-1.908-9.67-3.056-20.8c-.957-9.28-1.184-11.813-5.675-18.925L373,187.656C376.839,180.8,384.511,170.114,384.511,170.114Z" transform="translate(-345.746 -163.646)" fill="#ffa8a7"/><g transform="translate(9.818 88.872)"><path d="M378.282,298.79a3.333,3.333,0,0,1,.6,1.86c-.456,2.3-2.95,3.9-3.947,5.343a33.887,33.887,0,0,0-2.686,6.484,8.348,8.348,0,0,1-5.9,5.053,4.826,4.826,0,0,1-4.281-1.27S377.624,298.1,378.282,298.79Z" transform="translate(-360.38 -292.382)" fill="#37474f"/><path d="M375.8,292.3c.77,1.175,2.58,2.991,1.735,5.029-.734,1.77-2.552,3.457-3.762,4.861a9.171,9.171,0,0,0-1.31,2.544c-.469,1.052-1.194,3.555-1.748,4.569A9.36,9.36,0,0,1,369,311.483a8.774,8.774,0,0,1-2.464,1.768c-1.44.651-3.772,1.07-5.177.335a2.873,2.873,0,0,1-1.091-4.362c.372-.536.739-1.074,1.144-1.586a16.142,16.142,0,0,0,1.7-3.223c.326-.715,1.419-3.666,1.633-4.342.439-1.393,1.077-3.4.875-4.326a4.824,4.824,0,0,1-.2-1.41.862.862,0,0,1,.541-.644,4.57,4.57,0,0,1,2.266-.189c.667.038,1.318.229,1.983.291a3.332,3.332,0,0,0,3.472-3.34l-.172-.651C374.176,289.28,374.942,290.987,375.8,292.3Z" transform="translate(-359.673 -289.708)" fill="#455a64"/></g><path d="M366.288,205.332a40.449,40.449,0,0,1-18.371-7.6s6.881-26.869,8.737-31.657l22.56,11.19Z" transform="translate(-346.387 -164.363)" fill="#455a64"/><path d="M368.934,205.572l-1.945-15.118a12.991,12.991,0,0,1-6.407-8.279,14.352,14.352,0,0,0,7.342,5.832l2.971,20.184-.871,1.89s-1.081-.122-2.817-.507Z" transform="translate(-350.123 -169.112)" fill="#37474f"/></g><g transform="translate(9.086)"><g transform="translate(38.425 16.398)"><path d="M416.637,188.532a4.535,4.535,0,0,1,2.032-1.963,5,5,0,0,1,5.075,1.579c1.573,1.875,1.9,4.513,2.9,5.95s3.657,3.392,5.189,4.659a9.36,9.36,0,0,1,2.765,7.461,4,4,0,0,1-2.382,3.519Z" transform="translate(-414.171 -186.374)" fill="#37474f"/><path d="M416.292,188.221a5.143,5.143,0,0,1,5.182,1.265c1.4,1.306,2.348,3.6,3.242,5.223a9.182,9.182,0,0,0,1.927,2.116c.822.806,2.914,2.36,3.671,3.233a9.353,9.353,0,0,1,1.442,2.367,8.773,8.773,0,0,1,.8,2.926c.106,1.577-.315,3.908-1.494,4.967a2.874,2.874,0,0,1-4.469-.5c-.373-.536-.748-1.067-1.086-1.626a16.787,16.787,0,0,0-2.319-2.916,20.132,20.132,0,0,0-3.784-2.909c-.151-.087-.3-.188-.452-.26-1.687-.809-3.405-1.488-3.639-2.091-.195-.5-.645-5.9-1.979-7.036-.352-.3-.166-.809.155-1.278S415.022,188.823,416.292,188.221Z" transform="translate(-413.139 -186.838)" fill="#455a64"/></g><path d="M390.491,163.115c2.436,7.292,3.2,11.4,3.038,20.041-.1,5.665-.967,19.011-1.486,25.506S391.475,220,389,222.055s-7.773,1.416-9.685-2.859-3.366-9.422-4.65-17.326a60.793,60.793,0,0,1-.909-12.926l-.775-21.361Z" transform="translate(-362.867 -163.115)" fill="#ffa8a7"/><path d="M390.736,232.008c2.855.228,4.713-.758,8.939-7.4s13.058-24.2,13.058-24.2,1.229-3.359-1.109-5.715c-2.624-2.645-4.331-1.223-4.331-1.223s-2.243,2.826-4.755,5.572c-2.312,2.527-5.256,4.985-7.264,7.364C393.87,208.066,390.736,232.008,390.736,232.008Z" transform="translate(-368.105 -171.957)" fill="#ffa8a7"/><path d="M400.711,206.863s-.88,16.044-1.624,21.706a55.358,55.358,0,0,0,2.551-11.844,93.145,93.145,0,0,0,.851-11.577Z" transform="translate(-370.568 -175.515)" fill="#f28f8f"/><path d="M386.259,163.115a41.835,41.835,0,0,1,3.4,13.648C390.071,184.035,388.6,202,388.6,202s-1.779,2.72-8.472,3.408-9.511-.792-9.511-.792l-3.273-22.23s-8.486-4.8-8.715-13.784Z" transform="translate(-358.634 -163.115)" fill="#455a64"/><path d="M386.2,175.566h.736a11.47,11.47,0,0,0,3.43,8.213,6.081,6.081,0,0,0,4.075,1.779c.049-6.272-.257-12.274-1.045-15.738l.717-.164c1.713,7.526,1.294,28.247-.56,36.438-.26.108-.539.212-.838.314.966-3.975,1.621-12.178,1.719-20.106a6.823,6.823,0,0,1-4.566-1.982A12.231,12.231,0,0,1,386.2,175.566Z" transform="translate(-366.765 -165.044)" fill="#37474f"/></g></g><g transform="translate(4.236 5.706)"><path d="M342.5,49.262a20.554,20.554,0,0,1,1.423-5.562c1.545-3.485,1.169-5.263-3.535-4.021-2.948.778-5.321,2.874-5.762,9.959-.128,2.041-.05,4.4,0,9.164a119.442,119.442,0,0,0,1.093,15.506,16.75,16.75,0,0,0,1.76,5.84c5.362,10.2,12.869,17.01,16.473,23.592,4.538-.309,10.846-7.78,7.469-12.462-3.857-1.629-14.5-13.374-15.981-18.953-.982-3.706-3.445-12.009-3.318-16.241" transform="translate(-334.556 -39.284)" fill="#ffa8a7"/><g transform="translate(15.795 51.993)"><path d="M360.167,143c-.11-1.894-.008-5.046.006-5.985-4.724-4.526-3.325-9.39-1.544-12.96,3.562-7.139,6.97-11.177,10.114-11.02l8.594.743c4.692.614,7.9,1.184,9.031,1.447,2.888.668,2.777,2.764,2.907,5.836a32.774,32.774,0,0,1-.429,9.483l-4.061,8.506-.755,4.325c.881,1.918,4.792,7.732,5.405,16.557a59.462,59.462,0,0,1-17.055,2.377c-10.865.1-15.409-4.639-15.409-4.639Z" transform="translate(-356.961 -113.035)" fill="#27debf"/><path d="M383.542,143.561a7.68,7.68,0,0,1-7.293,4.047,8.1,8.1,0,0,1-6.88-4.312s.2,5.65,6.88,5.665S383.542,143.561,383.542,143.561Z" transform="translate(-360.622 -121.962)" opacity="0.1"/></g><g transform="translate(20.593 19.898)"><path d="M363.836,76.889l.025-.266c.769-8.243,5.5-9.78,14.148-8.892,6.389.656,12.181,3.643,14.109,9.308a14.518,14.518,0,0,1-1.749,12.725c-2.642,3.919-7.107,6.1-13.422,5.511h-.006C368.727,96.271,363.067,85.128,363.836,76.889Z" transform="translate(-363.766 -67.508)" fill="#263238"/><path d="M428.7,87.57a11.746,11.746,0,0,0,3.478-4.282c1.292-2.7,1.891-6.833-1.131-8.68a2.714,2.714,0,0,0-1.131-.412c-1.336-.136-2.409.993-3.46,1.829a9.72,9.72,0,0,1-7.2,2.008A15.319,15.319,0,0,1,411.85,74.4a10.1,10.1,0,0,0-2.188-1.5,6.085,6.085,0,0,0-2.077-.455,10.41,10.41,0,0,0-6.612,1.972,3.139,3.139,0,0,0-1.457,1.936,1.49,1.49,0,0,0,.685,1.442c.556.314,1.287-.011,1.879-.07a6.381,6.381,0,0,1,4.241.9,11.566,11.566,0,0,1,2.776,3.364c2.557,3.831,6.339,7.157,10.9,7.823A11.787,11.787,0,0,0,428.7,87.57Z" transform="translate(-374.309 -68.957)" fill="#263238"/><g transform="translate(1.028 5.463)"><path d="M369.939,75.258c-1.691.8-4.047,4.642-4.64,13.107-.5,7.175,1.652,9.161,2.77,9.779s3.394.519,5.612.358l-.4,4.3s-6.654,6.036-1.693,7.144c2.477.553,5.788-.735,8.073-2.22a8.779,8.779,0,0,0,3.2-4.252l.826-9.35s1.17,1.369,3.528-.333c1.946-1.406,2.8-4,1.531-5.557a3.15,3.15,0,0,0-5.082.528s-1.291-.016-2.35-2.514a9.781,9.781,0,0,1-6.022-1.952A13.45,13.45,0,0,1,369.939,75.258Z" transform="translate(-365.224 -75.258)" fill="#ffa8a7"/></g><g transform="translate(10.553 16.37)"><path d="M378.745,91.54a.9.9,0,1,0,1.029-.8A.919.919,0,0,0,378.745,91.54Z" transform="translate(-378.734 -90.729)" fill="#263238"/></g><g transform="translate(5.992 23.07)" opacity="0.5" style="mix-blend-mode:multiply;isolation:isolate"><path d="M375.159,100.233l-2.893.634A1.455,1.455,0,0,0,374,102.046,1.551,1.551,0,0,0,375.159,100.233Z" transform="translate(-372.266 -100.233)" fill="#f28f8f"/></g><g transform="translate(2.557 11.938)"><path d="M367.521,86.125l1.939-1.092a1.069,1.069,0,0,0-1.484-.452A1.17,1.17,0,0,0,367.521,86.125Z" transform="translate(-367.393 -84.441)" fill="#263238"/></g><g transform="translate(12.113 13.529)"><path d="M380.948,87.308l2,.988a1.068,1.068,0,0,0-.462-1.48A1.169,1.169,0,0,0,380.948,87.308Z" transform="translate(-380.948 -86.698)" fill="#263238"/></g><g transform="translate(2.928 15.46)"><path d="M367.929,90.249a.9.9,0,1,0,1.03-.8A.919.919,0,0,0,367.929,90.249Z" transform="translate(-367.919 -89.437)" fill="#263238"/></g><g transform="translate(3.888 16.159)" opacity="0.5" style="mix-blend-mode:multiply;isolation:isolate"><path d="M372.7,90.43l-.649,5.406-2.77-1.15Z" transform="translate(-369.28 -90.43)" fill="#f28f8f"/></g><g transform="translate(9.351 25.898)" opacity="0.5" style="mix-blend-mode:multiply;isolation:isolate"><path d="M377.164,107.053c2.331-.087,7.194-1.005,8.107-2.809a4.871,4.871,0,0,1-1.884,2.235c-1.528,1.081-6.358,2.008-6.358,2.008Z" transform="translate(-377.03 -104.244)" fill="#f28f8f"/></g><path d="M400.344,74.072l-1.057-3.867a1.945,1.945,0,0,0-1.461,2.408A2.106,2.106,0,0,0,400.344,74.072Z" transform="translate(-373.794 -68.304)" fill="#263238"/><path d="M401.536,74.565l2.209-3.345a1.946,1.946,0,0,0-2.773.49A2.106,2.106,0,0,0,401.536,74.565Z" transform="translate(-374.644 -68.492)" fill="#263238"/><path d="M390.254,93.354,389.9,97.12h0a2.574,2.574,0,0,1-2.324-2.8l.325-3.478Z" transform="translate(-370.788 -74.391)" fill="#263238"/></g><g transform="translate(41.169 2.679)"><path d="M415.2,84.745c-6.482,13.191-11.321,16.887-15.737,25.167-7.35.341-7.9-11.035-4.52-15.717,0,0,10.725-10.578,12.535-16.06,1.668-5.052,4.076-13.873,3.949-18.1a2.9,2.9,0,0,0-.816-1.878c-1.392-1.5-1.394-2.7-2.288-4.358-.7-1.29-1.46-1.772-1.243-2.063a1.668,1.668,0,0,1,2.26-.167,8.519,8.519,0,0,1,1.713,1.643,19.114,19.114,0,0,0-1.328-5.708c-1.545-3.484-1.169-5.262,3.535-4.021,2.948.778,5.514,3.082,5.956,10.167a73.86,73.86,0,0,1-.047,9.009c-.51,5.452-1.182,10.444-1.853,14.958A29.694,29.694,0,0,1,415.2,84.745Z" transform="translate(-392.952 -43.083)" fill="#ffa8a7"/></g></g><g transform="translate(0.894 0.547)"><path d="M329.964,53.431a.091.091,0,0,0,.024,0l.016,0,.019,0,.018,0a.364.364,0,0,0,.057-.026L347.237,43.5a.63.63,0,0,0,.284-.492V32.167a.352.352,0,0,0,0-.039l0-.015a.224.224,0,0,0-.023-.068.055.055,0,0,0-.008-.014.069.069,0,0,0-.015-.019L347.459,32a.112.112,0,0,0-.023-.018l-.018-.008-.022-.006a.086.086,0,0,0-.023,0,.244.244,0,0,0-.136.038L330.1,41.9a.52.52,0,0,0-.134.118.778.778,0,0,0-.066.094.863.863,0,0,0-.049.1.309.309,0,0,0-.012.036.523.523,0,0,0-.021.106.194.194,0,0,0,0,.035V53.23C329.816,53.354,329.876,53.428,329.964,53.431Z" transform="translate(-329.815 -31.965)" fill="#455a64"/></g><g transform="translate(0.084)"><path d="M347.18,31.9a.636.636,0,0,0-.281-.453l-.326-.188a.624.624,0,0,0-.568,0l-17.137,9.893a.532.532,0,0,0-.159.149.585.585,0,0,0-.042.063h0l.894.516h0a.829.829,0,0,1,.066-.094.513.513,0,0,1,.135-.118L346.9,31.775C347.043,31.691,347.163,31.747,347.18,31.9Z" transform="translate(-328.666 -31.19)" fill="#37474f"/></g><path d="M330.6,54.113a1.14,1.14,0,0,0,.507-.878.4.4,0,0,0-.044-.2c-.091-.158-.277-.073-.354-.03a1.145,1.145,0,0,0-.507.878.426.426,0,0,0,.044.2C330.341,54.242,330.528,54.156,330.6,54.113Z" transform="translate(-329.036 -37.607)" fill="#27debf"/><g transform="translate(17.427 6.014)"><path d="M353.9,40.36c0,.089.063.125.139.08a.307.307,0,0,0,.139-.24c0-.089-.062-.125-.139-.08A.308.308,0,0,0,353.9,40.36Z" transform="translate(-353.452 -39.833)" fill="#263238"/><path d="M353.273,42.961c0,.079.055.111.123.071a.273.273,0,0,0,.123-.214c0-.078-.055-.11-.123-.07A.27.27,0,0,0,353.273,42.961Z" transform="translate(-353.268 -40.609)" fill="#263238"/><path d="M353.266,39.97v1.593c0,.087.057.125.128.084a.294.294,0,0,0,.128-.232V39.821c0-.087-.058-.125-.128-.084A.293.293,0,0,0,353.266,39.97Z" transform="translate(-353.266 -39.721)" fill="#263238"/></g><g transform="translate(0 10.175)"><path d="M329.684,57.443c-.137.056-.243-.02-.243-.184V46.419a.581.581,0,0,1,.084-.28l-.894-.516a.572.572,0,0,0-.082.28V56.742a.628.628,0,0,0,.285.492l.325.189A.637.637,0,0,0,329.684,57.443Z" transform="translate(-328.547 -45.623)" fill="#263238"/></g><g transform="translate(13.718 1.337)"><path d="M348.345,34.5a.315.315,0,0,1-.285.006.091.091,0,0,1-.054-.078c0-.02,0-.1,0-.118a.108.108,0,0,1,.063-.086l1.911-1.1a.317.317,0,0,1,.285,0,.092.092,0,0,1,.054.074c0,.021,0,.1,0,.123a.108.108,0,0,1-.063.086Z" transform="translate(-348.006 -33.086)" fill="#263238"/><path d="M348.345,34.385l1.91-1.1c.081-.047.085-.121.009-.164a.317.317,0,0,0-.285,0l-1.91,1.1c-.081.047-.085.121-.009.164A.317.317,0,0,0,348.345,34.385Z" transform="translate(-348.006 -33.086)" fill="#455a64"/></g><g transform="translate(2.274 2.215)"><path d="M331.772,52.3v-.621l0-8.666a.472.472,0,0,1,.188-.384c.017-.013.035-.025.054-.036l13.592-7.848.657-.379a.258.258,0,0,1,.073-.03c.1-.021.17.044.171.17v9.285a.493.493,0,0,1-.078.3.316.316,0,0,1-.054.053.251.251,0,0,1-.035.024l-14.328,8.272A.163.163,0,0,1,331.772,52.3Z" transform="translate(-331.772 -34.331)" fill="#27debf"/><path d="M331.772,52.3v-.621l0-8.666a.472.472,0,0,1,.188-.384c.017-.013.035-.025.054-.036l13.592-7.848.657-.379a.258.258,0,0,1,.073-.03c.1-.021.17.044.171.17v9.285a.493.493,0,0,1-.078.3.316.316,0,0,1-.054.053.251.251,0,0,1-.035.024l-14.328,8.272A.163.163,0,0,1,331.772,52.3Z" transform="translate(-331.772 -34.331)" fill="#fff" opacity="0.8"/><path d="M339.485,49.744V43.024a.345.345,0,0,1,.136-.277.3.3,0,0,1,.039-.026l3.033-1.75.476-.275a.185.185,0,0,1,.052-.021c.072-.016.123.032.124.123v6.719a.355.355,0,0,1-.056.217.2.2,0,0,1-.039.039l-.025.018-3.566,2.056A.118.118,0,0,1,339.485,49.744Z" transform="translate(-334.047 -36.202)" fill="#27debf" opacity="0.8"/><path d="M340.771,45.791l.469-1-1.414-2.1.113-.065,1.42,1.911,1.759-3.745.155-.089-2.057,4.916,2.113,2.178-.067.038-1.721-1.414-1.609,3.335-.106.061,1.531-3.547Z" transform="translate(-334.148 -36.212)" opacity="0.15"/></g><path d="M345.29,59.425a2.9,2.9,0,0,1,.816-1.878c1.392-1.5,1.394-2.7,2.288-4.358.7-1.29,1.461-1.772,1.243-2.063a1.668,1.668,0,0,0-2.26-.167,8.539,8.539,0,0,0-1.712,1.643" transform="translate(-333.486 -36.919)" fill="#ffa8a7"/></g></g></svg>